<?xml version="1.0" encoding="UTF-8" standalone="no"?>
<!-- Created with Inkscape (http://www.inkscape.org/) -->

<svg
   width="1100"
   height="800"
   viewBox="0 0 291.04167 211.66666"
   version="1.1"
   id="svg5"
   inkscape:version="1.1 (c4e8f9e, 2021-05-24)"
   sodipodi:docname="banner.svg"
   xmlns:inkscape="http://www.inkscape.org/namespaces/inkscape"
   xmlns:sodipodi="http://sodipodi.sourceforge.net/DTD/sodipodi-0.dtd"
   xmlns:xlink="http://www.w3.org/1999/xlink"
   xmlns="http://www.w3.org/2000/svg"
   xmlns:svg="http://www.w3.org/2000/svg">
  <sodipodi:namedview
     id="namedview7"
     pagecolor="#505050"
     bordercolor="#ffffff"
     borderopacity="1"
     inkscape:pageshadow="0"
     inkscape:pageopacity="0"
     inkscape:pagecheckerboard="1"
     inkscape:document-units="px"
     showgrid="false"
     units="px"
     inkscape:snap-page="true"
     inkscape:snap-global="false"
     inkscape:zoom="1.3455041"
     inkscape:cx="580.45161"
     inkscape:cy="405.42427"
     inkscape:window-width="1440"
     inkscape:window-height="789"
     inkscape:window-x="0"
     inkscape:window-y="25"
     inkscape:window-maximized="0"
     inkscape:current-layer="layer1" />
  <defs
     id="defs2">
    <linearGradient
       id="linearGradient2013">
      <stop
         style="stop-color:#ff8a05;stop-opacity:1"
         offset="0"
         id="stop2007" />
      <stop
         style="stop-color:#ff05e4;stop-opacity:1"
         offset="0.59275544"
         id="stop2009" />
      <stop
         style="stop-color:#9300ff;stop-opacity:1"
         offset="1"
         id="stop2011" />
    </linearGradient>
    <linearGradient
       id="linearGradient1820">
      <stop
         style="stop-color:#ff8900;stop-opacity:1"
         offset="0"
         id="stop1816" />
      <stop
         style="stop-color:#ff477e;stop-opacity:1"
         offset="0.47171944"
         id="stop1824" />
      <stop
         style="stop-color:#ce00ff;stop-opacity:1"
         offset="1"
         id="stop1818" />
    </linearGradient>
    <linearGradient
       xlink:href="#linearGradient1820"
       id="linearGradient1822"
       x1="123.6694"
       y1="-3.6604049"
       x2="8.6280975"
       y2="122.88503"
       gradientUnits="userSpaceOnUse"
       gradientTransform="matrix(0.37666595,0,0,0.37666595,120.36772,80.320383)" />
    <filter
       inkscape:collect="always"
       style="color-interpolation-filters:sRGB"
       id="filter1873"
       x="-0.12917276"
       y="-0.12734903"
       width="1.2583455"
       height="1.2546981">
      <feGaussianBlur
         inkscape:collect="always"
         stdDeviation="2.7075822"
         id="feGaussianBlur1875" />
    </filter>
    <radialGradient
       inkscape:collect="always"
       xlink:href="#linearGradient2013"
       id="radialGradient3299"
       gradientUnits="userSpaceOnUse"
       gradientTransform="matrix(-1.3226779,-0.00717701,0.0030288,-0.55818919,422.42996,126.67428)"
       cx="181.955"
       cy="63.688286"
       fx="181.955"
       fy="63.688286"
       r="38.65543" />
    <radialGradient
       inkscape:collect="always"
       xlink:href="#linearGradient2013"
       id="radialGradient3301"
       gradientUnits="userSpaceOnUse"
       gradientTransform="matrix(-1.3226779,-0.00717701,0.0030288,-0.55818919,422.42996,126.67428)"
       cx="181.955"
       cy="63.688286"
       fx="181.955"
       fy="63.688286"
       r="38.65543" />
    <radialGradient
       inkscape:collect="always"
       xlink:href="#linearGradient2013"
       id="radialGradient3303"
       gradientUnits="userSpaceOnUse"
       gradientTransform="matrix(-1.3226779,-0.00717701,0.0030288,-0.55818919,422.42996,126.67428)"
       cx="181.955"
       cy="63.688286"
       fx="181.955"
       fy="63.688286"
       r="38.65543" />
    <radialGradient
       inkscape:collect="always"
       xlink:href="#linearGradient2013"
       id="radialGradient3305"
       gradientUnits="userSpaceOnUse"
       gradientTransform="matrix(-1.3226779,-0.00717701,0.0030288,-0.55818919,422.42996,126.67428)"
       cx="181.955"
       cy="63.688286"
       fx="181.955"
       fy="63.688286"
       r="38.65543" />
    <radialGradient
       inkscape:collect="always"
       xlink:href="#linearGradient2013"
       id="radialGradient3307"
       gradientUnits="userSpaceOnUse"
       gradientTransform="matrix(-1.3226779,-0.00717701,0.0030288,-0.55818919,422.42996,126.67428)"
       cx="181.955"
       cy="63.688286"
       fx="181.955"
       fy="63.688286"
       r="38.65543" />
    <radialGradient
       inkscape:collect="always"
       xlink:href="#linearGradient2013"
       id="radialGradient3309"
       gradientUnits="userSpaceOnUse"
       gradientTransform="matrix(-1.3226779,-0.00717701,0.0030288,-0.55818919,422.42996,126.67428)"
       cx="181.955"
       cy="63.688286"
       fx="181.955"
       fy="63.688286"
       r="38.65543" />
  </defs>
  <g
     inkscape:groupmode="layer"
     id="layer3"
     inkscape:label="bg"
     sodipodi:insensitive="true">
    <rect
       style="fill:#fafafa;fill-opacity:1;stroke:none;stroke-width:1.32292;stroke-linecap:round;stroke-linejoin:round"
       id="rect1149"
       width="291.04166"
       height="211.66666"
       x="0"
       y="0"
       ry="0" />
  </g>
  <g
     inkscape:groupmode="layer"
     id="layer2"
     inkscape:label="shadow"
     style="opacity:0.657051;filter:url(#filter1873)"
     sodipodi:insensitive="true">
    <text
       xml:space="preserve"
       style="font-style:normal;font-weight:normal;font-size:10.5833px;line-height:1.25;font-family:sans-serif;fill:#000000;fill-opacity:1;stroke:none;stroke-width:0.264583"
       x="68.152481"
       y="101.68784"
       id="text4701"><tspan
         sodipodi:role="line"
         id="tspan4699"
         style="stroke-width:0.264583"
         x="68.152481"
         y="101.68784" /></text>
  </g>
  <g
     inkscape:label="content"
     inkscape:groupmode="layer"
     id="layer1">
    <g
       id="g26282">
      <path
         d="m 79.089312,90.513783 q 2.8956,0 5.0038,1.0922 2.1336,1.0668 3.251199,3.0734 1.143,2.0066 1.143,4.7244 0,2.717797 -1.143,4.724397 -1.117599,1.9812 -3.251199,3.048 -2.1082,1.0414 -5.0038,1.0414 h -5.5118 V 90.513783 Z m 0,15.798797 q 3.429,0 5.2324,-1.8034 1.8034,-1.8288 1.8034,-5.105397 0,-3.302 -1.8288,-5.1562 -1.8034,-1.8542 -5.207,-1.8542 h -3.2004 v 13.919197 z"
         style="font-size:25.4px;line-height:1.25;font-family:Poppins;-inkscape-font-specification:Poppins;stroke-width:0.264583"
         id="path23070" />
      <path
         d="m 104.2361,100.72458 q 0,0.6604 -0.0762,1.397 H 93.034705 q 0.127,2.0574 1.397,3.2258 1.2954,1.143 3.1242,1.143 1.4986,0 2.489195,-0.6858 1.016,-0.7112 1.4224,-1.8796 h 2.4892 q -0.5588,2.0066 -2.2352,3.2766 -1.6764,1.2446 -4.165595,1.2446 -1.9812,0 -3.556,-0.889 -1.5494,-0.889 -2.4384,-2.5146 -0.889,-1.651 -0.889,-3.81 0,-2.158997 0.8636,-3.784597 0.8636,-1.6256 2.413,-2.4892 1.5748,-0.889 3.6068,-0.889 1.9812,0 3.505195,0.8636 1.524,0.8636 2.3368,2.3876 0.8382,1.4986 0.8382,3.403597 z m -2.3876,-0.4826 q 0,-1.320797 -0.5842,-2.260597 -0.5842,-0.9652 -1.600195,-1.4478 -0.9906,-0.508 -2.2098,-0.508 -1.7526,0 -2.9972,1.1176 -1.2192,1.1176 -1.397,3.098797 z"
         style="font-size:25.4px;line-height:1.25;font-family:Poppins;-inkscape-font-specification:Poppins;stroke-width:0.264583"
         id="path23072" />
      <path
         d="m 119.96228,100.72458 q 0,0.6604 -0.0762,1.397 h -11.1252 q 0.127,2.0574 1.397,3.2258 1.2954,1.143 3.1242,1.143 1.4986,0 2.4892,-0.6858 1.016,-0.7112 1.4224,-1.8796 h 2.4892 q -0.5588,2.0066 -2.2352,3.2766 -1.6764,1.2446 -4.1656,1.2446 -1.9812,0 -3.556,-0.889 -1.5494,-0.889 -2.4384,-2.5146 -0.889,-1.651 -0.889,-3.81 0,-2.158997 0.8636,-3.784597 0.8636,-1.6256 2.413,-2.4892 1.5748,-0.889 3.6068,-0.889 1.9812,0 3.5052,0.8636 1.524,0.8636 2.3368,2.3876 0.8382,1.4986 0.8382,3.403597 z m -2.3876,-0.4826 q 0,-1.320797 -0.5842,-2.260597 -0.5842,-0.9652 -1.6002,-1.4478 -0.9906,-0.508 -2.2098,-0.508 -1.7526,0 -2.9972,1.1176 -1.2192,1.1176 -1.397,3.098797 z"
         style="font-size:25.4px;line-height:1.25;font-family:Poppins;-inkscape-font-specification:Poppins;stroke-width:0.264583"
         id="path23074" />
      <path
         d="m 125.29985,96.863783 q 0.6858,-1.1938 2.032,-1.9812 1.3716,-0.8128 3.175,-0.8128 1.8542,0 3.3528,0.889 1.524,0.889 2.3876,2.5146 0.8636,1.6002 0.8636,3.733797 0,2.1082 -0.8636,3.7592 -0.8636,1.651 -2.3876,2.5654 -1.4986,0.9144 -3.3528,0.9144 -1.778,0 -3.1496,-0.7874 -1.3462,-0.8128 -2.0574,-2.0066 v 9.1694 h -2.3114 V 94.298383 h 2.3114 z m 9.4488,4.343397 q 0,-1.574797 -0.635,-2.743197 -0.635,-1.1684 -1.7272,-1.778 -1.0668,-0.6096 -2.3622,-0.6096 -1.27,0 -2.3622,0.635 -1.0668,0.6096 -1.7272,1.8034 -0.635,1.1684 -0.635,2.717797 0,1.5748 0.635,2.7686 0.6604,1.1684 1.7272,1.8034 1.0922,0.6096 2.3622,0.6096 1.2954,0 2.3622,-0.6096 1.0922,-0.635 1.7272,-1.8034 0.635,-1.1938 0.635,-2.794 z"
         style="font-size:25.4px;line-height:1.25;font-family:Poppins;-inkscape-font-specification:Poppins;stroke-width:0.264583"
         id="path23076" />
    </g>
    <path
       d="m 150.16089,90.513783 v 1.8796 h -7.6962 v 5.969 h 6.2484 v 1.879597 h -6.2484 v 7.9756 h -2.3114 V 90.513783 Z"
       style="font-size:25.4px;line-height:1.25;font-family:Poppins;-inkscape-font-specification:Poppins;fill:url(#radialGradient3299);fill-opacity:1;stroke-width:0.264583"
       id="path23078" />
    <path
       style="color:#000000;font-style:normal;font-variant:normal;font-weight:normal;font-stretch:normal;font-size:medium;line-height:normal;font-family:sans-serif;font-variant-ligatures:normal;font-variant-position:normal;font-variant-caps:normal;font-variant-numeric:normal;font-variant-alternates:normal;font-variant-east-asian:normal;font-feature-settings:normal;font-variation-settings:normal;text-indent:0;text-align:start;text-decoration:none;text-decoration-line:none;text-decoration-style:solid;text-decoration-color:#000000;letter-spacing:normal;word-spacing:normal;text-transform:none;writing-mode:lr-tb;direction:ltr;text-orientation:mixed;dominant-baseline:auto;baseline-shift:baseline;text-anchor:start;white-space:normal;shape-padding:0;shape-margin:0;inline-size:0;clip-rule:nonzero;display:inline;overflow:visible;visibility:visible;opacity:0.657051;isolation:auto;mix-blend-mode:normal;color-interpolation:sRGB;color-interpolation-filters:linearRGB;solid-color:#000000;solid-opacity:1;fill:#000000;fill-opacity:1;fill-rule:nonzero;stroke:none;stroke-width:0.5;stroke-linecap:square;stroke-linejoin:round;stroke-miterlimit:4;stroke-dasharray:none;stroke-dashoffset:0;stroke-opacity:1;filter:url(#filter1873);color-rendering:auto;image-rendering:auto;shape-rendering:auto;text-rendering:auto;enable-background:accumulate;stop-color:#000000"
       d="m 140.00072,84.026549 c -4.7375,0 -8.58975,3.85225 -8.58975,8.58975 0,2.40367 0.99744,4.57294 2.59326,6.13333 h -4.7944 l 0.0419,7.5e-4 c -0.16136,-0.006 -0.33501,-0.009 -0.52012,-0.004 h -7.5e-4 c -0.162,0.004 -0.23583,0.017 -0.22071,0.0162 -0.0856,0.005 -0.13902,0.01 -0.1589,0.011 -0.007,1.9e-4 -0.0132,4.5e-4 -0.0199,7.6e-4 -0.0522,0.004 -0.12606,0.008 -0.22218,0.0177 -0.002,-1e-5 -0.004,-1e-5 -0.006,0 -0.12029,0.0124 -0.23144,0.0275 -0.33253,0.0419 -0.11898,0.0163 -0.24103,0.0353 -0.36637,0.0581 0.12717,-0.0233 0.13335,-0.0284 -0.0427,0.005 l -7.5e-4,7.5e-4 c 0.0481,-0.009 0.0323,-0.008 -0.0478,0.008 -3.40263,0.656024 -6.08226,3.309561 -6.77263,6.700561 -0.0472,0.23172 -0.0712,0.43337 -0.0934,0.60325 -0.003,0.0234 -0.005,0.038 -0.004,0.0331 -0.003,0.0183 -0.006,0.0367 -0.008,0.0552 -0.0101,0.0838 -0.023,0.1853 -0.0331,0.30531 v 7.5e-4 c -0.003,0.0307 -0.003,0.0472 -0.004,0.0508 -2.5e-4,9.8e-4 -4.9e-4,0.002 -7.5e-4,0.003 -0.0116,0.14823 -0.0167,0.28792 -0.0206,0.41854 -0.002,0.0483 -0.008,0.13579 -0.008,0.26337 0,0.22095 0.0112,0.42839 0.025,0.62238 0,10e-4 0,0.003 0,0.004 0.001,0.014 0.004,0.0806 0.0118,0.1692 0.002,0.0201 -0.002,-0.008 7.5e-4,0.0191 h 7.5e-4 c 2.4e-4,0.003 -2.4e-4,0.002 0,0.004 0.0125,0.11504 0.0413,0.22774 0.0853,0.33474 0.16437,1.22074 0.54135,2.37918 1.16458,3.38337 0.36981,0.61263 3.13455,5.39726 5.75666,9.94633 2.62542,4.55482 5.14605,8.93625 5.14605,8.93625 l 7.5e-4,0.002 c 2.36898,4.10319 7.63293,5.51069 11.7355,3.14207 4.10234,-2.36849 5.51377,-7.62902 3.14502,-11.73182 l -3.60263,-6.24152 h 7.20448 c 4.7375,0 8.58975,-3.85224 8.58975,-8.58975 0,-2.40365 -0.99745,-4.57295 -2.59326,-6.13335 h 5.046 c 4.7375,0 8.58975,-3.852251 8.58975,-8.589751 0,-4.7375 -3.85225,-8.58975 -8.58975,-8.58975 z m 0,2.45642 h 22.08425 c 3.41898,0 6.13259,2.71435 6.13259,6.13333 0,3.41898 -2.71361,6.13333 -6.13259,6.13333 h -11.04249 c -1.88193,0 -2.12634,2.407541 0,2.456421 3.41871,0.0426 6.13332,2.71437 6.13332,6.13335 0,3.41898 -2.71434,6.13259 -6.13332,6.13259 h -9.33131 c -0.94576,2e-5 -1.53679,1.02389 -1.06379,1.84287 l 4.66565,8.0836 c 1.70949,2.96091 0.71536,6.66665 -2.24601,8.3764 -2.96066,1.70934 -6.66898,0.71781 -8.37861,-2.2416 l -7.6e-4,-0.002 c -7.5e-4,-0.001 -2.52039,-4.38103 -5.14605,-8.93625 -2.62606,-4.55591 -5.31285,-9.21285 -5.78975,-10.00221 -0.003,-0.004 -0.005,-0.008 -0.008,-0.0125 -0.49785,-0.80217 -0.81293,-1.73075 -0.89384,-2.73598 -0.002,-0.0179 -0.004,-0.0359 -0.006,-0.0537 -2.5e-4,-0.001 -4.9e-4,-0.003 -7.6e-4,-0.004 -0.0114,-0.15961 -0.0184,-0.30874 -0.0184,-0.44803 0,-0.0232 0.003,-0.0853 0.007,-0.18833 v -0.001 c 0.003,-0.11058 0.008,-0.21052 0.0155,-0.30016 l -7.1e-4,0.002 c 0.002,-0.0276 0.004,-0.0416 0.004,-0.0419 0.005,-0.0559 0.0135,-0.12846 0.0243,-0.21849 0.003,-0.0202 0.007,-0.0488 0.008,-0.0596 2.4e-4,-0.001 4.9e-4,-0.002 7.1e-4,-0.004 0.0233,-0.1785 0.0427,-0.32348 0.0647,-0.43184 0.49287,-2.42089 2.40212,-4.31154 4.83339,-4.77897 0.001,-2.5e-4 0.003,-5e-4 0.004,-7.6e-4 -0.0515,0.0101 -0.0386,0.008 0.0382,-0.007 l -10e-4,7.6e-4 c -0.16703,0.0319 -0.16045,0.031 0.0199,-0.002 l 0.002,-7.5e-4 c 0.084,-0.0153 0.17261,-0.0284 0.26631,-0.0412 0.002,-4.9e-4 0.005,-9.8e-4 0.007,-0.002 0.0881,-0.0126 0.16695,-0.023 0.23615,-0.0302 0.027,-0.002 0.0744,-0.005 0.13316,-0.01 l 0.0191,-0.001 c 0.0676,-0.004 0.11982,-0.009 0.1361,-0.01 h 0.002 c 0.13995,-0.008 0.1915,-0.0135 0.15302,-0.0125 0.11233,-0.003 0.23643,-0.002 0.37151,0.003 0.0137,4.9e-4 0.0275,7.2e-4 0.0412,7.6e-4 h 10.79089 c 1.60389,-0.0334 1.60389,-2.423051 0,-2.456431 -3.41897,0 -6.13332,-2.71434 -6.13332,-6.13332 0,-3.41898 2.71435,-6.13333 6.13332,-6.13333 z"
       id="path1814-0" />
    <path
       d="m 140.99305,119.71456 q 1.07784,0 1.74611,0.65749 0.66827,0.6467 0.66827,1.87545 v 3.48144 h -0.97007 v -3.34132 q 0,-0.88384 -0.44192,-1.34731 -0.44191,-0.47424 -1.20719,-0.47424 -0.77604,0 -1.23952,0.48502 -0.45269,0.48503 -0.45269,1.41198 v 3.26587 h -0.98084 v -5.90659 h 0.98084 v 0.84072 q 0.29102,-0.4527 0.78682,-0.7006 0.50659,-0.24791 1.11019,-0.24791 z"
       style="font-size:9.87778px;line-height:1.25;font-family:Poppins;-inkscape-font-specification:Poppins;stroke-width:0.288709"
       id="path23043" />
    <path
       d="m 146.03333,124.37086 -1.20719,2.89941 h -0.65748 l 0.78682,-2.89941 z"
       style="font-size:9.87778px;line-height:1.25;font-family:Poppins;-inkscape-font-specification:Poppins;stroke-width:0.288709"
       id="path23045" />
    <path
       d="m 88.929832,118.21635 v 7.51259 h -0.980841 v -7.51259 z"
       style="font-size:9.87778px;line-height:1.25;font-family:Poppins;-inkscape-font-specification:Poppins;stroke-width:0.288709"
       id="path23025" />
    <path
       d="m 93.479357,119.71456 q 1.077847,0 1.746112,0.65749 0.668268,0.6467 0.668268,1.87545 v 3.48144 h -0.970066 v -3.34132 q 0,-0.88384 -0.441917,-1.34731 -0.441917,-0.47424 -1.207188,-0.47424 -0.77605,0 -1.239525,0.48502 -0.452696,0.48503 -0.452696,1.41198 v 3.26587 h -0.980841 v -5.90659 h 0.980841 v 0.84072 q 0.291019,-0.4527 0.786828,-0.7006 0.506589,-0.24791 1.110184,-0.24791 z"
       style="font-size:9.87778px;line-height:1.25;font-family:Poppins;-inkscape-font-specification:Poppins;stroke-width:0.288709"
       id="path23027" />
    <path
       d="m 100.38432,119.71456 q 1.07785,0 1.74611,0.65749 0.66826,0.6467 0.66826,1.87545 v 3.48144 h -0.97006 v -3.34132 q 0,-0.88384 -0.44192,-1.34731 -0.44192,-0.47424 -1.20719,-0.47424 -0.776046,0 -1.239515,0.48502 -0.452699,0.48503 -0.452699,1.41198 v 3.26587 h -0.980844 v -5.90659 h 0.980844 v 0.84072 q 0.291018,-0.4527 0.78683,-0.7006 0.506581,-0.24791 1.110184,-0.24791 z"
       style="font-size:9.87778px;line-height:1.25;font-family:Poppins;-inkscape-font-specification:Poppins;stroke-width:0.288709"
       id="path23029" />
    <path
       d="m 106.98747,125.82595 q -0.82994,0 -1.50899,-0.37725 -0.66826,-0.37724 -1.05628,-1.06706 -0.37725,-0.7006 -0.37725,-1.61678 0,-0.90538 0.38803,-1.59521 0.3988,-0.70059 1.07785,-1.06707 0.67904,-0.37724 1.51975,-0.37724 0.84073,0 1.51978,0.37724 0.67904,0.36648 1.06706,1.0563 0.3988,0.68982 0.3988,1.60598 0,0.91618 -0.40958,1.61678 -0.39879,0.68982 -1.08862,1.06706 -0.68982,0.37725 -1.53055,0.37725 z m 0,-0.86228 q 0.52815,0 0.99162,-0.2479 0.46348,-0.24791 0.74372,-0.74371 0.29102,-0.49581 0.29102,-1.2072 0,-0.71137 -0.28025,-1.20719 -0.28023,-0.49579 -0.73293,-0.73293 -0.45269,-0.2479 -0.98084,-0.2479 -0.53892,0 -0.99162,0.2479 -0.44192,0.23714 -0.71137,0.73293 -0.26947,0.49582 -0.26947,1.20719 0,0.72217 0.25868,1.21797 0.26946,0.49582 0.71138,0.74372 0.44192,0.23712 0.97006,0.23712 z"
       style="font-size:9.87778px;line-height:1.25;font-family:Poppins;-inkscape-font-specification:Poppins;stroke-width:0.288709"
       id="path23031" />
    <path
       d="m 151.59232,125.82595 q -0.67905,0 -1.21798,-0.22634 -0.53891,-0.23713 -0.8515,-0.64672 -0.31257,-0.42035 -0.34491,-0.95928 h 1.01318 q 0.0431,0.44192 0.40959,0.72216 0.37723,0.28024 0.98083,0.28024 0.56048,0 0.88384,-0.24789 0.32335,-0.24791 0.32335,-0.62517 0,-0.38802 -0.34491,-0.57125 -0.34491,-0.19402 -1.06707,-0.37725 -0.65748,-0.17245 -1.07785,-0.34491 -0.40957,-0.18324 -0.71137,-0.52815 -0.29102,-0.35568 -0.29102,-0.92695 0,-0.45269 0.26946,-0.82994 0.26947,-0.37725 0.76528,-0.59282 0.4958,-0.22634 1.13173,-0.22634 0.98084,0 1.58444,0.49581 0.60359,0.49581 0.6467,1.35809 h -0.98083 q -0.0323,-0.46349 -0.37726,-0.74372 -0.33413,-0.28024 -0.90538,-0.28024 -0.52815,0 -0.84073,0.22634 -0.31257,0.22636 -0.31257,0.59282 0,0.29102 0.18323,0.48504 0.19402,0.18323 0.47426,0.3018 0.29101,0.1078 0.7976,0.2479 0.63594,0.17245 1.03473,0.34491 0.39881,0.16167 0.67904,0.4958 0.29102,0.33414 0.30181,0.87306 0,0.48503 -0.26946,0.87306 -0.26947,0.38802 -0.76527,0.61438 -0.48504,0.21556 -1.12096,0.21556 z"
       style="font-size:9.87778px;line-height:1.25;font-family:Poppins;-inkscape-font-specification:Poppins;stroke-width:0.288709"
       id="path23047" />
    <path
       d="m 155.62868,118.86307 q -0.28024,0 -0.47425,-0.19402 -0.19402,-0.19401 -0.19402,-0.47424 0,-0.28026 0.19402,-0.47427 0.19401,-0.19401 0.47425,-0.19401 0.26946,0 0.4527,0.19401 0.19401,0.19401 0.19401,0.47427 0,0.28023 -0.19401,0.47424 -0.18324,0.19402 -0.4527,0.19402 z m 0.47425,0.95928 v 5.90659 h -0.98083 v -5.90659 z"
       style="font-size:9.87778px;line-height:1.25;font-family:Poppins;-inkscape-font-specification:Poppins;stroke-width:0.288709"
       id="path23049" />
    <path
       d="m 164.87762,119.71456 q 0.68981,0 1.22873,0.29101 0.53893,0.28024 0.85151,0.85151 0.31257,0.57126 0.31257,1.39042 v 3.48144 h -0.97006 v -3.34132 q 0,-0.88384 -0.44192,-1.34731 -0.43114,-0.47424 -1.17484,-0.47424 -0.76528,0 -1.21798,0.49581 -0.4527,0.48502 -0.4527,1.41196 v 3.2551 h -0.97005 v -3.34132 q 0,-0.88384 -0.44192,-1.34731 -0.43114,-0.47424 -1.17486,-0.47424 -0.76527,0 -1.21797,0.49581 -0.45269,0.48502 -0.45269,1.41196 v 3.2551 h -0.98084 v -5.90659 h 0.98084 v 0.85149 q 0.29102,-0.46347 0.77605,-0.71137 0.49581,-0.24791 1.08863,-0.24791 0.74371,0 1.31497,0.33413 0.57126,0.33413 0.8515,0.98084 0.24791,-0.62514 0.81916,-0.97006 0.57126,-0.34491 1.27187,-0.34491 z"
       style="font-size:9.87778px;line-height:1.25;font-family:Poppins;-inkscape-font-specification:Poppins;stroke-width:0.288709"
       id="path23051" />
    <path
       d="m 169.84969,120.91098 q 0.29102,-0.50659 0.86228,-0.84072 0.58203,-0.34492 1.3473,-0.34492 0.78683,0 1.42276,0.37724 0.64671,0.37725 1.01318,1.06707 0.36646,0.67905 0.36646,1.58444 0,0.89461 -0.36646,1.59521 -0.36647,0.7006 -1.01318,1.08863 -0.63593,0.38802 -1.42276,0.38802 -0.75448,0 -1.33652,-0.33413 -0.57127,-0.34491 -0.87306,-0.85149 v 3.89102 h -0.98084 v -8.709 h 0.98084 z m 4.00959,1.84311 q 0,-0.66827 -0.26946,-1.16407 -0.26947,-0.49581 -0.73293,-0.7545 -0.45271,-0.25868 -1.00241,-0.25868 -0.53892,0 -1.0024,0.26946 -0.45269,0.25868 -0.73293,0.76527 -0.26946,0.49582 -0.26946,1.15329 0,0.66828 0.26946,1.17486 0.28024,0.49581 0.73293,0.76527 0.46348,0.25868 1.0024,0.25868 0.5497,0 1.00241,-0.25868 0.46346,-0.26946 0.73293,-0.76527 0.26946,-0.50658 0.26946,-1.18563 z"
       style="font-size:9.87778px;line-height:1.25;font-family:Poppins;-inkscape-font-specification:Poppins;stroke-width:0.288709"
       id="path23053" />
    <path
       d="m 177.13359,117.75289 v 7.97605 h -0.98085 v -7.97605 z"
       style="font-size:9.87778px;line-height:1.25;font-family:Poppins;-inkscape-font-specification:Poppins;stroke-width:0.288709"
       id="path23055" />
    <path
       d="m 179.31184,118.86307 q -0.28024,0 -0.47426,-0.19402 -0.19401,-0.19401 -0.19401,-0.47424 0,-0.28026 0.19401,-0.47427 0.19402,-0.19401 0.47426,-0.19401 0.26946,0 0.45269,0.19401 0.19402,0.19401 0.19402,0.47427 0,0.28023 -0.19402,0.47424 -0.18323,0.19402 -0.45269,0.19402 z m 0.47424,0.95928 v 5.90659 h -0.98083 v -5.90659 z"
       style="font-size:9.87778px;line-height:1.25;font-family:Poppins;-inkscape-font-specification:Poppins;stroke-width:0.288709"
       id="path23057" />
    <path
       d="m 183.86136,120.63073 h -1.23952 v 5.09821 H 181.641 v -5.09821 h -0.76527 v -0.80838 h 0.76527 v -0.42037 q 0,-0.99162 0.5066,-1.44431 0.51736,-0.46347 1.64909,-0.46347 v 0.81916 q -0.6467,0 -0.91616,0.25868 -0.25869,0.24791 -0.25869,0.82994 v 0.42037 h 1.23952 z"
       style="font-size:9.87778px;line-height:1.25;font-family:Poppins;-inkscape-font-specification:Poppins;stroke-width:0.288709"
       id="path23059" />
    <path
       d="m 113.51518,124.82356 1.83235,-5.00121 h 1.0455 l -2.31736,5.90659 h -1.14252 l -2.31737,-5.90659 h 1.05629 z"
       style="font-size:9.87778px;line-height:1.25;font-family:Poppins;-inkscape-font-specification:Poppins;stroke-width:0.288709"
       id="path23033" />
    <path
       style="color:#000000;font-style:normal;font-variant:normal;font-weight:normal;font-stretch:normal;font-size:medium;line-height:normal;font-family:sans-serif;font-variant-ligatures:normal;font-variant-position:normal;font-variant-caps:normal;font-variant-numeric:normal;font-variant-alternates:normal;font-variant-east-asian:normal;font-feature-settings:normal;font-variation-settings:normal;text-indent:0;text-align:start;text-decoration:none;text-decoration-line:none;text-decoration-style:solid;text-decoration-color:#000000;letter-spacing:normal;word-spacing:normal;text-transform:none;writing-mode:lr-tb;direction:ltr;text-orientation:mixed;dominant-baseline:auto;baseline-shift:baseline;text-anchor:start;white-space:normal;shape-padding:0;shape-margin:0;inline-size:0;clip-rule:nonzero;display:inline;overflow:visible;visibility:visible;isolation:auto;mix-blend-mode:normal;color-interpolation:sRGB;color-interpolation-filters:linearRGB;solid-color:#000000;solid-opacity:1;vector-effect:none;fill:#ffffff;fill-opacity:1;fill-rule:nonzero;stroke:none;stroke-width:2.45671;stroke-linecap:square;stroke-linejoin:round;stroke-miterlimit:4;stroke-dasharray:none;stroke-dashoffset:0;stroke-opacity:1;color-rendering:auto;image-rendering:auto;shape-rendering:auto;text-rendering:auto;enable-background:accumulate;stop-color:#000000"
       d="m 139.99989,83.4951 c -4.7375,0 -8.58975,3.852248 -8.58975,8.589749 0,2.403666 0.99744,4.572938 2.59326,6.133328 h -4.7944 l 0.0419,7.53e-4 c -0.16136,-0.0055 -0.33501,-0.0094 -0.52012,-0.0044 h -7.5e-4 c -0.162,0.0044 -0.23583,0.01701 -0.22071,0.01618 -0.0856,0.0046 -0.13902,0.0099 -0.1589,0.01104 -0.007,1.92e-4 -0.0132,4.52e-4 -0.0199,7.54e-4 -0.0522,0.0037 -0.12606,0.0082 -0.22218,0.01765 -0.002,-5e-6 -0.004,-5e-6 -0.006,0 -0.12029,0.01236 -0.23144,0.02751 -0.33253,0.04193 -0.11898,0.01633 -0.24103,0.03531 -0.36637,0.05812 0.12717,-0.02335 0.13335,-0.02844 -0.0427,0.0051 l -7.5e-4,7.53e-4 c 0.0481,-0.0092 0.0323,-0.0076 -0.0478,0.0081 -3.40263,0.656021 -6.08226,3.309563 -6.77263,6.700563 -0.0472,0.23172 -0.0712,0.43337 -0.0934,0.60325 -0.003,0.0234 -0.005,0.038 -0.004,0.0331 -0.003,0.0183 -0.006,0.0367 -0.008,0.0552 -0.0101,0.0838 -0.023,0.1853 -0.0331,0.30531 v 7.5e-4 c -0.003,0.0307 -0.003,0.0472 -0.004,0.0508 -2.5e-4,9.8e-4 -4.9e-4,0.002 -7.5e-4,0.003 -0.0116,0.14823 -0.0167,0.28792 -0.0206,0.41854 -0.002,0.0483 -0.008,0.13579 -0.008,0.26337 0,0.22095 0.0112,0.42839 0.025,0.62238 0,0.001 0,0.003 0,0.004 0.001,0.014 0.004,0.0806 0.0118,0.1692 0.002,0.0201 -0.002,-0.008 7.5e-4,0.0191 h 7.5e-4 c 2.4e-4,0.003 -2.4e-4,0.002 0,0.004 0.0125,0.11504 0.0413,0.22774 0.0853,0.33474 0.16437,1.22074 0.54135,2.37918 1.16458,3.38337 0.36981,0.61263 3.13455,5.39726 5.75666,9.94633 2.62542,4.55482 5.14605,8.93625 5.14605,8.93625 l 7.5e-4,0.002 c 2.36898,4.10319 7.63293,5.51069 11.7355,3.14207 4.10234,-2.36849 5.51377,-7.62902 3.14502,-11.73182 l -3.60263,-6.24152 h 7.20448 c 4.7375,0 8.58975,-3.85224 8.58975,-8.58975 0,-2.40365 -0.99745,-4.57295 -2.59326,-6.13335 h 5.046 c 4.7375,0 8.58975,-3.85225 8.58975,-8.589749 0,-4.7375 -3.85225,-8.589749 -8.58975,-8.589749 z m 0,2.456421 h 22.08425 c 3.41898,0 6.13259,2.714348 6.13259,6.133328 0,3.418979 -2.71361,6.133328 -6.13259,6.133328 h -11.04249 c -1.88193,0 -2.12634,2.407543 0,2.456423 3.41871,0.0426 6.13332,2.71437 6.13332,6.13335 0,3.41898 -2.71434,6.13259 -6.13332,6.13259 h -9.33131 c -0.94576,2e-5 -1.53679,1.02389 -1.06379,1.84287 l 4.66565,8.0836 c 1.70949,2.96091 0.71536,6.66665 -2.24601,8.3764 -2.96066,1.70934 -6.66898,0.71781 -8.37861,-2.2416 l -7.6e-4,-0.002 c -7.5e-4,-0.001 -2.52039,-4.38103 -5.14605,-8.93625 -2.62606,-4.55591 -5.31285,-9.21285 -5.78975,-10.00221 -0.003,-0.004 -0.005,-0.008 -0.008,-0.0125 -0.49785,-0.80217 -0.81293,-1.73075 -0.89384,-2.73598 -0.002,-0.0179 -0.004,-0.0359 -0.006,-0.0537 -2.5e-4,-10e-4 -4.9e-4,-0.003 -7.6e-4,-0.004 -0.0114,-0.15961 -0.0184,-0.30874 -0.0184,-0.44803 0,-0.0232 0.003,-0.0853 0.007,-0.18833 v -10e-4 c 0.003,-0.11058 0.008,-0.21052 0.0155,-0.30016 l -7.1e-4,0.002 c 0.002,-0.0276 0.004,-0.0416 0.004,-0.0419 0.005,-0.0559 0.0135,-0.12846 0.0243,-0.21849 0.003,-0.0202 0.007,-0.0488 0.008,-0.0596 2.4e-4,-0.001 4.9e-4,-0.002 7.1e-4,-0.004 0.0233,-0.1785 0.0427,-0.32348 0.0647,-0.43184 0.49287,-2.4209 2.40212,-4.31155 4.83339,-4.77897 10e-4,-2.5e-4 0.003,-4.9e-4 0.004,-7.6e-4 -0.0515,0.0101 -0.0386,0.008 0.0382,-0.007 l -0.001,7.6e-4 c -0.16703,0.0319 -0.16045,0.031 0.0199,-0.002 l 0.002,-7.6e-4 c 0.084,-0.0153 0.17261,-0.0284 0.26631,-0.0412 0.002,-4.9e-4 0.005,-9.8e-4 0.007,-0.001 0.0881,-0.0126 0.16695,-0.023 0.23615,-0.0302 0.027,-0.002 0.0744,-0.005 0.13316,-0.01 l 0.0191,-0.002 c 0.0676,-0.004 0.11982,-0.009 0.1361,-0.01 h 0.002 c 0.13995,-0.008 0.1915,-0.0135 0.15302,-0.0125 0.11233,-0.003 0.23643,-0.002 0.37151,0.003 0.0137,4.9e-4 0.0275,7.2e-4 0.0412,7.6e-4 h 10.79089 c 1.60389,-0.0334 1.60389,-2.423052 0,-2.456428 -3.41897,0 -6.13332,-2.714349 -6.13332,-6.133328 0,-3.418978 2.71435,-6.133328 6.13332,-6.133328 z"
       id="path26869" />
    <path
       d="m 116.99175,122.75409 q 0,-0.90539 0.36646,-1.58444 0.36647,-0.68982 1.00241,-1.06707 0.64671,-0.37724 1.43353,-0.37724 0.77605,0 1.34731,0.33413 0.57126,0.33413 0.8515,0.84073 v -1.07785 h 0.99162 v 5.90659 h -0.99162 v -1.0994 q -0.29102,0.51737 -0.87306,0.86228 -0.57126,0.33413 -1.33652,0.33413 -0.78684,0 -1.42276,-0.38802 -0.63594,-0.38803 -1.00241,-1.08863 -0.36646,-0.7006 -0.36646,-1.59521 z m 5.00121,0.0109 q 0,-0.66827 -0.26946,-1.16408 -0.26946,-0.4958 -0.73293,-0.75449 -0.45271,-0.26947 -1.00241,-0.26947 -0.5497,0 -1.00239,0.25869 -0.4527,0.25869 -0.72216,0.7545 -0.26947,0.4958 -0.26947,1.16408 0,0.67904 0.26947,1.18562 0.26946,0.49581 0.72216,0.76527 0.45269,0.25869 1.00239,0.25869 0.5497,0 1.00241,-0.25869 0.46347,-0.26946 0.73293,-0.76527 0.26946,-0.50658 0.26946,-1.17485 z"
       style="font-size:9.87778px;line-height:1.25;font-family:Poppins;-inkscape-font-specification:Poppins;stroke-width:0.288709"
       id="path23035" />
    <path
       d="m 125.83852,120.63073 v 3.48145 q 0,0.43114 0.18323,0.61437 0.18323,0.17245 0.63593,0.17245 h 0.72216 v 0.82994 H 126.496 q -0.81916,0 -1.22875,-0.37724 -0.40957,-0.37724 -0.40957,-1.23952 v -3.48145 h -0.76527 v -0.80838 h 0.76527 v -1.48743 h 0.98084 v 1.48743 h 1.54132 v 0.80838 z"
       style="font-size:9.87778px;line-height:1.25;font-family:Poppins;-inkscape-font-specification:Poppins;stroke-width:0.288709"
       id="path23037" />
    <path
       d="m 129.06431,118.86307 q -0.28024,0 -0.47426,-0.19402 -0.194,-0.19401 -0.194,-0.47424 0,-0.28026 0.194,-0.47427 0.19402,-0.19401 0.47426,-0.19401 0.26947,0 0.4527,0.19401 0.19401,0.19401 0.19401,0.47427 0,0.28023 -0.19401,0.47424 -0.18323,0.19402 -0.4527,0.19402 z m 0.47425,0.95928 v 5.90659 h -0.98083 v -5.90659 z"
       style="font-size:9.87778px;line-height:1.25;font-family:Poppins;-inkscape-font-specification:Poppins;stroke-width:0.288709"
       id="path23039" />
    <path
       d="m 133.78629,125.82595 q -0.82993,0 -1.50898,-0.37725 -0.66827,-0.37724 -1.0563,-1.06706 -0.37725,-0.7006 -0.37725,-1.61678 0,-0.90538 0.38803,-1.59521 0.39881,-0.70059 1.07785,-1.06707 0.67904,-0.37724 1.51977,-0.37724 0.84071,0 1.51976,0.37724 0.67904,0.36648 1.06706,1.0563 0.39881,0.68982 0.39881,1.60598 0,0.91618 -0.40958,1.61678 -0.3988,0.68982 -1.08863,1.06706 -0.68982,0.37725 -1.53054,0.37725 z m 0,-0.86228 q 0.52815,0 0.99162,-0.2479 0.46348,-0.24791 0.74371,-0.74371 0.29103,-0.49581 0.29103,-1.2072 0,-0.71137 -0.28025,-1.20719 -0.28024,-0.49579 -0.73293,-0.73293 -0.4527,-0.2479 -0.98084,-0.2479 -0.53893,0 -0.99163,0.2479 -0.44192,0.23714 -0.71137,0.73293 -0.26947,0.49582 -0.26947,1.20719 0,0.72217 0.25869,1.21797 0.26946,0.49582 0.71137,0.74372 0.44192,0.23712 0.97007,0.23712 z"
       style="font-size:9.87778px;line-height:1.25;font-family:Poppins;-inkscape-font-specification:Poppins;stroke-width:0.288709"
       id="path23041" />
    <path
       d="m 185.50104,118.86307 q -0.28024,0 -0.47425,-0.19402 -0.19401,-0.19401 -0.19401,-0.47424 0,-0.28026 0.19401,-0.47427 0.19401,-0.19401 0.47425,-0.19401 0.26947,0 0.4527,0.19401 0.19401,0.19401 0.19401,0.47427 0,0.28023 -0.19401,0.47424 -0.18323,0.19402 -0.4527,0.19402 z m 0.47426,0.95928 v 5.90659 h -0.98084 v -5.90659 z"
       style="font-size:9.87778px;line-height:1.25;font-family:Poppins;-inkscape-font-specification:Poppins;stroke-width:0.288709"
       id="path23061" />
    <path
       d="m 193.0362,122.5493 q 0,0.28024 -0.0324,0.59282 h -4.72097 q 0.0539,0.87305 0.59282,1.36886 0.5497,0.48503 1.32575,0.48503 0.63594,0 1.05629,-0.29102 0.43114,-0.30179 0.6036,-0.7976 h 1.05629 q -0.23713,0.8515 -0.94851,1.39041 -0.71138,0.52815 -1.76767,0.52815 -0.84072,0 -1.50898,-0.37725 -0.65749,-0.37724 -1.03474,-1.06706 -0.37724,-0.7006 -0.37724,-1.61678 0,-0.91616 0.36646,-1.60598 0.36648,-0.68982 1.02395,-1.0563 0.66828,-0.37724 1.53055,-0.37724 0.84071,0 1.48743,0.36646 0.64671,0.36648 0.99162,1.01318 0.35569,0.63594 0.35569,1.44432 z m -1.01318,-0.20479 q 0,-0.56048 -0.2479,-0.95929 -0.24791,-0.40958 -0.67904,-0.61438 -0.42037,-0.21556 -0.93773,-0.21556 -0.74372,0 -1.27186,0.47425 -0.51736,0.47425 -0.59282,1.31498 z"
       style="font-size:9.87778px;line-height:1.25;font-family:Poppins;-inkscape-font-specification:Poppins;stroke-width:0.288709"
       id="path23063" />
    <path
       d="m 193.9539,122.75409 q 0,-0.90539 0.36645,-1.58444 0.36648,-0.68982 1.00241,-1.06707 0.6467,-0.37724 1.44432,-0.37724 0.68982,0 1.28263,0.32335 0.59282,0.31258 0.90539,0.82994 v -3.12574 h 0.99161 v 7.97605 h -0.99161 v -1.11018 q -0.29102,0.52815 -0.86228,0.87306 -0.57126,0.33413 -1.33653,0.33413 -0.78683,0 -1.43353,-0.38802 -0.63593,-0.38803 -1.00241,-1.08863 -0.36645,-0.7006 -0.36645,-1.59521 z m 5.0012,0.0109 q 0,-0.66827 -0.26947,-1.16408 -0.26945,-0.4958 -0.73293,-0.75449 -0.45269,-0.26947 -1.0024,-0.26947 -0.5497,0 -1.00239,0.25869 -0.45269,0.25869 -0.72215,0.7545 -0.26947,0.4958 -0.26947,1.16408 0,0.67904 0.26947,1.18562 0.26946,0.49581 0.72215,0.76527 0.45269,0.25869 1.00239,0.25869 0.54971,0 1.0024,-0.25869 0.46348,-0.26946 0.73293,-0.76527 0.26947,-0.50658 0.26947,-1.17485 z"
       style="font-size:9.87778px;line-height:1.25;font-family:Poppins;-inkscape-font-specification:Poppins;stroke-width:0.288709"
       id="path23065" />
    <path
       d="m 201.91681,125.79361 q -0.28023,0 -0.47424,-0.194 -0.19402,-0.19402 -0.19402,-0.47426 0,-0.28024 0.19402,-0.47424 0.19401,-0.19402 0.47424,-0.19402 0.26947,0 0.4527,0.19402 0.19402,0.194 0.19402,0.47424 0,0.28024 -0.19402,0.47426 -0.18323,0.194 -0.4527,0.194 z"
       style="font-size:9.87778px;line-height:1.25;font-family:Poppins;-inkscape-font-specification:Poppins;stroke-width:0.288709"
       id="path23067" />
    <path
       d="m 165.29691,94.298383 v 13.919197 h -2.3114 v -2.0574 q -0.6604,1.0668 -1.8542,1.6764 -1.1684,0.5842 -2.5908,0.5842 -1.6256,0 -2.921,-0.6604 -1.2954,-0.6858 -2.0574,-2.032 -0.7366,-1.3462 -0.7366,-3.2766 v -8.153397 h 2.286 v 7.848597 q 0,2.0574 1.0414,3.175 1.0414,1.0922 2.8448,1.0922 1.8542,0 2.921,-1.143 1.0668,-1.143 1.0668,-3.3274 v -7.645397 z"
       style="font-size:25.4px;line-height:1.25;font-family:Poppins;-inkscape-font-specification:Poppins;fill:url(#radialGradient3301);fill-opacity:1;stroke-width:0.264583"
       id="path23080" />
    <path
       d="m 174.15199,108.44618 q -1.6002,0 -2.8702,-0.5334 -1.27,-0.5588 -2.0066,-1.524 -0.7366,-0.9906 -0.8128,-2.2606 h 2.3876 q 0.1016,1.0414 0.9652,1.7018 0.889,0.6604 2.3114,0.6604 1.3208,0 2.0828,-0.5842 0.762,-0.5842 0.762,-1.4732 0,-0.9144 -0.8128,-1.3462 -0.8128,-0.4572 -2.5146,-0.889 -1.5494,-0.4064 -2.54,-0.8128 -0.9652,-0.4318 -1.6764,-1.2446 -0.6858,-0.838197 -0.6858,-2.184397 0,-1.0668 0.635,-1.9558 0.635,-0.889 1.8034,-1.397 1.1684,-0.5334 2.667,-0.5334 2.3114,0 3.7338,1.1684 1.4224,1.1684 1.524,3.2004 h -2.3114 q -0.0762,-1.0922 -0.889,-1.7526 -0.7874,-0.6604 -2.1336,-0.6604 -1.2446,0 -1.9812,0.5334 -0.7366,0.5334 -0.7366,1.397 0,0.6858 0.4318,1.143 0.4572,0.4318 1.1176,0.7112 0.6858,0.253997 1.8796,0.584197 1.4986,0.4064 2.4384,0.8128 0.9398,0.381 1.6002,1.1684 0.6858,0.7874 0.7112,2.0574 0,1.143 -0.635,2.0574 -0.635,0.9144 -1.8034,1.4478 -1.143,0.508 -2.6416,0.508 z"
       style="font-size:25.4px;line-height:1.25;font-family:Poppins;-inkscape-font-specification:Poppins;fill:url(#radialGradient3303);fill-opacity:1;stroke-width:0.264583"
       id="path23082" />
    <path
       d="m 183.66389,92.037783 q -0.6604,0 -1.1176,-0.4572 -0.4572,-0.4572 -0.4572,-1.1176 0,-0.6604 0.4572,-1.1176 0.4572,-0.4572 1.1176,-0.4572 0.635,0 1.0668,0.4572 0.4572,0.4572 0.4572,1.1176 0,0.6604 -0.4572,1.1176 -0.4318,0.4572 -1.0668,0.4572 z m 1.1176,2.2606 v 13.919197 h -2.3114 V 94.298383 Z"
       style="font-size:25.4px;line-height:1.25;font-family:Poppins;-inkscape-font-specification:Poppins;fill:url(#radialGradient3305);fill-opacity:1;stroke-width:0.264583"
       id="path23084" />
    <path
       d="m 194.79147,108.44618 q -1.9558,0 -3.556,-0.889 -1.5748,-0.889 -2.4892,-2.5146 -0.889,-1.651 -0.889,-3.81 0,-2.133597 0.9144,-3.759197 0.9398,-1.651 2.54,-2.5146 1.6002,-0.889 3.5814,-0.889 1.9812,0 3.5814,0.889 1.6002,0.8636 2.5146,2.4892 0.9398,1.6256 0.9398,3.784597 0,2.159 -0.9652,3.81 -0.9398,1.6256 -2.5654,2.5146 -1.6256,0.889 -3.6068,0.889 z m 0,-2.032 q 1.2446,0 2.3368,-0.5842 1.0922,-0.5842 1.7526,-1.7526 0.6858,-1.1684 0.6858,-2.8448 0,-1.676397 -0.6604,-2.844797 -0.6604,-1.1684 -1.7272,-1.7272 -1.0668,-0.5842 -2.3114,-0.5842 -1.27,0 -2.3368,0.5842 -1.0414,0.5588 -1.6764,1.7272 -0.635,1.1684 -0.635,2.844797 0,1.7018 0.6096,2.8702 0.635,1.1684 1.6764,1.7526 1.0414,0.5588 2.286,0.5588 z"
       style="font-size:25.4px;line-height:1.25;font-family:Poppins;-inkscape-font-specification:Poppins;fill:url(#radialGradient3307);fill-opacity:1;stroke-width:0.264583"
       id="path23086" />
    <path
       d="m 211.77455,94.044383 q 2.54,0 4.1148,1.5494 1.5748,1.524 1.5748,4.419597 v 8.2042 h -2.286 v -7.874 q 0,-2.082797 -1.0414,-3.174997 -1.0414,-1.1176 -2.8448,-1.1176 -1.8288,0 -2.921,1.143 -1.0668,1.143 -1.0668,3.327397 v 7.6962 h -2.3114 V 94.298383 h 2.3114 v 1.9812 q 0.6858,-1.0668 1.8542,-1.651 1.1938,-0.5842 2.6162,-0.5842 z"
       style="font-size:25.4px;line-height:1.25;font-family:Poppins;-inkscape-font-specification:Poppins;fill:url(#radialGradient3309);fill-opacity:1;stroke-width:0.264583"
       id="path23088" />
  </g>
</svg>
