<?xml version="1.0" encoding="UTF-8" standalone="no"?>
<svg
   xmlns:dc="http://purl.org/dc/elements/1.1/"
   xmlns:cc="http://creativecommons.org/ns#"
   xmlns:rdf="http://www.w3.org/1999/02/22-rdf-syntax-ns#"
   xmlns:svg="http://www.w3.org/2000/svg"
   xmlns="http://www.w3.org/2000/svg"
   xmlns:xlink="http://www.w3.org/1999/xlink"
   width="512"
   height="512"
   viewBox="0 0 135.46666 135.46667"
   version="1.1"
   id="svg5">
  <metadata
     id="metadata1209">
    <rdf:RDF>
      <cc:Work
         rdf:about="">
        <dc:format>image/svg+xml</dc:format>
        <dc:type
           rdf:resource="http://purl.org/dc/dcmitype/StillImage" />
        <dc:title></dc:title>
      </cc:Work>
    </rdf:RDF>
  </metadata>
  <defs
     id="defs2">
    <linearGradient
       id="linearGradient1820">
      <stop
         style="stop-color:#ff8900;stop-opacity:1"
         offset="0"
         id="stop1816" />
      <stop
         style="stop-color:#ff477e;stop-opacity:1"
         offset="0.47171944"
         id="stop1824" />
      <stop
         style="stop-color:#ce00ff;stop-opacity:1"
         offset="1"
         id="stop1818" />
    </linearGradient>
    <linearGradient
       xlink:href="#linearGradient1820"
       id="linearGradient1822"
       x1="123.6694"
       y1="-3.6604049"
       x2="8.6280975"
       y2="122.88503"
       gradientUnits="userSpaceOnUse" />
  </defs>
  <g
     id="layer1"
     style="stroke:#000000;stroke-opacity:1;fill:none">
    <path
       style="color:#000000;font-style:normal;font-variant:normal;font-weight:normal;font-stretch:normal;font-size:medium;line-height:normal;font-family:sans-serif;font-variant-ligatures:normal;font-variant-position:normal;font-variant-caps:normal;font-variant-numeric:normal;font-variant-alternates:normal;font-variant-east-asian:normal;font-feature-settings:normal;font-variation-settings:normal;text-indent:0;text-align:start;text-decoration:none;text-decoration-line:none;text-decoration-style:solid;text-decoration-color:#000000;letter-spacing:normal;word-spacing:normal;text-transform:none;writing-mode:lr-tb;direction:ltr;text-orientation:mixed;dominant-baseline:auto;baseline-shift:baseline;text-anchor:start;white-space:normal;shape-padding:0;shape-margin:0;inline-size:0;clip-rule:nonzero;display:inline;overflow:visible;visibility:visible;opacity:1;isolation:auto;mix-blend-mode:normal;color-interpolation:sRGB;color-interpolation-filters:linearRGB;solid-color:#000000;solid-opacity:1;vector-effect:none;fill:url(#linearGradient1822);fill-opacity:1;fill-rule:nonzero;stroke:none;stroke-width:6.52224;stroke-linecap:square;stroke-linejoin:round;stroke-miterlimit:4;stroke-dasharray:none;stroke-dashoffset:0;stroke-opacity:1;color-rendering:auto;image-rendering:auto;shape-rendering:auto;text-rendering:auto;enable-background:accumulate;stop-color:#000000;stop-opacity:1"
       d="M 52.121094,0 C 39.543636,0 29.316406,10.227229 29.316406,22.804688 c 0,6.381427 2.648066,12.140568 6.884766,16.283203 H 23.472656 l 0.111328,0.002 c -0.428401,-0.01451 -0.889403,-0.02497 -1.380859,-0.01172 h -0.002 c -0.430076,0.01162 -0.626093,0.04516 -0.585938,0.04297 -0.22714,0.01227 -0.369087,0.02637 -0.421875,0.0293 -0.01758,5.09e-4 -0.03516,0.0012 -0.05273,0.002 -0.13852,0.0099 -0.334668,0.02189 -0.589844,0.04687 -0.0052,-1.2e-5 -0.01042,-1.2e-5 -0.01563,0 -0.319339,0.03282 -0.614424,0.07304 -0.882812,0.111328 -0.315866,0.04336 -0.639909,0.09375 -0.972656,0.154297 0.337618,-0.06199 0.354025,-0.0755 -0.113282,0.01367 l -0.002,0.002 c 0.127697,-0.02446 0.08568,-0.02014 -0.126953,0.02148 -9.0335492,1.74165 -16.1476245,8.786438 -17.98046875,17.789063 -0.12530422,0.615197 -0.1891514,1.150549 -0.24804687,1.601562 -0.008404,0.06214 -0.0139044,0.100993 -0.0117188,0.08789 -0.008269,0.04866 -0.0154322,0.0975 -0.0214844,0.146484 -0.0267612,0.222517 -0.0609678,0.491953 -0.08789063,0.810547 v 0.002 c -0.0068645,0.08146 -0.0090127,0.125413 -0.0097656,0.134766 -6.5426e-4,0.0026 -0.0013053,0.0052 -0.0019531,0.0078 C 0.04541128,60.475735 0.031856,60.846581 0.02148438,61.193359 0.01741935,61.321561 0,61.553878 0,61.892578 c 0,0.586592 0.02973643,1.137319 0.06640625,1.652344 -4.87e-6,0.0033 -4.87e-6,0.0065 0,0.0098 0.0027494,0.03726 0.01108221,0.213892 0.03125,0.449218 0.0041283,0.05336 -0.0047585,-0.02143 0.0019531,0.05078 h 0.0019531 c 6.3312e-4,0.0067 -6.5994e-4,0.0049 0,0.01172 0.0332879,0.305416 0.10956261,0.604598 0.2265625,0.888672 0.43636582,3.240907 1.4371967,6.31641 3.0917969,8.982422 0.9817975,1.626454 8.3218231,14.329038 15.2832031,26.40625 6.97017,12.09246 13.662109,23.72461 13.662109,23.72461 l 0.002,0.004 c 6.289339,10.89345 20.264436,14.63018 31.15625,8.34179 10.89118,-6.28804 14.638359,-20.25407 8.349609,-31.14648 L 62.308594,84.697266 h 19.126953 c 12.577457,0 22.804683,-10.227229 22.804683,-22.804688 0,-6.381396 -2.6481,-12.140572 -6.884761,-16.283203 h 13.396481 c 12.57747,0 22.80469,-10.227231 22.80469,-22.804687 C 133.55664,10.227231 123.32942,0 110.75195,0 Z m 0,6.5214844 h 58.630856 c 9.07696,0 16.28125,7.2062496 16.28125,16.2832036 0,9.076953 -7.20429,16.283203 -16.28125,16.283203 H 81.435547 c -4.99628,0 -5.645148,6.39171 0,6.521484 9.076247,0.113083 16.283203,7.206252 16.283203,16.283203 0,9.076952 -7.206252,16.28125 -16.283203,16.28125 H 56.662109 c -2.510853,3.4e-5 -4.079957,2.718296 -2.824218,4.892578 l 12.386718,21.460934 c 4.538456,7.86083 1.899177,17.69911 -5.96289,22.23828 -7.860159,4.53806 -17.705292,1.90567 -22.244141,-5.95117 l -0.002,-0.004 c -0.0021,-0.004 -6.691322,-11.63108 -13.662109,-23.724612 C 17.381618,84.99048 10.248527,72.62689 8.9824219,70.53125 c -0.00709,-0.01111 -0.014256,-0.02218 -0.021484,-0.0332 -1.3217238,-2.129657 -2.1582218,-4.594914 -2.3730469,-7.263672 -0.00416,-0.04763 -0.00937,-0.09517 -0.015625,-0.142578 -6.461e-4,-0.0033 -0.0013,-0.0065 -0.00195,-0.0098 -0.03017,-0.423737 -0.048828,-0.819665 -0.048828,-1.189453 0,-0.06152 0.00913,-0.226414 0.017578,-0.5 v -0.0039 c 0.00878,-0.293574 0.022422,-0.558899 0.041016,-0.796875 l -0.00195,0.0059 c 0.00591,-0.07337 0.00969,-0.110432 0.00977,-0.111328 0.012584,-0.148376 0.035708,-0.341064 0.064453,-0.580078 0.00751,-0.05363 0.01765,-0.129536 0.021484,-0.158203 6.56e-4,-0.0033 0.00131,-0.0065 0.00195,-0.0098 0.061884,-0.473898 0.1132753,-0.858781 0.171875,-1.146484 1.3084991,-6.427129 6.3773078,-11.446554 12.8320318,-12.6875 0.0039,-6.44e-4 0.0078,-0.0013 0.01172,-0.002 -0.136621,0.02675 -0.102354,0.02148 0.101563,-0.01758 l -0.0039,0.002 c -0.443463,0.08462 -0.425978,0.08221 0.05273,-0.0039 l 0.0059,-0.002 c 0.222901,-0.04056 0.458262,-0.07539 0.707032,-0.109375 0.0065,-0.0013 0.01303,-0.0026 0.01953,-0.0039 0.233884,-0.03337 0.443239,-0.0612 0.626953,-0.08008 0.07166,-0.0067 0.197378,-0.0144 0.353516,-0.02539 l 0.05078,-0.0039 c 0.179524,-0.01098 0.318091,-0.02308 0.361328,-0.02539 h 0.0039 c 0.37154,-0.0203 0.508408,-0.03592 0.40625,-0.0332 0.298236,-0.0081 0.627704,-0.0043 0.986328,0.0078 0.03645,0.0013 0.07291,0.0019 0.109375,0.002 h 28.648438 c 4.258125,-0.08861 4.258125,-6.432877 0,-6.521484 -9.076952,0 -16.283203,-7.206252 -16.283203,-16.283203 0,-9.076952 7.206251,-16.2832036 16.283203,-16.2832036 z"
       id="path1814" />
  </g>
</svg>
