<?xml version="1.0" encoding="UTF-8" standalone="no"?>
<!-- Created with Inkscape (http://www.inkscape.org/) -->

<svg
   width="256"
   height="256"
   viewBox="0 0 67.733333 67.733331"
   version="1.1"
   id="svg311815"
   xmlns:xlink="http://www.w3.org/1999/xlink"
   xmlns="http://www.w3.org/2000/svg"
   xmlns:svg="http://www.w3.org/2000/svg">
  <defs
     id="defs311812">
    <linearGradient
       id="linearGradient325915">
      <stop
         style="stop-color:#ff00d0;stop-opacity:1"
         offset="0"
         id="stop325911" />
      <stop
         style="stop-color:#008bff;stop-opacity:1"
         offset="1"
         id="stop325913" />
    </linearGradient>
    <rect
       x="256"
       y="192"
       width="608"
       height="128"
       id="rect318434" />
    <linearGradient
       xlink:href="#linearGradient325915"
       id="linearGradient325919"
       x1="33.866665"
       y1="84.666664"
       x2="63.499996"
       y2="50.799999"
       gradientUnits="userSpaceOnUse" />
    <linearGradient
       xlink:href="#linearGradient325915"
       id="linearGradient332074"
       gradientUnits="userSpaceOnUse"
       x1="33.866665"
       y1="84.666664"
       x2="63.499996"
       y2="50.799999"
       gradientTransform="translate(12.7)" />
    <linearGradient
       xlink:href="#linearGradient325915"
       id="linearGradient333423"
       gradientUnits="userSpaceOnUse"
       x1="33.866665"
       y1="84.666664"
       x2="63.499996"
       y2="50.799999" />
    <linearGradient
       xlink:href="#linearGradient325915"
       id="linearGradient333425"
       gradientUnits="userSpaceOnUse"
       x1="33.866665"
       y1="84.666664"
       x2="63.499996"
       y2="50.799999" />
    <linearGradient
       xlink:href="#linearGradient325915"
       id="linearGradient333427"
       gradientUnits="userSpaceOnUse"
       x1="33.866665"
       y1="84.666664"
       x2="63.499996"
       y2="50.799999" />
    <linearGradient
       xlink:href="#linearGradient325915"
       id="linearGradient333429"
       gradientUnits="userSpaceOnUse"
       x1="33.866665"
       y1="84.666664"
       x2="63.499996"
       y2="50.799999" />
  </defs>
  <text
     xml:space="preserve"
     transform="scale(0.26458333)"
     id="text318432"
     style="font-style:normal;font-weight:normal;font-size:40px;line-height:84.8;font-family:sans-serif;letter-spacing:12.32px;word-spacing:0px;white-space:pre;shape-inside:url(#rect318434);fill:#000000;fill-opacity:1;stroke:none"><tspan
       x="256"
       y="2026.3907"
       id="tspan336903"><tspan
         dx="0 30.800781"
         id="tspan336901">DE</tspan></tspan></text>
  <g
     id="g921"
     transform="matrix(1.2514083,0,0,1.2514083,8.4662756,-2.1600632e-6)">
    <path
       id="path331238"
       style="color:#000000;fill:#e6e6e6;stroke-width:1.5982;stroke-linecap:round;-inkscape-stroke:none"
       d="m 6.7737682,20.296311 a 6.7657124,6.7657124 0 0 0 -0.7193513,0.04047 6.7657124,6.7657124 0 0 1 0.7127421,-0.03962 h 0.02313 a 6.7657124,6.7657124 0 0 0 -0.016534,-8.46e-4 z m -0.9415161,0.07268 a 6.7657124,6.7657124 0 0 0 -0.4881037,0.08342 6.7657124,6.7657124 0 0 1 0.4881037,-0.08342 z m -0.7457842,0.147835 a 6.7657124,6.7657124 0 0 0 -0.4294618,0.123885 6.7657124,6.7657124 0 0 1 0.4294618,-0.123885 z m -0.7020057,0.220516 a 6.7657124,6.7657124 0 0 0 -0.4022088,0.16683 6.7657124,6.7657124 0 0 1 0.4022088,-0.16683 z M 3.7245729,21.025578 A 6.7657124,6.7657124 0 0 0 3.3256667,21.24609 6.7657124,6.7657124 0 0 1 3.7245729,21.025578 Z m -0.6218955,0.353479 a 6.7657124,6.7657124 0 0 0 -0.090851,0.05451 6.7657124,6.7657124 0 0 0 -0.279149,0.208126 6.7657124,6.7657124 0 0 1 0.37,-0.262636 z M 2.5030791,21.812646 A 6.7657124,6.7657124 0 0 0 2.1570299,22.12153 6.7657124,6.7657124 0 0 1 2.5030791,21.812646 Z m -0.5475658,0.495538 a 6.7657124,6.7657124 0 0 0 -0.4046867,0.452587 6.7657124,6.7657124 0 0 1 0.4046867,-0.452587 z m -0.4823232,0.541785 a 6.7657124,6.7657124 0 0 0 -0.4319398,0.607032 6.7657124,6.7657124 0 0 1 0.4319398,-0.607032 z m -0.48149442,0.694576 a 6.7657124,6.7657124 0 0 0 -0.30723087,0.556649 6.7657124,6.7657124 0 0 1 0.30723087,-0.556649 z m -0.39725286,0.765599 a 6.7657124,6.7657124 0 0 0 -0.19491163,0.471587 6.7657124,6.7657124 0 0 1 0.19491163,-0.471587 z m -0.27502186,0.726785 a 6.7657124,6.7657124 0 0 0 -0.12801568,0.443505 6.7657124,6.7657124 0 0 1 0.12801568,-0.443505 z m -0.18582867,0.73257 a 6.7657124,6.7657124 0 0 0 -0.07515434,0.442676 6.7657124,6.7657124 0 0 1 0.07515434,-0.442676 z m -0.10240747,0.730913 a 6.7657124,6.7657124 0 0 0 -0.02477941,0.439373 6.7657124,6.7657124 0 0 1 0.02477941,-0.439373 z m -0.02063541,0.753213 a 6.7657124,6.7657124 0 0 0 0.0239337,0.422033 6.7657124,6.7657124 0 0 1 -0.0239337,-0.422033 z m 0.0611155,0.735044 A 6.7657124,6.7657124 0 0 0 0.1410388,28.399965 6.7657124,6.7657124 0 0 1 0.07166491,27.988669 Z M 0.21206607,28.71463 A 6.7657124,6.7657124 0 0 0 0.32934118,29.123448 6.7657124,6.7657124 0 0 1 0.21206607,28.71463 Z M 0.426797,29.410855 A 6.7657124,6.7657124 0 0 0 0.59362671,29.813892 6.7657124,6.7657124 0 0 1 0.426797,29.410855 Z M 0.71998902,30.08809 A 6.7657124,6.7657124 0 0 0 0.93802669,30.482865 6.7657124,6.7657124 0 0 1 0.71998902,30.08809 Z m 0.36256588,0.638412 a 6.7657124,6.7657124 0 0 0 0.053686,0.09002 L 14.66766,51.112828 a 6.7657124,6.7657124 0 0 0 9.383785,1.875602 6.7657124,6.7657124 0 0 0 1.875603,-9.379658 L 19.407441,33.828554 H 6.767159 A 6.7657124,6.7657124 0 0 1 1.0825422,30.726502 Z" />
    <path
       id="path330964"
       style="color:#000000;fill:#e6e6e6;stroke-width:1.5982;stroke-linecap:round;-inkscape-stroke:none"
       d="m 13.538649,8.3185084e-4 a 6.7657094,6.7657094 0 0 0 -0.0074,8.4570916e-4 h 0.01569 a 6.7657094,6.7657094 0 0 0 -0.0082,-8.4570916e-4 z M 12.301463,0.12141371 a 6.7657094,6.7657094 0 0 0 -0.117275,0.0189863 6.7657094,6.7657094 0 0 1 0.117275,-0.0189863 z m -1.256181,0.36339048 a 6.7657094,6.7657094 0 0 0 -0.14701,0.0561638 6.7657094,6.7657094 0 0 1 0.14701,-0.0561638 z M 9.8716893,1.0885338 a 6.7657094,6.7657094 0 0 0 -0.091675,0.048726 6.7657094,6.7657094 0 0 0 -0.055335,0.047077 6.7657094,6.7657094 0 0 1 0.14701,-0.095803 z M 8.6815799,2.0630877 a 6.7657094,6.7657094 0 0 0 -0.087544,0.088369 6.7657094,6.7657094 0 0 1 0.087544,-0.088369 z M 7.739235,3.2829282 A 6.7657094,6.7657094 0 0 0 7.700417,3.3432192 6.7657094,6.7657094 0 0 1 7.739235,3.2829282 Z M 7.09256,4.6993337 A 6.7657094,6.7657094 0 0 0 7.08677,4.7216187 6.7657094,6.7657094 0 0 1 7.09256,4.6993337 Z M 6.799368,6.1586846 a 6.7657094,6.7657094 0 0 0 -0.00495,0.090022 6.7657094,6.7657094 0 0 1 0.00495,-0.090022 z M 6.83159,7.6452928 A 6.7657094,6.7657094 0 0 0 6.853071,7.7815626 6.7657094,6.7657094 0 0 1 6.83159,7.6452928 Z m 0.3592634,1.451917 a 6.7657094,6.7657094 0 0 0 0.05616,0.145357 6.7657094,6.7657094 0 0 1 -0.05616,-0.145357 z m 0.676406,1.3511582 a 6.7657094,6.7657094 0 0 0 0.036323,0.06938 l 6.5187736,9.779389 h 12.641107 a 6.7657124,6.7657124 0 0 1 5.722606,3.155734 6.7657094,6.7657094 0 0 0 -0.09167,-0.143704 L 26.176453,13.53308 H 13.531219 A 6.7657094,6.7657094 0 0 1 7.8672506,10.448368 Z M 32.796814,23.469386 a 6.7657124,6.7657124 0 0 1 0.363394,0.656587 6.7657094,6.7657094 0 0 0 -0.363394,-0.656587 z m 0.365048,0.65989 a 6.7657124,6.7657124 0 0 1 0.287407,0.6954 6.7657094,6.7657094 0 0 0 -0.287407,-0.6954 z m 0.28906,0.701181 a 6.7657124,6.7657124 0 0 1 0.20482,0.708615 6.7657094,6.7657094 0 0 0 -0.20482,-0.708615 z m 0.213082,0.744131 a 6.7657124,6.7657124 0 0 1 0.119753,0.706961 6.7657094,6.7657094 0 0 0 -0.119753,-0.706961 z m 0.124709,0.749082 a 6.7657124,6.7657124 0 0 1 0.04047,0.711093 6.7657094,6.7657094 0 0 0 -0.04047,-0.711093 z m -0.05533,1.873125 a 6.7657124,6.7657124 0 0 1 -0.01983,0.113148 6.7657094,6.7657094 0 0 0 0.01983,-0.113148 z m -0.0446,0.237032 a 6.7657124,6.7657124 0 0 1 -0.02148,0.104886 6.7657094,6.7657094 0 0 0 0.02148,-0.104886 z m -0.05864,0.260154 a 6.7657124,6.7657124 0 0 1 -0.02064,0.08011 6.7657094,6.7657094 0 0 0 0.02064,-0.08011 z m -0.06442,0.239511 a 6.7657124,6.7657124 0 0 1 -0.02064,0.06855 6.7657094,6.7657094 0 0 0 0.02064,-0.06855 z m -0.07185,0.232901 a 6.7657124,6.7657124 0 0 1 -0.01983,0.05946 6.7657094,6.7657094 0 0 0 0.01983,-0.05946 z m -5.280755,4.563052 a 6.7657124,6.7657124 0 0 1 -0.02313,0.0042 6.7657094,6.7657094 0 0 0 0.02313,-0.0042 z" />
    <path
       style="color:#000000;fill:#ffffff;stroke-width:1.5982;stroke-linecap:round;-inkscape-stroke:none"
       d="M 13.531628,0.00125647 A 6.7657092,6.7657092 0 0 0 6.7673751,6.7655095 6.7657092,6.7657092 0 0 0 13.531628,13.532884 H 33.83063 A 6.7657092,6.7657092 0 0 0 40.594883,6.7655095 6.7657092,6.7657092 0 0 0 33.83063,0.00125647 Z"
       id="path330814" />
    <path
       style="color:#000000;fill:#ffffff;stroke-width:1.5982;stroke-linecap:round;-inkscape-stroke:none"
       d="M 6.7673751,20.297137 A 6.7657122,6.7657122 0 0 0 8.141519e-7,27.06139 6.7657122,6.7657122 0 0 0 6.7673751,33.828764 H 27.063256 A 6.7657122,6.7657122 0 0 0 33.83063,27.06139 6.7657122,6.7657122 0 0 0 27.063256,20.297137 Z"
       id="path330929" />
    <g
       id="g325879"
       style="fill:url(#linearGradient325919);fill-opacity:1"
       transform="matrix(1.5981991,0,0,1.5981991,-60.89076,-81.188506)">
      <circle
         style="fill:url(#linearGradient333423);fill-opacity:1;stroke:none;stroke-width:0.264583;stroke-linecap:round"
         id="path311944"
         cx="46.566666"
         cy="55.033329"
         r="4.2333331" />
      <circle
         style="fill:url(#linearGradient333425);fill-opacity:1;stroke:none;stroke-width:0.264583;stroke-linecap:round"
         id="circle312026"
         cx="59.26667"
         cy="55.033329"
         r="4.2333331" />
      <circle
         style="fill:url(#linearGradient333427);fill-opacity:1;stroke:none;stroke-width:0.264583;stroke-linecap:round"
         id="circle312028"
         cx="42.333336"
         cy="67.73333"
         r="4.2333331" />
      <circle
         style="fill:url(#linearGradient333429);fill-opacity:1;stroke:none;stroke-width:0.264583;stroke-linecap:round"
         id="circle312030"
         cx="55.03334"
         cy="67.73333"
         r="4.2333331" />
      <circle
         style="fill:url(#linearGradient332074);fill-opacity:1;stroke:none;stroke-width:0.264583;stroke-linecap:round"
         id="circle312032"
         cx="50.799999"
         cy="80.433334"
         r="4.2333331" />
    </g>
    <path
       style="fill:#cccccc;stroke:none;stroke-width:0.422856px;stroke-linecap:butt;stroke-linejoin:miter;stroke-opacity:1"
       d="m 28.08122,16.389989 -14.54959,-2.857104 12.644823,1.94e-4 z"
       id="path332386" />
    <path
       style="fill:#cccccc;stroke:none;stroke-width:0.422856px;stroke-linecap:butt;stroke-linejoin:miter;stroke-opacity:1"
       d="M 21.312208,36.685465 6.7626173,33.828361 19.407441,33.828555 Z"
       id="path333163" />
  </g>
</svg>
