<?xml version="1.0" encoding="UTF-8" standalone="no"?>
<!-- Created with Inkscape (http://www.inkscape.org/) -->

<svg
   width="429.53058"
   height="435.67435"
   viewBox="0 0 113.64663 115.27217"
   version="1.1"
   id="svg5"
   sodipodi:docname="df_logo.svg"
   inkscape:export-filename="/Users/lemonorange/websites/mywebsite/assets/deepfusionBG.png"
   inkscape:export-xdpi="132"
   inkscape:export-ydpi="132"
   inkscape:version="1.1 (c4e8f9e, 2021-05-24)"
   xmlns:inkscape="http://www.inkscape.org/namespaces/inkscape"
   xmlns:sodipodi="http://sodipodi.sourceforge.net/DTD/sodipodi-0.dtd"
   xmlns:xlink="http://www.w3.org/1999/xlink"
   xmlns="http://www.w3.org/2000/svg"
   xmlns:svg="http://www.w3.org/2000/svg">
  <sodipodi:namedview
     id="namedview7"
     pagecolor="#505050"
     bordercolor="#ffffff"
     borderopacity="1"
     inkscape:pageshadow="0"
     inkscape:pageopacity="0"
     inkscape:pagecheckerboard="1"
     inkscape:document-units="px"
     showgrid="false"
     units="px"
     inkscape:snap-page="true"
     inkscape:snap-global="true"
     inkscape:zoom="1.1225174"
     inkscape:cx="179.50724"
     inkscape:cy="269.03814"
     inkscape:window-width="1440"
     inkscape:window-height="900"
     inkscape:window-x="0"
     inkscape:window-y="0"
     inkscape:window-maximized="0"
     inkscape:current-layer="layer1"
     fit-margin-top="0"
     fit-margin-left="0"
     fit-margin-right="0"
     fit-margin-bottom="0" />
  <defs
     id="defs2">
    <linearGradient
       id="linearGradient1820">
      <stop
         style="stop-color:#ff8900;stop-opacity:1"
         offset="0"
         id="stop1816" />
      <stop
         style="stop-color:#ff477e;stop-opacity:1"
         offset="0.47171944"
         id="stop1824" />
      <stop
         style="stop-color:#ce00ff;stop-opacity:1"
         offset="1"
         id="stop1818" />
    </linearGradient>
    <linearGradient
       xlink:href="#linearGradient1820"
       id="linearGradient1822"
       x1="123.6694"
       y1="-3.6604049"
       x2="8.6280975"
       y2="122.88503"
       gradientUnits="userSpaceOnUse"
       gradientTransform="matrix(0.37666595,0,0,0.37666595,120.36772,80.320383)" />
    <mask
       maskUnits="userSpaceOnUse"
       id="mask36505">
      <path
         style="fill:#ffffff;stroke:none;stroke-width:0.264583px;stroke-linecap:butt;stroke-linejoin:miter;stroke-opacity:1"
         d="M 224.88424,0 C 101.08037,20.372788 138.29989,57.592306 124.19565,93.636469 110.09141,129.68063 41.92093,135.5574 28.600259,163.37409 15.279591,191.19078 48.581265,211.66666 48.581265,211.66666 H -1.6848375e-6 L 0,0 Z"
         id="path36507" />
    </mask>
    <mask
       maskUnits="userSpaceOnUse"
       id="mask38423">
      <path
         style="fill:#ffffff;stroke:none;stroke-width:0.264583px;stroke-linecap:butt;stroke-linejoin:miter;stroke-opacity:1"
         d="M 224.88424,0 C 101.08037,20.372788 138.29989,57.592306 124.19565,93.636469 110.09141,129.68063 41.92093,135.5574 28.600259,163.37409 15.279591,191.19078 48.581265,211.66666 48.581265,211.66666 H -1.6848375e-6 L 0,0 Z"
         id="path38425" />
    </mask>
    <mask
       maskUnits="userSpaceOnUse"
       id="mask38423-3">
      <path
         style="fill:#ffffff;stroke:none;stroke-width:0.264583px;stroke-linecap:butt;stroke-linejoin:miter;stroke-opacity:1"
         d="M 224.88424,0 C 101.08037,20.372788 138.29989,57.592306 124.19565,93.636469 110.09141,129.68063 41.92093,135.5574 28.600259,163.37409 15.279591,191.19078 48.581265,211.66666 48.581265,211.66666 H -1.6848375e-6 L 0,0 Z"
         id="path38425-5" />
    </mask>
    <mask
       maskUnits="userSpaceOnUse"
       id="mask31226">
      <path
         id="path31228"
         style="fill:none;stroke:#ffffff;stroke-width:5.5499;stroke-linecap:square;stroke-linejoin:round;stroke-miterlimit:4;stroke-dasharray:none;stroke-opacity:1"
         d="m 203.53483,96.618498 c -9.21316,0 -16.63024,7.417082 -16.63024,16.630242 0,9.21316 7.41708,16.63025 16.63024,16.63025 h -24.37695 c -0.33511,-0.0108 -0.67061,-0.0172 -1.00692,-0.008 -0.14081,0.004 -0.2813,0.0249 -0.42225,0.0324 -0.11915,0.007 -0.23818,0.0178 -0.35729,0.0244 -0.144,0.0108 -0.28746,0.0186 -0.43035,0.0325 -0.21403,0.0221 -0.42782,0.0507 -0.64151,0.0813 -0.24276,0.0332 -0.48349,0.0701 -0.72271,0.11376 -0.0241,0.004 -0.049,0.004 -0.0731,0.008 -0.0324,0.005 -0.065,0.009 -0.0975,0.0162 -6.59207,1.26735 -11.77733,6.40156 -13.11419,12.96802 -0.0782,0.38415 -0.12723,0.77579 -0.17866,1.16931 -0.008,0.0568 -0.0149,0.1139 -0.0244,0.1705 -0.0237,0.1967 -0.0482,0.39401 -0.065,0.59277 -0.004,0.035 -0.005,0.0704 -0.008,0.10556 -0.021,0.26875 -0.0324,0.53941 -0.0405,0.81186 -0.005,0.17074 -0.0163,0.34051 -0.0163,0.51159 0,0.40689 0.0202,0.81052 0.0487,1.20993 0.009,0.12507 0.0121,0.24841 0.0244,0.3735 -0.007,-0.072 -0.003,-0.14693 -0.008,-0.21927 0.21823,2.71106 1.07299,5.23866 2.42797,7.42192 1.90014,3.14507 24.67741,42.73682 24.67741,42.73682 4.60658,7.97882 14.74159,10.68863 22.72041,6.08206 7.97881,-4.60658 10.69675,-14.73348 6.09016,-22.7123 L 207.4002,163.1394 h 21.08013 c 9.21316,0 16.63024,-7.4171 16.63024,-16.63024 0,-9.21317 -7.41708,-16.63025 -16.63024,-16.63025 h 24.94537 c 9.21315,0 16.63023,-7.4171 16.63023,-16.63024 0,-9.21316 -7.41708,-16.630257 -16.63023,-16.630257 z" />
    </mask>
    <mask
       maskUnits="userSpaceOnUse"
       id="mask31993">
      <path
         id="path31995"
         style="fill:none;stroke:#ffffff;stroke-width:5.5499;stroke-linecap:square;stroke-linejoin:round;stroke-miterlimit:4;stroke-dasharray:none;stroke-opacity:1"
         d="m 44.35058,2.775036 c -9.21316,0 -16.63024,7.417082 -16.63024,16.630242 0,9.213161 7.41708,16.630249 16.63024,16.630249 H 19.97363 c -0.33511,-0.0108 -0.67061,-0.0172 -1.00692,-0.008 -0.14081,0.004 -0.2813,0.0249 -0.42225,0.0324 -0.11915,0.007 -0.23818,0.01781 -0.35729,0.02439 -0.144,0.0108 -0.28746,0.0186 -0.43035,0.0325 -0.21403,0.02209 -0.42782,0.0507 -0.64151,0.0813 -0.24276,0.0332 -0.48349,0.0701 -0.72271,0.11376 -0.0241,0.004 -0.049,0.004 -0.0731,0.008 -0.0324,0.005 -0.065,0.009 -0.0975,0.01619 -6.5920701,1.267349 -11.77733,6.401559 -13.1141899,12.96802 -0.0782,0.384148 -0.1272302,0.77579 -0.1786602,1.16931 -0.008,0.0568 -0.014899,0.1139 -0.0244,0.1705 -0.023699,0.196699 -0.0482,0.39401 -0.065,0.59277 -0.004,0.035 -0.005,0.0704 -0.008,0.105558 -0.021,0.268751 -0.0324,0.539411 -0.0405,0.811861 -0.005,0.170741 -0.016301,0.340511 -0.016301,0.51159 0,0.40689 0.020201,0.810519 0.0487,1.209929 0.009,0.125071 0.012099,0.248412 0.0244,0.373502 -0.007,-0.072 -0.003,-0.146931 -0.008,-0.219271 0.2182302,2.711061 1.0729902,5.23866 2.4279701,7.42192 1.9001401,3.14507 24.67741,42.736814 24.67741,42.736814 4.606581,7.97882 14.741591,10.68863 22.720411,6.08206 7.97881,-4.60658 10.69675,-14.733474 6.090158,-22.712294 L 48.215948,69.295916 H 69.29608 c 9.213159,0 16.63024,-7.417099 16.63024,-16.63024 0,-9.21317 -7.417081,-16.63025 -16.63024,-16.63025 h 24.945369 c 9.213151,0 16.630231,-7.417099 16.630231,-16.63024 0,-9.21316 -7.41708,-16.6302569 -16.630231,-16.6302569 z" />
    </mask>
    <mask
       maskUnits="userSpaceOnUse"
       id="mask31997">
      <path
         id="path31999"
         style="fill:none;stroke:#ffffff;stroke-width:5.5499;stroke-linecap:square;stroke-linejoin:round;stroke-miterlimit:4;stroke-dasharray:none;stroke-opacity:1"
         d="m 44.35058,2.775036 c -9.21316,0 -16.63024,7.417082 -16.63024,16.630242 0,9.213161 7.41708,16.630249 16.63024,16.630249 H 19.97363 c -0.33511,-0.0108 -0.67061,-0.0172 -1.00692,-0.008 -0.14081,0.004 -0.2813,0.0249 -0.42225,0.0324 -0.11915,0.007 -0.23818,0.01781 -0.35729,0.02439 -0.144,0.0108 -0.28746,0.0186 -0.43035,0.0325 -0.21403,0.02209 -0.42782,0.0507 -0.64151,0.0813 -0.24276,0.0332 -0.48349,0.0701 -0.72271,0.11376 -0.0241,0.004 -0.049,0.004 -0.0731,0.008 -0.0324,0.005 -0.065,0.009 -0.0975,0.01619 -6.5920701,1.267349 -11.77733,6.401559 -13.1141899,12.96802 -0.0782,0.384148 -0.1272302,0.77579 -0.1786602,1.16931 -0.008,0.0568 -0.014899,0.1139 -0.0244,0.1705 -0.023699,0.196699 -0.0482,0.39401 -0.065,0.59277 -0.004,0.035 -0.005,0.0704 -0.008,0.105558 -0.021,0.268751 -0.0324,0.539411 -0.0405,0.811861 -0.005,0.170741 -0.016301,0.340511 -0.016301,0.51159 0,0.40689 0.020201,0.810519 0.0487,1.209929 0.009,0.125071 0.012099,0.248412 0.0244,0.373502 -0.007,-0.072 -0.003,-0.146931 -0.008,-0.219271 0.2182302,2.711061 1.0729902,5.23866 2.4279701,7.42192 1.9001401,3.14507 24.67741,42.736814 24.67741,42.736814 4.606581,7.97882 14.741591,10.68863 22.720411,6.08206 7.97881,-4.60658 10.69675,-14.733474 6.090158,-22.712294 L 48.215948,69.295916 H 69.29608 c 9.213159,0 16.63024,-7.417099 16.63024,-16.63024 0,-9.21317 -7.417081,-16.63025 -16.63024,-16.63025 h 24.945369 c 9.213151,0 16.630231,-7.417099 16.630231,-16.63024 0,-9.21316 -7.41708,-16.6302569 -16.630231,-16.6302569 z" />
    </mask>
    <mask
       maskUnits="userSpaceOnUse"
       id="mask32001">
      <path
         id="path32003"
         style="fill:none;stroke:#ffffff;stroke-width:5.5499;stroke-linecap:square;stroke-linejoin:round;stroke-miterlimit:4;stroke-dasharray:none;stroke-opacity:1"
         d="m 44.35058,2.775036 c -9.21316,0 -16.63024,7.417082 -16.63024,16.630242 0,9.213161 7.41708,16.630249 16.63024,16.630249 H 19.97363 c -0.33511,-0.0108 -0.67061,-0.0172 -1.00692,-0.008 -0.14081,0.004 -0.2813,0.0249 -0.42225,0.0324 -0.11915,0.007 -0.23818,0.01781 -0.35729,0.02439 -0.144,0.0108 -0.28746,0.0186 -0.43035,0.0325 -0.21403,0.02209 -0.42782,0.0507 -0.64151,0.0813 -0.24276,0.0332 -0.48349,0.0701 -0.72271,0.11376 -0.0241,0.004 -0.049,0.004 -0.0731,0.008 -0.0324,0.005 -0.065,0.009 -0.0975,0.01619 -6.5920701,1.267349 -11.77733,6.401559 -13.1141899,12.96802 -0.0782,0.384148 -0.1272302,0.77579 -0.1786602,1.16931 -0.008,0.0568 -0.014899,0.1139 -0.0244,0.1705 -0.023699,0.196699 -0.0482,0.39401 -0.065,0.59277 -0.004,0.035 -0.005,0.0704 -0.008,0.105558 -0.021,0.268751 -0.0324,0.539411 -0.0405,0.811861 -0.005,0.170741 -0.016301,0.340511 -0.016301,0.51159 0,0.40689 0.020201,0.810519 0.0487,1.209929 0.009,0.125071 0.012099,0.248412 0.0244,0.373502 -0.007,-0.072 -0.003,-0.146931 -0.008,-0.219271 0.2182302,2.711061 1.0729902,5.23866 2.4279701,7.42192 1.9001401,3.14507 24.67741,42.736814 24.67741,42.736814 4.606581,7.97882 14.741591,10.68863 22.720411,6.08206 7.97881,-4.60658 10.69675,-14.733474 6.090158,-22.712294 L 48.215948,69.295916 H 69.29608 c 9.213159,0 16.63024,-7.417099 16.63024,-16.63024 0,-9.21317 -7.417081,-16.63025 -16.63024,-16.63025 h 24.945369 c 9.213151,0 16.630231,-7.417099 16.630231,-16.63024 0,-9.21316 -7.41708,-16.6302569 -16.630231,-16.6302569 z" />
    </mask>
    <mask
       maskUnits="userSpaceOnUse"
       id="mask32005">
      <path
         id="path32007"
         style="fill:none;stroke:#ffffff;stroke-width:5.5499;stroke-linecap:square;stroke-linejoin:round;stroke-miterlimit:4;stroke-dasharray:none;stroke-opacity:1"
         d="m 44.35058,2.775036 c -9.21316,0 -16.63024,7.417082 -16.63024,16.630242 0,9.213161 7.41708,16.630249 16.63024,16.630249 H 19.97363 c -0.33511,-0.0108 -0.67061,-0.0172 -1.00692,-0.008 -0.14081,0.004 -0.2813,0.0249 -0.42225,0.0324 -0.11915,0.007 -0.23818,0.01781 -0.35729,0.02439 -0.144,0.0108 -0.28746,0.0186 -0.43035,0.0325 -0.21403,0.02209 -0.42782,0.0507 -0.64151,0.0813 -0.24276,0.0332 -0.48349,0.0701 -0.72271,0.11376 -0.0241,0.004 -0.049,0.004 -0.0731,0.008 -0.0324,0.005 -0.065,0.009 -0.0975,0.01619 -6.5920701,1.267349 -11.77733,6.401559 -13.1141899,12.96802 -0.0782,0.384148 -0.1272302,0.77579 -0.1786602,1.16931 -0.008,0.0568 -0.014899,0.1139 -0.0244,0.1705 -0.023699,0.196699 -0.0482,0.39401 -0.065,0.59277 -0.004,0.035 -0.005,0.0704 -0.008,0.105558 -0.021,0.268751 -0.0324,0.539411 -0.0405,0.811861 -0.005,0.170741 -0.016301,0.340511 -0.016301,0.51159 0,0.40689 0.020201,0.810519 0.0487,1.209929 0.009,0.125071 0.012099,0.248412 0.0244,0.373502 -0.007,-0.072 -0.003,-0.146931 -0.008,-0.219271 0.2182302,2.711061 1.0729902,5.23866 2.4279701,7.42192 1.9001401,3.14507 24.67741,42.736814 24.67741,42.736814 4.606581,7.97882 14.741591,10.68863 22.720411,6.08206 7.97881,-4.60658 10.69675,-14.733474 6.090158,-22.712294 L 48.215948,69.295916 H 69.29608 c 9.213159,0 16.63024,-7.417099 16.63024,-16.63024 0,-9.21317 -7.417081,-16.63025 -16.63024,-16.63025 h 24.945369 c 9.213151,0 16.630231,-7.417099 16.630231,-16.63024 0,-9.21316 -7.41708,-16.6302569 -16.630231,-16.6302569 z" />
    </mask>
    <mask
       maskUnits="userSpaceOnUse"
       id="mask32009">
      <path
         id="path32011"
         style="fill:none;stroke:#ffffff;stroke-width:5.5499;stroke-linecap:square;stroke-linejoin:round;stroke-miterlimit:4;stroke-dasharray:none;stroke-opacity:1"
         d="m 44.35058,2.775036 c -9.21316,0 -16.63024,7.417082 -16.63024,16.630242 0,9.213161 7.41708,16.630249 16.63024,16.630249 H 19.97363 c -0.33511,-0.0108 -0.67061,-0.0172 -1.00692,-0.008 -0.14081,0.004 -0.2813,0.0249 -0.42225,0.0324 -0.11915,0.007 -0.23818,0.01781 -0.35729,0.02439 -0.144,0.0108 -0.28746,0.0186 -0.43035,0.0325 -0.21403,0.02209 -0.42782,0.0507 -0.64151,0.0813 -0.24276,0.0332 -0.48349,0.0701 -0.72271,0.11376 -0.0241,0.004 -0.049,0.004 -0.0731,0.008 -0.0324,0.005 -0.065,0.009 -0.0975,0.01619 -6.5920701,1.267349 -11.77733,6.401559 -13.1141899,12.96802 -0.0782,0.384148 -0.1272302,0.77579 -0.1786602,1.16931 -0.008,0.0568 -0.014899,0.1139 -0.0244,0.1705 -0.023699,0.196699 -0.0482,0.39401 -0.065,0.59277 -0.004,0.035 -0.005,0.0704 -0.008,0.105558 -0.021,0.268751 -0.0324,0.539411 -0.0405,0.811861 -0.005,0.170741 -0.016301,0.340511 -0.016301,0.51159 0,0.40689 0.020201,0.810519 0.0487,1.209929 0.009,0.125071 0.012099,0.248412 0.0244,0.373502 -0.007,-0.072 -0.003,-0.146931 -0.008,-0.219271 0.2182302,2.711061 1.0729902,5.23866 2.4279701,7.42192 1.9001401,3.14507 24.67741,42.736814 24.67741,42.736814 4.606581,7.97882 14.741591,10.68863 22.720411,6.08206 7.97881,-4.60658 10.69675,-14.733474 6.090158,-22.712294 L 48.215948,69.295916 H 69.29608 c 9.213159,0 16.63024,-7.417099 16.63024,-16.63024 0,-9.21317 -7.417081,-16.63025 -16.63024,-16.63025 h 24.945369 c 9.213151,0 16.630231,-7.417099 16.630231,-16.63024 0,-9.21316 -7.41708,-16.6302569 -16.630231,-16.6302569 z" />
    </mask>
  </defs>
  <g
     inkscape:groupmode="layer"
     id="layer1"
     inkscape:label="Layer 1">
    <path
       style="fill:#ffa238;fill-opacity:1;stroke:none;stroke-width:0.264583px;stroke-linecap:butt;stroke-linejoin:miter;stroke-opacity:1"
       d="M 131.85741,-67.448454 C 75.85702,53.214438 72.0863,-36.444791 12.59279,-0.413511 -46.90072,35.617768 -20.08675,75.838738 -72.038825,85.893978 -123.9909,95.949218 -159.18425,80.447388 -159.18425,80.447388 V 117.8232 h 291.04166 z"
       id="path10939"
       mask="url(#mask32009)" />
    <path
       style="fill:#ff6d38;fill-opacity:1;stroke:none;stroke-width:0.264583px;stroke-linecap:butt;stroke-linejoin:miter;stroke-opacity:1"
       d="M 131.85741,7.965858 C 103.78653,-14.557062 98.47063,11.014888 68.81126,5.876804 24.50357,-1.798902 8.7066,11.606158 -0.39523,46.929918 -9.64809,82.839838 -31.39889,110.94446 -49.41453,104.32859 -77.26383,94.101518 -92.568276,117.8232 -92.568276,117.8232 H 131.85741 Z"
       id="path12313"
       sodipodi:nodetypes="csssccc"
       mask="url(#mask32005)" />
    <path
       style="fill:#ff3855;fill-opacity:1;stroke:none;stroke-width:0.264583px;stroke-linecap:butt;stroke-linejoin:miter;stroke-opacity:1"
       d="M -4.58492,117.8232 C -7.93666,87.150898 9.69205,82.544728 10.91692,66.621428 11.75486,55.728258 32.49733,4.852789 56.58447,18.440058 c 33.09671,18.66946 48.87794,20.11049 75.27294,10.47422 V 117.8232 Z"
       id="path14130"
       sodipodi:nodetypes="cssccc"
       mask="url(#mask32001)" />
    <path
       style="fill:#bd38ff;fill-opacity:1;stroke:none;stroke-width:0.264583px;stroke-linecap:butt;stroke-linejoin:miter;stroke-opacity:1"
       d="M 50.71891,117.8232 C 11.75485,79.190478 28.02499,61.152398 43.59645,45.673018 c 15.31603,-15.22546 74.57637,-0.83795 69.12978,28.90881 -5.44659,29.746752 19.13118,28.158512 19.13118,28.158512 v 15.08286 z"
       id="path14825"
       sodipodi:nodetypes="cssccc"
       mask="url(#mask31997)" />
    <path
       style="fill:#383eff;fill-opacity:1;stroke:none;stroke-width:0.264583px;stroke-linecap:butt;stroke-linejoin:miter;stroke-opacity:1"
       d="m 44.01542,73.743898 c 18.43461,-23.8812 34.35541,-22.6243 45.24859,-7.54144 10.89317,15.08287 26.395,24.63151 13.82595,40.639942 -12.56905,16.00842 -41.0589,-5.44659 -51.11414,-10.055242 -10.05524,-4.60866 -12.98802,-10.05524 -7.9604,-23.04326 z"
       id="path17932"
       sodipodi:nodetypes="csssc"
       mask="url(#mask31993)" />
  </g>
</svg>
