<?xml version="1.0" encoding="UTF-8" standalone="no"?> <!-- Created with Vectornator for iOS (http://vectornator.io/) --><!DOCTYPE svg PUBLIC "-//W3C//DTD SVG 1.1//EN" "http://www.w3.org/Graphics/SVG/1.1/DTD/svg11.dtd">
<svg height="100%" style="fill-rule:nonzero;clip-rule:evenodd;stroke-linecap:round;stroke-linejoin:round;" xmlns:xlink="http://www.w3.org/1999/xlink" xmlns="http://www.w3.org/2000/svg" xml:space="preserve" width="100%" xmlns:vectornator="http://vectornator.io" version="1.1" viewBox="0 0 113.647 115.272">
<metadata>
<vectornator:setting key="DimensionsVisible" value="1"/>
<vectornator:setting key="PencilOnly" value="0"/>
<vectornator:setting key="SnapToPoints" value="1"/>
<vectornator:setting key="GuidesVisible" value="1"/>
<vectornator:setting key="CMYKEnabledKey" value="0"/>
<vectornator:setting key="RulersVisible" value="1"/>
<vectornator:setting key="SnapToEdges" value="1"/>
<vectornator:setting key="OutlineMode" value="0"/>
<vectornator:setting key="DisplayWhiteBackground" value="0"/>
<vectornator:setting key="doHistoryDisabled" value="0"/>
<vectornator:setting key="SnapToGuides" value="1"/>
<vectornator:setting key="TimeLapseWatermarkDisabled" value="0"/>
<vectornator:setting key="Units" value="Points"/>
<vectornator:setting key="SnapToGrid" value="0"/>
<vectornator:setting key="IsolateActiveLayer" value="0"/>
<vectornator:setting key="DynamicGuides" value="1"/>
</metadata>
<defs/>
<g id="layer1" vectornator:layerName="layer1">
<path d="M44.3438-0C33.598+0+24.9375+8.66053+24.9375+19.4062C24.9375+24.8512+27.1898+29.7315+30.7812+33.25L19.9688+33.25C19.6075+33.2369+19.2702+33.2401+18.9062+33.25C18.7844+33.2535+18.502+33.2781+18.4688+33.2812C18.4142+33.2865+17.6152+33.3325+17.5+33.3438C17.2501+33.3695+17.0041+33.3966+16.7188+33.4375C16.4359+33.4761+16.175+33.5447+15.9062+33.5938C15.8864+33.5965+15.9007+33.5902+15.875+33.5938C15.9115+33.5879+15.7206+33.605+15.625+33.625C8.00735+35.0884+1.93676+41.0788+0.375+48.75C0.297137+49.1325+0.265949+49.4294+0.1875+50.0312C0.181664+50.076+0.0789145+50.8058+0.0625+51C0.0561422+51.0687+0.0418532+51.7059+0.03125+52.0625C0.030201+52.0983-7.76102e-11+52.5231-0+52.6562C0+53.1019+0.0259686+53.5505+0.0625+54.0625C0.0629411+54.0691+0.0609708+54.1314+0.0625+54.1562C0.062642+54.1672+0.0623364+54.1772+0.0625+54.1875C0.063186+54.199+0.0617001+54.2072+0.0625+54.2188C0.0631801+54.2297+0.0617561+54.2382+0.0625+54.25C0.0651564+54.283+0.0909303+54.3108+0.09375+54.3438C0.0988524+54.4201+0.0897287+54.4904+0.09375+54.5312C0.104589+54.6415+0.167703+54.7098+0.1875+54.8125C0.506769+57.7104+1.39695+60.4743+2.90625+62.9062C3.67307+64.1759+8.16757+71.9629+15.125+84.0312C15.1443+84.0647+27.483+105.479+27.5312+105.562C32.9057+114.871+44.7555+118.061+54.0625+112.688C63.3693+107.314+66.5287+95.4616+61.1562+86.1562L53.0312+72.0625L69.2812+72.0625C80.027+72.0625+88.6875+63.402+88.6875+52.6562C88.6875+47.2113+86.4665+42.331+82.875+38.8125L94.25+38.8125C104.996+38.8125+113.656+30.152+113.656+19.4062C113.656+8.66053+104.996-1.27157e-06+94.25-0C92.6909+3.40492e-06+45.9029-3.40494e-06+44.3438-0ZM44.3438+5.5625C45.9028+5.5625+92.6909+5.5625+94.25+5.5625C101.931+5.5625+108.094+11.7256+108.094+19.4062C108.094+27.0868+101.931+33.25+94.25+33.25L69.2812+33.25C65.5813+33.25+65.5813+38.8125+69.2812+38.8125C76.9618+38.8125+83.1562+44.9756+83.1562+52.6562C83.1562+60.3368+76.9618+66.5312+69.2812+66.5312L48.2188+66.5312C46.0828+66.5312+44.7448+68.8375+45.8125+70.6875L56.3438+88.9375C60.1835+95.5882+57.9341+104.034+51.2812+107.875C44.628+111.716+36.1831+109.462+32.3438+102.812C32.2976+102.732+8.47223+61.3818+7.65625+60.0312C6.53317+58.2213+5.83181+56.177+5.625+54.0312C5.62461+54.0117+5.62571+53.9894+5.625+53.9688C5.62433+53.962+5.5625+52.9549+5.5625+52.6562C5.5625+52.6212+5.57878+51.7541+5.59375+51.5625C5.59759+51.5122+5.59367+51.47+5.59375+51.4688C5.59456+51.4607+5.6528+50.9973+5.65625+50.9688C5.69033+50.7323+5.77379+50.0339+5.8125+49.8438C6.92568+44.376+11.2651+40.117+16.75+39.0625C16.7835+39.0581+16.7667+39.073+16.8438+39.0625C17.0688+39.0218+17.2768+38.968+17.5+38.9375C17.7367+38.9037+17.8818+38.8904+18.0312+38.875C18.0598+38.8723+19.0108+38.8144+19.0312+38.8125C19.2634+38.8061+19.5251+38.8012+19.875+38.8125L44.3438+38.8125C48.0437+38.8125+48.0437+33.25+44.3438+33.25C36.6632+33.25+30.5+27.0869+30.5+19.4062C30.5+11.7257+36.6631+5.5625+44.3438+5.5625Z" opacity="1" fill="#ffa238"/>
<path stroke="#ff6d38" stroke-width="0.2" d="M99.6272+0.75032C95.1751+2.36783+90.5612+4.39828+85.0312+5.5625C87.8357+5.5625+93.962+5.5625+94.25+5.5625C101.931+5.5625+108.094+11.7256+108.094+19.4062C108.094+27.0868+101.931+33.25+94.25+33.25L69.2812+33.25C65.5813+33.25+65.5813+38.8125+69.2812+38.8125C76.9618+38.8125+83.1562+44.9756+83.1562+52.6562C83.1562+60.3368+76.9618+66.5312+69.2812+66.5312L48.2188+66.5312C46.0828+66.5312+44.7448+68.8375+45.8125+70.6875L56.3438+88.9375C60.1835+95.5882+57.9341+104.034+51.2812+107.875C44.628+111.716+36.1831+109.462+32.3438+102.812C32.2976+102.732+8.47223+61.3818+7.65625+60.0312C6.53317+58.2213+5.83181+56.177+5.625+54.0312C5.62461+54.0117+5.62571+53.9894+5.625+53.9688C5.62433+53.962+5.5625+52.9549+5.5625+52.6562C5.5625+52.6212+5.57878+51.7541+5.59375+51.5625C5.59759+51.5122+5.59367+51.47+5.59375+51.4688C5.59456+51.4607+5.6528+50.9973+5.65625+50.9688C5.69033+50.7323+5.77379+50.0339+5.8125+49.8438C6.92568+44.376+11.2651+40.117+16.75+39.0625C16.7835+39.0581+16.7667+39.073+16.8438+39.0625C17.0688+39.0218+17.2768+38.968+17.5+38.9375C17.7367+38.9037+17.8818+38.8904+18.0312+38.875C18.0598+38.8723+19.0108+38.8144+19.0312+38.8125C19.2634+38.8061+19.5251+38.8012+19.875+38.8125L44.3438+38.8125C48.0437+38.8125+48.0437+33.25+44.3438+33.25C36.6632+33.25+30.5+27.0869+30.5+19.4062C30.5+11.7257+36.6631+5.5625+44.3438+5.5625C45.0281+5.5625+55.7871+5.5625+66.25+5.5625C51.1927+3.19051+39.3956+3.28581+30.25+6.09375C26.9713+9.56639+24.9375+14.2348+24.9375+19.4062C24.9375+24.8512+27.1898+29.7315+30.7812+33.25L19.9688+33.25C19.6075+33.2369+19.2702+33.2401+18.9062+33.25C18.7844+33.2535+18.502+33.2781+18.4688+33.2812C18.4142+33.2865+17.6152+33.3325+17.5+33.3438C17.2501+33.3695+17.0041+33.3966+16.7188+33.4375C16.4359+33.4761+16.175+33.5447+15.9062+33.5938C15.8864+33.5965+15.9007+33.5902+15.875+33.5938C15.9115+33.5879+15.7206+33.605+15.625+33.625C8.00735+35.0884+1.93676+41.0788+0.375+48.75C0.297137+49.1325+0.265949+49.4294+0.1875+50.0312C0.181664+50.076+0.0789145+50.8058+0.0625+51C0.0561422+51.0687+0.0418532+51.7059+0.03125+52.0625C0.030201+52.0983-7.7609e-11+52.5231+0+52.6562C0+53.1019+0.0259686+53.5505+0.0625+54.0625C0.0629411+54.0691+0.0609708+54.1314+0.0625+54.1562C0.062642+54.1672+0.0623364+54.1772+0.0625+54.1875C0.063186+54.199+0.0617001+54.2072+0.0625+54.2188C0.0631801+54.2297+0.0617561+54.2382+0.0625+54.25C0.0651564+54.283+0.0909303+54.3108+0.09375+54.3438C0.0988524+54.4201+0.0897287+54.4904+0.09375+54.5312C0.104589+54.6415+0.167703+54.7098+0.1875+54.8125C0.506769+57.7104+1.39695+60.4743+2.90625+62.9062C3.67307+64.1759+8.16757+71.9629+15.125+84.0312C15.1443+84.0647+27.483+105.479+27.5312+105.562C32.9057+114.871+44.7555+118.061+54.0625+112.688C63.3693+107.314+66.5287+95.4616+61.1562+86.1562L53.0312+72.0625L69.2812+72.0625C80.027+72.0625+88.6875+63.402+88.6875+52.6562C88.6875+47.2113+86.4665+42.331+82.875+38.8125L94.25+38.8125C104.996+38.8125+113.656+30.152+113.656+19.4062C113.656+10.5765+107.674+3.11628+99.6272+0.75032Z" fill="#ff6d38" stroke-linecap="square" opacity="1" stroke-linejoin="miter"/>
<path stroke="#ff3855" stroke-width="0.3" d="M31.6875+24.9688C30.3634+26.3581+29.1964+28.0626+27.9688+29.6562C28.7833+30.9435+29.6979+32.1887+30.7812+33.25L25.0938+33.25C23.8933+35.035+22.8858+36.9378+21.8125+38.8125L44.3438+38.8125C48.0437+38.8125+48.0437+33.25+44.3438+33.25C38.6491+33.25+33.8203+29.8513+31.6875+24.9688ZM69.2812+33.25C65.5813+33.25+65.5813+38.8125+69.2812+38.8125C76.9618+38.8125+83.1562+44.9756+83.1562+52.6562C83.1562+60.3368+76.9618+66.5312+69.2812+66.5312L48.2188+66.5312C46.0828+66.5312+44.7448+68.8375+45.8125+70.6875L56.3438+88.9375C60.1835+95.5882+57.9341+104.034+51.2812+107.875C44.628+111.716+36.1831+109.462+32.3438+102.812C32.3039+102.743+16.4606+75.2329+11.0625+65.9062C11.0397+66.0958+10.9194+66.4546+10.9062+66.625C10.7075+69.2086+9.9965+71.4463+9.09375+73.5938C11.1761+77.1963+11.6883+78.0699+15.125+84.0312C15.1443+84.0647+27.483+105.479+27.5312+105.562C32.9057+114.871+44.7555+118.061+54.0625+112.688C63.3693+107.314+66.5287+95.4616+61.1562+86.1562L53.0312+72.0625L69.2812+72.0625C80.027+72.0625+88.6875+63.402+88.6875+52.6562C88.6875+47.2113+86.4665+42.331+82.875+38.8125L94.25+38.8125C98.7509+38.8125+102.808+37.2119+106.094+34.6562C101.364+34.8323+96.6028+34.3209+91.6562+33.25L69.2812+33.25Z" fill="#ff3855" stroke-linecap="square" opacity="1" stroke-linejoin="miter"/>
<path stroke="#bd38ff" stroke-width="0.4" d="M76.4375+40.8438C80.4437+43.2638+83.1562+47.6147+83.1562+52.6562C83.1562+55.8967+82.0536+58.8727+80.202+61.2305C77.6648+64.4611+73.7214+66.5312+69.2812+66.5312L48.2188+66.5312C46.0828+66.5312+44.7448+68.8375+45.8125+70.6875L56.3438+88.9375C60.1835+95.5882+57.9341+104.034+51.2812+107.875C48.6867+109.373+45.6492+109.924+42.8892+109.669C44.3678+111.365+46.177+113.186+47.8924+114.971C50.0002+114.577+52.0966+113.822+54.0625+112.688C63.3693+107.314+66.5287+95.4616+61.1562+86.1562L53.0312+72.0625L69.2812+72.0625C80.027+72.0625+88.6875+63.402+88.6875+52.6562C88.6875+49.2559+87.8683+45.8875+86.2066+43.1522C83.0144+42.0605+79.7346+41.4756+76.4375+40.8438Z" fill="#bd38ff" stroke-linecap="square" opacity="1" stroke-linejoin="miter"/>
<path stroke="#383eff" stroke-width="0.5" d="M81.6875+58.7812C79.4254+63.363+74.7504+66.5312+69.2812+66.5312L50.2812+66.5312C48.9293+67.9143+47.5394+69.6189+46.1562+71.2812L56.3438+88.9375C58.3471+92.4075+58.6661+96.3367+57.5937+99.875C59.2693+100.825+60.5335+101.594+62.5299+102.717C64.5511+97.4647+64.2492+91.3151+61.1562+86.1562L53.0312+72.0625L69.6321+72.0565C76.7959+72.0565+82.7742+68.2598+86.1004+62.3656C84.7355+60.9403+83.1761+59.7922+81.6875+58.7812Z" fill="#383eff" stroke-linecap="square" opacity="1" stroke-linejoin="miter"/>
</g>
</svg>
