<?xml version="1.0" encoding="UTF-8" standalone="no"?>
<!-- Created with Inkscape (http://www.inkscape.org/) -->

<svg
   width="1024"
   height="204.56952"
   viewBox="0 0 270.93333 54.125683"
   version="1.1"
   id="svg311815"
   sodipodi:docname="logo.svg"
   inkscape:version="1.1 (ce6663b3b7, 2021-05-25)"
   xmlns:inkscape="http://www.inkscape.org/namespaces/inkscape"
   xmlns:sodipodi="http://sodipodi.sourceforge.net/DTD/sodipodi-0.dtd"
   xmlns:xlink="http://www.w3.org/1999/xlink"
   xmlns="http://www.w3.org/2000/svg"
   xmlns:svg="http://www.w3.org/2000/svg">
  <sodipodi:namedview
     id="namedview42"
     pagecolor="#505050"
     bordercolor="#ffffff"
     borderopacity="1"
     inkscape:pageshadow="0"
     inkscape:pageopacity="0"
     inkscape:pagecheckerboard="1"
     showgrid="false"
     inkscape:snap-global="true"
     inkscape:snap-bbox="true"
     inkscape:bbox-paths="true"
     inkscape:bbox-nodes="true"
     inkscape:snap-bbox-edge-midpoints="true"
     inkscape:snap-bbox-midpoints="true"
     inkscape:object-paths="true"
     inkscape:snap-intersection-paths="true"
     inkscape:snap-smooth-nodes="true"
     inkscape:snap-midpoints="true"
     inkscape:snap-object-midpoints="true"
     inkscape:snap-center="true"
     inkscape:snap-text-baseline="true"
     inkscape:snap-page="true"
     inkscape:zoom="1.2081916"
     inkscape:cx="573.17067"
     inkscape:cy="157.67367"
     inkscape:window-width="2560"
     inkscape:window-height="1295"
     inkscape:window-x="3440"
     inkscape:window-y="28"
     inkscape:window-maximized="1"
     inkscape:current-layer="svg311815"
     showguides="true"
     inkscape:guide-bbox="true" />
  <defs
     id="defs311812">
    <linearGradient
       id="linearGradient325915">
      <stop
         style="stop-color:#ff00d0;stop-opacity:1"
         offset="0"
         id="stop325911" />
      <stop
         style="stop-color:#008bff;stop-opacity:1"
         offset="1"
         id="stop325913" />
    </linearGradient>
    <rect
       x="256"
       y="192"
       width="608"
       height="128"
       id="rect318434" />
    <linearGradient
       xlink:href="#linearGradient325915"
       id="linearGradient325919"
       x1="33.866665"
       y1="84.666664"
       x2="63.499996"
       y2="50.799999"
       gradientUnits="userSpaceOnUse" />
    <linearGradient
       xlink:href="#linearGradient325915"
       id="linearGradient332074"
       gradientUnits="userSpaceOnUse"
       x1="33.866665"
       y1="84.666664"
       x2="63.499996"
       y2="50.799999"
       gradientTransform="translate(12.7)" />
    <linearGradient
       xlink:href="#linearGradient325915"
       id="linearGradient333423"
       gradientUnits="userSpaceOnUse"
       x1="33.866665"
       y1="84.666664"
       x2="63.499996"
       y2="50.799999" />
    <linearGradient
       xlink:href="#linearGradient325915"
       id="linearGradient333425"
       gradientUnits="userSpaceOnUse"
       x1="33.866665"
       y1="84.666664"
       x2="63.499996"
       y2="50.799999" />
    <linearGradient
       xlink:href="#linearGradient325915"
       id="linearGradient333427"
       gradientUnits="userSpaceOnUse"
       x1="33.866665"
       y1="84.666664"
       x2="63.499996"
       y2="50.799999" />
    <linearGradient
       xlink:href="#linearGradient325915"
       id="linearGradient333429"
       gradientUnits="userSpaceOnUse"
       x1="33.866665"
       y1="84.666664"
       x2="63.499996"
       y2="50.799999" />
  </defs>
  <text
     xml:space="preserve"
     transform="scale(0.26458333)"
     id="text318432"
     style="font-style:normal;font-weight:normal;font-size:40px;line-height:84.8;font-family:sans-serif;letter-spacing:12.32px;word-spacing:0px;white-space:pre;shape-inside:url(#rect318434);fill:#000000;fill-opacity:1;stroke:none"><tspan
       x="256"
       y="2026.3907"
       id="tspan1091"><tspan
         dx="0 30.800781"
         id="tspan1089">DE</tspan></tspan></text>
  <g
     aria-label="DeepFusion"
     id="text322730"
     style="font-size:22.5778px;line-height:84.8;letter-spacing:0.529167px;word-spacing:0px;stroke-width:0.264583"
     transform="matrix(1.5981991,0,0,1.5981991,-60.89076,-81.188512)">
    <path
       d="m 80.873605,57.528168 q 2.619025,0 4.492982,0.948268 1.873958,0.948268 2.867381,2.731914 0.993423,1.783646 0.993423,4.244626 0,2.438403 -0.993423,4.222049 -0.993423,1.761069 -2.867381,2.709336 -1.873957,0.92569 -4.492982,0.92569 H 76.2 V 57.528168 Z m 0,14.472371 q 3.296359,0 5.012272,-1.715913 1.73849,-1.738491 1.73849,-4.83165 0,-3.115736 -1.73849,-4.854227 -1.715913,-1.761068 -5.012272,-1.761068 h -3.093159 v 13.162858 z"
       style="font-weight:300;font-family:Poppins;-inkscape-font-specification:'Poppins Light';fill:#ffffff"
       id="path334604" />
    <path
       d="m 103.82251,66.514133 q 0,0.812801 -0.0451,1.241779 H 93.549614 q 0.06773,1.399824 0.677334,2.393247 0.609601,0.993423 1.603024,1.512713 0.993423,0.496711 2.167469,0.496711 1.53529,0 2.573869,-0.745067 1.06116,-0.745068 1.39982,-2.009425 h 1.67076 q -0.45155,1.806224 -1.94169,2.957692 -1.46756,1.12889 -3.702759,1.12889 -1.738491,0 -3.115737,-0.767645 -1.377245,-0.790223 -2.167468,-2.212624 -0.767646,-1.44498 -0.767646,-3.364093 0,-1.919113 0.767646,-3.364092 0.767645,-1.444979 2.144891,-2.212624 1.377245,-0.767646 3.138314,-0.767646 1.761068,0 3.070579,0.767646 1.33209,0.767645 2.032,2.077157 0.72249,1.286935 0.72249,2.867381 z m -1.60302,-0.04516 q 0.0226,-1.377246 -0.56445,-2.348091 -0.56444,-0.970845 -1.55786,-1.467557 -0.993427,-0.496712 -2.167472,-0.496712 -1.761069,0 -3.002848,1.12889 -1.241779,1.12889 -1.377246,3.18347 z"
       style="font-weight:300;font-family:Poppins;-inkscape-font-specification:'Poppins Light';fill:#ffffff"
       id="path334606" />
    <path
       d="m 118.39507,66.514133 q 0,0.812801 -0.0452,1.241779 h -10.22774 q 0.0677,1.399824 0.67733,2.393247 0.6096,0.993423 1.60303,1.512713 0.99342,0.496711 2.16746,0.496711 1.5353,0 2.57387,-0.745067 1.06116,-0.745068 1.39983,-2.009425 h 1.67075 q -0.45155,1.806224 -1.94169,2.957692 -1.46755,1.12889 -3.70276,1.12889 -1.73849,0 -3.11573,-0.767645 -1.37725,-0.790223 -2.16747,-2.212624 -0.76765,-1.44498 -0.76765,-3.364093 0,-1.919113 0.76765,-3.364092 0.76764,-1.444979 2.14489,-2.212624 1.37725,-0.767646 3.13831,-0.767646 1.76107,0 3.07059,0.767646 1.33209,0.767645 2.032,2.077157 0.72249,1.286935 0.72249,2.867381 z m -1.60303,-0.04516 q 0.0226,-1.377246 -0.56444,-2.348091 -0.56445,-0.970845 -1.55787,-1.467557 -0.99342,-0.496712 -2.16747,-0.496712 -1.76107,0 -3.00285,1.12889 -1.24178,1.12889 -1.37724,3.18347 z"
       style="font-weight:300;font-family:Poppins;-inkscape-font-specification:'Poppins Light';fill:#ffffff"
       id="path334608" />
    <path
       d="m 123.37205,63.691908 q 0.58703,-1.241779 1.85138,-2.05458 1.28694,-0.835379 3.04801,-0.835379 1.67075,0 3.00284,0.790223 1.35467,0.767646 2.09974,2.212625 0.76764,1.422401 0.76764,3.318937 0,1.896535 -0.76764,3.341514 -0.74507,1.444979 -2.09974,2.235202 -1.33209,0.790223 -3.00284,0.790223 -1.73849,0 -3.02543,-0.8128 -1.28693,-0.835379 -1.87396,-2.077158 v 8.534409 h -1.55786 V 60.982572 h 1.55786 z m 9.16659,3.431826 q 0,-1.535291 -0.6096,-2.641603 -0.58702,-1.12889 -1.6256,-1.715913 -1.03858,-0.587023 -2.34809,-0.587023 -1.26436,0 -2.32552,0.609601 -1.03858,0.6096 -1.64818,1.73849 -0.6096,1.128891 -0.6096,2.619025 0,1.490135 0.6096,2.619025 0.6096,1.12889 1.64818,1.738491 1.06116,0.609601 2.32552,0.609601 1.30951,0 2.34809,-0.587023 1.03858,-0.609601 1.6256,-1.738491 0.6096,-1.151468 0.6096,-2.66418 z"
       style="font-weight:300;font-family:Poppins;-inkscape-font-specification:'Poppins Light';fill:#ffffff"
       id="path334610" />
    <path
       d="m 146.11776,57.528168 v 1.309513 h -6.95396 v 5.892806 h 5.87022 v 1.309512 h -5.87022 v 7.270052 h -1.58045 V 57.528168 Z"
       style="font-weight:300;font-family:Poppins;-inkscape-font-specification:'Poppins Light';fill:#ffffff"
       id="path334612" />
    <path
       d="m 159.92263,60.982572 v 12.327479 h -1.58044 v -2.167469 q -0.54187,1.151468 -1.67076,1.761069 -1.12889,0.6096 -2.52871,0.6096 -2.21263,0 -3.61245,-1.354668 -1.39982,-1.377246 -1.39982,-3.973693 v -7.202318 h 1.55786 v 7.021696 q 0,2.009424 0.99343,3.070581 1.016,1.061156 2.75449,1.061156 1.78365,0 2.8448,-1.12889 1.06116,-1.12889 1.06116,-3.318936 v -6.705607 z"
       style="font-weight:300;font-family:Poppins;-inkscape-font-specification:'Poppins Light';fill:#ffffff"
       id="path334614" />
    <path
       d="m 168.30886,73.490673 q -2.12231,0 -3.47698,-0.970845 -1.33209,-0.993423 -1.49013,-2.686758 h 1.6256 q 0.11289,1.038578 0.97084,1.693335 0.88054,0.632178 2.34809,0.632178 1.28694,0 2.00943,-0.6096 0.74507,-0.609601 0.74507,-1.512713 0,-0.632179 -0.40641,-1.038579 -0.4064,-0.4064 -1.03857,-0.632178 -0.6096,-0.248356 -1.67076,-0.51929 -1.37725,-0.361245 -2.2352,-0.722489 -0.85796,-0.361245 -1.46756,-1.061157 -0.58702,-0.72249 -0.58702,-1.919113 0,-0.903112 0.54186,-1.670757 0.54187,-0.767646 1.53529,-1.219202 0.99343,-0.451556 2.25778,-0.451556 1.98685,0 3.20605,1.016001 1.2192,0.993424 1.30951,2.754492 h -1.58044 q -0.0677,-1.083734 -0.85796,-1.738491 -0.76764,-0.677334 -2.12231,-0.677334 -1.19662,0 -1.94169,0.564445 -0.74507,0.564445 -0.74507,1.399824 0,0.72249 0.42898,1.196623 0.45155,0.451557 1.10631,0.72249 0.65476,0.248356 1.76107,0.564445 1.33209,0.361245 2.12231,0.699912 0.79023,0.338667 1.35467,0.993423 0.56445,0.654756 0.58702,1.738491 0,0.993423 -0.54186,1.783646 -0.54187,0.767645 -1.51272,1.219201 -0.97084,0.451556 -2.2352,0.451556 z"
       style="font-weight:300;font-family:Poppins;-inkscape-font-specification:'Poppins Light';fill:#ffffff"
       id="path334616" />
    <path
       d="m 176.89827,58.657058 q -0.47414,0 -0.8128,-0.338667 -0.33867,-0.338667 -0.33867,-0.835378 0,-0.496712 0.33867,-0.812801 0.33866,-0.338667 0.8128,-0.338667 0.47413,0 0.8128,0.338667 0.33866,0.316089 0.33866,0.812801 0,0.496711 -0.33866,0.835378 -0.33867,0.338667 -0.8128,0.338667 z m 0.79022,2.325514 v 12.327479 h -1.58045 V 60.982572 Z"
       style="font-weight:300;font-family:Poppins;-inkscape-font-specification:'Poppins Light';fill:#ffffff"
       id="path334618" />
    <path
       d="m 187.20358,73.490673 q -1.73849,0 -3.13832,-0.767645 -1.37724,-0.790223 -2.19004,-2.212624 -0.79023,-1.44498 -0.79023,-3.364093 0,-1.919113 0.8128,-3.341514 0.8128,-1.444979 2.21263,-2.212625 1.39982,-0.790223 3.13831,-0.790223 1.73849,0 3.13832,0.790223 1.4224,0.767646 2.21262,2.212625 0.8128,1.422401 0.8128,3.341514 0,1.896536 -0.8128,3.341515 -0.8128,1.444979 -2.2352,2.235202 -1.4224,0.767645 -3.16089,0.767645 z m 0,-1.377245 q 1.2192,0 2.25778,-0.541868 1.03858,-0.564445 1.67075,-1.670757 0.65476,-1.12889 0.65476,-2.754492 0,-1.625601 -0.63218,-2.731914 -0.63218,-1.12889 -1.67075,-1.670757 -1.03858,-0.564445 -2.25778,-0.564445 -1.21921,0 -2.25778,0.564445 -1.03858,0.541867 -1.67076,1.670757 -0.6096,1.106313 -0.6096,2.731914 0,1.625602 0.6096,2.754492 0.63218,1.106312 1.64818,1.670757 1.03858,0.541868 2.25778,0.541868 z"
       style="font-weight:300;font-family:Poppins;-inkscape-font-specification:'Poppins Light';fill:#ffffff"
       id="path334620" />
    <path
       d="m 202.61148,60.756794 q 2.21262,0 3.61245,1.377246 1.39982,1.354668 1.39982,3.951115 v 7.224896 h -1.55787 v -7.044274 q 0,-2.009424 -1.016,-3.070581 -0.99342,-1.061156 -2.73191,-1.061156 -1.78365,0 -2.84481,1.12889 -1.06115,1.12889 -1.06115,3.318936 v 6.728185 h -1.58045 V 60.982572 h 1.58045 v 2.099735 q 0.58702,-1.12889 1.69333,-1.715913 1.10631,-0.6096 2.50614,-0.6096 z"
       style="font-weight:300;font-family:Poppins;-inkscape-font-specification:'Poppins Light';fill:#ffffff"
       id="path334622" />
  </g>
  <g
     id="g921"
     transform="matrix(0.81561309,0,0,0.81561309,14.62389,4.9900324)">
    <path
       id="path331238"
       style="color:#000000;fill:#e6e6e6;stroke-width:1.5982;stroke-linecap:round;-inkscape-stroke:none"
       d="m 6.7737682,20.296311 a 6.7657124,6.7657124 0 0 0 -0.7193513,0.04047 6.7657124,6.7657124 0 0 1 0.7127421,-0.03962 h 0.02313 a 6.7657124,6.7657124 0 0 0 -0.016534,-8.46e-4 z m -0.9415161,0.07268 a 6.7657124,6.7657124 0 0 0 -0.4881037,0.08342 6.7657124,6.7657124 0 0 1 0.4881037,-0.08342 z m -0.7457842,0.147835 a 6.7657124,6.7657124 0 0 0 -0.4294618,0.123885 6.7657124,6.7657124 0 0 1 0.4294618,-0.123885 z m -0.7020057,0.220516 a 6.7657124,6.7657124 0 0 0 -0.4022088,0.16683 6.7657124,6.7657124 0 0 1 0.4022088,-0.16683 z M 3.7245729,21.025578 A 6.7657124,6.7657124 0 0 0 3.3256667,21.24609 6.7657124,6.7657124 0 0 1 3.7245729,21.025578 Z m -0.6218955,0.353479 a 6.7657124,6.7657124 0 0 0 -0.090851,0.05451 6.7657124,6.7657124 0 0 0 -0.279149,0.208126 6.7657124,6.7657124 0 0 1 0.37,-0.262636 z M 2.5030791,21.812646 A 6.7657124,6.7657124 0 0 0 2.1570299,22.12153 6.7657124,6.7657124 0 0 1 2.5030791,21.812646 Z m -0.5475658,0.495538 a 6.7657124,6.7657124 0 0 0 -0.4046867,0.452587 6.7657124,6.7657124 0 0 1 0.4046867,-0.452587 z m -0.4823232,0.541785 a 6.7657124,6.7657124 0 0 0 -0.4319398,0.607032 6.7657124,6.7657124 0 0 1 0.4319398,-0.607032 z m -0.48149442,0.694576 a 6.7657124,6.7657124 0 0 0 -0.30723087,0.556649 6.7657124,6.7657124 0 0 1 0.30723087,-0.556649 z m -0.39725286,0.765599 a 6.7657124,6.7657124 0 0 0 -0.19491163,0.471587 6.7657124,6.7657124 0 0 1 0.19491163,-0.471587 z m -0.27502186,0.726785 a 6.7657124,6.7657124 0 0 0 -0.12801568,0.443505 6.7657124,6.7657124 0 0 1 0.12801568,-0.443505 z m -0.18582867,0.73257 a 6.7657124,6.7657124 0 0 0 -0.07515434,0.442676 6.7657124,6.7657124 0 0 1 0.07515434,-0.442676 z m -0.10240747,0.730913 a 6.7657124,6.7657124 0 0 0 -0.02477941,0.439373 6.7657124,6.7657124 0 0 1 0.02477941,-0.439373 z m -0.02063541,0.753213 a 6.7657124,6.7657124 0 0 0 0.0239337,0.422033 6.7657124,6.7657124 0 0 1 -0.0239337,-0.422033 z m 0.0611155,0.735044 A 6.7657124,6.7657124 0 0 0 0.1410388,28.399965 6.7657124,6.7657124 0 0 1 0.07166491,27.988669 Z M 0.21206607,28.71463 A 6.7657124,6.7657124 0 0 0 0.32934118,29.123448 6.7657124,6.7657124 0 0 1 0.21206607,28.71463 Z M 0.426797,29.410855 A 6.7657124,6.7657124 0 0 0 0.59362671,29.813892 6.7657124,6.7657124 0 0 1 0.426797,29.410855 Z M 0.71998902,30.08809 A 6.7657124,6.7657124 0 0 0 0.93802669,30.482865 6.7657124,6.7657124 0 0 1 0.71998902,30.08809 Z m 0.36256588,0.638412 a 6.7657124,6.7657124 0 0 0 0.053686,0.09002 L 14.66766,51.112828 a 6.7657124,6.7657124 0 0 0 9.383785,1.875602 6.7657124,6.7657124 0 0 0 1.875603,-9.379658 L 19.407441,33.828554 H 6.767159 A 6.7657124,6.7657124 0 0 1 1.0825422,30.726502 Z" />
    <path
       id="path330964"
       style="color:#000000;fill:#e6e6e6;stroke-width:1.5982;stroke-linecap:round;-inkscape-stroke:none"
       d="m 13.538649,8.3185084e-4 a 6.7657094,6.7657094 0 0 0 -0.0074,8.4570916e-4 h 0.01569 a 6.7657094,6.7657094 0 0 0 -0.0082,-8.4570916e-4 z M 12.301463,0.12141371 a 6.7657094,6.7657094 0 0 0 -0.117275,0.0189863 6.7657094,6.7657094 0 0 1 0.117275,-0.0189863 z m -1.256181,0.36339048 a 6.7657094,6.7657094 0 0 0 -0.14701,0.0561638 6.7657094,6.7657094 0 0 1 0.14701,-0.0561638 z M 9.8716893,1.0885338 a 6.7657094,6.7657094 0 0 0 -0.091675,0.048726 6.7657094,6.7657094 0 0 0 -0.055335,0.047077 6.7657094,6.7657094 0 0 1 0.14701,-0.095803 z M 8.6815799,2.0630877 a 6.7657094,6.7657094 0 0 0 -0.087544,0.088369 6.7657094,6.7657094 0 0 1 0.087544,-0.088369 z M 7.739235,3.2829282 A 6.7657094,6.7657094 0 0 0 7.700417,3.3432192 6.7657094,6.7657094 0 0 1 7.739235,3.2829282 Z M 7.09256,4.6993337 A 6.7657094,6.7657094 0 0 0 7.08677,4.7216187 6.7657094,6.7657094 0 0 1 7.09256,4.6993337 Z M 6.799368,6.1586846 a 6.7657094,6.7657094 0 0 0 -0.00495,0.090022 6.7657094,6.7657094 0 0 1 0.00495,-0.090022 z M 6.83159,7.6452928 A 6.7657094,6.7657094 0 0 0 6.853071,7.7815626 6.7657094,6.7657094 0 0 1 6.83159,7.6452928 Z m 0.3592634,1.451917 a 6.7657094,6.7657094 0 0 0 0.05616,0.145357 6.7657094,6.7657094 0 0 1 -0.05616,-0.145357 z m 0.676406,1.3511582 a 6.7657094,6.7657094 0 0 0 0.036323,0.06938 l 6.5187736,9.779389 h 12.641107 a 6.7657124,6.7657124 0 0 1 5.722606,3.155734 6.7657094,6.7657094 0 0 0 -0.09167,-0.143704 L 26.176453,13.53308 H 13.531219 A 6.7657094,6.7657094 0 0 1 7.8672506,10.448368 Z M 32.796814,23.469386 a 6.7657124,6.7657124 0 0 1 0.363394,0.656587 6.7657094,6.7657094 0 0 0 -0.363394,-0.656587 z m 0.365048,0.65989 a 6.7657124,6.7657124 0 0 1 0.287407,0.6954 6.7657094,6.7657094 0 0 0 -0.287407,-0.6954 z m 0.28906,0.701181 a 6.7657124,6.7657124 0 0 1 0.20482,0.708615 6.7657094,6.7657094 0 0 0 -0.20482,-0.708615 z m 0.213082,0.744131 a 6.7657124,6.7657124 0 0 1 0.119753,0.706961 6.7657094,6.7657094 0 0 0 -0.119753,-0.706961 z m 0.124709,0.749082 a 6.7657124,6.7657124 0 0 1 0.04047,0.711093 6.7657094,6.7657094 0 0 0 -0.04047,-0.711093 z m -0.05533,1.873125 a 6.7657124,6.7657124 0 0 1 -0.01983,0.113148 6.7657094,6.7657094 0 0 0 0.01983,-0.113148 z m -0.0446,0.237032 a 6.7657124,6.7657124 0 0 1 -0.02148,0.104886 6.7657094,6.7657094 0 0 0 0.02148,-0.104886 z m -0.05864,0.260154 a 6.7657124,6.7657124 0 0 1 -0.02064,0.08011 6.7657094,6.7657094 0 0 0 0.02064,-0.08011 z m -0.06442,0.239511 a 6.7657124,6.7657124 0 0 1 -0.02064,0.06855 6.7657094,6.7657094 0 0 0 0.02064,-0.06855 z m -0.07185,0.232901 a 6.7657124,6.7657124 0 0 1 -0.01983,0.05946 6.7657094,6.7657094 0 0 0 0.01983,-0.05946 z m -5.280755,4.563052 a 6.7657124,6.7657124 0 0 1 -0.02313,0.0042 6.7657094,6.7657094 0 0 0 0.02313,-0.0042 z" />
    <path
       style="color:#000000;fill:#ffffff;stroke-width:1.5982;stroke-linecap:round;-inkscape-stroke:none"
       d="M 13.531628,0.00125647 A 6.7657092,6.7657092 0 0 0 6.7673751,6.7655095 6.7657092,6.7657092 0 0 0 13.531628,13.532884 H 33.83063 A 6.7657092,6.7657092 0 0 0 40.594883,6.7655095 6.7657092,6.7657092 0 0 0 33.83063,0.00125647 Z"
       id="path330814" />
    <path
       style="color:#000000;fill:#ffffff;stroke-width:1.5982;stroke-linecap:round;-inkscape-stroke:none"
       d="M 6.7673751,20.297137 A 6.7657122,6.7657122 0 0 0 8.141519e-7,27.06139 6.7657122,6.7657122 0 0 0 6.7673751,33.828764 H 27.063256 A 6.7657122,6.7657122 0 0 0 33.83063,27.06139 6.7657122,6.7657122 0 0 0 27.063256,20.297137 Z"
       id="path330929" />
    <g
       id="g325879"
       style="fill:url(#linearGradient325919);fill-opacity:1"
       transform="matrix(1.5981991,0,0,1.5981991,-60.89076,-81.188506)">
      <circle
         style="fill:url(#linearGradient333423);fill-opacity:1;stroke:none;stroke-width:0.264583;stroke-linecap:round"
         id="path311944"
         cx="46.566666"
         cy="55.033329"
         r="4.2333331" />
      <circle
         style="fill:url(#linearGradient333425);fill-opacity:1;stroke:none;stroke-width:0.264583;stroke-linecap:round"
         id="circle312026"
         cx="59.26667"
         cy="55.033329"
         r="4.2333331" />
      <circle
         style="fill:url(#linearGradient333427);fill-opacity:1;stroke:none;stroke-width:0.264583;stroke-linecap:round"
         id="circle312028"
         cx="42.333336"
         cy="67.73333"
         r="4.2333331" />
      <circle
         style="fill:url(#linearGradient333429);fill-opacity:1;stroke:none;stroke-width:0.264583;stroke-linecap:round"
         id="circle312030"
         cx="55.03334"
         cy="67.73333"
         r="4.2333331" />
      <circle
         style="fill:url(#linearGradient332074);fill-opacity:1;stroke:none;stroke-width:0.264583;stroke-linecap:round"
         id="circle312032"
         cx="50.799999"
         cy="80.433334"
         r="4.2333331" />
    </g>
    <path
       style="fill:#cccccc;stroke:none;stroke-width:0.422856px;stroke-linecap:butt;stroke-linejoin:miter;stroke-opacity:1"
       d="m 28.08122,16.389989 -14.54959,-2.857104 12.644823,1.94e-4 z"
       id="path332386" />
    <path
       style="fill:#cccccc;stroke:none;stroke-width:0.422856px;stroke-linecap:butt;stroke-linejoin:miter;stroke-opacity:1"
       d="M 21.312208,36.685465 6.7626173,33.828361 19.407441,33.828555 Z"
       id="path333163" />
  </g>
</svg>
