<?xml version="1.0" encoding="UTF-8" standalone="no"?>
<!-- Created with Inkscape (http://www.inkscape.org/) -->

<svg
   width="1047.4213"
   height="202.24544"
   viewBox="0 0 277.13021 53.51077"
   version="1.1"
   id="svg311815"
   sodipodi:docname="logo.svg"
   inkscape:version="1.1 (ce6663b3b7, 2021-05-25)"
   xmlns:inkscape="http://www.inkscape.org/namespaces/inkscape"
   xmlns:sodipodi="http://sodipodi.sourceforge.net/DTD/sodipodi-0.dtd"
   xmlns:xlink="http://www.w3.org/1999/xlink"
   xmlns="http://www.w3.org/2000/svg"
   xmlns:svg="http://www.w3.org/2000/svg">
  <sodipodi:namedview
     id="namedview42"
     pagecolor="#505050"
     bordercolor="#ffffff"
     borderopacity="1"
     inkscape:pageshadow="0"
     inkscape:pageopacity="0"
     inkscape:pagecheckerboard="1"
     showgrid="false"
     inkscape:snap-global="true"
     inkscape:snap-bbox="true"
     inkscape:bbox-paths="true"
     inkscape:bbox-nodes="true"
     inkscape:snap-bbox-edge-midpoints="true"
     inkscape:snap-bbox-midpoints="true"
     inkscape:object-paths="true"
     inkscape:snap-intersection-paths="true"
     inkscape:snap-smooth-nodes="true"
     inkscape:snap-midpoints="true"
     inkscape:snap-object-midpoints="true"
     inkscape:snap-center="true"
     inkscape:snap-text-baseline="true"
     inkscape:snap-page="true"
     inkscape:zoom="1.0958654"
     inkscape:cx="638.30832"
     inkscape:cy="166.99131"
     inkscape:window-width="2560"
     inkscape:window-height="1295"
     inkscape:window-x="3440"
     inkscape:window-y="28"
     inkscape:window-maximized="1"
     inkscape:current-layer="svg311815"
     showguides="true"
     inkscape:guide-bbox="true"
     fit-margin-top="0"
     fit-margin-left="0"
     fit-margin-right="0"
     fit-margin-bottom="0">
    <sodipodi:guide
       position="69.614736,41.279828"
       orientation="1,0"
       id="guide1164" />
    <sodipodi:guide
       position="69.614737,41.279828"
       orientation="0,-1"
       id="guide1166" />
    <sodipodi:guide
       position="69.614737,20.242961"
       orientation="0,-1"
       id="guide1670" />
    <sodipodi:guide
       position="167.71756,41.279827"
       orientation="1,0"
       id="guide3305" />
  </sodipodi:namedview>
  <defs
     id="defs311812">
    <linearGradient
       id="linearGradient325915">
      <stop
         style="stop-color:#ff00d0;stop-opacity:1"
         offset="0"
         id="stop325911" />
      <stop
         style="stop-color:#008bff;stop-opacity:1"
         offset="1"
         id="stop325913" />
    </linearGradient>
    <rect
       x="256"
       y="192"
       width="608"
       height="128"
       id="rect318434" />
    <linearGradient
       xlink:href="#linearGradient325915"
       id="linearGradient325919"
       x1="33.866665"
       y1="84.666664"
       x2="63.499996"
       y2="50.799999"
       gradientUnits="userSpaceOnUse" />
    <linearGradient
       xlink:href="#linearGradient325915"
       id="linearGradient332074"
       gradientUnits="userSpaceOnUse"
       x1="33.866665"
       y1="84.666664"
       x2="63.499996"
       y2="50.799999"
       gradientTransform="translate(12.7)" />
    <linearGradient
       xlink:href="#linearGradient325915"
       id="linearGradient333423"
       gradientUnits="userSpaceOnUse"
       x1="33.866665"
       y1="84.666664"
       x2="63.499996"
       y2="50.799999" />
    <linearGradient
       xlink:href="#linearGradient325915"
       id="linearGradient333425"
       gradientUnits="userSpaceOnUse"
       x1="33.866665"
       y1="84.666664"
       x2="63.499996"
       y2="50.799999" />
    <linearGradient
       xlink:href="#linearGradient325915"
       id="linearGradient333427"
       gradientUnits="userSpaceOnUse"
       x1="33.866665"
       y1="84.666664"
       x2="63.499996"
       y2="50.799999" />
    <linearGradient
       xlink:href="#linearGradient325915"
       id="linearGradient333429"
       gradientUnits="userSpaceOnUse"
       x1="33.866665"
       y1="84.666664"
       x2="63.499996"
       y2="50.799999" />
  </defs>
  <text
     xml:space="preserve"
     transform="matrix(0.26458333,0,0,0.26458333,-0.60620461,-0.61487531)"
     id="text318432"
     style="font-style:normal;font-weight:normal;font-size:40px;line-height:84.8;font-family:sans-serif;letter-spacing:12.32px;word-spacing:0px;white-space:pre;shape-inside:url(#rect318434);fill:#000000;fill-opacity:1;stroke:none"><tspan
       x="256"
       y="2026.3907"
       id="tspan10989"><tspan
         dx="0 30.800781"
         id="tspan10987">DE</tspan></tspan></text>
  <path
     d="m 74.558219,10.138079 c 2.790246,0.03627 5.184042,0.505174 7.18068,1.515521 1.996639,1.010347 3.524187,2.465728 4.582645,4.366143 1.058459,1.900414 1.587688,4.161666 1.587688,6.783757 0,2.598036 -0.529229,4.847261 -1.587688,6.747675 -1.058458,1.876359 -2.586006,3.319712 -4.582645,4.330059 -1.996638,0.986291 -4.390369,1.448531 -7.18068,1.479437 l -4.943483,0.05476 c -2.515568,0 -2.525869,-0.141987 -2.525869,-2.104456 V 12.241204 c 0,-2.095945 -0.03409,-2.167329 2.530589,-2.167329 z m 0,23.129731 c 3.512159,0 6.182361,-0.914124 8.010608,-2.742371 1.852302,-1.852303 2.778453,-4.426283 2.778453,-7.721939 0,-3.319711 -0.926151,-5.905718 -2.778453,-7.758021 -1.828247,-1.876358 -4.498449,-2.814537 -8.010608,-2.814537 H 69.614735 V 33.26781 Z"
     style="font-weight:300;font-size:22.5778px;line-height:84.8;font-family:Poppins;-inkscape-font-specification:'Poppins Light';letter-spacing:0.529167px;word-spacing:0px;fill:#ffffff;stroke-width:0.422856"
     id="path334604"
     sodipodi:nodetypes="ssssccsccccsssscsccs" />
  <path
     d="m 111.23514,24.49944 c 0,0.866012 -0.024,1.527549 -0.0721,1.984611 H 94.817005 c 0.07216,1.491465 0.433002,2.766426 1.082514,3.824885 0.649509,1.058459 1.503493,1.864331 2.561952,2.417616 1.058459,0.529229 2.213139,0.793843 3.464049,0.793843 1.6358,0 3.00698,-0.396922 4.11355,-1.190765 0.56903,-0.45483 1.03683,-0.930907 1.40646,-1.450632 0.96614,-1.284177 0.77448,-1.383315 2.46919,-1.686204 0.57505,-0.06585 1.03175,-0.07462 1.03175,-0.07462 -0.48111,1.92447 -1.51552,3.50013 -3.10321,4.72698 -1.56363,1.202794 -3.53621,1.804191 -5.91774,1.804191 -1.8523,0 -3.512161,-0.40895 -4.97957,-1.226849 -1.467408,-0.841956 -2.62209,-2.020694 -3.464045,-3.536214 -0.817901,-1.539577 -1.226852,-3.331741 -1.226852,-5.37649 0,-2.04475 0.408951,-3.836913 1.226852,-5.376489 0.817899,-1.539576 1.960553,-2.718314 3.427962,-3.536214 1.467408,-0.817901 3.139293,-1.226851 5.015653,-1.226851 1.87636,0 3.51216,0.40895 4.90739,1.226851 1.4193,0.8179 2.50182,1.92447 3.24755,3.319711 0.76979,1.371185 1.15468,2.898734 1.15468,4.582645 z m -2.56195,-0.07217 c 0.0241,-1.467409 -0.27663,-2.718314 -0.9021,-3.752717 -0.60139,-1.034403 -1.43132,-1.816219 -2.48977,-2.345448 -1.05847,-0.52923 -2.21315,-0.793845 -3.46405,-0.793845 -1.876361,0 -3.476079,0.601397 -4.799152,1.804191 -1.323073,1.202794 -2.056778,2.898734 -2.201113,5.087819 z"
     style="font-weight:300;font-size:22.5778px;line-height:84.8;font-family:Poppins;-inkscape-font-specification:'Poppins Light';letter-spacing:0.529167px;word-spacing:0px;fill:#ffffff;stroke-width:0.422856"
     id="path334606"
     sodipodi:nodetypes="sccscscccccsccssssccsccssscc" />
  <path
     d="m 142.4792,19.988963 c 0.62546,-1.323073 1.61175,-2.417616 2.95887,-3.283628 1.37119,-0.890068 2.99497,-1.335102 4.87133,-1.335102 1.78013,0 3.37984,0.420978 4.79913,1.262934 1.44335,0.817901 2.56195,1.996639 3.3558,3.536215 0.8179,1.51552 1.22685,3.283627 1.22685,5.304322 0,2.020694 -0.40895,3.800829 -1.22685,5.340405 -0.79385,1.539576 -1.91245,2.730342 -3.3558,3.572298 -1.41929,0.841955 -3.019,1.262933 -4.79913,1.262933 -1.85231,0 -3.46405,-0.433005 -4.83524,-1.299016 -1.37118,-0.890068 -2.3695,-1.996639 -2.99496,-3.319712 v 12.178274 c 0,1.5638 -0.21469,1.461411 -1.24652,1.461411 -1.09295,0 -1.24326,-0.106243 -1.24326,-1.374497 V 16.335016 c 0,-0.426239 0.25217,-0.676111 0.76279,-0.676111 h 1.1062 c 0.42475,0 0.62079,0.299636 0.62079,0.639238 z m 14.65003,5.484741 c 0,-1.6358 -0.32475,-3.043069 -0.97426,-4.221807 -0.62545,-1.202794 -1.49146,-2.116918 -2.59803,-2.742371 -1.10657,-0.625453 -2.35748,-0.93818 -3.75272,-0.93818 -1.34713,0 -2.58601,0.324755 -3.71664,0.974264 -1.10657,0.649508 -1.98461,1.575659 -2.63412,2.778453 -0.64951,1.202795 -0.97426,2.598037 -0.97426,4.185724 0,1.587688 0.32475,2.982929 0.97426,4.185723 0.64951,1.202794 1.52755,2.128946 2.63412,2.778455 1.13063,0.649509 2.36951,0.974264 3.71664,0.974264 1.39524,0 2.64615,-0.312727 3.75272,-0.93818 1.10657,-0.649509 1.97258,-1.575661 2.59803,-2.778455 0.64951,-1.22685 0.97426,-2.646147 0.97426,-4.25789 z"
     style="font-weight:300;font-size:22.5778px;line-height:84.8;font-family:Poppins;-inkscape-font-specification:'Poppins Light';letter-spacing:0.529167px;word-spacing:0px;fill:#ffffff;stroke-width:0.422856"
     id="path334610"
     sodipodi:nodetypes="ccsccsccsccccccccccscsscssscsccs" />
  <path
     d="m 178.83137,10.857737 v 0.704917 c 0,0.311455 -0.25522,0.668288 -0.64154,0.668288 h -10.47227 v 9.417877 h 2.0824 2.33762 4.11413 c 0.48198,0 0.84763,0.372794 0.84763,0.83943 v 0.394212 c 0.0347,0.367858 -0.28568,0.859219 -0.82522,0.859219 h -8.55656 v 10.367823 c 0.0338,0.746679 -0.42355,1.251168 -1.00359,1.251168 h -0.46948 c -0.59374,0 -1.05281,-0.498318 -1.05281,-1.283671 V 12.26118 c -0.0451,-1.814144 0.19702,-2.123101 2.55061,-2.123101 h 10.38687 c 0.38467,0 0.70221,0.309732 0.70221,0.719658 z"
     style="font-weight:300;font-size:22.5778px;line-height:84.8;font-family:Poppins;-inkscape-font-specification:'Poppins Light';letter-spacing:0.529167px;word-spacing:0px;fill:#ffffff;stroke-width:0.422856"
     id="path334612"
     sodipodi:nodetypes="ccsccccccccccccccccc" />
  <path
     d="m 200.8943,16.710738 v 17.641265 c 0,0.73344 -0.43551,1.008668 -0.98783,1.008668 h -0.59144 c -0.49278,0 -0.94659,-0.476985 -0.94659,-1.002183 v -2.461864 c -0.57734,1.22685 -1.46741,2.165029 -2.67021,2.814538 -1.20279,0.649509 -2.54992,0.974263 -4.04138,0.974263 -2.35748,0 -4.28195,-0.721677 -5.77341,-2.16503 -1.49146,-1.467409 -2.23719,-3.584326 -2.23719,-6.350752 v -10.72417 c 0,-0.532006 0.25704,-0.786568 0.85974,-0.786568 h 0.82945 c 0.55213,0 0.80058,0.315926 0.80058,0.736515 v 10.485553 c 0,2.140973 0.52923,3.776773 1.5877,4.9074 1.08251,1.130625 2.54992,1.695938 4.40222,1.695938 1.90042,0 3.41594,-0.601397 4.54656,-1.804191 1.13063,-1.202794 1.69594,-2.970901 1.69594,-5.30432 v -9.808069 c 0,-0.515468 0.33151,-0.908826 0.98807,-0.908826 h 0.71503 c 0.63554,0 0.82276,0.403509 0.82276,1.051833 z"
     style="font-weight:300;font-size:22.5778px;line-height:84.8;font-family:Poppins;-inkscape-font-specification:'Poppins Light';letter-spacing:0.529167px;word-spacing:0px;fill:#ffffff;stroke-width:0.422856"
     id="path334614"
     sodipodi:nodetypes="scccccsscsccccscssscccs" />
  <path
     d="m 214.29716,35.64934 c -2.26125,0 -4.11355,-0.517201 -5.5569,-1.551603 -1.4193,-1.058459 -2.21314,-2.489783 -2.38153,-4.293974 1.786,0 2.6995,0.784084 3.36527,1.937229 0.21701,0.27925 0.47846,0.535603 0.78436,0.769057 0.93819,0.673564 2.18909,1.010346 3.75272,1.010346 1.37119,0 2.44168,-0.324754 3.21147,-0.974262 0.79385,-0.649509 1.19077,-1.455381 1.19077,-2.417616 0,-0.673565 -0.21651,-1.226851 -0.64953,-1.659856 -0.43301,-0.433005 -0.98629,-0.769788 -1.65984,-1.010347 -0.64951,-0.264615 -1.53958,-0.541257 -2.67021,-0.829928 -1.46741,-0.384895 -2.65818,-0.769789 -3.57229,-1.154682 -0.91413,-0.384894 -1.69594,-0.950207 -2.34545,-1.69594 -0.62545,-0.769789 -0.93818,-1.792164 -0.93818,-3.067125 0,-0.962235 0.28867,-1.852302 0.866,-2.670202 0.57735,-0.817901 1.39525,-1.46741 2.4537,-1.948527 1.05847,-0.481118 2.26126,-0.721677 3.60838,-0.721677 2.11692,0 3.82489,0.541257 5.12391,1.623772 1.29901,1.058459 1.99663,2.525868 2.09286,4.402227 -1.49337,0.0688 -2.28237,-0.781243 -3.27266,-2.128582 -0.17706,-0.235067 -0.3852,-0.451692 -0.62439,-0.649873 -0.81789,-0.721677 -1.94852,-1.082515 -3.39188,-1.082515 -1.27495,0 -2.30935,0.300699 -3.1032,0.902096 -0.79385,0.601397 -1.19077,1.347129 -1.19077,2.237197 0,0.769789 0.22853,1.407269 0.68559,1.912442 0.48111,0.481119 1.07048,0.866013 1.76811,1.154683 0.69762,0.264615 1.6358,0.565313 2.81454,0.902095 1.41929,0.384895 2.54992,0.757761 3.39187,1.118599 0.84196,0.360838 1.56364,0.890067 2.16503,1.587688 0.60141,0.69762 0.91413,1.623772 0.93818,2.778455 0,1.058458 -0.28867,2.008665 -0.866,2.850621 -0.57735,0.8179 -1.38322,1.467409 -2.41763,1.948526 -1.0344,0.481117 -2.22517,0.721676 -3.5723,0.721676 z"
     style="font-weight:300;font-size:22.5778px;line-height:84.8;font-family:Poppins;-inkscape-font-specification:'Poppins Light';letter-spacing:0.529167px;word-spacing:0px;fill:#ffffff;stroke-width:0.422856"
     id="path334616"
     sodipodi:nodetypes="sccccscssccscssssccccssscccssccss" />
  <path
     d="m 228.02475,11.94227 c -0.50518,0 -0.93818,-0.180419 -1.29901,-0.541257 -0.36085,-0.360838 -0.54127,-0.805871 -0.54127,-1.3351 0,-0.52923 0.18042,-0.9622361 0.54127,-1.2990182 0.36083,-0.3608382 0.79383,-0.5412573 1.29901,-0.5412573 0.50517,0 0.93818,0.1804191 1.29902,0.5412573 0.36083,0.3367821 0.54124,0.7697882 0.54124,1.2990182 0,0.529229 -0.18041,0.974262 -0.54124,1.3351 -0.36084,0.360838 -0.79385,0.541257 -1.29902,0.541257 z m 1.26293,5.210997 v 16.829347 c 0,1.13737 -0.1711,1.378057 -1.22511,1.378057 -1.16323,0 -1.30076,-0.285572 -1.30076,-1.477158 V 16.983381 c 0,-1.002779 0.19341,-1.324476 1.22997,-1.324476 1.10375,0 1.2959,0.423056 1.2959,1.494362 z"
     style="font-weight:300;font-size:22.5778px;line-height:84.8;font-family:Poppins;-inkscape-font-specification:'Poppins Light';letter-spacing:0.529167px;word-spacing:0px;fill:#ffffff;stroke-width:0.422856"
     id="path334618"
     sodipodi:nodetypes="ssscscssscccsccc" />
  <path
     d="m 244.49469,35.64934 q -2.77845,0 -5.01566,-1.226849 -2.2011,-1.262934 -3.50012,-3.536214 -1.26295,-2.309366 -1.26295,-5.37649 0,-3.067125 1.29902,-5.340405 1.29902,-2.309364 3.53622,-3.536215 2.23719,-1.262934 5.01565,-1.262934 2.77845,0 5.01566,1.262934 2.27328,1.226851 3.53621,3.536215 1.29901,2.27328 1.29901,5.340405 0,3.031042 -1.29901,5.340406 -1.29902,2.309364 -3.5723,3.572298 -2.27328,1.226849 -5.05173,1.226849 z m 0,-2.201111 q 1.94852,0 3.60838,-0.866013 1.65986,-0.902096 2.67019,-2.670203 1.04644,-1.804191 1.04644,-4.402226 0,-2.598034 -1.01035,-4.366143 -1.01035,-1.804191 -2.67019,-2.670202 -1.65986,-0.902096 -3.60838,-0.902096 -1.94854,0 -3.60839,0.902096 -1.65985,0.866011 -2.6702,2.670202 -0.97426,1.768109 -0.97426,4.366143 0,2.598035 0.97426,4.402226 1.01035,1.768107 2.63412,2.670203 1.65985,0.866013 3.60838,0.866013 z"
     style="font-weight:300;font-size:22.5778px;line-height:84.8;font-family:Poppins;-inkscape-font-specification:'Poppins Light';letter-spacing:0.529167px;word-spacing:0px;fill:#ffffff;stroke-width:0.422856"
     id="path334620" />
  <path
     d="m 269.11958,15.298066 c 2.35747,0 4.28195,0.733705 5.77342,2.201114 1.49146,1.443353 2.23719,3.548242 2.23719,6.314668 v 10.780734 c 0,0.566366 -0.23652,0.766089 -0.78252,0.766089 h -0.83366 c -0.62794,0 -0.87361,-0.270184 -0.87361,-0.775671 V 24.102518 c 0,-2.140973 -0.54126,-3.776773 -1.62377,-4.9074 -1.05845,-1.130625 -2.51383,-1.695938 -4.36614,-1.695938 -1.90041,0 -3.41594,0.601397 -4.54657,1.804191 -1.13062,1.202794 -1.69593,2.970901 -1.69593,5.30432 v 9.996474 c 0,0.434121 -0.17394,0.756506 -0.74978,0.756506 h -0.9678 c -0.53469,0 -0.80829,-0.258856 -0.80829,-0.852328 V 16.807621 c 0,-0.874664 0.21546,-1.148716 1.26649,-1.148716 1.13959,0 1.25938,0.379429 1.25938,1.099051 v 1.592698 c 0.62545,-1.202794 1.52755,-1.65153 2.70628,-2.276983 1.17873,-0.649509 2.51384,-0.775605 4.00531,-0.775605 z"
     style="font-weight:300;font-size:22.5778px;line-height:84.8;font-family:Poppins;-inkscape-font-specification:'Poppins Light';letter-spacing:0.529167px;word-spacing:0px;fill:#ffffff;stroke-width:0.422856"
     id="path334622"
     sodipodi:nodetypes="scsccccscssscccccccccs" />
  <path
     id="rect2498"
     style="fill:none;fill-opacity:1;stroke:#ffffff;stroke-width:2.57635;stroke-linecap:square;stroke-linejoin:round;stroke-miterlimit:4;stroke-dasharray:none;stroke-opacity:1"
     d="m 20.588034,1.288175 c -4.276862,0 -7.719968,3.4431049 -7.719968,7.719967 0,4.276862 3.443106,7.719968 7.719968,7.719968 H 9.2719517 c -0.155562,-0.0053 -0.3113058,-0.008 -0.4674289,-0.0038 -0.065358,0.0018 -0.130586,0.01153 -0.1960094,0.0151 -0.055338,0.0029 -0.110569,0.0082 -0.1658633,0.0113 -0.066834,0.0048 -0.1334404,0.0086 -0.1997739,0.0151 -0.099356,0.01021 -0.198596,0.02356 -0.2977972,0.03771 -0.1126922,0.0154 -0.2244391,0.0326 -0.335491,0.05281 -0.011193,0.0021 -0.022747,0.0017 -0.03393,0.0038 -0.015054,0.0029 -0.030206,0.0046 -0.045221,0.0075 -3.0601185,0.58832 -5.467185,2.971686 -6.087774,6.019915 -0.036325,0.178328 -0.059082,0.360134 -0.082934,0.542809 -0.00352,0.0264 -0.00694,0.05288 -0.01131,0.07914 -0.010978,0.09131 -0.022366,0.182909 -0.030167,0.275177 -0.00137,0.01627 -0.00244,0.03268 -0.00371,0.04902 -0.00978,0.12476 -0.015054,0.250402 -0.018837,0.376875 -0.00244,0.07927 -0.00753,0.158066 -0.00753,0.237485 0,0.18889 0.00938,0.376255 0.02262,0.561666 0.0043,0.05807 0.00567,0.115318 0.01131,0.17339 -0.00313,-0.03344 -0.00108,-0.0682 -0.00381,-0.101787 0.1013049,1.258509 0.4980922,2.431848 1.1270959,3.445344 0.882064,1.459982 11.4555631,19.838965 11.4555631,19.838965 2.138431,3.703869 6.843229,4.961796 10.547097,2.82337 3.703867,-2.138434 4.965561,-6.839468 2.827129,-10.543333 l -4.892822,-8.477611 h 9.785657 c 4.276861,0 7.719968,-3.443106 7.719968,-7.719967 0,-4.276862 -3.443107,-7.719968 -7.719968,-7.719968 h 11.579919 c 4.276862,0 7.719969,-3.443106 7.719969,-7.7199682 0,-4.2768621 -3.443103,-7.7199671 -7.719969,-7.7199671 z" />
  <path
     d="m 134.53631,24.49944 c 0,0.866012 -0.024,1.527549 -0.0721,1.984611 h -16.34603 c 0.0722,1.491465 0.433,2.766426 1.08251,3.824885 0.64951,1.058459 1.50349,1.864331 2.56195,2.417616 1.05846,0.529229 2.21314,0.793843 3.46405,0.793843 1.6358,0 3.00698,-0.396922 4.11355,-1.190765 0.56903,-0.45483 1.03683,-0.930907 1.40646,-1.450632 0.96614,-1.284177 0.77448,-1.383315 2.46919,-1.686204 0.57505,-0.06585 1.03175,-0.07462 1.03175,-0.07462 -0.48111,1.92447 -1.51552,3.50013 -3.10321,4.72698 -1.56363,1.202794 -3.53621,1.804191 -5.91774,1.804191 -1.8523,0 -3.51216,-0.40895 -4.97957,-1.226849 -1.46741,-0.841956 -2.62209,-2.020694 -3.46404,-3.536214 -0.81791,-1.539577 -1.22686,-3.331741 -1.22686,-5.37649 0,-2.04475 0.40895,-3.836913 1.22686,-5.376489 0.81789,-1.539576 1.96055,-2.718314 3.42796,-3.536214 1.46741,-0.817901 3.13929,-1.226851 5.01565,-1.226851 1.87636,0 3.51216,0.40895 4.90739,1.226851 1.4193,0.8179 2.50182,1.92447 3.24755,3.319711 0.76979,1.371185 1.15468,2.898734 1.15468,4.582645 z m -2.56195,-0.07217 c 0.0241,-1.467409 -0.27663,-2.718314 -0.9021,-3.752717 -0.60139,-1.034403 -1.43132,-1.816219 -2.48977,-2.345448 -1.05847,-0.52923 -2.21315,-0.793845 -3.46405,-0.793845 -1.87636,0 -3.47608,0.601397 -4.79915,1.804191 -1.32307,1.202794 -2.05678,2.898734 -2.20111,5.087819 z"
     style="font-weight:300;font-size:22.5778px;line-height:84.8;font-family:Poppins;-inkscape-font-specification:'Poppins Light';letter-spacing:0.529167px;word-spacing:0px;fill:#ffffff;stroke-width:0.422856"
     id="path2345"
     sodipodi:nodetypes="sccscscccccsccssssccsccssscc" />
</svg>
