<?xml version="1.0" encoding="UTF-8" standalone="no"?>
<svg
   xmlns:dc="http://purl.org/dc/elements/1.1/"
   xmlns:cc="http://creativecommons.org/ns#"
   xmlns:rdf="http://www.w3.org/1999/02/22-rdf-syntax-ns#"
   xmlns:svg="http://www.w3.org/2000/svg"
   xmlns="http://www.w3.org/2000/svg"
   width="128"
   height="128"
   viewBox="0 0 33.866666 33.866668"
   version="1.1"
   id="svg8">
  <defs
     id="defs2" />
  <metadata
     id="metadata5">
    <rdf:RDF>
      <cc:Work
         rdf:about="">
        <dc:format>image/svg+xml</dc:format>
        <dc:type
           rdf:resource="http://purl.org/dc/dcmitype/StillImage" />
        <dc:title></dc:title>
      </cc:Work>
    </rdf:RDF>
  </metadata>
  <g
     id="layer1">
    <path
       id="path1043"
       style="color:#000000;font-style:normal;font-variant:normal;font-weight:normal;font-stretch:normal;font-size:medium;line-height:normal;font-family:sans-serif;font-variant-ligatures:normal;font-variant-position:normal;font-variant-caps:normal;font-variant-numeric:normal;font-variant-alternates:normal;font-variant-east-asian:normal;font-feature-settings:normal;font-variation-settings:normal;text-indent:0;text-align:start;text-decoration:none;text-decoration-line:none;text-decoration-style:solid;text-decoration-color:#000000;letter-spacing:normal;word-spacing:normal;text-transform:none;writing-mode:lr-tb;direction:ltr;text-orientation:mixed;dominant-baseline:auto;baseline-shift:baseline;text-anchor:start;white-space:normal;shape-padding:0;shape-margin:0;inline-size:0;clip-rule:nonzero;display:inline;overflow:visible;visibility:visible;opacity:1;isolation:auto;mix-blend-mode:normal;color-interpolation:sRGB;color-interpolation-filters:linearRGB;solid-color:#000000;solid-opacity:1;vector-effect:none;fill:#ffffff;fill-opacity:1;fill-rule:nonzero;stroke:none;stroke-width:9.84665;stroke-linecap:butt;stroke-linejoin:miter;stroke-miterlimit:4;stroke-dasharray:none;stroke-dashoffset:0;stroke-opacity:1;color-rendering:auto;image-rendering:auto;shape-rendering:auto;text-rendering:auto;enable-background:accumulate;stop-color:#000000;stop-opacity:1"
       d="M 24.611328 0 C 11.058843 0 0 11.058843 0 24.611328 L 0 48 L 9.8417969 48 L 9.8417969 24.611328 C 9.8417969 16.343576 16.343576 9.8417969 24.611328 9.8417969 L 48 9.8417969 L 48 0 L 24.611328 0 z M 80 0 L 80 9.8417969 L 103.39062 9.8417969 C 111.65838 9.8417969 118.16016 16.343575 118.16016 24.611328 L 118.16016 48 L 128.00195 48 L 128.00195 24.611328 C 128.00195 11.058843 116.94311 0 103.39062 0 L 80 0 z M 0 80 L 0 103.39062 C 0 116.94311 11.058843 128.00195 24.611328 128.00195 L 48 128.00195 L 48 118.16016 L 24.611328 118.16016 C 16.343575 118.16016 9.8417969 111.65838 9.8417969 103.39062 L 9.8417969 80 L 0 80 z M 118.16016 80 L 118.16016 103.39062 C 118.16016 111.65838 111.65838 118.16016 103.39062 118.16016 L 80 118.16016 L 80 128.00195 L 103.39062 128.00195 C 116.94311 128.00195 128.00195 116.94311 128.00195 103.39062 L 128.00195 80 L 118.16016 80 z "
       transform="scale(0.26458334)" />
  </g>
</svg>
