<?xml version="1.0" encoding="UTF-8" standalone="no"?>
<!-- Created with Inkscape (http://www.inkscape.org/) -->

<svg
   width="210mm"
   height="297mm"
   viewBox="0 0 210 297"
   version="1.1"
   id="svg888"
   inkscape:version="1.1 (ce6663b3b7, 2021-05-25)"
   sodipodi:docname="readme-img.svg"
   xmlns:inkscape="http://www.inkscape.org/namespaces/inkscape"
   xmlns:sodipodi="http://sodipodi.sourceforge.net/DTD/sodipodi-0.dtd"
   xmlns:xlink="http://www.w3.org/1999/xlink"
   xmlns="http://www.w3.org/2000/svg"
   xmlns:svg="http://www.w3.org/2000/svg">
  <sodipodi:namedview
     id="namedview890"
     pagecolor="#505050"
     bordercolor="#ffffff"
     borderopacity="1"
     inkscape:pageshadow="0"
     inkscape:pageopacity="0"
     inkscape:pagecheckerboard="1"
     inkscape:document-units="mm"
     showgrid="false"
     inkscape:snap-page="true"
     inkscape:snap-text-baseline="true"
     inkscape:snap-object-midpoints="true"
     inkscape:snap-center="true"
     inkscape:object-paths="true"
     inkscape:snap-intersection-paths="true"
     inkscape:snap-smooth-nodes="false"
     inkscape:snap-bbox="true"
     inkscape:bbox-paths="true"
     inkscape:bbox-nodes="true"
     inkscape:snap-bbox-edge-midpoints="true"
     inkscape:snap-bbox-midpoints="true"
     inkscape:snap-midpoints="true"
     showguides="true"
     inkscape:guide-bbox="true"
     inkscape:zoom="1.6143898"
     inkscape:cx="382.80719"
     inkscape:cy="163.839"
     inkscape:window-width="2560"
     inkscape:window-height="1286"
     inkscape:window-x="3440"
     inkscape:window-y="28"
     inkscape:window-maximized="1"
     inkscape:current-layer="layer1" />
  <defs
     id="defs885">
    <filter
       inkscape:collect="always"
       style="color-interpolation-filters:sRGB"
       id="filter8510"
       x="-0.061924222"
       y="-0.061050551"
       width="1.1238484"
       height="1.1221011">
      <feGaussianBlur
         inkscape:collect="always"
         stdDeviation="1.3590705"
         id="feGaussianBlur8512" />
    </filter>
    <filter
       inkscape:collect="always"
       style="color-interpolation-filters:sRGB"
       id="filter8282"
       x="-0.18963136"
       y="-0.15579937"
       width="1.3792627"
       height="1.3115987">
      <feGaussianBlur
         inkscape:collect="always"
         stdDeviation="1.6450827"
         id="feGaussianBlur8284" />
    </filter>
    <filter
       inkscape:collect="always"
       style="color-interpolation-filters:sRGB"
       id="filter8278"
       x="-0.20801794"
       y="-0.19469292"
       width="1.4160359"
       height="1.3893858">
      <feGaussianBlur
         inkscape:collect="always"
         stdDeviation="1.6450827"
         id="feGaussianBlur8280" />
    </filter>
    <filter
       inkscape:collect="always"
       style="color-interpolation-filters:sRGB"
       id="filter8274"
       x="-0.20039826"
       y="-0.1347442"
       width="1.4007965"
       height="1.2694884">
      <feGaussianBlur
         inkscape:collect="always"
         stdDeviation="1.6450827"
         id="feGaussianBlur8276" />
    </filter>
    <filter
       inkscape:collect="always"
       style="color-interpolation-filters:sRGB"
       id="filter8270"
       x="-0.28936523"
       y="-0.15653421"
       width="1.5787305"
       height="1.3130684">
      <feGaussianBlur
         inkscape:collect="always"
         stdDeviation="1.6450827"
         id="feGaussianBlur8272" />
    </filter>
    <filter
       inkscape:collect="always"
       style="color-interpolation-filters:sRGB"
       id="filter8266"
       x="-0.22890695"
       y="-0.19714851"
       width="1.4578139"
       height="1.394297">
      <feGaussianBlur
         inkscape:collect="always"
         stdDeviation="1.6450827"
         id="feGaussianBlur8268" />
    </filter>
    <filter
       inkscape:collect="always"
       style="color-interpolation-filters:sRGB"
       id="filter8262"
       x="-0.26687187"
       y="-0.19469292"
       width="1.5337437"
       height="1.3893858">
      <feGaussianBlur
         inkscape:collect="always"
         stdDeviation="1.6450827"
         id="feGaussianBlur8264" />
    </filter>
    <filter
       inkscape:collect="always"
       style="color-interpolation-filters:sRGB"
       id="filter8258"
       x="-1.0727226"
       y="-0.14550188"
       width="3.1454452"
       height="1.2910038">
      <feGaussianBlur
         inkscape:collect="always"
         stdDeviation="1.6450827"
         id="feGaussianBlur8260" />
    </filter>
    <filter
       inkscape:collect="always"
       style="color-interpolation-filters:sRGB"
       id="filter8254"
       x="-0.20039816"
       y="-0.19469292"
       width="1.4007963"
       height="1.3893858">
      <feGaussianBlur
         inkscape:collect="always"
         stdDeviation="1.6450827"
         id="feGaussianBlur8256" />
    </filter>
    <filter
       inkscape:collect="always"
       style="color-interpolation-filters:sRGB"
       id="filter8250"
       x="-0.22890668"
       y="-0.19679391"
       width="1.4578134"
       height="1.3935878">
      <feGaussianBlur
         inkscape:collect="always"
         stdDeviation="1.6450827"
         id="feGaussianBlur8252" />
    </filter>
    <filter
       inkscape:collect="always"
       style="color-interpolation-filters:sRGB"
       id="filter8246"
       x="-0.2080179"
       y="-0.19469292"
       width="1.4160358"
       height="1.3893858">
      <feGaussianBlur
         inkscape:collect="always"
         stdDeviation="1.6450827"
         id="feGaussianBlur8248" />
    </filter>
    <linearGradient
       xlink:href="#linearGradient1820"
       id="linearGradient1822"
       x1="123.6694"
       y1="-3.6604049"
       x2="8.6280975"
       y2="122.88503"
       gradientUnits="userSpaceOnUse"
       gradientTransform="matrix(0.23897109,0,0,0.23897109,21.360796,12.555955)" />
    <linearGradient
       id="linearGradient1820">
      <stop
         style="stop-color:#ff8900;stop-opacity:1"
         offset="0"
         id="stop1816" />
      <stop
         style="stop-color:#ff477e;stop-opacity:1"
         offset="0.47171944"
         id="stop1824" />
      <stop
         style="stop-color:#ce00ff;stop-opacity:1"
         offset="1"
         id="stop1818" />
    </linearGradient>
    <filter
       inkscape:collect="always"
       style="color-interpolation-filters:sRGB"
       id="filter12849"
       x="-0.014475127"
       y="-0.13168908"
       width="1.0289503"
       height="1.2633782">
      <feGaussianBlur
         inkscape:collect="always"
         stdDeviation="0.37746322"
         id="feGaussianBlur12851" />
    </filter>
  </defs>
  <g
     inkscape:groupmode="layer"
     id="layer2"
     inkscape:label="bg"
     sodipodi:insensitive="true">
    <rect
       style="fill:#f7f7f7;fill-opacity:1;stroke:#ffffff;stroke-width:0.271008;stroke-linecap:round;stroke-linejoin:round"
       id="rect7632"
       width="209.729"
       height="296.729"
       x="0.13550398"
       y="0.13550398"
       ry="7.0165286" />
  </g>
  <g
     inkscape:label="l1"
     inkscape:groupmode="layer"
     id="layer1">
    <path
       style="color:#000000;font-style:normal;font-variant:normal;font-weight:normal;font-stretch:normal;font-size:medium;line-height:normal;font-family:sans-serif;font-variant-ligatures:normal;font-variant-position:normal;font-variant-caps:normal;font-variant-numeric:normal;font-variant-alternates:normal;font-variant-east-asian:normal;font-feature-settings:normal;font-variation-settings:normal;text-indent:0;text-align:start;text-decoration:none;text-decoration-line:none;text-decoration-style:solid;text-decoration-color:#000000;letter-spacing:normal;word-spacing:normal;text-transform:none;writing-mode:lr-tb;direction:ltr;text-orientation:mixed;dominant-baseline:auto;baseline-shift:baseline;text-anchor:start;white-space:normal;shape-padding:0;shape-margin:0;inline-size:0;clip-rule:nonzero;display:inline;overflow:visible;visibility:visible;opacity:0.519545;isolation:auto;mix-blend-mode:normal;color-interpolation:sRGB;color-interpolation-filters:linearRGB;solid-color:#000000;solid-opacity:1;vector-effect:none;fill:#000000;fill-opacity:1;fill-rule:nonzero;stroke:none;stroke-width:2.57231;stroke-linecap:square;stroke-linejoin:round;stroke-miterlimit:4;stroke-dasharray:none;stroke-dashoffset:0;stroke-opacity:1;filter:url(#filter8510);color-rendering:auto;image-rendering:auto;shape-rendering:auto;text-rendering:auto;enable-background:accumulate;stop-color:#000000"
       d="m 55.809368,13.476912 c -4.960441,0 -8.993971,4.033529 -8.993971,8.993969 0,2.516779 1.044372,4.788134 2.715289,6.421953 h -5.020012 l 0.04391,7.88e-4 c -0.168957,-0.0057 -0.350775,-0.0098 -0.544599,-0.0046 h -7.89e-4 c -0.169619,0.0046 -0.246924,0.01781 -0.231089,0.01695 -0.08958,0.0048 -0.145566,0.0104 -0.166382,0.01156 -0.0069,2.01e-4 -0.01388,4.73e-4 -0.02079,7.89e-4 -0.05463,0.0039 -0.13199,0.0086 -0.232631,0.01849 -0.002,-5e-6 -0.0041,-5e-6 -0.0062,0 -0.125945,0.01294 -0.242322,0.02881 -0.348172,0.04391 -0.124577,0.0171 -0.252375,0.03697 -0.383609,0.06085 0.133155,-0.02445 0.139627,-0.02978 -0.04468,0.0054 l -7.89e-4,7.89e-4 c 0.05036,-0.0096 0.0338,-0.0079 -0.05007,0.0085 -3.562753,0.686891 -6.368482,3.465294 -7.09134,7.01585 -0.04942,0.242628 -0.0746,0.453766 -0.09783,0.631642 -0.0033,0.02451 -0.0055,0.03983 -0.0046,0.03466 -0.0033,0.01919 -0.0061,0.03845 -0.0085,0.05777 -0.01055,0.08776 -0.02405,0.194022 -0.03466,0.319672 v 7.89e-4 c -0.0027,0.03213 -0.0035,0.04946 -0.0039,0.05315 -2.58e-4,0.001 -5.13e-4,0.0021 -7.89e-4,0.0031 -0.0121,0.155207 -0.01744,0.301466 -0.02153,0.438232 -0.0016,0.05056 -0.0085,0.142186 -0.0085,0.275766 0,0.231347 0.01173,0.448548 0.02619,0.65167 -2e-6,0.0013 -2e-6,0.0026 0,0.0039 0.0011,0.01469 0.0044,0.08436 0.01232,0.177167 0.0016,0.02105 -0.0019,-0.0085 7.89e-4,0.02003 h 7.89e-4 c 2.49e-4,0.0026 -2.6e-4,0.0019 0,0.0046 0.01313,0.120453 0.04321,0.238448 0.08935,0.350484 0.172099,1.278186 0.566818,2.491137 1.219377,3.542589 0.387213,0.641459 3.282054,5.651246 6.027563,10.414391 2.74897,4.76916 5.388213,9.356778 5.388213,9.356778 l 7.88e-4,0.0016 c 2.480461,4.296281 7.992119,5.770015 12.287753,3.289929 4.295385,-2.479948 5.77324,-7.988027 3.293013,-12.283898 l -3.772183,-6.535234 h 7.543501 c 4.96044,0 8.993966,-4.033529 8.993966,-8.993968 0,-2.516767 -1.044388,-4.788135 -2.715289,-6.421952 h 5.283451 c 4.96045,0 8.99397,-4.03353 8.99397,-8.993969 1.3e-4,-4.960566 -4.03339,-8.994096 -8.99384,-8.994096 z m 0,2.572016 h 23.123488 c 3.57988,0 6.42119,2.842082 6.42119,6.421953 0,3.579871 -2.84131,6.421953 -6.42119,6.421953 H 67.370729 c -1.970489,0 -2.226397,2.520834 0,2.572016 3.579593,0.0446 6.421951,2.842082 6.421951,6.421952 0,3.57987 -2.842082,6.421182 -6.421951,6.421182 h -9.770427 c -0.990257,1.3e-5 -1.6091,1.072072 -1.113847,1.929589 l 4.885213,8.464004 c 1.789929,3.100243 0.74902,6.980374 -2.351711,8.770583 -3.099978,1.78977 -6.982811,0.751579 -8.772895,-2.34709 l -7.89e-4,-0.0016 c -7.88e-4,-0.0016 -2.638997,-4.587196 -5.388216,-9.356779 -2.749636,-4.770303 -5.562864,-9.646394 -6.062205,-10.472896 -0.0028,-0.0044 -0.0056,-0.0087 -0.0085,-0.01309 -0.521277,-0.839918 -0.851184,-1.812193 -0.935909,-2.864728 -0.0017,-0.01879 -0.0037,-0.03753 -0.0062,-0.05623 -2.54e-4,-0.0013 -5.12e-4,-0.0026 -7.88e-4,-0.0039 -0.0119,-0.167118 -0.01926,-0.323268 -0.01926,-0.469109 0,-0.02426 0.0036,-0.0893 0.0069,-0.197196 v -0.0015 c 0.0035,-0.115783 0.0088,-0.220425 0.01618,-0.314281 l -7.49e-4,0.0023 c 0.0023,-0.02894 0.0038,-0.04355 0.0039,-0.04391 0.005,-0.05852 0.01408,-0.134513 0.02542,-0.228778 0.003,-0.02115 0.007,-0.05109 0.0085,-0.06239 2.58e-4,-0.0013 5.12e-4,-0.0026 7.88e-4,-0.0039 0.02441,-0.186901 0.04467,-0.338696 0.06779,-0.452163 0.516061,-2.534803 2.515155,-4.514421 5.060841,-5.003839 0.0016,-2.54e-4 0.0032,-5.12e-4 0.0046,-7.89e-4 -0.05388,0.01055 -0.04037,0.0085 0.04005,-0.0069 l -0.0016,7.89e-4 c -0.174897,0.03337 -0.168003,0.03242 0.02078,-0.0015 l 0.0024,-7.89e-4 c 0.08791,-0.016 0.180734,-0.02973 0.278847,-0.04314 0.0028,-5.12e-4 0.0051,-0.001 0.0077,-0.0015 0.09225,-0.01316 0.17481,-0.02414 0.247268,-0.03158 0.02828,-0.0026 0.07784,-0.0057 0.139421,-0.01001 l 0.02003,-0.0015 c 0.07081,-0.0043 0.125452,-0.0091 0.142506,-0.01001 h 0.0016 c 0.146532,-0.008 0.200513,-0.01417 0.160222,-0.01309 0.117623,-0.0032 0.247563,-0.0017 0.388999,0.0031 0.0144,5.12e-4 0.02875,7.49e-4 0.04314,7.88e-4 H 55.80942 c 1.679369,-0.03495 1.679369,-2.53707 0,-2.572016 -3.579869,0 -6.42195,-2.842082 -6.42195,-6.421952 0,-3.579871 2.842081,-6.421953 6.42195,-6.421953 z"
       id="path8436"
       transform="matrix(0.60592397,0,0,0.60592397,0,4.3899706)" />
    <path
       style="color:#000000;font-style:normal;font-variant:normal;font-weight:normal;font-stretch:normal;font-size:medium;line-height:normal;font-family:sans-serif;font-variant-ligatures:normal;font-variant-position:normal;font-variant-caps:normal;font-variant-numeric:normal;font-variant-alternates:normal;font-variant-east-asian:normal;font-feature-settings:normal;font-variation-settings:normal;text-indent:0;text-align:start;text-decoration:none;text-decoration-line:none;text-decoration-style:solid;text-decoration-color:#000000;letter-spacing:normal;word-spacing:normal;text-transform:none;writing-mode:lr-tb;direction:ltr;text-orientation:mixed;dominant-baseline:auto;baseline-shift:baseline;text-anchor:start;white-space:normal;shape-padding:0;shape-margin:0;inline-size:0;clip-rule:nonzero;display:inline;overflow:visible;visibility:visible;isolation:auto;mix-blend-mode:normal;color-interpolation:sRGB;color-interpolation-filters:linearRGB;solid-color:#000000;solid-opacity:1;vector-effect:none;fill:url(#linearGradient1822);fill-opacity:1;fill-rule:nonzero;stroke:none;stroke-width:1.55862;stroke-linecap:square;stroke-linejoin:round;stroke-miterlimit:4;stroke-dasharray:none;stroke-dashoffset:0;stroke-opacity:1;color-rendering:auto;image-rendering:auto;shape-rendering:auto;text-rendering:auto;enable-background:accumulate;stop-color:#000000"
       d="m 33.816234,12.555955 c -3.00565,0 -5.449663,2.444012 -5.449663,5.44966 0,1.524977 0.63281,2.901245 1.645259,3.891215 h -3.041746 l 0.02661,4.78e-4 c -0.102375,-0.0035 -0.212543,-0.0059 -0.329986,-0.0028 h -4.78e-4 c -0.102776,0.0028 -0.149617,0.01079 -0.140022,0.01027 -0.05428,0.0029 -0.0882,0.0063 -0.100815,0.007 -0.0042,1.21e-4 -0.0084,2.86e-4 -0.0126,4.78e-4 -0.0331,0.0024 -0.07998,0.0052 -0.140957,0.0112 -0.0012,-3e-6 -0.0025,-3e-6 -0.0038,0 -0.07631,0.0078 -0.146828,0.01746 -0.210965,0.02661 -0.07549,0.01036 -0.152921,0.0224 -0.232438,0.03687 0.08068,-0.01482 0.0846,-0.01805 -0.02707,0.0033 l -4.78e-4,4.78e-4 c 0.03051,-0.0058 0.02048,-0.0048 -0.03034,0.0051 -2.158757,0.416204 -3.858816,2.099705 -4.296813,4.251072 -0.02994,0.147014 -0.0452,0.274948 -0.05928,0.382727 -0.002,0.01485 -0.0033,0.02413 -0.0028,0.021 -0.002,0.01163 -0.0037,0.0233 -0.0052,0.035 -0.0064,0.05318 -0.01457,0.117563 -0.021,0.193697 v 4.78e-4 c -0.0016,0.01947 -0.0021,0.02997 -0.0024,0.03221 -1.56e-4,6.06e-4 -3.11e-4,0.0013 -4.78e-4,0.0019 -0.0073,0.09404 -0.01057,0.182665 -0.01305,0.265535 -9.69e-4,0.03064 -0.0052,0.08615 -0.0052,0.167093 0,0.140179 0.0071,0.271786 0.01587,0.394864 -1e-6,6.06e-4 -1e-6,0.0018 0,0.0024 6.67e-4,0.0089 0.0027,0.05114 0.0075,0.107346 9.69e-4,0.01279 -0.0012,-0.0048 4.78e-4,0.01212 h 4.78e-4 c 1.51e-4,0.0018 -1.57e-4,0.0012 0,0.003 0.008,0.07299 0.02618,0.144482 0.05414,0.21237 0.104279,0.77448 0.343449,1.509435 0.73885,2.14654 0.234622,0.388676 1.988675,3.424222 3.652245,6.310329 1.665667,2.889748 3.264848,5.669497 3.264848,5.669497 l 4.78e-4,0.0012 c 1.50297,2.603219 4.842616,3.496187 7.445444,1.993441 2.602676,-1.502655 3.498144,-4.840133 1.995315,-7.443103 l -2.285656,-3.959859 h 4.570788 c 3.00565,0 5.44966,-2.444012 5.44966,-5.449659 0,-1.524969 -0.63282,-2.901245 -1.645259,-3.891214 h 3.20137 c 3.005655,0 5.449662,-2.444013 5.449662,-5.449662 7.8e-5,-3.005724 -2.443928,-5.449737 -5.449584,-5.449737 z m 0,1.558446 h 14.011075 c 2.169135,0 3.890753,1.722086 3.890753,3.891214 0,2.16913 -1.721618,3.891215 -3.890753,3.891215 h -7.00577 c -1.193966,0 -1.349027,1.527434 0,1.558447 2.168962,0.02702 3.891215,1.722085 3.891215,3.891214 0,2.16913 -1.722086,3.890748 -3.891215,3.890748 h -5.920135 c -0.600021,6e-6 -0.974993,0.649593 -0.674907,1.169185 l 2.960068,5.128541 c 1.084561,1.878515 0.453849,4.229579 -1.424958,5.31431 -1.878351,1.084465 -4.231053,0.455395 -5.315708,-1.422158 l -4.78e-4,-0.0012 c -4.77e-4,-0.0012 -1.599031,-2.779494 -3.26485,-5.669497 -1.66607,-2.890445 -3.370672,-5.844985 -3.673235,-6.345781 -0.0017,-0.0024 -0.0034,-0.0055 -0.0052,-0.0079 -0.315855,-0.508927 -0.515753,-1.098049 -0.56709,-1.735808 -0.001,-0.01139 -0.0022,-0.02272 -0.0038,-0.03405 -1.54e-4,-6.06e-4 -3.1e-4,-0.0018 -4.77e-4,-0.0024 -0.0072,-0.101259 -0.01167,-0.195874 -0.01167,-0.284242 0,-0.0147 0.0022,-0.05411 0.0042,-0.119486 v -9.09e-4 c 0.0021,-0.07016 0.0053,-0.133561 0.0098,-0.19043 l -4.53e-4,0.0014 c 0.0014,-0.01753 0.0023,-0.02639 0.0024,-0.02661 0.003,-0.03546 0.0085,-0.0815 0.0154,-0.138622 0.0018,-0.01281 0.0042,-0.03096 0.0052,-0.0378 1.56e-4,-7.87e-4 3.1e-4,-0.0016 4.77e-4,-0.0024 0.01479,-0.113248 0.02707,-0.205224 0.04108,-0.273976 0.312693,-1.535898 1.523992,-2.735396 3.066485,-3.031946 9.69e-4,-1.54e-4 0.0019,-3.1e-4 0.0028,-4.78e-4 -0.03265,0.0064 -0.02446,0.0052 0.02427,-0.0042 l -9.69e-4,4.78e-4 c -0.105975,0.02022 -0.101798,0.01964 0.01259,-9.09e-4 l 0.0015,-4.78e-4 c 0.05327,-0.0097 0.109511,-0.01801 0.16896,-0.02614 0.0017,-3.1e-4 0.0031,-6.05e-4 0.0047,-9.08e-4 0.0559,-0.008 0.105921,-0.01463 0.149825,-0.01913 0.01714,-0.0016 0.04717,-0.0035 0.08448,-0.0061 l 0.01214,-9.09e-4 c 0.04291,-0.0026 0.07602,-0.0055 0.08635,-0.0061 h 9.7e-4 c 0.08879,-0.0048 0.121495,-0.0086 0.09708,-0.0079 0.07127,-0.0019 0.150004,-0.001 0.235704,0.0019 0.0087,3.1e-4 0.01742,4.54e-4 0.02614,4.77e-4 h 6.846149 c 1.01757,-0.02118 1.01757,-1.537271 0,-1.558446 -2.169128,0 -3.891213,-1.722085 -3.891213,-3.891214 0,-2.169129 1.722085,-3.891216 3.891213,-3.891216 z"
       id="path1814" />
    <text
       xml:space="preserve"
       style="font-style:normal;font-weight:normal;font-size:7.05556px;line-height:84.8;font-family:sans-serif;letter-spacing:0.264583px;word-spacing:0px;opacity:0.57540594;fill:#000000;fill-opacity:1;stroke:none;stroke-width:0.264583;filter:url(#filter12849)"
       x="62.096962"
       y="42.257317"
       id="text12573"><tspan
         sodipodi:role="line"
         id="tspan12571"
         style="font-style:normal;font-variant:normal;font-weight:300;font-stretch:normal;font-size:7.05556px;font-family:Poppins;-inkscape-font-specification:'Poppins Light';stroke-width:0.264583"
         x="62.096962"
         y="42.257317"
         rotate="0 0 0 0 0 0 0 0 0 0 0 0 0 0 0">By LemonOrange</tspan></text>
    <g
       id="g8308"
       style="opacity:0.51561"
       transform="matrix(0.60592397,0,0,0.60592397,20.07818,8.486619)">
      <path
         d="m 74.558219,10.138079 c 2.790246,0.03627 5.184042,0.505174 7.18068,1.515521 1.996639,1.010347 3.524187,2.465728 4.582645,4.366143 1.058459,1.900414 1.587688,4.161666 1.587688,6.783757 0,2.598036 -0.529229,4.847261 -1.587688,6.747675 -1.058458,1.876359 -2.586006,3.319712 -4.582645,4.330059 -1.996638,0.986291 -4.390369,1.448531 -7.18068,1.479437 l -4.943483,0.05476 c -2.515568,0 -2.525869,-0.141987 -2.525869,-2.104456 V 12.241204 c 0,-2.095945 -0.03409,-2.167329 2.530589,-2.167329 z m 0,23.129731 c 3.512159,0 6.182361,-0.914124 8.010608,-2.742371 1.852302,-1.852303 2.778453,-4.426283 2.778453,-7.721939 0,-3.319711 -0.926151,-5.905718 -2.778453,-7.758021 -1.828247,-1.876358 -4.498449,-2.814537 -8.010608,-2.814537 H 69.614735 V 33.26781 Z"
         style="font-weight:300;font-size:22.5778px;line-height:84.8;font-family:Poppins;-inkscape-font-specification:'Poppins Light';letter-spacing:0.529167px;word-spacing:0px;fill:#000000;fill-opacity:1;stroke-width:0.422856;filter:url(#filter8282)"
         id="path8172"
         sodipodi:nodetypes="ssssccsccccsssscsccs" />
      <path
         d="m 111.23514,24.49944 c 0,0.866012 -0.024,1.527549 -0.0721,1.984611 H 94.817005 c 0.07216,1.491465 0.433002,2.766426 1.082514,3.824885 0.649509,1.058459 1.503493,1.864331 2.561952,2.417616 1.058459,0.529229 2.213139,0.793843 3.464049,0.793843 1.6358,0 3.00698,-0.396922 4.11355,-1.190765 0.56903,-0.45483 1.03683,-0.930907 1.40646,-1.450632 0.96614,-1.284177 0.77448,-1.383315 2.46919,-1.686204 0.57505,-0.06585 1.03175,-0.07462 1.03175,-0.07462 -0.48111,1.92447 -1.51552,3.50013 -3.10321,4.72698 -1.56363,1.202794 -3.53621,1.804191 -5.91774,1.804191 -1.8523,0 -3.512161,-0.40895 -4.97957,-1.226849 -1.467408,-0.841956 -2.62209,-2.020694 -3.464045,-3.536214 -0.817901,-1.539577 -1.226852,-3.331741 -1.226852,-5.37649 0,-2.04475 0.408951,-3.836913 1.226852,-5.376489 0.817899,-1.539576 1.960553,-2.718314 3.427962,-3.536214 1.467408,-0.817901 3.139293,-1.226851 5.015653,-1.226851 1.87636,0 3.51216,0.40895 4.90739,1.226851 1.4193,0.8179 2.50182,1.92447 3.24755,3.319711 0.76979,1.371185 1.15468,2.898734 1.15468,4.582645 z m -2.56195,-0.07217 c 0.0241,-1.467409 -0.27663,-2.718314 -0.9021,-3.752717 -0.60139,-1.034403 -1.43132,-1.816219 -2.48977,-2.345448 -1.05847,-0.52923 -2.21315,-0.793845 -3.46405,-0.793845 -1.876361,0 -3.476079,0.601397 -4.799152,1.804191 -1.323073,1.202794 -2.056778,2.898734 -2.201113,5.087819 z"
         style="font-weight:300;font-size:22.5778px;line-height:84.8;font-family:Poppins;-inkscape-font-specification:'Poppins Light';letter-spacing:0.529167px;word-spacing:0px;fill:#000000;fill-opacity:1;stroke-width:0.422856;filter:url(#filter8278)"
         id="path8174"
         sodipodi:nodetypes="sccscscccccsccssssccsccssscc" />
      <path
         d="m 142.4792,19.988963 c 0.62546,-1.323073 1.61175,-2.417616 2.95887,-3.283628 1.37119,-0.890068 2.99497,-1.335102 4.87133,-1.335102 1.78013,0 3.37984,0.420978 4.79913,1.262934 1.44335,0.817901 2.56195,1.996639 3.3558,3.536215 0.8179,1.51552 1.22685,3.283627 1.22685,5.304322 0,2.020694 -0.40895,3.800829 -1.22685,5.340405 -0.79385,1.539576 -1.91245,2.730342 -3.3558,3.572298 -1.41929,0.841955 -3.019,1.262933 -4.79913,1.262933 -1.85231,0 -3.46405,-0.433005 -4.83524,-1.299016 -1.37118,-0.890068 -2.3695,-1.996639 -2.99496,-3.319712 v 12.178274 c 0,1.5638 -0.21469,1.461411 -1.24652,1.461411 -1.09295,0 -1.24326,-0.106243 -1.24326,-1.374497 V 16.335016 c 0,-0.426239 0.25217,-0.676111 0.76279,-0.676111 h 1.1062 c 0.42475,0 0.62079,0.299636 0.62079,0.639238 z m 14.65003,5.484741 c 0,-1.6358 -0.32475,-3.043069 -0.97426,-4.221807 -0.62545,-1.202794 -1.49146,-2.116918 -2.59803,-2.742371 -1.10657,-0.625453 -2.35748,-0.93818 -3.75272,-0.93818 -1.34713,0 -2.58601,0.324755 -3.71664,0.974264 -1.10657,0.649508 -1.98461,1.575659 -2.63412,2.778453 -0.64951,1.202795 -0.97426,2.598037 -0.97426,4.185724 0,1.587688 0.32475,2.982929 0.97426,4.185723 0.64951,1.202794 1.52755,2.128946 2.63412,2.778455 1.13063,0.649509 2.36951,0.974264 3.71664,0.974264 1.39524,0 2.64615,-0.312727 3.75272,-0.93818 1.10657,-0.649509 1.97258,-1.575661 2.59803,-2.778455 0.64951,-1.22685 0.97426,-2.646147 0.97426,-4.25789 z"
         style="font-weight:300;font-size:22.5778px;line-height:84.8;font-family:Poppins;-inkscape-font-specification:'Poppins Light';letter-spacing:0.529167px;word-spacing:0px;fill:#000000;fill-opacity:1;stroke-width:0.422856;filter:url(#filter8274)"
         id="path8176"
         sodipodi:nodetypes="ccsccsccsccccccccccscsscssscsccs" />
      <path
         d="m 178.83137,10.857737 v 0.704917 c 0,0.311455 -0.25522,0.668288 -0.64154,0.668288 h -10.47227 v 9.417877 h 2.0824 2.33762 4.11413 c 0.48198,0 0.84763,0.372794 0.84763,0.83943 v 0.394212 c 0.0347,0.367858 -0.28568,0.859219 -0.82522,0.859219 h -8.55656 v 10.367823 c 0.0338,0.746679 -0.42355,1.251168 -1.00359,1.251168 h -0.46948 c -0.59374,0 -1.05281,-0.498318 -1.05281,-1.283671 V 12.26118 c -0.0451,-1.814144 0.19702,-2.123101 2.55061,-2.123101 h 10.38687 c 0.38467,0 0.70221,0.309732 0.70221,0.719658 z"
         style="font-weight:300;font-size:22.5778px;line-height:84.8;font-family:Poppins;-inkscape-font-specification:'Poppins Light';letter-spacing:0.529167px;word-spacing:0px;fill:#000000;fill-opacity:1;stroke-width:0.422856;filter:url(#filter8270)"
         id="path8178"
         sodipodi:nodetypes="ccsccccccccccccccccc" />
      <path
         d="m 200.8943,16.710738 v 17.641265 c 0,0.73344 -0.43551,1.008668 -0.98783,1.008668 h -0.59144 c -0.49278,0 -0.94659,-0.476985 -0.94659,-1.002183 v -2.461864 c -0.57734,1.22685 -1.46741,2.165029 -2.67021,2.814538 -1.20279,0.649509 -2.54992,0.974263 -4.04138,0.974263 -2.35748,0 -4.28195,-0.721677 -5.77341,-2.16503 -1.49146,-1.467409 -2.23719,-3.584326 -2.23719,-6.350752 v -10.72417 c 0,-0.532006 0.25704,-0.786568 0.85974,-0.786568 h 0.82945 c 0.55213,0 0.80058,0.315926 0.80058,0.736515 v 10.485553 c 0,2.140973 0.52923,3.776773 1.5877,4.9074 1.08251,1.130625 2.54992,1.695938 4.40222,1.695938 1.90042,0 3.41594,-0.601397 4.54656,-1.804191 1.13063,-1.202794 1.69594,-2.970901 1.69594,-5.30432 v -9.808069 c 0,-0.515468 0.33151,-0.908826 0.98807,-0.908826 h 0.71503 c 0.63554,0 0.82276,0.403509 0.82276,1.051833 z"
         style="font-weight:300;font-size:22.5778px;line-height:84.8;font-family:Poppins;-inkscape-font-specification:'Poppins Light';letter-spacing:0.529167px;word-spacing:0px;fill:#000000;fill-opacity:1;stroke-width:0.422856;filter:url(#filter8266)"
         id="path8180"
         sodipodi:nodetypes="scccccsscsccccscssscccs" />
      <path
         d="m 214.29716,35.64934 c -2.26125,0 -4.11355,-0.517201 -5.5569,-1.551603 -1.4193,-1.058459 -2.21314,-2.489783 -2.38153,-4.293974 1.786,0 2.6995,0.784084 3.36527,1.937229 0.21701,0.27925 0.47846,0.535603 0.78436,0.769057 0.93819,0.673564 2.18909,1.010346 3.75272,1.010346 1.37119,0 2.44168,-0.324754 3.21147,-0.974262 0.79385,-0.649509 1.19077,-1.455381 1.19077,-2.417616 0,-0.673565 -0.21651,-1.226851 -0.64953,-1.659856 -0.43301,-0.433005 -0.98629,-0.769788 -1.65984,-1.010347 -0.64951,-0.264615 -1.53958,-0.541257 -2.67021,-0.829928 -1.46741,-0.384895 -2.65818,-0.769789 -3.57229,-1.154682 -0.91413,-0.384894 -1.69594,-0.950207 -2.34545,-1.69594 -0.62545,-0.769789 -0.93818,-1.792164 -0.93818,-3.067125 0,-0.962235 0.28867,-1.852302 0.866,-2.670202 0.57735,-0.817901 1.39525,-1.46741 2.4537,-1.948527 1.05847,-0.481118 2.26126,-0.721677 3.60838,-0.721677 2.11692,0 3.82489,0.541257 5.12391,1.623772 1.29901,1.058459 1.99663,2.525868 2.09286,4.402227 -1.49337,0.0688 -2.28237,-0.781243 -3.27266,-2.128582 -0.17706,-0.235067 -0.3852,-0.451692 -0.62439,-0.649873 -0.81789,-0.721677 -1.94852,-1.082515 -3.39188,-1.082515 -1.27495,0 -2.30935,0.300699 -3.1032,0.902096 -0.79385,0.601397 -1.19077,1.347129 -1.19077,2.237197 0,0.769789 0.22853,1.407269 0.68559,1.912442 0.48111,0.481119 1.07048,0.866013 1.76811,1.154683 0.69762,0.264615 1.6358,0.565313 2.81454,0.902095 1.41929,0.384895 2.54992,0.757761 3.39187,1.118599 0.84196,0.360838 1.56364,0.890067 2.16503,1.587688 0.60141,0.69762 0.91413,1.623772 0.93818,2.778455 0,1.058458 -0.28867,2.008665 -0.866,2.850621 -0.57735,0.8179 -1.38322,1.467409 -2.41763,1.948526 -1.0344,0.481117 -2.22517,0.721676 -3.5723,0.721676 z"
         style="font-weight:300;font-size:22.5778px;line-height:84.8;font-family:Poppins;-inkscape-font-specification:'Poppins Light';letter-spacing:0.529167px;word-spacing:0px;fill:#000000;fill-opacity:1;stroke-width:0.422856;filter:url(#filter8262)"
         id="path8182"
         sodipodi:nodetypes="sccccscssccscssssccccssscccssccss" />
      <path
         d="m 228.02475,11.94227 c -0.50518,0 -0.93818,-0.180419 -1.29901,-0.541257 -0.36085,-0.360838 -0.54127,-0.805871 -0.54127,-1.3351 0,-0.52923 0.18042,-0.9622361 0.54127,-1.2990182 0.36083,-0.3608382 0.79383,-0.5412573 1.29901,-0.5412573 0.50517,0 0.93818,0.1804191 1.29902,0.5412573 0.36083,0.3367821 0.54124,0.7697882 0.54124,1.2990182 0,0.529229 -0.18041,0.974262 -0.54124,1.3351 -0.36084,0.360838 -0.79385,0.541257 -1.29902,0.541257 z m 1.26293,5.210997 v 16.829347 c 0,1.13737 -0.1711,1.378057 -1.22511,1.378057 -1.16323,0 -1.30076,-0.285572 -1.30076,-1.477158 V 16.983381 c 0,-1.002779 0.19341,-1.324476 1.22997,-1.324476 1.10375,0 1.2959,0.423056 1.2959,1.494362 z"
         style="font-weight:300;font-size:22.5778px;line-height:84.8;font-family:Poppins;-inkscape-font-specification:'Poppins Light';letter-spacing:0.529167px;word-spacing:0px;fill:#000000;fill-opacity:1;stroke-width:0.422856;filter:url(#filter8258)"
         id="path8184"
         sodipodi:nodetypes="ssscscssscccsccc" />
      <path
         d="m 244.49469,35.64934 q -2.77845,0 -5.01566,-1.226849 -2.2011,-1.262934 -3.50012,-3.536214 -1.26295,-2.309366 -1.26295,-5.37649 0,-3.067125 1.29902,-5.340405 1.29902,-2.309364 3.53622,-3.536215 2.23719,-1.262934 5.01565,-1.262934 2.77845,0 5.01566,1.262934 2.27328,1.226851 3.53621,3.536215 1.29901,2.27328 1.29901,5.340405 0,3.031042 -1.29901,5.340406 -1.29902,2.309364 -3.5723,3.572298 -2.27328,1.226849 -5.05173,1.226849 z m 0,-2.201111 q 1.94852,0 3.60838,-0.866013 1.65986,-0.902096 2.67019,-2.670203 1.04644,-1.804191 1.04644,-4.402226 0,-2.598034 -1.01035,-4.366143 -1.01035,-1.804191 -2.67019,-2.670202 -1.65986,-0.902096 -3.60838,-0.902096 -1.94854,0 -3.60839,0.902096 -1.65985,0.866011 -2.6702,2.670202 -0.97426,1.768109 -0.97426,4.366143 0,2.598035 0.97426,4.402226 1.01035,1.768107 2.63412,2.670203 1.65985,0.866013 3.60838,0.866013 z"
         style="font-weight:300;font-size:22.5778px;line-height:84.8;font-family:Poppins;-inkscape-font-specification:'Poppins Light';letter-spacing:0.529167px;word-spacing:0px;fill:#000000;fill-opacity:1;stroke-width:0.422856;filter:url(#filter8254)"
         id="path8186" />
      <path
         d="m 269.11958,15.298066 c 2.35747,0 4.28195,0.733705 5.77342,2.201114 1.49146,1.443353 2.23719,3.548242 2.23719,6.314668 v 10.780734 c 0,0.566366 -0.23652,0.766089 -0.78252,0.766089 h -0.83366 c -0.62794,0 -0.87361,-0.270184 -0.87361,-0.775671 V 24.102518 c 0,-2.140973 -0.54126,-3.776773 -1.62377,-4.9074 -1.05845,-1.130625 -2.51383,-1.695938 -4.36614,-1.695938 -1.90041,0 -3.41594,0.601397 -4.54657,1.804191 -1.13062,1.202794 -1.69593,2.970901 -1.69593,5.30432 v 9.996474 c 0,0.434121 -0.17394,0.756506 -0.74978,0.756506 h -0.9678 c -0.53469,0 -0.80829,-0.258856 -0.80829,-0.852328 V 16.807621 c 0,-0.874664 0.21546,-1.148716 1.26649,-1.148716 1.13959,0 1.25938,0.379429 1.25938,1.099051 v 1.592698 c 0.62545,-1.202794 1.52755,-1.65153 2.70628,-2.276983 1.17873,-0.649509 2.51384,-0.775605 4.00531,-0.775605 z"
         style="font-weight:300;font-size:22.5778px;line-height:84.8;font-family:Poppins;-inkscape-font-specification:'Poppins Light';letter-spacing:0.529167px;word-spacing:0px;fill:#000000;fill-opacity:1;stroke-width:0.422856;filter:url(#filter8250)"
         id="path8188"
         sodipodi:nodetypes="scsccccscssscccccccccs" />
      <path
         d="m 134.53631,24.49944 c 0,0.866012 -0.024,1.527549 -0.0721,1.984611 h -16.34603 c 0.0722,1.491465 0.433,2.766426 1.08251,3.824885 0.64951,1.058459 1.50349,1.864331 2.56195,2.417616 1.05846,0.529229 2.21314,0.793843 3.46405,0.793843 1.6358,0 3.00698,-0.396922 4.11355,-1.190765 0.56903,-0.45483 1.03683,-0.930907 1.40646,-1.450632 0.96614,-1.284177 0.77448,-1.383315 2.46919,-1.686204 0.57505,-0.06585 1.03175,-0.07462 1.03175,-0.07462 -0.48111,1.92447 -1.51552,3.50013 -3.10321,4.72698 -1.56363,1.202794 -3.53621,1.804191 -5.91774,1.804191 -1.8523,0 -3.51216,-0.40895 -4.97957,-1.226849 -1.46741,-0.841956 -2.62209,-2.020694 -3.46404,-3.536214 -0.81791,-1.539577 -1.22686,-3.331741 -1.22686,-5.37649 0,-2.04475 0.40895,-3.836913 1.22686,-5.376489 0.81789,-1.539576 1.96055,-2.718314 3.42796,-3.536214 1.46741,-0.817901 3.13929,-1.226851 5.01565,-1.226851 1.87636,0 3.51216,0.40895 4.90739,1.226851 1.4193,0.8179 2.50182,1.92447 3.24755,3.319711 0.76979,1.371185 1.15468,2.898734 1.15468,4.582645 z m -2.56195,-0.07217 c 0.0241,-1.467409 -0.27663,-2.718314 -0.9021,-3.752717 -0.60139,-1.034403 -1.43132,-1.816219 -2.48977,-2.345448 -1.05847,-0.52923 -2.21315,-0.793845 -3.46405,-0.793845 -1.87636,0 -3.47608,0.601397 -4.79915,1.804191 -1.32307,1.202794 -2.05678,2.898734 -2.20111,5.087819 z"
         style="font-weight:300;font-size:22.5778px;line-height:84.8;font-family:Poppins;-inkscape-font-specification:'Poppins Light';letter-spacing:0.529167px;word-spacing:0px;fill:#000000;fill-opacity:1;stroke-width:0.422856;filter:url(#filter8246)"
         id="path8190"
         sodipodi:nodetypes="sccscscccccsccssssccsccssscc" />
    </g>
    <g
       id="g8296"
       transform="matrix(0.60592397,0,0,0.60592397,18.155002,38.367344)"
       style="fill:#1f1f1f;fill-opacity:1">
      <path
         d="m 78.345601,-39.994261 c 2.790246,0.03627 5.184042,0.505174 7.18068,1.515521 1.996639,1.010347 3.524187,2.465728 4.582645,4.366143 1.058459,1.900414 1.587688,4.161666 1.587688,6.783757 0,2.598036 -0.529229,4.847261 -1.587688,6.747675 -1.058458,1.876359 -2.586006,3.319712 -4.582645,4.330059 -1.996638,0.986291 -4.390369,1.448531 -7.18068,1.479437 l -4.943483,0.05476 c -2.515568,0 -2.525869,-0.141987 -2.525869,-2.104456 v -21.069771 c 0,-2.095945 -0.03409,-2.167329 2.530589,-2.167329 z m 0,23.129731 c 3.512159,0 6.182361,-0.914124 8.010608,-2.742371 1.852302,-1.852303 2.778453,-4.426283 2.778453,-7.721939 0,-3.319711 -0.926151,-5.905718 -2.778453,-7.758021 -1.828247,-1.876358 -4.498449,-2.814537 -8.010608,-2.814537 h -4.943484 v 21.036868 z"
         style="font-weight:300;font-size:22.5778px;line-height:84.8;font-family:Poppins;-inkscape-font-specification:'Poppins Light';letter-spacing:0.529167px;word-spacing:0px;fill:#1f1f1f;fill-opacity:1;stroke-width:0.422856"
         id="path334604"
         sodipodi:nodetypes="ssssccsccccsssscsccs" />
      <path
         d="m 115.02252,-25.6329 c 0,0.866012 -0.024,1.527549 -0.0721,1.984611 H 98.604387 c 0.07216,1.491465 0.433002,2.766426 1.082514,3.824885 0.649509,1.058459 1.503489,1.864331 2.561949,2.417616 1.05846,0.529229 2.21314,0.793843 3.46405,0.793843 1.6358,0 3.00698,-0.396922 4.11355,-1.190765 0.56903,-0.45483 1.03683,-0.930907 1.40646,-1.450632 0.96614,-1.284177 0.77448,-1.383315 2.46919,-1.686204 0.57505,-0.06585 1.03175,-0.07462 1.03175,-0.07462 -0.48111,1.92447 -1.51552,3.50013 -3.10321,4.72698 -1.56363,1.202794 -3.53621,1.804191 -5.91774,1.804191 -1.8523,0 -3.51216,-0.40895 -4.97957,-1.226849 -1.467406,-0.841956 -2.622088,-2.020694 -3.464043,-3.536214 -0.817901,-1.539577 -1.226852,-3.331741 -1.226852,-5.37649 0,-2.04475 0.408951,-3.836913 1.226852,-5.376489 0.817899,-1.539576 1.960553,-2.718314 3.427963,-3.536214 1.46741,-0.817901 3.13929,-1.226851 5.01565,-1.226851 1.87636,0 3.51216,0.40895 4.90739,1.226851 1.4193,0.8179 2.50182,1.92447 3.24755,3.319711 0.76979,1.371185 1.15468,2.898734 1.15468,4.582645 z m -2.56195,-0.07217 c 0.0241,-1.467409 -0.27663,-2.718314 -0.9021,-3.752717 -0.60139,-1.034403 -1.43132,-1.816219 -2.48977,-2.345448 -1.05847,-0.52923 -2.21315,-0.793845 -3.46405,-0.793845 -1.87636,0 -3.47608,0.601397 -4.79915,1.804191 -1.323073,1.202794 -2.056778,2.898734 -2.201113,5.087819 z"
         style="font-weight:300;font-size:22.5778px;line-height:84.8;font-family:Poppins;-inkscape-font-specification:'Poppins Light';letter-spacing:0.529167px;word-spacing:0px;fill:#1f1f1f;fill-opacity:1;stroke-width:0.422856"
         id="path334606"
         sodipodi:nodetypes="sccscscccccsccssssccsccssscc" />
      <path
         d="m 146.26658,-30.143377 c 0.62546,-1.323073 1.61175,-2.417616 2.95887,-3.283628 1.37119,-0.890068 2.99497,-1.335102 4.87133,-1.335102 1.78013,0 3.37984,0.420978 4.79913,1.262934 1.44335,0.817901 2.56195,1.996639 3.3558,3.536215 0.8179,1.51552 1.22685,3.283627 1.22685,5.304322 0,2.020694 -0.40895,3.800829 -1.22685,5.340405 -0.79385,1.539576 -1.91245,2.730342 -3.3558,3.572298 -1.41929,0.841955 -3.019,1.262933 -4.79913,1.262933 -1.85231,0 -3.46405,-0.433005 -4.83524,-1.299016 -1.37118,-0.890068 -2.3695,-1.996639 -2.99496,-3.319712 v 12.1782742 c 0,1.5638 -0.21469,1.461411 -1.24652,1.461411 -1.09295,0 -1.24326,-0.106243 -1.24326,-1.374497 V -33.797324 c 0,-0.426239 0.25217,-0.676111 0.76279,-0.676111 h 1.1062 c 0.42475,0 0.62079,0.299636 0.62079,0.639238 z m 14.65003,5.484741 c 0,-1.6358 -0.32475,-3.043069 -0.97426,-4.221807 -0.62545,-1.202794 -1.49146,-2.116918 -2.59803,-2.742371 -1.10657,-0.625453 -2.35748,-0.93818 -3.75272,-0.93818 -1.34713,0 -2.58601,0.324755 -3.71664,0.974264 -1.10657,0.649508 -1.98461,1.575659 -2.63412,2.778453 -0.64951,1.202795 -0.97426,2.598037 -0.97426,4.185724 0,1.587688 0.32475,2.982929 0.97426,4.185723 0.64951,1.202794 1.52755,2.128946 2.63412,2.778455 1.13063,0.649509 2.36951,0.974264 3.71664,0.974264 1.39524,0 2.64615,-0.312727 3.75272,-0.93818 1.10657,-0.649509 1.97258,-1.575661 2.59803,-2.778455 0.64951,-1.22685 0.97426,-2.646147 0.97426,-4.25789 z"
         style="font-weight:300;font-size:22.5778px;line-height:84.8;font-family:Poppins;-inkscape-font-specification:'Poppins Light';letter-spacing:0.529167px;word-spacing:0px;fill:#1f1f1f;fill-opacity:1;stroke-width:0.422856"
         id="path334610"
         sodipodi:nodetypes="ccsccsccsccccccccccscsscssscsccs" />
      <path
         d="m 182.61875,-39.274603 v 0.704917 c 0,0.311455 -0.25522,0.668288 -0.64154,0.668288 h -10.47227 v 9.417877 h 2.0824 2.33762 4.11413 c 0.48198,0 0.84763,0.372794 0.84763,0.83943 v 0.394212 c 0.0347,0.367858 -0.28568,0.859219 -0.82522,0.859219 h -8.55656 v 10.367823 c 0.0338,0.746679 -0.42355,1.251168 -1.00359,1.251168 h -0.46948 c -0.59374,0 -1.05281,-0.498318 -1.05281,-1.283671 v -21.81582 c -0.0451,-1.814144 0.19702,-2.123101 2.55061,-2.123101 h 10.38687 c 0.38467,0 0.70221,0.309732 0.70221,0.719658 z"
         style="font-weight:300;font-size:22.5778px;line-height:84.8;font-family:Poppins;-inkscape-font-specification:'Poppins Light';letter-spacing:0.529167px;word-spacing:0px;fill:#1f1f1f;fill-opacity:1;stroke-width:0.422856"
         id="path334612"
         sodipodi:nodetypes="ccsccccccccccccccccc" />
      <path
         d="m 204.68168,-33.421602 v 17.641265 c 0,0.73344 -0.43551,1.008668 -0.98783,1.008668 h -0.59144 c -0.49278,0 -0.94659,-0.476985 -0.94659,-1.002183 v -2.461864 c -0.57734,1.22685 -1.46741,2.165029 -2.67021,2.814538 -1.20279,0.649509 -2.54992,0.974263 -4.04138,0.974263 -2.35748,0 -4.28195,-0.721677 -5.77341,-2.16503 -1.49146,-1.467409 -2.23719,-3.584326 -2.23719,-6.350752 v -10.72417 c 0,-0.532006 0.25704,-0.786568 0.85974,-0.786568 h 0.82945 c 0.55213,0 0.80058,0.315926 0.80058,0.736515 v 10.485553 c 0,2.140973 0.52923,3.776773 1.5877,4.9074 1.08251,1.130625 2.54992,1.695938 4.40222,1.695938 1.90042,0 3.41594,-0.601397 4.54656,-1.804191 1.13063,-1.202794 1.69594,-2.970901 1.69594,-5.30432 v -9.808069 c 0,-0.515468 0.33151,-0.908826 0.98807,-0.908826 h 0.71503 c 0.63554,0 0.82276,0.403509 0.82276,1.051833 z"
         style="font-weight:300;font-size:22.5778px;line-height:84.8;font-family:Poppins;-inkscape-font-specification:'Poppins Light';letter-spacing:0.529167px;word-spacing:0px;fill:#1f1f1f;fill-opacity:1;stroke-width:0.422856"
         id="path334614"
         sodipodi:nodetypes="scccccsscsccccscssscccs" />
      <path
         d="m 218.08454,-14.483 c -2.26125,0 -4.11355,-0.517201 -5.5569,-1.551603 -1.4193,-1.058459 -2.21314,-2.489783 -2.38153,-4.293974 1.786,0 2.6995,0.784084 3.36527,1.937229 0.21701,0.27925 0.47846,0.535603 0.78436,0.769057 0.93819,0.673564 2.18909,1.010346 3.75272,1.010346 1.37119,0 2.44168,-0.324754 3.21147,-0.974262 0.79385,-0.649509 1.19077,-1.455381 1.19077,-2.417616 0,-0.673565 -0.21651,-1.226851 -0.64953,-1.659856 -0.43301,-0.433005 -0.98629,-0.769788 -1.65984,-1.010347 -0.64951,-0.264615 -1.53958,-0.541257 -2.67021,-0.829928 -1.46741,-0.384895 -2.65818,-0.769789 -3.57229,-1.154682 -0.91413,-0.384894 -1.69594,-0.950207 -2.34545,-1.69594 -0.62545,-0.769789 -0.93818,-1.792164 -0.93818,-3.067125 0,-0.962235 0.28867,-1.852302 0.866,-2.670202 0.57735,-0.817901 1.39525,-1.46741 2.4537,-1.948527 1.05847,-0.481118 2.26126,-0.721677 3.60838,-0.721677 2.11692,0 3.82489,0.541257 5.12391,1.623772 1.29901,1.058459 1.99663,2.525868 2.09286,4.402227 -1.49337,0.0688 -2.28237,-0.781243 -3.27266,-2.128582 -0.17706,-0.235067 -0.3852,-0.451692 -0.62439,-0.649873 -0.81789,-0.721677 -1.94852,-1.082515 -3.39188,-1.082515 -1.27495,0 -2.30935,0.300699 -3.1032,0.902096 -0.79385,0.601397 -1.19077,1.347129 -1.19077,2.237197 0,0.769789 0.22853,1.407269 0.68559,1.912442 0.48111,0.481119 1.07048,0.866013 1.76811,1.154683 0.69762,0.264615 1.6358,0.565313 2.81454,0.902095 1.41929,0.384895 2.54992,0.757761 3.39187,1.118599 0.84196,0.360838 1.56364,0.890067 2.16503,1.587688 0.60141,0.69762 0.91413,1.623772 0.93818,2.778455 0,1.058458 -0.28867,2.008665 -0.866,2.850621 -0.57735,0.8179 -1.38322,1.467409 -2.41763,1.948526 -1.0344,0.481117 -2.22517,0.721676 -3.5723,0.721676 z"
         style="font-weight:300;font-size:22.5778px;line-height:84.8;font-family:Poppins;-inkscape-font-specification:'Poppins Light';letter-spacing:0.529167px;word-spacing:0px;fill:#1f1f1f;fill-opacity:1;stroke-width:0.422856"
         id="path334616"
         sodipodi:nodetypes="sccccscssccscssssccccssscccssccss" />
      <path
         d="m 231.81213,-38.19007 c -0.50518,0 -0.93818,-0.180419 -1.29901,-0.541257 -0.36085,-0.360838 -0.54127,-0.805871 -0.54127,-1.3351 0,-0.52923 0.18042,-0.962236 0.54127,-1.299018 0.36083,-0.360838 0.79383,-0.541257 1.29901,-0.541257 0.50517,0 0.93818,0.180419 1.29902,0.541257 0.36083,0.336782 0.54124,0.769788 0.54124,1.299018 0,0.529229 -0.18041,0.974262 -0.54124,1.3351 -0.36084,0.360838 -0.79385,0.541257 -1.29902,0.541257 z m 1.26293,5.210997 v 16.829347 c 0,1.13737 -0.1711,1.378057 -1.22511,1.378057 -1.16323,0 -1.30076,-0.285572 -1.30076,-1.477158 v -16.900132 c 0,-1.002779 0.19341,-1.324476 1.22997,-1.324476 1.10375,0 1.2959,0.423056 1.2959,1.494362 z"
         style="font-weight:300;font-size:22.5778px;line-height:84.8;font-family:Poppins;-inkscape-font-specification:'Poppins Light';letter-spacing:0.529167px;word-spacing:0px;fill:#1f1f1f;fill-opacity:1;stroke-width:0.422856"
         id="path334618"
         sodipodi:nodetypes="ssscscssscccsccc" />
      <path
         d="m 248.28207,-14.483 q -2.77845,0 -5.01566,-1.226849 -2.2011,-1.262934 -3.50012,-3.536214 -1.26295,-2.309366 -1.26295,-5.37649 0,-3.067125 1.29902,-5.340405 1.29902,-2.309364 3.53622,-3.536215 2.23719,-1.262934 5.01565,-1.262934 2.77845,0 5.01566,1.262934 2.27328,1.226851 3.53621,3.536215 1.29901,2.27328 1.29901,5.340405 0,3.031042 -1.29901,5.340406 -1.29902,2.309364 -3.5723,3.572298 -2.27328,1.226849 -5.05173,1.226849 z m 0,-2.201111 q 1.94852,0 3.60838,-0.866013 1.65986,-0.902096 2.67019,-2.670203 1.04644,-1.804191 1.04644,-4.402226 0,-2.598034 -1.01035,-4.366143 -1.01035,-1.804191 -2.67019,-2.670202 -1.65986,-0.902096 -3.60838,-0.902096 -1.94854,0 -3.60839,0.902096 -1.65985,0.866011 -2.6702,2.670202 -0.97426,1.768109 -0.97426,4.366143 0,2.598035 0.97426,4.402226 1.01035,1.768107 2.63412,2.670203 1.65985,0.866013 3.60838,0.866013 z"
         style="font-weight:300;font-size:22.5778px;line-height:84.8;font-family:Poppins;-inkscape-font-specification:'Poppins Light';letter-spacing:0.529167px;word-spacing:0px;fill:#1f1f1f;fill-opacity:1;stroke-width:0.422856"
         id="path334620" />
      <path
         d="m 272.90696,-34.834274 c 2.35747,0 4.28195,0.733705 5.77342,2.201114 1.49146,1.443353 2.23719,3.548242 2.23719,6.314668 v 10.780734 c 0,0.566366 -0.23652,0.766089 -0.78252,0.766089 h -0.83366 c -0.62794,0 -0.87361,-0.270184 -0.87361,-0.775671 v -10.482482 c 0,-2.140973 -0.54126,-3.776773 -1.62377,-4.9074 -1.05845,-1.130625 -2.51383,-1.695938 -4.36614,-1.695938 -1.90041,0 -3.41594,0.601397 -4.54657,1.804191 -1.13062,1.202794 -1.69593,2.970901 -1.69593,5.30432 v 9.996474 c 0,0.434121 -0.17394,0.756506 -0.74978,0.756506 h -0.9678 c -0.53469,0 -0.80829,-0.258856 -0.80829,-0.852328 v -17.700722 c 0,-0.874664 0.21546,-1.148716 1.26649,-1.148716 1.13959,0 1.25938,0.379429 1.25938,1.099051 v 1.592698 c 0.62545,-1.202794 1.52755,-1.65153 2.70628,-2.276983 1.17873,-0.649509 2.51384,-0.775605 4.00531,-0.775605 z"
         style="font-weight:300;font-size:22.5778px;line-height:84.8;font-family:Poppins;-inkscape-font-specification:'Poppins Light';letter-spacing:0.529167px;word-spacing:0px;fill:#1f1f1f;fill-opacity:1;stroke-width:0.422856"
         id="path334622"
         sodipodi:nodetypes="scsccccscssscccccccccs" />
      <path
         d="m 138.32369,-25.6329 c 0,0.866012 -0.024,1.527549 -0.0721,1.984611 h -16.34603 c 0.0722,1.491465 0.433,2.766426 1.08251,3.824885 0.64951,1.058459 1.50349,1.864331 2.56195,2.417616 1.05846,0.529229 2.21314,0.793843 3.46405,0.793843 1.6358,0 3.00698,-0.396922 4.11355,-1.190765 0.56903,-0.45483 1.03683,-0.930907 1.40646,-1.450632 0.96614,-1.284177 0.77448,-1.383315 2.46919,-1.686204 0.57505,-0.06585 1.03175,-0.07462 1.03175,-0.07462 -0.48111,1.92447 -1.51552,3.50013 -3.10321,4.72698 -1.56363,1.202794 -3.53621,1.804191 -5.91774,1.804191 -1.8523,0 -3.51216,-0.40895 -4.97957,-1.226849 -1.46741,-0.841956 -2.62209,-2.020694 -3.46404,-3.536214 -0.81791,-1.539577 -1.22686,-3.331741 -1.22686,-5.37649 0,-2.04475 0.40895,-3.836913 1.22686,-5.376489 0.81789,-1.539576 1.96055,-2.718314 3.42796,-3.536214 1.46741,-0.817901 3.13929,-1.226851 5.01565,-1.226851 1.87636,0 3.51216,0.40895 4.90739,1.226851 1.4193,0.8179 2.50182,1.92447 3.24755,3.319711 0.76979,1.371185 1.15468,2.898734 1.15468,4.582645 z m -2.56195,-0.07217 c 0.0241,-1.467409 -0.27663,-2.718314 -0.9021,-3.752717 -0.60139,-1.034403 -1.43132,-1.816219 -2.48977,-2.345448 -1.05847,-0.52923 -2.21315,-0.793845 -3.46405,-0.793845 -1.87636,0 -3.47608,0.601397 -4.79915,1.804191 -1.32307,1.202794 -2.05678,2.898734 -2.20111,5.087819 z"
         style="font-weight:300;font-size:22.5778px;line-height:84.8;font-family:Poppins;-inkscape-font-specification:'Poppins Light';letter-spacing:0.529167px;word-spacing:0px;fill:#1f1f1f;fill-opacity:1;stroke-width:0.422856"
         id="path2345"
         sodipodi:nodetypes="sccscscccccsccssssccsccssscc" />
    </g>
    <text
       xml:space="preserve"
       style="font-style:normal;font-weight:normal;font-size:7.05556px;line-height:84.8;font-family:sans-serif;letter-spacing:0.264583px;word-spacing:0px;fill:#1f1f1f;fill-opacity:1;stroke:none;stroke-width:0.264583"
       x="62.236984"
       y="42.052437"
       id="text2931"><tspan
         sodipodi:role="line"
         id="tspan2929"
         style="font-style:normal;font-variant:normal;font-weight:300;font-stretch:normal;font-size:7.05556px;font-family:Poppins;-inkscape-font-specification:'Poppins Light';stroke-width:0.264583;fill:#1f1f1f;fill-opacity:1"
         x="62.236984"
         y="42.052437"
         rotate="0 0 0 0 0 0 0 0 0 0 0 0 0 0 0">By LemonOrange</tspan></text>
  </g>
</svg>
