<?xml version="1.0" encoding="UTF-8" standalone="no"?>
<svg
   width="128"
   height="128"
   viewBox="0 0 33.866666 33.866668"
   version="1.1"
   id="svg8"
   sodipodi:docname="reset-center.svg"
   inkscape:version="1.1 (c4e8f9e, 2021-05-24)"
   xmlns:inkscape="http://www.inkscape.org/namespaces/inkscape"
   xmlns:sodipodi="http://sodipodi.sourceforge.net/DTD/sodipodi-0.dtd"
   xmlns="http://www.w3.org/2000/svg"
   xmlns:svg="http://www.w3.org/2000/svg"
   xmlns:rdf="http://www.w3.org/1999/02/22-rdf-syntax-ns#"
   xmlns:cc="http://creativecommons.org/ns#"
   xmlns:dc="http://purl.org/dc/elements/1.1/">
  <sodipodi:namedview
     id="namedview7"
     pagecolor="#505050"
     bordercolor="#ffffff"
     borderopacity="1"
     inkscape:pageshadow="0"
     inkscape:pageopacity="0"
     inkscape:pagecheckerboard="1"
     showgrid="false"
     inkscape:zoom="4.8523377"
     inkscape:cx="57.395016"
     inkscape:cy="60.280223"
     inkscape:window-width="1440"
     inkscape:window-height="791"
     inkscape:window-x="0"
     inkscape:window-y="25"
     inkscape:window-maximized="0"
     inkscape:current-layer="layer1-5"
     inkscape:snap-global="true"
     inkscape:snap-bbox="true"
     inkscape:bbox-paths="true"
     inkscape:bbox-nodes="true"
     inkscape:snap-bbox-edge-midpoints="true"
     inkscape:snap-bbox-midpoints="true"
     inkscape:snap-page="true" />
  <defs
     id="defs2" />
  <metadata
     id="metadata5">
    <rdf:RDF>
      <cc:Work
         rdf:about="">
        <dc:format>image/svg+xml</dc:format>
        <dc:type
           rdf:resource="http://purl.org/dc/dcmitype/StillImage" />
      </cc:Work>
    </rdf:RDF>
  </metadata>
  <g
     id="layer1">
    <path
       id="path1043"
       style="color:#000000;font-style:normal;font-variant:normal;font-weight:normal;font-stretch:normal;font-size:medium;line-height:normal;font-family:sans-serif;font-variant-ligatures:normal;font-variant-position:normal;font-variant-caps:normal;font-variant-numeric:normal;font-variant-alternates:normal;font-variant-east-asian:normal;font-feature-settings:normal;font-variation-settings:normal;text-indent:0;text-align:start;text-decoration:none;text-decoration-line:none;text-decoration-style:solid;text-decoration-color:#000000;letter-spacing:normal;word-spacing:normal;text-transform:none;writing-mode:lr-tb;direction:ltr;text-orientation:mixed;dominant-baseline:auto;baseline-shift:baseline;text-anchor:start;white-space:normal;shape-padding:0;shape-margin:0;inline-size:0;clip-rule:nonzero;display:inline;overflow:visible;visibility:visible;opacity:1;isolation:auto;mix-blend-mode:normal;color-interpolation:sRGB;color-interpolation-filters:linearRGB;solid-color:#000000;solid-opacity:1;fill:#ffffff;fill-opacity:1;fill-rule:nonzero;stroke:#ffffff;stroke-width:0.787409;stroke-linecap:butt;stroke-linejoin:round;stroke-miterlimit:4;stroke-dasharray:none;stroke-dashoffset:0;stroke-opacity:1;color-rendering:auto;image-rendering:auto;shape-rendering:auto;text-rendering:auto;enable-background:accumulate;stop-color:#000000;stop-opacity:1"
       d="m 6.7543726,0.39422161 c -3.5022836,0 -6.36015099,2.85786739 -6.36015099,6.36015099 V 12.79856 H 2.9375753 V 6.7543726 c 0,-2.1365833 1.680214,-3.8167973 3.8167973,-3.8167973 H 12.79856 V 0.39422161 Z m 14.3137474,0 V 2.9375753 h 6.044691 c 2.136585,0 3.816799,1.6802137 3.816799,3.8167973 V 12.79856 h 2.543353 V 6.7543726 c 0,-3.5022836 -2.857868,-6.36015099 -6.360152,-6.36015099 z M 0.39422161,21.06812 v 6.044691 c 0,3.502284 2.85786739,6.360152 6.36015099,6.360152 H 12.79856 V 30.92961 H 6.7543726 c -2.1365836,0 -3.8167973,-1.680214 -3.8167973,-3.816799 V 21.06812 Z m 30.53538839,0 v 6.044691 c 0,2.136585 -1.680214,3.816799 -3.816799,3.816799 H 21.06812 v 2.543353 h 6.044691 c 3.502284,0 6.360152,-2.857868 6.360152,-6.360152 V 21.06812 Z" />
    <g
       inkscape:label="Layer 1"
       id="layer1-5"
       transform="matrix(0.51698543,0,0,0.51698543,8.1793052,8.1795648)"
       style="stroke:#ffffff;stroke-opacity:1">
      <circle
         style="fill:none;fill-opacity:1;stroke:#ffffff;stroke-width:0;stroke-miterlimit:4;stroke-dasharray:none;stroke-opacity:1"
         id="path1104"
         cx="16.933334"
         cy="16.933334"
         r="16.933334" />
      <path
         id="path1159"
         style="color:#000000;font-style:normal;font-variant:normal;font-weight:normal;font-stretch:normal;font-size:medium;line-height:normal;font-family:sans-serif;font-variant-ligatures:normal;font-variant-position:normal;font-variant-caps:normal;font-variant-numeric:normal;font-variant-alternates:normal;font-variant-east-asian:normal;font-feature-settings:normal;font-variation-settings:normal;text-indent:0;text-align:start;text-decoration:none;text-decoration-line:none;text-decoration-style:solid;text-decoration-color:#000000;letter-spacing:normal;word-spacing:normal;text-transform:none;writing-mode:lr-tb;direction:ltr;text-orientation:mixed;dominant-baseline:auto;baseline-shift:baseline;text-anchor:start;white-space:normal;shape-padding:0;shape-margin:0;inline-size:0;clip-rule:nonzero;display:inline;overflow:visible;visibility:visible;opacity:1;isolation:auto;mix-blend-mode:normal;color-interpolation:sRGB;color-interpolation-filters:linearRGB;solid-color:#000000;solid-opacity:1;fill:#ffffff;fill-opacity:1;fill-rule:nonzero;stroke:#ffffff;stroke-width:2.55890515;stroke-linecap:round;stroke-linejoin:round;stroke-miterlimit:4;stroke-dasharray:none;stroke-dashoffset:0;stroke-opacity:1;color-rendering:auto;image-rendering:auto;shape-rendering:auto;text-rendering:auto;enable-background:accumulate;stop-color:#000000;stop-opacity:1"
         d="M 3.5898891,7.2294965 A 1.1985978,1.1985978 0 0 0 3.3632033,7.4759424 C -1.1455916,13.943141 -0.45668915,22.712901 5.0066206,28.39675 10.469932,34.080598 19.206589,35.117482 25.847063,30.868012 32.487536,26.61854 35.208267,18.250452 32.335941,10.908545 29.463614,3.5666357 21.787968,-0.73324241 14.026769,0.65155686 a 1.1985978,1.1985978 0 0 0 -0.172136,0.044044 1.2922557,1.2922557 0 0 0 -0.888151,0.3027768 1.2922557,1.2922557 0 0 0 -0.153826,1.82140134 l 9.325463,11.067837 a 1.2922557,1.2922557 0 0 0 1.819797,0.155839 1.2922557,1.2922557 0 0 0 0.155514,-1.820183 L 16.183647,2.8118861 C 22.208656,2.4866849 27.857071,6.0402096 30.103301,11.781762 32.564326,18.072355 30.244359,25.207569 24.554763,28.84854 18.865164,32.489513 11.415021,31.606616 6.7340244,26.73666 2.0530269,21.866704 1.4654513,14.386891 5.3286147,8.8457574 A 1.1985978,1.1985978 0 0 0 5.031172,7.1781749 1.1985978,1.1985978 0 0 0 3.5898891,7.2294965 Z" />
    </g>
  </g>
</svg>
