<?xml version="1.0" encoding="UTF-8" standalone="no"?>
<!-- Created with Vectornator for iOS (http://vectornator.io/) -->

<svg
   height="100%"
   style="fill-rule:nonzero;clip-rule:evenodd;stroke-linecap:round;stroke-linejoin:round;"
   xml:space="preserve"
   width="100%"
   version="1.1"
   viewBox="0 0 113.647 115.272"
   id="svg890"
   sodipodi:docname="icon-colored.svg"
   inkscape:version="1.1 (c4e8f9e, 2021-05-24)"
   xmlns:inkscape="http://www.inkscape.org/namespaces/inkscape"
   xmlns:sodipodi="http://sodipodi.sourceforge.net/DTD/sodipodi-0.dtd"
   xmlns="http://www.w3.org/2000/svg"
   xmlns:svg="http://www.w3.org/2000/svg"
   xmlns:vectornator="http://vectornator.io"><sodipodi:namedview
   id="namedview892"
   pagecolor="#505050"
   bordercolor="#ffffff"
   borderopacity="1"
   inkscape:pageshadow="0"
   inkscape:pageopacity="0"
   inkscape:pagecheckerboard="1"
   showgrid="false"
   inkscape:zoom="5.3679092"
   inkscape:cx="43.87183"
   inkscape:cy="54.211051"
   inkscape:window-width="1440"
   inkscape:window-height="900"
   inkscape:window-x="0"
   inkscape:window-y="0"
   inkscape:window-maximized="0"
   inkscape:current-layer="svg890" />
<metadata
   id="metadata875">
<vectornator:setting
   key="DimensionsVisible"
   value="1" />
<vectornator:setting
   key="PencilOnly"
   value="0" />
<vectornator:setting
   key="SnapToPoints"
   value="1" />
<vectornator:setting
   key="GuidesVisible"
   value="1" />
<vectornator:setting
   key="CMYKEnabledKey"
   value="0" />
<vectornator:setting
   key="RulersVisible"
   value="1" />
<vectornator:setting
   key="SnapToEdges"
   value="1" />
<vectornator:setting
   key="OutlineMode"
   value="0" />
<vectornator:setting
   key="DisplayWhiteBackground"
   value="0" />
<vectornator:setting
   key="doHistoryDisabled"
   value="0" />
<vectornator:setting
   key="SnapToGuides"
   value="1" />
<vectornator:setting
   key="TimeLapseWatermarkDisabled"
   value="0" />
<vectornator:setting
   key="Units"
   value="Points" />
<vectornator:setting
   key="SnapToGrid"
   value="0" />
<vectornator:setting
   key="IsolateActiveLayer"
   value="0" />
<vectornator:setting
   key="DynamicGuides"
   value="1" />
</metadata>
<defs
   id="defs877">





</defs>
<path
   id="path879"
   style="fill:#ffd61a;fill-opacity:1;stroke:none"
   d="M 44.34375,1e-6 C 38.76795,1e-6 33.755849,2.33227 30.22336,6.07759 L 30.25,6.09375 C 39.3956,3.28581 51.1927,3.19051 66.25,5.5625 H 85.031254 C 90.550924,4.400432 95.157094,2.375806 99.601564,0.759766 97.900734,0.274993 96.109884,0 94.250004,0 92.690904,4e-6 45.90285,-3e-6 44.34375,0 Z"
   sodipodi:nodetypes="ccccccscc" /><path
   id="path881"
   style="fill:#ff732b;fill-opacity:1;stroke:none;stroke-width:0.4;stroke-miterlimit:4;stroke-dasharray:none"
   d="m 99.62703,0.749996 c -4.4521,1.61751 -9.0658,3.6482796 -14.5957,4.8124996 h 9.21875 c 7.681,0 13.84375,6.1631494 13.84375,13.8437504 0,7.6806 -6.16275,13.84375 -13.84375,13.84375 h -2.59375 c 4.9465,1.0709 9.7075,1.58235 14.4375,1.40625 l 0.1704,-0.007 c 4.5059,-3.543332 7.3921,-9.042199 7.3921,-15.243017 0,-8.829701 -5.9825,-16.29029 -14.0293,-18.65625 z M 46.03328,3.8847616 c -5.97464,0.07832 -11.21041,0.805014 -15.78321,2.208984 -3.2787,3.4726397 -5.3125,8.1410994 -5.3125,13.3125004 0.284303,3.779719 1.343755,7.634203 3.038561,10.251813 1.22208,-1.586429 2.406517,-3.281906 3.723257,-4.66777 -0.74725,-1.706028 -1.175761,-3.620592 -1.175761,-5.611441 0,-7.680501 6.139483,-13.8163494 13.820183,-13.8163494 H 66.25007 C 58.72141,4.3765036 52.0079,3.8064456 46.03327,3.8847646 Z M 18.90632,33.249996 c -0.1218,0.0035 -0.4043,0.02815 -0.4375,0.03125 -0.0546,0.0053 -0.85355,0.0512 -0.96875,0.0625 -0.2499,0.0257 -0.49595,0.05285 -0.78125,0.09375 -0.2829,0.0386 -0.5437,0.10715 -0.8125,0.15625 -0.0198,0.0027 -0.005,-0.0036 -0.0312,0 0.0365,-0.0059 -0.1544,0.01125 -0.25,0.03125 -7.61765,1.4634 -13.68824,7.4538 -15.25,15.125 -0.0779,0.3825 -0.10905,0.67945 -0.1875,1.28125 -0.006,0.0448 -0.10858,0.77455 -0.125,0.96875 -0.006,0.0687 -0.0207,0.7059 -0.0312,1.0625 -10e-4,0.0358 -0.0312,0.46065 -0.0312,0.59375 0,0.4457 0.026,0.89425 0.0625,1.40625 4.4e-4,0.0066 -0.002,0.06895 0,0.09375 1.5e-4,0.011 -1.6e-4,0.02095 0,0.03125 6.9e-4,0.0115 -8e-4,0.01965 0,0.03125 6.8e-4,0.0109 -7.4e-4,0.01945 0,0.03125 0.003,0.033 0.0284,0.06075 0.0312,0.09375 0.005,0.0763 -0.004,0.1467 0,0.1875 0.0108,0.1103 0.0739,0.17855 0.0937,0.28125 0.31927,2.8979 1.20945,5.66185 2.71875,8.09375 1.94734,3.374614 4.89036,8.413036 6.23452,10.687504 0.90275,-2.1475 1.6138,-4.38515 1.8125,-6.96875 0.0128,-0.165786 0.0781,-0.506093 0.10531,-0.699219 -0.86377,-1.492387 -3.28991,-5.70843 -3.40235,-5.894531 -1.12308,-1.8099 -1.82444,-3.8542 -2.03125,-6 -3.9e-4,-0.0195 7.1e-4,-0.0419 0,-0.0625 -6.7e-4,-0.0068 -0.0625,-1.0138 -0.0625,-1.3125 0,-0.035 0.0163,-0.90215 0.0312,-1.09375 0.004,-0.0503 -8e-5,-0.09255 0,-0.09375 8.1e-4,-0.0081 0.0591,-0.4715 0.0625,-0.5 0.0341,-0.2365 0.11754,-0.9349 0.15625,-1.125 1.11318,-5.4678 5.4526,-9.72675 10.9375,-10.78125 0.0335,-0.0044 0.0166,0.0105 0.0937,0 0.225,-0.0407 0.43305,-0.0945 0.65625,-0.125 0.2367,-0.0338 0.38185,-0.0471 0.53125,-0.0625 0.0286,-0.0027 0.9796,-0.0606 1,-0.0625 0.2322,-0.0064 0.49385,-0.0113 0.84375,0 h 1.9375 c 1.0733,-1.8747 2.08075,-3.7775 3.28125,-5.5625 h -5.125 c -0.3613,-0.0131 -0.6985,-0.0099 -1.0625,0 z"
   sodipodi:nodetypes="scssscccscscsccsscscccccccccccsccccccsccccccccsccccccccccccccccc" /><path
   id="path883"
   style="fill:#ff1a3c;fill-opacity:1;stroke:none"
   d="m 31.694881,24.970559 c -1.3241,1.3893 -2.49115,3.0939 -3.71875,4.6875 0.8145,1.2873 1.7292,2.53245 2.8125,3.59375 h -5.6875 c -1.2005,1.785 -2.20795,3.6878 -3.28125,5.5625 h 22.53125 c 3.6999,0 3.6999,-5.5625 0,-5.5625 -5.6947,0 -10.52345,-3.39875 -12.65625,-8.28125 z m 37.59375,8.28125 c -3.6999,0 -3.6999,5.5625 0,5.5625 2.669426,0 5.150952,0.756884 7.263672,2.050781 3.258292,0.623494 6.499165,1.208933 9.654297,2.28711 -0.902082,-1.598902 -2.019859,-3.060043 -3.324219,-4.337891 h 11.375 c 4.5009,0 8.727669,-1.608362 12.013669,-4.164062 -4.73,0.176099 -9.660919,-0.327538 -14.607419,-1.398438 z m 16.986328,10.011719 c 0.0159,0.02668 0.02918,0.05523 0.04492,0.08203 -0.01502,-0.02737 -0.02977,-0.05474 -0.04492,-0.08203 z m -3.888672,4.839843 c 0.01088,0.03135 0.02254,0.0623 0.0332,0.09375 -0.01083,-0.03142 -0.02215,-0.06243 -0.0332,-0.09375 z m 0.238282,0.753907 c 0.05914,0.208412 0.112579,0.418486 0.162109,0.630859 -0.05023,-0.21175 -0.102179,-0.423148 -0.162109,-0.630859 z m 0.291015,1.224609 c 0.0606,0.323837 0.11264,0.650858 0.150391,0.982422 -0.03842,-0.331635 -0.08876,-0.658785 -0.150391,-0.982422 z m 5.666016,0.480469 c 0.007,0.06891 0.01132,0.137998 0.01758,0.207031 -0.0066,-0.06894 -0.01024,-0.138312 -0.01758,-0.207031 z m -5.482422,0.837891 c 0.03708,0.414594 0.06445,0.833154 0.06445,1.257812 -8e-6,-0.425058 -0.02673,-0.843316 -0.06445,-1.257812 z m 0.06445,1.257812 c 0,0.450374 -0.02671,0.89478 -0.06836,1.333984 0.04175,-0.439721 0.06836,-0.883066 0.06836,-1.333984 z m -0.115234,1.710938 c -0.03737,0.305222 -0.08191,0.607572 -0.138672,0.90625 0.0567,-0.29837 0.101317,-0.601349 0.138672,-0.90625 z m -0.240235,1.378906 c -0.05991,0.264427 -0.12646,0.526768 -0.201172,0.785156 0.07482,-0.258749 0.141195,-0.520351 0.201172,-0.785156 z m -0.34375,1.251953 c -0.0863,0.263165 -0.181884,0.521454 -0.283203,0.777344 0.101348,-0.25593 0.196873,-0.514137 0.283203,-0.777344 z m -0.441406,1.177734 c -0.143727,0.332288 -0.30237,0.656505 -0.470703,0.97461 0.168401,-0.318213 0.326922,-0.642202 0.470703,-0.97461 z m -0.542969,1.121094 c -0.202942,0.372792 -0.423051,0.734969 -0.658203,1.085937 0.235176,-0.350986 0.455237,-0.713121 0.658203,-1.085937 z m -0.83789,1.333984 c -0.167354,0.238205 -0.339826,0.472411 -0.521485,0.699219 0.0277,-0.03459 0.06051,-0.06475 0.08789,-0.09961 0.152106,-0.19369 0.291791,-0.397773 0.433594,-0.59961 z m -1.273438,1.556641 c -0.07158,0.07569 -0.137684,0.15641 -0.210937,0.230469 0.07327,-0.07409 0.139341,-0.154745 0.210937,-0.230469 z m -1.292969,1.216797 c -0.06154,0.05032 -0.128987,0.0933 -0.191406,0.142578 0.06247,-0.04932 0.129816,-0.09221 0.191406,-0.142578 z M 76.9273,64.243997 c -0.310927,0.205009 -0.629187,0.400117 -0.957031,0.580078 0.328065,-0.180082 0.645906,-0.374914 0.957031,-0.580078 z m -1.113281,0.662109 c -0.355827,0.189441 -0.718213,0.368823 -1.091797,0.527344 0.373919,-0.158634 0.735666,-0.337736 1.091797,-0.527344 z m -1.195313,0.566406 c -0.367578,0.152505 -0.742113,0.291039 -1.125,0.412109 0.38271,-0.121007 0.757585,-0.259697 1.125,-0.412109 z m -63.548825,0.435547 c -0.0228,0.1896 -0.14305,0.54835 -0.15625,0.71875 -0.1987,2.5836 -0.90975,4.82125 -1.8125,6.96875 2.08235,3.6025 2.59455,4.4762 6.03125,10.4375 0.0193,0.0335 12.35805,21.448251 12.40625,21.531251 4.23369,7.33304 12.483959,10.84628 20.345703,9.39062 -1.710581,-1.7796 -3.514339,-3.59254 -4.988281,-5.2832 0.06631,0.006 0.13455,0.007 0.201172,0.0117 -4.328606,-0.39089 -8.398695,-2.80324 -10.746094,-6.86914 -0.0399,-0.069 -15.88315,-27.579551 -21.28125,-36.906251 z m 62.320312,0.0098 c -0.39061,0.120122 -0.790673,0.220807 -1.195312,0.30664 0.404798,-0.08585 0.804555,-0.186476 1.195312,-0.30664 z m -1.404296,0.349609 c -0.398199,0.07807 -0.80115,0.140214 -1.210938,0.183594 0.409661,-0.04336 0.812859,-0.105566 1.210938,-0.183594 z m -1.38086,0.199219 c -0.433558,0.04057 -0.871984,0.06641 -1.316406,0.06641 0.444537,0 0.882741,-0.02582 1.316406,-0.06641 z M 51.288631,107.87681 c -0.360722,0.20825 -0.729374,0.38981 -1.099609,0.5625 0.373275,-0.17111 0.741331,-0.35564 1.099609,-0.5625 z m -1.849609,0.87695 c -0.07943,0.0316 -0.158542,0.0637 -0.238282,0.0937 0.08006,-0.0294 0.158664,-0.0629 0.238282,-0.0937 z m 2.996093,4.77344 c -0.210843,0.0965 -0.425843,0.17715 -0.638672,0.26563 0.212997,-0.0888 0.427548,-0.16869 0.638672,-0.26563 z m -1.677734,0.67188 c -0.255195,0.0894 -0.51257,0.16783 -0.769531,0.24609 0.257449,-0.0784 0.513975,-0.15643 0.769531,-0.24609 z m -1.703125,0.50781 c -0.266611,0.0669 -0.533343,0.12841 -0.800781,0.18359 0.267809,-0.055 0.534216,-0.11687 0.800781,-0.18359 z" /><path
   id="path885"
   style="fill:#c238ff;fill-opacity:1;stroke:none"
   d="m 76.552303,40.86509 c 4.0062,2.42 6.603416,6.749516 6.603516,11.791016 0,2.211473 -0.522819,4.293806 -1.4375,6.146484 1.478571,1.005426 3.023899,2.146027 4.378906,3.560547 1.645923,-2.853095 2.589844,-6.165597 2.589844,-9.707031 0,-3.4003 -0.818769,-6.768606 -2.480469,-9.503906 -3.1922,-1.0917 -6.357197,-1.65531 -9.654297,-2.28711 z m 9.464844,21.634766 c -0.08821,0.153529 -0.181633,0.302523 -0.273437,0.453125 0.09341,-0.149394 0.184024,-0.301021 0.273437,-0.453125 z m -13.722656,3.701172 c -0.03562,0.0078 -0.0717,0.01391 -0.107422,0.02148 0.03564,-0.0076 0.07189,-0.01357 0.107422,-0.02148 z m -0.855469,0.158203 c -0.09553,0.01484 -0.190937,0.03008 -0.287109,0.04297 0.09611,-0.01302 0.191663,-0.02798 0.287109,-0.04297 z m -0.980469,0.117187 c -0.07422,0.0062 -0.148106,0.01449 -0.222656,0.01953 0.07474,-0.0051 0.148266,-0.01325 0.222656,-0.01953 z m -22.240234,0.05469 c -2.136,0 -3.47395,2.30625 -2.40625,4.15625 l 0.34375,0.59375 c 1.3832,-1.6623 2.7731,-3.3669 4.125,-4.75 z m 22.123047,5.501953 c -0.116531,0.0041 -0.232417,0.0096 -0.349609,0.01172 0.116427,-0.0042 0.233723,-0.0055 0.349609,-0.01172 z m -0.830078,0.02344 -16.480469,0.0059 h 16.25 c 0.07724,0 0.153445,-0.005 0.230469,-0.0059 z M 56.343319,88.937356 c 0.226272,0.391923 0.427002,0.790278 0.611328,1.193359 -0.183853,-0.40279 -0.384845,-0.801078 -0.611328,-1.193359 z m 0.660156,1.296875 c 0.167269,0.373783 0.313345,0.753779 0.445313,1.134766 -0.131242,-0.381107 -0.278169,-0.76048 -0.445313,-1.134766 z m 0.519532,1.34375 c 0.111574,0.339525 0.202923,0.682026 0.287109,1.025391 -0.08315,-0.343518 -0.176162,-0.685521 -0.287109,-1.025391 z m 0.378906,1.412109 c 0.06222,0.28963 0.109136,0.580084 0.152344,0.871094 -0.04205,-0.291111 -0.09106,-0.581299 -0.152344,-0.871094 z m -0.291016,6.894532 c -0.980908,3.249238 -3.143581,6.150538 -6.330078,7.990238 -2.5945,1.498 -5.632578,2.04992 -8.392578,1.79492 1.4786,1.696 3.288506,3.51578 5.003906,5.30078 2.1078,-0.394 4.204022,-1.1492 6.169922,-2.2832 4.055888,-2.34198 6.943297,-5.91497 8.466797,-9.9707 -1.988997,-1.11884 -3.251607,-1.88689 -4.917969,-2.832038 z m 4.917969,2.832038 c 0.04275,-0.11381 0.0805,-0.2292 0.121094,-0.34375 -0.04149,0.11427 -0.07743,0.23029 -0.121094,0.34375 z"
   sodipodi:nodetypes="ccccsccccccccccccccscccscccccsccccccccccccccccccccccc" /><path
   shape-rendering="optimizeQuality"
   stroke="#383eff"
   stroke-width="1.6"
   d="m 81.6875,58.7812 c -2.2621,4.5818 -6.9371,7.75 -12.4063,7.75 h -19 c -1.3519,1.3831 -2.7418,3.0877 -4.125,4.75 l 10.1875,17.6563 c 2.0034,3.47 2.3224,7.3992 1.25,10.9375 1.6756,0.95 2.9398,1.719 4.9362,2.842 2.0212,-5.2523 1.7193,-11.4019 -1.3737,-16.5608 l -8.125,-14.0937 16.6009,-0.006 c 7.1638,0 13.1421,-3.7967 16.4683,-9.6909 -1.3649,-1.4253 -2.9243,-2.5734 -4.4129,-3.5844 z"
   fill="#383eff"
   stroke-linecap="square"
   opacity="1"
   stroke-linejoin="round"
   id="path887"
   style="stroke:none;fill:#1e35ff;fill-opacity:1" />
</svg>
