<?xml version="1.0" encoding="UTF-8" standalone="no"?>
<!-- Created with Inkscape (http://www.inkscape.org/) -->

<svg
   width="512"
   height="512"
   viewBox="0 0 135.46666 135.46667"
   version="1.1"
   id="svg5"
   inkscape:version="1.1.1 (eb90963e84, 2021-10-02)"
   sodipodi:docname="icon.svg"
   xmlns:inkscape="http://www.inkscape.org/namespaces/inkscape"
   xmlns:sodipodi="http://sodipodi.sourceforge.net/DTD/sodipodi-0.dtd"
   xmlns="http://www.w3.org/2000/svg"
   xmlns:svg="http://www.w3.org/2000/svg">
  <sodipodi:namedview
     id="namedview7"
     pagecolor="#505050"
     bordercolor="#ffffff"
     borderopacity="1"
     inkscape:pageshadow="0"
     inkscape:pageopacity="0"
     inkscape:pagecheckerboard="1"
     inkscape:document-units="px"
     showgrid="true"
     units="px"
     inkscape:snap-bbox="true"
     inkscape:bbox-paths="true"
     inkscape:bbox-nodes="true"
     inkscape:snap-bbox-edge-midpoints="true"
     inkscape:snap-bbox-midpoints="true"
     inkscape:snap-intersection-paths="true"
     inkscape:object-paths="true"
     inkscape:snap-smooth-nodes="true"
     inkscape:snap-midpoints="true"
     inkscape:snap-object-midpoints="true"
     inkscape:snap-text-baseline="true"
     inkscape:snap-page="true"
     inkscape:snap-center="true"
     inkscape:snap-grids="true"
     inkscape:zoom="1.8540472"
     inkscape:cx="251.34204"
     inkscape:cy="267.79254"
     inkscape:window-width="1720"
     inkscape:window-height="1408"
     inkscape:window-x="1720"
     inkscape:window-y="0"
     inkscape:window-maximized="1"
     inkscape:current-layer="layer1"
     inkscape:snap-global="false">
    <inkscape:grid
       type="xygrid"
       id="grid824"
       empspacing="8"
       empcolor="#ffffff"
       empopacity="0.25098039"
       color="#dedede"
       opacity="0.1254902"
       enabled="false" />
  </sodipodi:namedview>
  <defs
     id="defs2" />
  <g
     inkscape:label="Layer 1"
     inkscape:groupmode="layer"
     id="layer1">
    <g
       id="path823"
       style="fill:#ffffff;fill-opacity:1;stroke:#1f2323;stroke-width:10.26281045;stroke-miterlimit:4;stroke-dasharray:none;stroke-opacity:1"
       transform="matrix(0.79572399,0,0,0.79572399,13.836308,13.835027)">
      <path
         style="color:#000000;fill:#ffffff;fill-opacity:1;stroke:#1f2323;stroke-width:10.26281045;stroke-linecap:square;stroke-linejoin:round;stroke-miterlimit:4;stroke-dasharray:none;stroke-opacity:1"
         d="m 55.014081,11.795446 c -9.395339,0 -16.959095,7.563757 -16.959095,16.959095 0,9.39534 7.563756,16.959098 16.959095,16.959098 H 30.155098 c -0.341734,-0.01171 -0.683869,-0.0177 -1.026838,-0.0084 -0.143575,0.004 -0.286867,0.02532 -0.43059,0.03317 -0.121563,0.0063 -0.242895,0.01809 -0.364367,0.02484 -0.146832,0.01039 -0.29314,0.01892 -0.43886,0.03317 -0.218262,0.02244 -0.436271,0.05176 -0.654195,0.08285 -0.247561,0.03381 -0.493043,0.07162 -0.737,0.116022 -0.02458,0.0044 -0.04997,0.0036 -0.07454,0.0084 -0.03308,0.0063 -0.06636,0.01003 -0.09934,0.01646 -6.722415,1.292414 -12.010219,6.52815 -13.373519,13.22445 -0.0798,0.391746 -0.129779,0.791139 -0.182183,1.192434 -0.0078,0.058 -0.01522,0.116179 -0.02484,0.173871 -0.02414,0.200592 -0.04913,0.40181 -0.06627,0.604503 -0.003,0.03574 -0.0055,0.07179 -0.0084,0.107683 -0.02141,0.274073 -0.03307,0.550079 -0.04138,0.827914 -0.0055,0.174118 -0.01665,0.347237 -0.01665,0.521703 0,0.41495 0.02068,0.826554 0.04968,1.233858 0.0094,0.127549 0.01257,0.25333 0.02484,0.3809 -0.0069,-0.07347 -0.0023,-0.149824 -0.0084,-0.223603 0.222545,2.76467 1.0942,5.342242 2.475986,7.568676 1.937704,3.207261 25.165388,43.58191 25.165388,43.58191 4.697668,8.13659 15.033095,10.89997 23.169687,6.20233 8.136594,-4.69768 10.90826,-15.02483 6.210591,-23.16142 L 58.955793,79.631816 H 80.45276 c 9.395335,0 16.959098,-7.563755 16.959098,-16.959095 0,-9.39534 -7.563763,-16.959097 -16.959098,-16.959097 h 25.43864 c 9.39535,0 16.9591,-7.563756 16.9591,-16.959094 0,-9.39534 -7.56375,-16.959096 -16.9591,-16.959096 z"
         id="path827" />
      <path
         style="color:#000000;fill:#ffffff;fill-opacity:1;stroke:#1f2323;stroke-width:10.26281045;stroke-linecap:square;stroke-linejoin:round;stroke-miterlimit:4;stroke-dasharray:none;stroke-opacity:1"
         d="m 55.013672,9.4101563 c -10.675601,-1e-7 -19.34375,8.6681507 -19.34375,19.3437497 0,5.844938 2.652062,11.025741 6.755859,14.574219 H 30.154297 l 0.08203,0.002 c -0.368369,-0.01262 -0.758192,-0.02098 -1.171875,-0.0098 a 2.3856787,2.3856787 0 0 0 -0.002,0 c -0.335282,0.0093 -0.499058,0.03738 -0.494141,0.03711 l 0.0059,-0.002 c -0.193251,0.01002 -0.317355,0.0223 -0.373047,0.02539 a 2.3856787,2.3856787 0 0 0 -0.03711,0.002 c -0.127235,0.009 -0.294075,0.01873 -0.501953,0.03906 a 2.3856787,2.3856787 0 0 0 -0.01172,0.002 c -0.262875,0.02703 -0.505456,0.05948 -0.732422,0.0918 -0.272367,0.0372 -0.551473,0.0792 -0.835938,0.130859 0.273006,-0.04887 0.173787,-0.03785 -0.09961,0.01367 0.08106,-0.01544 0.0338,-0.0089 -0.103516,0.01758 -7.667623,1.474135 -13.704403,7.452119 -15.259765,15.091797 -0.103928,0.510717 -0.159704,0.967041 -0.210938,1.359375 -0.0075,0.05566 -0.01212,0.09224 -0.01172,0.08984 a 2.3856787,2.3856787 0 0 0 -0.01563,0.107422 c -0.02342,0.194581 -0.0538,0.422904 -0.07617,0.6875 a 2.3856787,2.3856787 0 0 0 0,0.002 c -0.0049,0.0589 -0.0064,0.09745 -0.0078,0.115234 a 2.3856787,2.3856787 0 0 0 0,0.0059 c -0.02586,0.331001 -0.03994,0.646062 -0.04883,0.943359 -0.004,0.122496 -0.01758,0.317506 -0.01758,0.591797 0,0.494205 0.02526,0.963568 0.05664,1.404297 a 2.3856787,2.3856787 0 0 0 0,0.0059 c 0.0038,0.05141 0.0073,0.196052 0.0293,0.427735 3e-4,0.0032 -3.07e-4,0.0027 0,0.0059 a 2.3856787,2.3856787 0 0 0 0.05664,0.07813 c 0.296124,3.008106 1.236075,5.838463 2.753906,8.287109 0.0018,0.003 0.0021,0.0068 0.0039,0.0098 0.87046,1.441818 7.22761,12.445677 13.269532,22.927734 6.048496,10.493457 11.855468,20.585937 11.855468,20.585937 a 2.3856787,2.3856787 0 0 0 0.002,0.002 c 5.338249,9.24611 17.182825,12.4137 26.427735,7.07617 9.244449,-5.3373 12.421799,-17.17457 7.083984,-26.419916 l -8.68363,-15.045236 h 17.367188 c 10.675597,0 19.34375,-8.6701 19.34375,-19.345703 0,-5.844938 -2.652061,-11.023788 -6.755859,-14.572266 h 12.849614 c 10.67561,0 19.3457,-8.670104 19.3457,-19.345703 0,-10.6756 -8.67009,-19.3437497 -19.3457,-19.3437497 z m 0,4.7714847 h 50.876958 c 8.11507,0 14.57421,6.457204 14.57421,14.572265 0,8.115059 -6.45914,14.574219 -14.57421,14.574219 H 80.453125 a 2.3857422,2.3857422 0 0 0 0,4.771484 c 8.115054,0 14.574219,6.457207 14.574219,14.572266 0,8.115059 -6.459165,14.574219 -14.574219,14.574219 H 58.955078 a 2.3856787,2.3856787 0 0 0 -2.064453,3.578125 l 10.748047,18.623047 c 4.057514,7.027814 1.690832,15.846244 -5.337891,19.904294 -7.026983,4.05701 -15.852084,1.69792 -19.910156,-5.32617 l -0.002,-0.004 c -0.0021,-0.004 -5.804866,-10.0922 -11.853516,-20.585933 C 24.485396,82.939891 18.2775,72.183193 17.199219,70.398437 A 2.3856787,2.3856787 0 0 0 17.185547,70.375 c -1.183488,-1.906922 -1.93266,-4.114444 -2.125,-6.5 -5.3e-5,-6.53e-4 5.2e-5,-0.0013 0,-0.002 -7.04e-4,-0.0087 7.52e-4,0.0032 0,-0.0059 a 2.3856787,2.3856787 0 0 0 -0.0078,-0.0059 c -0.0028,-0.04859 -0.0023,-0.04896 -0.0078,-0.125 v -0.0059 c -0.02637,-0.371616 -0.04297,-0.724745 -0.04297,-1.058594 0,-0.07283 0.0085,-0.21938 0.01563,-0.445313 a 2.3856787,2.3856787 0 0 0 0,-0.0039 c 0.0077,-0.256254 0.01844,-0.491329 0.03516,-0.707031 v -0.0059 c 0.0039,-0.0487 0.0068,-0.08385 0.0078,-0.0957 l -0.002,0.002 c 0.01164,-0.137595 0.03252,-0.307384 0.05664,-0.507813 5.6e-4,-0.0047 0.0014,-0.007 0.002,-0.01172 0.0071,-0.04968 0.01788,-0.113845 0.02148,-0.140625 a 2.3856787,2.3856787 0 0 0 0,-0.0098 c 0.0535,-0.409705 0.09891,-0.753491 0.154297,-1.025391 1.171235,-5.752908 5.709134,-10.246731 11.486328,-11.357422 a 2.3856787,2.3856787 0 0 0 0.0059,-0.002 c -0.0928,0.01809 -0.06209,0.01526 0.08984,-0.01367 a 2.3856787,2.3856787 0 0 0 0.01172,-0.002 c -0.32789,0.06406 -0.317305,0.06149 0.03711,-0.002 a 2.3856787,2.3856787 0 0 0 0.0059,-0.002 c 0.201313,-0.03664 0.412019,-0.06945 0.632813,-0.09961 a 2.3856787,2.3856787 0 0 0 0.01563,-0.002 c 0.205306,-0.02929 0.391816,-0.05297 0.560547,-0.07031 0.07495,-0.0071 0.188474,-0.01578 0.326172,-0.02539 l 0.03711,-0.002 c 0.15485,-0.0094 0.273687,-0.01917 0.318359,-0.02148 a 2.3856787,2.3856787 0 0 0 0.0078,0 c 0.290819,-0.01588 0.411318,-0.0324 0.365234,-0.03125 0.272255,-0.0074 0.565762,-0.003 0.88086,0.0078 a 2.3856787,2.3856787 0 0 0 0.08008,0.002 h 24.859375 a 2.3857422,2.3857422 0 0 0 0,-4.771484 c -8.115058,0 -14.574219,-6.459159 -14.574219,-14.574219 0,-8.115057 6.45916,-14.572265 14.574219,-14.572265 z"
         id="path829" />
    </g>
    <path
       id="rect2498"
       style="fill:#1f2323;fill-opacity:1;stroke:#181a1b;stroke-width:5.2916666;stroke-linecap:square;stroke-linejoin:round;stroke-miterlimit:4;stroke-dasharray:none;stroke-opacity:1"
       d="m 57.612332,23.220947 c -7.476097,0 -13.494759,6.018663 -13.494759,13.494758 0,7.476098 6.018662,13.494761 13.494759,13.494761 H 37.831443 c -0.271926,-0.0093 -0.544171,-0.01408 -0.81708,-0.0067 -0.114246,0.0032 -0.228267,0.02015 -0.342631,0.02639 -0.09673,0.005 -0.193277,0.0144 -0.289935,0.01977 -0.116838,0.0083 -0.233259,0.01506 -0.349212,0.02639 -0.173676,0.01786 -0.347151,0.04119 -0.520558,0.06593 -0.19699,0.0269 -0.392326,0.05699 -0.586449,0.09232 -0.01956,0.0035 -0.03976,0.0029 -0.05931,0.0067 -0.02632,0.005 -0.0528,0.008 -0.07905,0.0131 -5.349187,1.028405 -9.55682,5.194606 -10.64163,10.523012 -0.0635,0.311722 -0.103268,0.629529 -0.144967,0.948849 -0.0062,0.04615 -0.01211,0.09245 -0.01977,0.138353 -0.01921,0.159616 -0.03909,0.31973 -0.05273,0.481018 -0.0024,0.02844 -0.0044,0.05712 -0.0067,0.08569 -0.01704,0.218086 -0.02631,0.437711 -0.03293,0.658791 -0.0044,0.138549 -0.01325,0.276304 -0.01325,0.415131 0,0.330186 0.01646,0.657709 0.03953,0.981811 0.0075,0.101493 0.01,0.20158 0.01976,0.303091 -0.0055,-0.05846 -0.0018,-0.119219 -0.0067,-0.177926 0.177085,2.199914 0.870682,4.25095 1.970202,6.022577 1.541877,2.552094 20.024703,34.679177 20.024703,34.679177 3.738047,6.47448 11.962194,8.67337 18.436675,4.93534 6.474483,-3.73807 8.679965,-11.955621 4.941917,-18.430101 L 60.748847,77.199973 h 17.105652 c 7.476093,0 13.494761,-6.018661 13.494761,-13.494758 0,-7.476098 -6.018668,-13.494761 -13.494761,-13.494761 h 20.242136 c 7.476105,0 13.494765,-6.018662 13.494765,-13.494757 0,-7.476098 -6.01866,-13.49476 -13.494765,-13.49476 z" />
  </g>
</svg>
