<?xml version="1.0" encoding="UTF-8" standalone="no"?>
<svg
   width="128"
   height="128"
   viewBox="0 0 33.866666 33.866668"
   version="1.1"
   id="svg8"
   sodipodi:docname="pan.svg"
   inkscape:version="1.1.1 (26b7af14f2, 2022-01-19)"
   xmlns:inkscape="http://www.inkscape.org/namespaces/inkscape"
   xmlns:sodipodi="http://sodipodi.sourceforge.net/DTD/sodipodi-0.dtd"
   xmlns="http://www.w3.org/2000/svg"
   xmlns:svg="http://www.w3.org/2000/svg"
   xmlns:rdf="http://www.w3.org/1999/02/22-rdf-syntax-ns#"
   xmlns:cc="http://creativecommons.org/ns#"
   xmlns:dc="http://purl.org/dc/elements/1.1/">
  <defs
     id="defs2" />
  <sodipodi:namedview
     id="base"
     pagecolor="#282a2d"
     bordercolor="#666666"
     borderopacity="1.0"
     inkscape:pageopacity="0"
     inkscape:pageshadow="2"
     inkscape:zoom="9.3067859"
     inkscape:cx="75.321384"
     inkscape:cy="101.16274"
     inkscape:document-units="px"
     inkscape:current-layer="layer1"
     inkscape:document-rotation="0"
     showgrid="true"
     units="px"
     inkscape:window-width="1440"
     inkscape:window-height="900"
     inkscape:window-x="3888"
     inkscape:window-y="328"
     inkscape:window-maximized="0"
     inkscape:snap-bbox="true"
     inkscape:bbox-paths="true"
     inkscape:bbox-nodes="true"
     inkscape:snap-bbox-edge-midpoints="true"
     inkscape:snap-bbox-midpoints="true"
     inkscape:pagecheckerboard="1">
    <inkscape:grid
       type="xygrid"
       id="grid833"
       empspacing="4" />
  </sodipodi:namedview>
  <metadata
     id="metadata5">
    <rdf:RDF>
      <cc:Work
         rdf:about="">
        <dc:format>image/svg+xml</dc:format>
        <dc:type
           rdf:resource="http://purl.org/dc/dcmitype/StillImage" />
      </cc:Work>
    </rdf:RDF>
  </metadata>
  <g
     inkscape:label="Layer 1"
     inkscape:groupmode="layer"
     id="layer1">
    <path
       id="path919"
       style="fill:#e6e6e6;stroke:none;stroke-width:0.999999px;stroke-linecap:butt;stroke-linejoin:miter;stroke-opacity:1"
       d="M 64,0 36,28 h 16 c 2.216,0 4,1.784 4,4 v 20 c 0,2.216 -1.784,4 -4,4 H 32 c -2.216,0 -4,-1.784 -4,-4 V 36 L 0,64 28,92 V 76 c 0,-2.216 1.784,-4 4,-4 h 20 c 2.216,0 4,1.784 4,4 v 20 c 0,2.216 -1.784,4 -4,4 H 36 L 64,128 87.999999,104 92,100 87.999999,99.999998 76,100 c -2.216,0 -4,-1.784 -4,-4 V 76 c 0,-2.216 1.784,-4 4,-4 h 20 c 2.216,0 4,1.784 4,4 V 92 L 128,64 100,36 v 16 c 0,2.216 -1.784,4 -4,4 H 76 c -2.216,0 -4,-1.784 -4,-4 V 32 c 0,-2.216 1.784,-4 4,-4 h 16 z"
       transform="scale(0.26458334)"
       sodipodi:nodetypes="ccsssssscccsssssscccccsssssscccsssssscc" />
    <circle
       style="fill:none;fill-opacity:1;stroke:#000000;stroke-width:0;stroke-miterlimit:4;stroke-dasharray:none"
       id="path1104"
       cx="16.933334"
       cy="16.933334"
       r="16.933334" />
  </g>
</svg>
