<?xml version="1.0" encoding="UTF-8" standalone="no"?>
<svg
   width="128"
   height="128"
   viewBox="0 0 33.866666 33.866668"
   version="1.1"
   id="svg8"
   sodipodi:docname="re-center-coord.svg"
   inkscape:version="1.1 (c4e8f9e, 2021-05-24)"
   xmlns:inkscape="http://www.inkscape.org/namespaces/inkscape"
   xmlns:sodipodi="http://sodipodi.sourceforge.net/DTD/sodipodi-0.dtd"
   xmlns="http://www.w3.org/2000/svg"
   xmlns:svg="http://www.w3.org/2000/svg"
   xmlns:rdf="http://www.w3.org/1999/02/22-rdf-syntax-ns#"
   xmlns:cc="http://creativecommons.org/ns#"
   xmlns:dc="http://purl.org/dc/elements/1.1/">
  <sodipodi:namedview
     id="namedview7"
     pagecolor="#505050"
     bordercolor="#ffffff"
     borderopacity="1"
     inkscape:pageshadow="0"
     inkscape:pageopacity="0"
     inkscape:pagecheckerboard="1"
     showgrid="false"
     inkscape:zoom="4.4918893"
     inkscape:cx="45.637812"
     inkscape:cy="64.894743"
     inkscape:window-width="1440"
     inkscape:window-height="791"
     inkscape:window-x="0"
     inkscape:window-y="25"
     inkscape:window-maximized="0"
     inkscape:current-layer="layer1"
     inkscape:snap-global="true"
     inkscape:snap-bbox="true"
     inkscape:bbox-paths="true"
     inkscape:bbox-nodes="true"
     inkscape:snap-bbox-edge-midpoints="true"
     inkscape:snap-bbox-midpoints="true"
     inkscape:snap-page="true" />
  <defs
     id="defs2" />
  <metadata
     id="metadata5">
    <rdf:RDF>
      <cc:Work
         rdf:about="">
        <dc:format>image/svg+xml</dc:format>
        <dc:type
           rdf:resource="http://purl.org/dc/dcmitype/StillImage" />
      </cc:Work>
    </rdf:RDF>
  </metadata>
  <g
     id="layer1">
    <path
       style="fill:#ffffff;fill-opacity:1;stroke:#ffffff;stroke-width:1.95135;stroke-miterlimit:4;stroke-dasharray:none;stroke-opacity:1"
       d="m 4.7863944,16.089126 v 10.105345 c 0,1.417845 -0.3011719,3.139828 0.694335,4.302921 1.0894539,1.272849 2.6889345,1.07573 4.195348,1.07573 h 2.8360146 c 0.393685,0 0.866354,0.07673 1.170101,-0.231249 0.345277,-0.350134 0.19901,-1.075241 0.19901,-1.529036 V 25.7381 24.531979 c 0,-0.120417 -0.04147,-0.342962 0.05225,-0.436714 0.08912,-0.08912 0.289925,-0.05226 0.404116,-0.05226 h 1.043133 4.270322 c 0.616524,0 1.687462,0.211268 1.842824,-0.61936 0.187764,-1.003786 -1.067777,-0.880142 -1.679834,-0.880142 h -5.020075 -1.303915 c -0.256121,0 -0.520849,-0.02458 -0.749621,0.113505 -0.564139,0.340485 -0.358708,1.349651 -0.358708,1.907563 v 5.509043 H 8.6329448 c -0.661411,0 -1.336611,0.06493 -1.8575904,-0.426804 C 6.285017,29.183991 6.2858971,28.578713 6.2858971,27.954757 v -1.923275 -7.986483 -2.347047 c 0,-0.302901 -0.085407,-0.758162 0.019656,-1.043133 0.1186562,-0.321839 0.5877724,-0.640027 0.8278884,-0.880143 0.6796334,-0.679633 1.3506609,-1.369144 2.0536669,-2.02397 1.8340866,-1.70852 3.5734766,-3.5379791 5.3460516,-5.3105552 0.526847,-0.5268469 1.069961,-1.0373592 1.597297,-1.5646984 0.217297,-0.2172973 0.474234,-0.591651 0.749751,-0.7290249 0.120188,-0.059916 0.216385,0.066366 0.293381,0.1423122 0.196924,0.1942046 0.391207,0.3911515 0.586762,0.5867127 0.853347,0.8533479 1.721755,1.6891574 2.575233,2.5426352 2.939286,2.9392874 5.927338,5.8295454 8.866626,8.7688314 0.679503,0.679503 1.37462,1.342023 2.053667,2.02107 0.329565,0.329564 0.660009,0.695834 1.173523,0.518013 0.509766,-0.176485 0.623532,-0.814459 0.287253,-1.202569 C 31.811769,16.479095 30.73229,15.565474 29.756374,14.589624 26.729791,11.563235 23.654865,8.5859068 20.628966,5.560008 19.799578,4.7306336 18.998485,3.8490303 18.118929,3.0732618 17.800415,2.7923333 17.518737,2.3331158 17.075797,2.250266 16.539691,2.1499871 16.168369,2.6860771 15.837077,3.0173728 14.951685,3.9027581 14.04993,4.7719056 13.16405,5.6578021 10.170587,8.6512656 7.1282591,11.5958 4.1344366,14.589624 c -0.7658481,0.765854 -1.548083,1.515475 -2.3144503,2.281851 -0.2994632,0.299478 -0.7767123,0.627086 -0.83760964,1.075731 -0.0824257,0.607265 0.61456594,1.032179 1.13099094,0.737788 0.3578436,-0.203998 0.6548595,-0.611667 0.9453385,-0.900745 0.5713206,-0.568573 1.1570851,-1.12453 1.7276883,-1.695123 m 23.4052816,3.472262 c -0.260392,0.05561 -0.485904,0.244712 -0.561043,0.50468 -0.164554,0.56942 -0.02572,1.363178 -0.02572,1.955873 v 5.150466 c 0,0.740918 0.153796,1.653463 -0.322719,2.281853 -0.473876,0.624967 -1.151293,0.619359 -1.86134,0.619359 h -3.553169 c -0.440039,0 -1.149727,-0.135443 -1.53083,0.116017 -0.598008,0.39463 -0.331227,1.303817 0.357306,1.377814 1.145457,0.123155 2.367878,0.0057 3.520572,0.0057 0.845165,0 1.782582,0.112886 2.60783,-0.09437 1.012654,-0.254329 1.8823,-1.041666 2.170107,-2.057089 0.216059,-0.76227 0.111745,-1.627287 0.111745,-2.412244 V 22.641329 20.94624 c 0,-0.269845 0.04371,-0.583731 -0.01724,-0.847546 -0.108239,-0.36546 -0.559196,-0.598625 -0.895497,-0.537318 z"
       id="path1359"
       sodipodi:nodetypes="csssscscscscscscscscsssccssscsscccsssccscssccccscccccsscssccsssscscc" />
  </g>
</svg>
