<?xml version="1.0" encoding="UTF-8" standalone="no"?>
<!-- Created with Vectornator for iOS (http://vectornator.io/) -->

<svg
   height="100%"
   style="fill-rule:nonzero;clip-rule:evenodd;stroke-linecap:round;stroke-linejoin:round;"
   xml:space="preserve"
   width="100%"
   version="1.1"
   viewBox="0 0 113.647 115.272"
   id="svg890"
   sodipodi:docname="readme-icon.svg"
   inkscape:version="1.1.2 (b8e25be833, 2022-02-05)"
   xmlns:inkscape="http://www.inkscape.org/namespaces/inkscape"
   xmlns:sodipodi="http://sodipodi.sourceforge.net/DTD/sodipodi-0.dtd"
   xmlns="http://www.w3.org/2000/svg"
   xmlns:svg="http://www.w3.org/2000/svg"
   xmlns:vectornator="http://vectornator.io"><sodipodi:namedview
   id="namedview892"
   pagecolor="#505050"
   bordercolor="#ffffff"
   borderopacity="1"
   inkscape:pageshadow="0"
   inkscape:pageopacity="0"
   inkscape:pagecheckerboard="1"
   showgrid="false"
   inkscape:zoom="6.2022849"
   inkscape:cx="51.75512"
   inkscape:cy="55.705277"
   inkscape:window-width="1720"
   inkscape:window-height="1408"
   inkscape:window-x="1720"
   inkscape:window-y="0"
   inkscape:window-maximized="0"
   inkscape:current-layer="svg890"
   inkscape:snap-page="true" />
<metadata
   id="metadata875">
<vectornator:setting
   key="DimensionsVisible"
   value="1" />
<vectornator:setting
   key="PencilOnly"
   value="0" />
<vectornator:setting
   key="SnapToPoints"
   value="1" />
<vectornator:setting
   key="GuidesVisible"
   value="1" />
<vectornator:setting
   key="CMYKEnabledKey"
   value="0" />
<vectornator:setting
   key="RulersVisible"
   value="1" />
<vectornator:setting
   key="SnapToEdges"
   value="1" />
<vectornator:setting
   key="OutlineMode"
   value="0" />
<vectornator:setting
   key="DisplayWhiteBackground"
   value="0" />
<vectornator:setting
   key="doHistoryDisabled"
   value="0" />
<vectornator:setting
   key="SnapToGuides"
   value="1" />
<vectornator:setting
   key="TimeLapseWatermarkDisabled"
   value="0" />
<vectornator:setting
   key="Units"
   value="Points" />
<vectornator:setting
   key="SnapToGrid"
   value="0" />
<vectornator:setting
   key="IsolateActiveLayer"
   value="0" />
<vectornator:setting
   key="DynamicGuides"
   value="1" />
</metadata>
<defs
   id="defs877">





<filter
   inkscape:collect="always"
   style="color-interpolation-filters:sRGB"
   id="filter14979"
   x="-0.075275519"
   y="-0.074229579"
   width="1.150551"
   height="1.1484592"><feGaussianBlur
     inkscape:collect="always"
     stdDeviation="2.79041"
     id="feGaussianBlur14981" /></filter></defs>

<g
   id="g14977"
   style="clip-rule:evenodd;opacity:0.49879366;fill-rule:nonzero;stroke-linecap:round;stroke-linejoin:round;filter:url(#filter14979)"
   transform="matrix(1.0854775,0,0,1.0854775,-4.8621911,-4.9303624)"><g
     id="g14959"
     transform="matrix(0.77256967,0,0,0.77256967,12.924439,13.108966)"><path
       id="path14957"
       style="color:#000000;clip-rule:nonzero;fill:#ffd61a;stroke-width:1.5;stroke-linecap:butt;stroke-linejoin:miter;-inkscape-stroke:none"
       d="m 44.34375,-0.75 c -5.784936,0 -10.997198,2.422638 -14.666016,6.3125 a 0.750075,0.750075 0 0 0 0.15625,1.15625 l 0.02734,0.015625 a 0.750075,0.750075 0 0 0 0.609375,0.076172 C 39.447858,4.054325 51.138062,3.9405977 66.132812,6.3027344 A 0.750075,0.750075 0 0 0 66.25,6.3125 H 85.03125 A 0.750075,0.750075 0 0 0 85.185547,6.296875 C 90.794749,5.1159576 95.44562,3.0690054 99.857422,1.4648438 A 0.750075,0.750075 0 0 0 99.806641,0.0390625 C 98.044252,-0.46325611 96.183806,-0.75 94.25,-0.75 c -1.559058,4e-6 -48.34712,-3e-6 -49.90625,0 z" /></g><g
     id="g14963"
     transform="matrix(0.77256967,0,0,0.77256967,12.924439,13.108966)"><path
       id="path14961"
       style="color:#000000;clip-rule:nonzero;fill:#ff732b;stroke-width:1.5;stroke-linecap:butt;stroke-linejoin:miter;-inkscape-stroke:none"
       d="M 99.837891,0.03125 A 0.750075,0.750075 0 0 0 99.314453,0.125 l 0.05664,-0.08007813 C 94.885939,1.6744417 90.317089,3.6828032 84.876953,4.828125 A 0.750075,0.750075 0 0 0 85.03125,6.3125 H 94.25 c 7.2798,0 13.09375,5.814346 13.09375,13.09375 C 107.34375,26.685653 101.5298,32.5 94.25,32.5 h -2.59375 a 0.750075,0.750075 0 0 0 -0.158203,1.482422 c 4.9955,1.081508 9.820403,1.602633 14.623043,1.423828 a 0.750075,0.750075 0 0 0 0.004,0 l 0.16992,-0.0078 a 0.750075,0.750075 0 0 0 0.4336,-0.160157 c 4.67994,-3.680194 7.67773,-9.398492 7.67773,-15.832031 0,-9.168463 -6.20872,-16.9170586 -14.568359,-19.375 z M 46.023438,3.1347656 C 39.993747,3.2138076 34.686231,3.9471519 30.029297,5.3769531 A 0.750075,0.750075 0 0 0 29.705078,5.578125 C 26.30232,9.1821614 24.1875,14.038215 24.1875,19.40625 a 0.750075,0.750075 0 0 0 0.002,0.05664 c 0.291895,3.880654 1.35639,7.82365 3.15625,10.603515 a 0.750075,0.750075 0 0 0 1.224609,0.04883 c 1.236763,-1.605488 2.410838,-3.280182 3.671876,-4.607422 a 0.750075,0.750075 0 0 0 0.144531,-0.818359 C 31.67988,23.075793 31.273438,21.262133 31.273438,19.378906 31.273438,12.098092 37.06249,6.3125 44.34375,6.3125 H 66.25 A 0.750075,0.750075 0 0 0 66.367188,4.8222656 C 58.807327,3.6313554 52.05312,3.055725 46.023438,3.1347656 Z M 18.884766,32.5 c -0.0084,2.41e-4 -0.01293,0.0016 -0.02148,0.002 -0.1848,0.0066 -0.40856,0.02795 -0.464843,0.0332 a 0.750075,0.750075 0 0 0 -0.002,0 c 0.0578,-0.0056 -0.04924,0.0026 -0.132812,0.0078 -0.08357,0.0052 -0.191932,0.01274 -0.302734,0.01953 -0.221604,0.01359 -0.406146,0.02269 -0.533204,0.03516 a 0.750075,0.750075 0 0 0 -0.0039,0 c -0.253535,0.02607 -0.511439,0.05478 -0.810547,0.09766 -0.31636,0.04346 -0.567713,0.107534 -0.789062,0.150391 -8.18e-4,3.4e-4 -0.01315,-1.88e-4 -0.01563,0 -0.02898,0.0022 -0.05594,0.0041 -0.08984,0.0078 -0.06408,0.007 -0.139347,0.01608 -0.234375,0.03516 -7.9175348,1.52101 -14.2214248,7.742248 -15.84375,15.710937 -0.0852457,0.418569 -0.11961408,0.73831 -0.19726562,1.333985 2.4939e-4,-0.0019 -0.0299067,0.211682 -0.0585938,0.425781 -0.0288161,0.215063 -0.0577004,0.428961 -0.0703125,0.578125 l 0.001953,-0.002 c -0.0158673,0.181681 -0.0118147,0.253372 -0.0175781,0.466797 -0.005763,0.213424 -0.0124119,0.463216 -0.0175781,0.638672 0.003072,-0.109972 -0.005795,0.105651 -0.0136719,0.236328 -0.007804,0.130712 -0.017542,0.25565 -0.017542,0.378924 0,0.474867 0.0275402,0.941192 0.0644531,1.458984 -7.716e-5,0.0035 -0.0137605,-0.06907 0,0.101563 a 0.750075,0.750075 0 0 0 0,0.01563 c -0.004445,-0.07408 -0.006857,-0.06231 0,0.03711 -0.003381,-0.04813 -0.005169,-0.05508 0,0.02734 a 0.750075,0.750075 0 0 0 0.001953,0.02148 c 0.006101,0.06711 0.0167935,0.06176 0.0292969,0.105469 -0.004384,-0.0052 -0.0174977,-0.01871 0.001953,0.179688 0.0354853,0.36241 0.1280952,0.479053 0.10351563,0.351562 0.33599453,2.975019 1.2551994,5.82702 2.81835939,8.345703 l -0.013672,-0.01953 c 1.949314,3.378035 4.8932095,8.414044 6.2402344,10.693359 a 0.750075,0.750075 0 0 0 1.3359374,-0.08984 c 0.9201242,-2.18883 1.6622742,-4.515043 1.8691412,-7.201172 v -0.002 c 0.0041,-0.05084 0.06635,-0.414336 0.09961,-0.650391 a 0.750075,0.750075 0 0 0 -0.09375,-0.480469 C 11.276029,64.806161 10.453202,63.377157 9.7246094,62.113281 8.9960171,60.849406 8.4166992,59.837668 8.2988281,59.642578 a 0.750075,0.750075 0 0 0 -0.00586,-0.0059 C 7.2327028,57.928087 6.5728302,55.999845 6.375,53.976562 c 9.33e-5,-0.01319 0.00104,-0.0029 0,-0.0332 A 0.750075,0.750075 0 0 0 6.37109,53.894532 C 6.3704276,53.88773 6.3125,52.851451 6.3125,52.65625 c 0,0.09893 0.0039,-0.22842 0.00977,-0.470703 0.00587,-0.242283 0.017223,-0.534774 0.019531,-0.564453 0.004,-0.05026 0.00444,-0.08557 0.00391,-0.119141 0.00751,-0.0603 0.041616,-0.334356 0.052734,-0.425781 l 0.00195,-0.01953 c 0.019513,-0.13724 0.047562,-0.352671 0.076172,-0.570313 0.029585,-0.225063 0.065766,-0.469862 0.070312,-0.492187 1.0513478,-5.164088 5.14983,-9.186958 10.332031,-10.189453 0.02094,-0.0015 0.04945,0.0023 0.06641,0 a 0.750075,0.750075 0 0 0 0.03125,-0.0039 c 0.259231,-0.04689 0.457079,-0.09815 0.625,-0.121093 a 0.750075,0.750075 0 0 0 0.0039,0 c 0.218928,-0.03126 0.343649,-0.04292 0.496093,-0.05859 -0.06517,0.0062 -6.26e-4,-1.13e-4 0.02734,-0.002 0.02797,-0.0018 0.0687,-0.003 0.115235,-0.0059 0.09308,-0.0058 0.214037,-0.01396 0.335937,-0.02148 0.1219,-0.0075 0.243198,-0.01573 0.335938,-0.02148 0.04637,-0.0029 0.08665,-0.0041 0.115234,-0.0059 0.0087,-5.52e-4 0.02156,-0.0022 0.02148,-0.002 h 0.002 c 0.226738,-0.0062 0.466832,-0.01066 0.796874,0 a 0.750075,0.750075 0 0 0 0.02344,0 h 1.9375 a 0.750075,0.750075 0 0 0 0.650391,-0.376953 c 1.081476,-1.888982 2.082714,-3.776156 3.253906,-5.517578 A 0.750075,0.750075 0 0 0 25.09375,32.5 h -5.097656 c -0.382606,-0.01387 -0.737183,-0.01012 -1.109375,0 a 0.750075,0.750075 0 0 0 -0.002,0 z M -0.68554688,54.216797 -0.6875,54.166016 c -1.2617e-4,-0.0093 -5.1019e-4,3.62e-4 0,0.0332 a 0.750075,0.750075 0 0 0 0.001953,0.01758 z M 15.966797,32.849609 c 0.09453,0.01042 0.236712,0.05887 0.195312,0.04297 -0.03182,-0.01222 -0.122232,-0.0265 -0.195312,-0.03711 1.3e-5,-1.19e-4 -3e-6,-0.0058 0,-0.0059 z m -0.210938,0.0039 a 0.750075,0.750075 0 0 0 -0.08398,0.115234 c -0.0063,-0.01899 -0.02929,-0.08789 -0.0293,-0.08789 -2.92e-4,9.7e-5 0.07708,-0.02091 0.08984,-0.02344 0.01276,-0.0025 0.01893,-0.0032 0.02344,-0.0039 z m -0.353515,0.160156 c 0,0 0.07651,0.09353 0.125,0.152344 a 0.750075,0.750075 0 0 0 -0.320313,0.443359 c -0.01363,-0.139666 -0.02734,-0.285156 -0.02734,-0.285156 l 0.0957,-0.175781 z m 0.478515,0.560547 0.002,0.0098 c -9.4e-5,1.78e-4 -0.0039,0.0078 -0.0039,0.0078 -10e-7,0 0.0019,-0.01677 0.002,-0.01758 z m 0.757813,6.226562 c 0.07334,0.01423 0.153008,0.0064 0.226562,0.002 l -0.01758,0.0039 c -0.07548,0.0099 -0.308258,-0.02508 -0.208984,-0.0059 z" /></g><g
     id="g14967"
     transform="matrix(0.77256967,0,0,0.77256967,12.924439,13.108966)"><path
       id="path14965"
       style="color:#000000;clip-rule:nonzero;fill:#ff1a3c;stroke-width:1.5;stroke-linecap:butt;stroke-linejoin:miter;-inkscape-stroke:none"
       d="m 31.826172,24.232422 a 0.750075,0.750075 0 0 0 -0.673828,0.220703 c -1.383632,1.451763 -2.559484,3.177232 -3.769532,4.748047 a 0.750075,0.750075 0 0 0 -0.04102,0.857422 c 0.54601,0.862957 1.247826,1.643388 1.914062,2.443359 h -4.154297 a 0.750075,0.750075 0 0 0 -0.623046,0.332031 c -1.229806,1.828575 -2.243473,3.747008 -3.308594,5.607422 a 0.750075,0.750075 0 0 0 0.65039,1.123047 h 22.53125 c 1.112902,0 2.042849,-0.44486 2.642579,-1.121094 0.599729,-0.676233 0.882812,-1.548557 0.882812,-2.410156 0,-0.861599 -0.283083,-1.733922 -0.882812,-2.410156 -0.59973,-0.676234 -1.529676,-1.121094 -2.642579,-1.121094 -5.396281,0 -9.95107,-3.213071 -11.96875,-7.832031 a 0.750075,0.750075 0 0 0 -0.55664,-0.4375 z m 37.46289,8.269531 c -1.1129,0 -2.042848,0.44486 -2.642578,1.121094 -0.599729,0.676234 -0.882812,1.548557 -0.882812,2.410156 0,0.861599 0.283083,1.733923 0.882812,2.410156 0.59973,0.676234 1.529678,1.121094 2.642578,1.121094 2.527655,0 4.870345,0.714131 6.871094,1.939453 a 0.750075,0.750075 0 0 0 0.251953,0.09766 c 3.23326,0.618705 6.406073,1.202367 9.464844,2.238282 a 0.750075,0.750075 0 0 0 1.099609,-0.855469 c -0.003,-0.0055 -0.0065,-0.01356 -0.0098,-0.01953 0.0066,0.01119 -0.01383,-0.02673 -0.03516,-0.06445 -0.0071,-0.01257 -0.0011,-0.0037 -0.01172,-0.02148 a 0.750075,0.750075 0 0 0 -0.05078,-0.01367 0.750075,0.750075 0 0 0 -0.0098,-0.08203 c -0.66916,-1.186057 -1.57916,-2.195091 -2.466797,-3.21875 h 9.865234 c 4.679568,0 9.062961,-1.668838 12.474611,-4.322265 a 0.750075,0.750075 0 0 0 -0.49023,-1.341797 c -4.6575,0.173399 -9.526646,-0.321481 -14.419927,-1.38086 a 0.750075,0.750075 0 0 0 -0.158204,-0.01758 z m 12.851563,14.902344 a 0.750075,0.750075 0 0 0 -0.462891,0.945312 c 7.05e-4,0.002 0.0013,0.0019 0.002,0.0039 0.01225,0.03471 0.02152,0.06155 0.0293,0.08398 3.8e-4,0.0011 0.0016,0.0028 0.002,0.0039 a 0.750075,0.750075 0 0 0 0.365234,0.3125 0.750075,0.750075 0 0 0 -0.173828,0.308594 c 0.03288,0.115875 0.062,0.235132 0.0918,0.353516 0.0204,0.08107 0.04328,0.159794 0.0625,0.242187 3.02e-4,0.0013 -3.03e-4,0.0026 0,0.0039 a 0.750075,0.750075 0 0 0 0.294921,0.306641 0.750075,0.750075 0 0 0 -0.173828,0.251953 c 0.04928,0.263366 0.08772,0.524457 0.121094,0.787109 0.006,0.04692 0.01614,0.09369 0.02148,0.140626 0,0 0,0.002 0,0.002 a 0.750075,0.750075 0 0 0 0.140626,0.1875 0.750075,0.750075 0 0 0 -0.109376,0.128906 c 0,0 0,0.002 0,0.002 0.03649,0.400984 0.06249,0.79582 0.0625,1.189453 0,0.420721 -0.0264,0.841804 -0.06641,1.263672 a 0.750075,0.750075 0 0 0 0.121094,0.142578 0.750075,0.750075 0 0 0 -0.164062,0.212891 c -0.03588,0.292877 -0.07807,0.579643 -0.13086,0.857422 a 0.750075,0.750075 0 0 0 0.136719,0.199218 0.750075,0.750075 0 0 0 -0.234375,0.248047 c -0.05708,0.251951 -0.119357,0.499763 -0.189453,0.742188 a 0.750075,0.750075 0 0 0 0.121093,0.216797 0.750075,0.750075 0 0 0 -0.255859,0.224609 c -0.08048,0.245425 -0.170416,0.490937 -0.267578,0.736328 a 0.750075,0.750075 0 0 0 0.08984,0.203125 0.750075,0.750075 0 0 0 -0.240235,0.173828 c -0.134464,0.310873 -0.284402,0.617798 -0.445312,0.921875 a 0.750075,0.750075 0 0 0 0.02539,0.08398 0.750075,0.750075 0 0 0 -0.0918,0.05469 c -0.191634,0.352 -0.400232,0.694805 -0.623047,1.027344 a 0.750075,0.750075 0 0 0 0.0293,0.144531 0.750075,0.750075 0 0 0 -0.199219,0.08984 c -0.160949,0.229089 -0.32517,0.451142 -0.494141,0.662109 a 0.750075,0.750075 0 0 0 0.08008,0.677735 0.750075,0.750075 0 0 0 -0.791015,0.132812 c -0.096,0.101531 -0.158795,0.177874 -0.199219,0.21875 a 0.750075,0.750075 0 0 0 1.066406,1.054688 c 0.106221,-0.10739 0.175596,-0.192424 0.222656,-0.242188 a 0.750075,0.750075 0 0 0 0.05664,-0.828125 0.750075,0.750075 0 0 0 0.734375,-0.07617 h 0.002 c -0.01996,0.02493 0.01444,-0.007 0.0918,-0.105469 0.172404,-0.219537 0.318752,-0.434038 0.457031,-0.630859 a 0.750075,0.750075 0 0 0 0.01758,-0.228515 0.750075,0.750075 0 0 0 0.171874,-0.0332 c 0.247536,-0.369432 0.479062,-0.750899 0.69336,-1.144531 a 0.750075,0.750075 0 0 0 -0.0039,-0.130859 0.750075,0.750075 0 0 0 0.08008,-0.02344 c 0.175828,-0.332248 0.343066,-0.675512 0.496094,-1.029297 a 0.750075,0.750075 0 0 0 -0.04102,-0.332031 0.750075,0.750075 0 0 0 0.208984,-0.08984 c 0.10553,-0.266488 0.206707,-0.537494 0.298828,-0.818359 a 0.750075,0.750075 0 0 0 -0.08008,-0.367187 0.750075,0.750075 0 0 0 0.230469,-0.125 c 0.07941,-0.274629 0.148134,-0.550842 0.210937,-0.828126 a 0.750075,0.750075 0 0 0 -0.111328,-0.351562 0.750075,0.750075 0 0 0 0.21875,-0.146484 c 0.06061,-0.318961 0.107657,-0.638155 0.146485,-0.955078 A 0.750075,0.750075 0 0 0 83.677734,54.195312 0.750075,0.750075 0 0 0 83.841797,54.0625 c 0.0434,-0.457092 0.07227,-0.923873 0.07227,-1.404297 0,-0.456883 -0.03021,-0.897631 -0.06836,-1.324219 0,0 0,-0.002 0,-0.002 a 0.750075,0.750075 0 0 0 -0.140625,-0.115234 0.750075,0.750075 0 0 0 0.105469,-0.238281 c -0.04024,-0.353465 -0.09509,-0.697895 -0.158203,-1.035157 0,0 0,-0.002 0,-0.002 a 0.750075,0.750075 0 0 0 -0.273438,-0.183594 0.750075,0.750075 0 0 0 0.138672,-0.439453 c -3.21e-4,-0.0014 -0.0016,-0.0025 -0.002,-0.0039 -0.02475,-0.104342 -0.05483,-0.214874 -0.08203,-0.322265 -0.02894,-0.113152 -0.0558,-0.226756 -0.08789,-0.339844 -3.6e-4,-0.0012 3.61e-4,-0.0027 0,-0.0039 a 0.750075,0.750075 0 0 0 -0.322265,-0.175782 0.750075,0.750075 0 0 0 0.105468,-0.515625 c -5.65e-4,-0.0017 5.56e-4,-0.0023 0,-0.0039 -0.0092,-0.02661 -0.01613,-0.04598 -0.02344,-0.06641 -0.0032,-0.009 -0.007,-0.02147 -0.0098,-0.0293 -3.89e-4,-0.0011 -0.0016,-0.0028 -0.002,-0.0039 A 0.750075,0.750075 0 0 0 82.1405,47.40422 Z m 6.363281,2.419922 a 0.750075,0.750075 0 0 0 -0.667968,0.814453 c 9.9e-5,9.67e-4 -9.7e-5,0.0029 0,0.0039 6.97e-4,0.0065 0.0013,0.0235 0.002,0.03125 0.004,0.04575 0.0075,0.09573 0.01367,0.164063 h 0.002 c 1.64e-4,0.0017 -1.69e-4,0.0021 0,0.0039 a 0.750075,0.750075 0 0 0 1.492187,-0.140625 c -9e-5,-9.96e-4 9e-5,-0.0029 0,-0.0039 -0.0045,-0.04661 -0.0078,-0.117819 -0.01758,-0.210938 -1.8e-4,-0.0017 1.85e-4,-0.0022 0,-0.0039 A 0.750075,0.750075 0 0 0 88.503906,49.824219 Z M 78.335938,62.712891 a 0.750075,0.750075 0 0 0 -0.734376,0.113281 c -0.0157,0.01284 -0.07939,0.05404 -0.18164,0.134766 a 0.750075,0.750075 0 0 0 -0.08203,0.740234 0.750075,0.750075 0 0 0 -0.824219,-0.08398 c -0.297323,0.196063 -0.597138,0.380221 -0.904297,0.548828 a 0.750075,0.750075 0 0 0 -0.02344,0.08398 0.750075,0.750075 0 0 0 -0.125,-0.0059 c -0.342731,0.182468 -0.684407,0.350873 -1.03125,0.498047 a 0.750075,0.750075 0 0 0 -0.01953,0.04883 0.750075,0.750075 0 0 0 -0.07813,-0.01172 c -0.349508,0.145008 -0.704324,0.276751 -1.064453,0.390625 a 0.750075,0.750075 0 0 0 -0.02539,0.04883 0.750075,0.750075 0 0 0 -0.07227,-0.01758 c -0.365634,0.112441 -0.744523,0.207112 -1.13086,0.289062 a 0.750075,0.750075 0 0 0 -0.05859,0.08984 0.750075,0.750075 0 0 0 -0.138672,-0.04883 c -0.378107,0.07411 -0.760266,0.132949 -1.146485,0.173828 a 0.750075,0.750075 0 0 0 -0.05273,0.06641 0.750075,0.750075 0 0 0 -0.107422,-0.05078 c -0.416373,0.03897 -0.830597,0.0625 -1.246094,0.0625 a 0.750075,0.750075 0 0 0 0,1.5 c 0.473494,0 0.935877,-0.02813 1.386719,-0.07031 a 0.750075,0.750075 0 0 0 0.105469,-0.07617 0.750075,0.750075 0 0 0 0.07227,0.06055 c 0.433102,-0.04584 0.859294,-0.111417 1.277343,-0.19336 a 0.750075,0.750075 0 0 0 0.121094,-0.109375 0.750075,0.750075 0 0 0 0.09766,0.06445 c 0.42312,-0.08974 0.846039,-0.19639 1.261719,-0.324218 a 0.750075,0.750075 0 0 0 0.05664,-0.0625 0.750075,0.750075 0 0 0 0.05273,0.02734 c 0.405541,-0.128225 0.800097,-0.2737 1.185547,-0.433593 a 0.750075,0.750075 0 0 0 0.05078,-0.06641 0.750075,0.750075 0 0 0 0.05859,0.02344 c 0.400325,-0.169868 0.781468,-0.358275 1.150391,-0.554688 a 0.750075,0.750075 0 0 0 0.07031,-0.115234 0.750075,0.750075 0 0 0 0.0957,0.0293 c 0.34881,-0.19147 0.683097,-0.397228 1.007813,-0.611328 a 0.750075,0.750075 0 0 0 0.220703,-0.832032 0.750075,0.750075 0 0 0 0.789062,0.09766 c 0.02265,-0.01788 0.09376,-0.06256 0.201172,-0.150391 A 0.750075,0.750075 0 0 0 78.335938,62.712891 Z M 10.875,65.183594 a 0.750075,0.750075 0 0 0 -0.554688,0.724609 l 0.0059,-0.08984 c 5.66e-4,-0.0047 -0.02938,0.132874 -0.06445,0.269532 -0.03507,0.136658 -0.07869,0.26083 -0.0957,0.480468 -0.1907494,2.480213 -0.8707155,4.630711 -1.7558598,6.736329 a 0.750075,0.750075 0 0 0 0.041016,0.666015 c 2.0827208,3.603143 2.5948208,4.47667 6.0312498,10.4375 0.01328,0.02304 3.100236,5.377846 6.193359,10.746094 1.546562,2.684124 3.093973,5.370789 4.257813,7.390619 0.58192,1.00992 1.066159,1.85174 1.408203,2.44531 0.342044,0.59358 0.515292,0.89343 0.548828,0.95118 4.393191,7.60695 12.965195,11.26388 21.130859,9.75195 a 0.750075,0.750075 0 0 0 0.253907,-0.1543 0.750075,0.750075 0 0 0 0.128906,0.0859 c 0.280369,-0.0576 0.557229,-0.12262 0.832031,-0.19141 a 0.750075,0.750075 0 0 0 0.521484,-0.51367 0.750075,0.750075 0 0 0 0.449219,0.24219 c 0.257298,-0.0784 0.523595,-0.1593 0.798828,-0.25586 a 0.750075,0.750075 0 0 0 0.435547,-0.68945 0.750075,0.750075 0 0 0 0.642578,0.26953 c 0,0 0.002,-0.002 0.002,-0.002 0.195354,-0.0815 0.417882,-0.16326 0.662109,-0.2754 a 0.750075,0.750075 0 0 0 -0.625,-1.36328 c -0.178021,0.0817 -0.384595,0.15775 -0.615235,0.25391 a 0.750075,0.750075 0 0 0 -0.24414,0.60742 0.750075,0.750075 0 0 0 -0.753906,-0.21484 c -0.235879,0.0828 -0.482635,0.15788 -0.740235,0.23633 a 0.750075,0.750075 0 0 0 -0.234375,0.44531 0.750075,0.750075 0 0 0 -0.662109,-0.19531 c 0,0 -0.002,0 -0.002,0 -0.240355,0.0603 -0.479539,0.11589 -0.71875,0.16601 0,0 -0.002,0 -0.002,0 -1.525047,-1.58124 -3.073176,-3.16328 -4.390625,-4.64844 A 0.750075,0.750075 0 0 0 43.16406,108.93546 C 39.068797,108.56581 35.223931,106.2915 33,102.43945 c 0.03422,0.0592 -1.006755,-1.7498 -2.582031,-4.484372 C 28.842692,95.220504 26.689453,91.485088 24.369141,87.458984 19.728516,79.406777 14.418595,70.197926 11.71875,65.533203 A 0.750075,0.750075 0 0 0 10.875,65.183594 Z m 40.039062,42.042966 c -0.33292,0.19222 -0.679745,0.36744 -1.037109,0.53125 -0.0019,8.8e-4 -0.004,9.6e-4 -0.0059,0.002 a 0.750075,0.750075 0 0 0 -0.138672,0.38476 0.750075,0.750075 0 0 0 -0.564453,-0.0898 c -0.0024,9.3e-4 -0.0035,9.5e-4 -0.0059,0.002 -0.03515,0.014 -0.06332,0.0242 -0.0957,0.0371 -0.04268,0.0171 -0.09401,0.0375 -0.125,0.0488 -0.0012,4.6e-4 -0.0027,9.5e-4 -0.0039,0.002 a 0.750075,0.750075 0 0 0 0.521484,1.40625 c 0.0024,-8.8e-4 0.0035,-9.5e-4 0.0059,-0.002 0.100646,-0.0372 0.181744,-0.0716 0.24414,-0.0957 0.0023,-9.1e-4 0.0056,-9.5e-4 0.0078,-0.002 a 0.750075,0.750075 0 0 0 0.376953,-0.48437 0.750075,0.750075 0 0 0 0.408203,0.15429 c 0.0013,-5.9e-4 0.0026,-9.5e-4 0.0039,-0.002 0.387885,-0.17792 0.775852,-0.37299 1.158203,-0.59375 a 0.750075,0.750075 0 0 0 -0.75,-1.29883 z" /></g><g
     id="g14971"
     transform="matrix(0.77256967,0,0,0.77256967,12.924439,13.108966)"><path
       id="path14969"
       style="color:#000000;clip-rule:nonzero;fill:#c238ff;stroke-width:1.5;stroke-linecap:butt;stroke-linejoin:miter;-inkscape-stroke:none"
       d="m 76.693359,40.128906 a 0.750075,0.750075 0 0 0 -0.529297,1.378906 c 3.790126,2.289477 6.242093,6.364518 6.242188,11.148438 0,2.093265 -0.495182,4.060081 -1.361328,5.814453 a 0.750075,0.750075 0 0 0 0.251953,0.951172 c 1.312728,0.892653 2.624051,1.936154 3.824219,3.109375 -0.0047,0.0075 -0.009,0.01593 -0.01367,0.02344 -0.0016,0.0027 -0.0023,0.0051 -0.0039,0.0078 a 0.750075,0.750075 0 0 0 1.27539,0.789062 c 0.0017,-0.0028 0.0041,-0.005 0.0059,-0.0078 0.05683,-0.09103 0.109971,-0.181126 0.164062,-0.271484 0.03895,-0.06428 0.07549,-0.122415 0.115234,-0.191407 0.0015,-0.0027 0.0024,-0.0051 0.0039,-0.0078 a 0.750075,0.750075 0 0 0 0,-0.08203 0.750075,0.750075 0 0 0 0.07813,-0.05273 c 1.70946,-2.963232 2.691406,-6.407332 2.691406,-10.082031 0,-3.520693 -0.843052,-7.01721 -2.589844,-9.892578 a 0.750075,0.750075 0 0 0 -0.398437,-0.320313 c -3.261033,-1.11524 -6.464923,-1.683834 -9.75586,-2.314453 z m -4.5625,25.339844 c -0.0081,0.0018 -0.04087,0.007 -0.09961,0.01953 a 0.750075,0.750075 0 0 0 -0.208984,0.328125 0.750075,0.750075 0 0 0 -0.498047,-0.199218 c -0.0836,0.01299 -0.159107,0.02482 -0.232422,0.03516 -0.01256,0.0018 -0.02668,0.0042 -0.03906,0.0059 0,0 -0.002,0 -0.002,0 a 0.750075,0.750075 0 0 0 -0.21289,0.283203 0.750075,0.750075 0 0 0 -0.441407,-0.21289 c 0,0 -0.002,0 -0.002,0 -0.08731,0.0074 -0.155057,0.01585 -0.208984,0.01953 a 0.750075,0.750075 0 0 0 0.101562,1.496094 c 0.0965,-0.0065 0.174275,-0.01451 0.234375,-0.01953 a 0.750075,0.750075 0 0 0 0.433594,-0.308593 0.750075,0.750075 0 0 0 0.296875,0.230468 c 0.108587,-0.01455 0.209321,-0.03236 0.302735,-0.04687 a 0.750075,0.750075 0 0 0 0.447265,-0.367187 0.750075,0.750075 0 0 0 0.339844,0.224609 c 0.01265,-0.0027 0.05044,-0.01096 0.0918,-0.01953 0.0096,-0.002 0.01034,-0.0015 0.02148,-0.0039 0,0 0.002,0 0.002,0 A 0.750075,0.750075 0 0 0 72.134766,65.46875 c -4.45e-4,9.7e-5 -0.0034,-1.06e-4 -0.0039,0 z m -23.912109,0.3125 c -2.67585,0 -4.394818,2.962596 -3.056641,5.28125 l 0.34375,0.59375 a 0.750075,0.750075 0 0 0 1.226563,0.105469 c 1.386438,-1.666192 2.767784,-3.360456 4.083984,-4.707031 A 0.750075,0.750075 0 0 0 50.28125,65.78125 Z m 22.082031,5.501953 c -0.09059,0.0049 -0.199766,0.0075 -0.322265,0.01172 -0.0052,1.79e-4 -0.0084,-1.89e-4 -0.01367,0 A 0.750075,0.750075 0 0 0 69.79883,71.47461 0.750075,0.750075 0 0 0 69.511721,71.306642 h -0.0098 L 53.03125,71.3125 a 0.750075,0.750075 0 0 0 0,1.5 h 16.25 c 0.106015,0 0.179932,-0.005 0.230469,-0.0059 0.0017,-3e-5 0.0062,1.9e-5 0.0078,0 a 0.750075,0.750075 0 0 0 0.306641,-0.183594 0.750075,0.750075 0 0 0 0.179687,0.171875 c 0.005,-9e-5 0.0087,9.9e-5 0.01367,0 0.02972,-5.98e-4 0.05347,-0.003 0.08203,-0.0039 0.09244,-0.0028 0.184448,-0.005 0.265626,-0.0078 v -0.002 c 0.0051,-2.61e-4 0.0085,2.79e-4 0.01367,0 a 0.750075,0.750075 0 0 0 -0.06641,-1.498047 c -0.005,1.75e-4 -0.0087,-1.78e-4 -0.01367,0 z m -13.763672,16.9375 a 0.750075,0.750075 0 0 0 -0.564453,0.07617 0.750075,0.750075 0 0 0 -0.279297,1.015625 c 0.211837,0.36692 0.402029,0.743982 0.578125,1.128906 0,0 0.002,0.002 0.002,0.002 a 0.750075,0.750075 0 0 0 0.06445,0.04492 0.750075,0.750075 0 0 0 -0.01953,0.05273 c 0.156931,0.351415 0.296852,0.709215 0.421875,1.072265 0,0 0,0.002 0,0.002 a 0.750075,0.750075 0 0 0 0.119141,0.101563 0.750075,0.750075 0 0 0 -0.04883,0.09375 c 0,0 0,0.002 0,0.002 0.10301,0.315756 0.191792,0.637565 0.271484,0.966797 0,0 0,0.002 0,0.002 a 0.750075,0.750075 0 0 0 0.19336,0.199219 0.750075,0.750075 0 0 0 -0.107422,0.164062 c 2.62e-4,0.0012 -2.62e-4,0.0027 0,0.0039 0.0567,0.268626 0.104373,0.542297 0.144531,0.820312 0,0 0,0.002 0,0.002 a 0.750075,0.750075 0 0 0 1.484375,-0.216797 c 0,0 0,-0.002 0,-0.002 -0.04405,-0.296701 -0.09474,-0.604043 -0.162109,-0.917969 0,0 0,-0.002 0,-0.002 a 0.750075,0.750075 0 0 0 -0.183594,-0.117187 0.750075,0.750075 0 0 0 0.08789,-0.28711 c -2.89e-4,-0.0012 2.91e-4,-0.0027 0,-0.0039 -0.08645,-0.352611 -0.182645,-0.712458 -0.302734,-1.078125 0,0 0,-0.002 0,-0.002 A 0.750075,0.750075 0 0 0 58.125,91.289062 0.750075,0.750075 0 0 0 58.158203,91.125 c 0,0 0,-0.002 0,-0.002 -0.13751,-0.396988 -0.292521,-0.797143 -0.470703,-1.195313 a 0.750075,0.750075 0 0 0 -0.06055,-0.02148 0.750075,0.750075 0 0 0 0.0098,-0.08789 C 57.444647,89.397674 57.232512,88.978755 56.992188,88.5625 A 0.750075,0.750075 0 0 0 56.537109,88.220703 Z M 57.332031,99.1875 a 0.750075,0.750075 0 0 0 -0.439453,0.480469 c -0.928459,3.075501 -2.968274,5.814191 -5.986328,7.556641 -2.444021,1.41112 -5.338146,1.94046 -7.949219,1.69922 a 0.750075,0.750075 0 0 0 -0.634765,1.23828 c 1.503187,1.7242 3.320062,3.54954 5.029296,5.32812 a 0.750075,0.750075 0 0 0 0.677735,0.2168 c 2.189665,-0.4093 4.36726,-1.19185 6.408203,-2.36914 a 0.750075,0.750075 0 0 0 0,-0.002 c 4.206292,-2.42883 7.20621,-6.14029 8.789062,-10.34961 0,0 0.002,0 0.002,0 9.06e-4,-0.002 0.0011,-0.004 0.002,-0.006 0.0495,-0.13179 0.08899,-0.24964 0.125,-0.35156 5.96e-4,-0.002 0.0014,-0.004 0.002,-0.006 a 0.750075,0.750075 0 0 0 -0.984375,-0.86133 c -1.643329,-0.93429 -2.894405,-1.67955 -4.392578,-2.529298 A 0.750075,0.750075 0 0 0 57.332031,99.1875 Z" /></g><g
     id="g14975"
     transform="matrix(0.77256967,0,0,0.77256967,12.924439,13.108966)"><path
       id="path14973"
       style="color:#000000;clip-rule:nonzero;fill:#1e35ff;stroke-width:1.5;stroke-linecap:square;-inkscape-stroke:none"
       d="m 81.814453,58.041016 a 0.750075,0.750075 0 0 0 -0.318359,0.01563 0.750075,0.750075 0 0 0 -0.480469,0.392578 c -2.141266,4.337055 -6.55482,7.332031 -11.734375,7.332031 h -19 a 0.750075,0.750075 0 0 0 -0.537109,0.226562 c -1.387598,1.419623 -2.784104,3.134564 -4.164063,4.792969 a 0.750075,0.750075 0 0 0 -0.07422,0.855469 l 10.1875,17.65625 c 1.898057,3.28754 2.19736,6.994417 1.181641,10.345703 a 0.750075,0.750075 0 0 0 0.349609,0.869132 c 1.665335,0.94419 2.931506,1.71537 4.9375,2.84375 a 0.750075,0.750075 0 0 0 1.06836,-0.38476 c 2.100663,-5.458793 1.785452,-11.848969 -1.43164,-17.214846 l 0.0078,0.0098 -7.476563,-12.96875 15.302734,-0.0059 c 7.428786,0 13.673609,-3.963141 17.121094,-10.072266 a 0.750075,0.750075 0 0 0 -0.111328,-0.886719 c -1.423112,-1.486088 -3.027678,-2.665005 -4.533203,-3.6875 a 0.750075,0.750075 0 0 0 -0.294922,-0.11914 z" /></g></g><g
   id="g14564"
   style="clip-rule:evenodd;fill-rule:nonzero;stroke-linecap:round;stroke-linejoin:round"
   transform="matrix(1.0854775,0,0,1.0854775,-4.8621911,-4.9303624)"><g
     id="path879"
     transform="matrix(0.77256967,0,0,0.77256967,12.924439,13.108966)"><path
       id="path14412"
       style="color:#000000;clip-rule:nonzero;fill:#ffd61a;stroke-width:1.5;stroke-linecap:butt;stroke-linejoin:miter;-inkscape-stroke:none"
       d="m 44.34375,-0.75 c -5.784936,0 -10.997198,2.422638 -14.666016,6.3125 a 0.750075,0.750075 0 0 0 0.15625,1.15625 l 0.02734,0.015625 a 0.750075,0.750075 0 0 0 0.609375,0.076172 C 39.447858,4.054325 51.138062,3.9405977 66.132812,6.3027344 A 0.750075,0.750075 0 0 0 66.25,6.3125 H 85.03125 A 0.750075,0.750075 0 0 0 85.185547,6.296875 C 90.794749,5.1159576 95.44562,3.0690054 99.857422,1.4648438 A 0.750075,0.750075 0 0 0 99.806641,0.0390625 C 98.044252,-0.46325611 96.183806,-0.75 94.25,-0.75 c -1.559058,4e-6 -48.34712,-3e-6 -49.90625,0 z" /></g><g
     id="path881"
     transform="matrix(0.77256967,0,0,0.77256967,12.924439,13.108966)"><path
       id="path14406"
       style="color:#000000;clip-rule:nonzero;fill:#ff732b;stroke-width:1.5;stroke-linecap:butt;stroke-linejoin:miter;-inkscape-stroke:none"
       d="M 99.837891,0.03125 A 0.750075,0.750075 0 0 0 99.314453,0.125 l 0.05664,-0.08007813 C 94.885939,1.6744417 90.317089,3.6828032 84.876953,4.828125 A 0.750075,0.750075 0 0 0 85.03125,6.3125 H 94.25 c 7.2798,0 13.09375,5.814346 13.09375,13.09375 C 107.34375,26.685653 101.5298,32.5 94.25,32.5 h -2.59375 a 0.750075,0.750075 0 0 0 -0.158203,1.482422 c 4.9955,1.081508 9.820403,1.602633 14.623043,1.423828 a 0.750075,0.750075 0 0 0 0.004,0 l 0.16992,-0.0078 a 0.750075,0.750075 0 0 0 0.4336,-0.160157 c 4.67994,-3.680194 7.67773,-9.398492 7.67773,-15.832031 0,-9.168463 -6.20872,-16.9170586 -14.568359,-19.375 z M 46.023438,3.1347656 C 39.993747,3.2138076 34.686231,3.9471519 30.029297,5.3769531 A 0.750075,0.750075 0 0 0 29.705078,5.578125 C 26.30232,9.1821614 24.1875,14.038215 24.1875,19.40625 a 0.750075,0.750075 0 0 0 0.002,0.05664 c 0.291895,3.880654 1.35639,7.82365 3.15625,10.603515 a 0.750075,0.750075 0 0 0 1.224609,0.04883 c 1.236763,-1.605488 2.410838,-3.280182 3.671876,-4.607422 a 0.750075,0.750075 0 0 0 0.144531,-0.818359 C 31.67988,23.075793 31.273438,21.262133 31.273438,19.378906 31.273438,12.098092 37.06249,6.3125 44.34375,6.3125 H 66.25 A 0.750075,0.750075 0 0 0 66.367188,4.8222656 C 58.807327,3.6313554 52.05312,3.055725 46.023438,3.1347656 Z M 18.884766,32.5 c -0.0084,2.41e-4 -0.01293,0.0016 -0.02148,0.002 -0.1848,0.0066 -0.40856,0.02795 -0.464843,0.0332 a 0.750075,0.750075 0 0 0 -0.002,0 c 0.0578,-0.0056 -0.04924,0.0026 -0.132812,0.0078 -0.08357,0.0052 -0.191932,0.01274 -0.302734,0.01953 -0.221604,0.01359 -0.406146,0.02269 -0.533204,0.03516 a 0.750075,0.750075 0 0 0 -0.0039,0 c -0.253535,0.02607 -0.511439,0.05478 -0.810547,0.09766 -0.31636,0.04346 -0.567713,0.107534 -0.789062,0.150391 -8.18e-4,3.4e-4 -0.01315,-1.88e-4 -0.01563,0 -0.02898,0.0022 -0.05594,0.0041 -0.08984,0.0078 -0.06408,0.007 -0.139347,0.01608 -0.234375,0.03516 -7.9175348,1.52101 -14.2214248,7.742248 -15.84375,15.710937 -0.0852457,0.418569 -0.11961408,0.73831 -0.19726562,1.333985 2.4939e-4,-0.0019 -0.0299067,0.211682 -0.0585938,0.425781 -0.0288161,0.215063 -0.0577004,0.428961 -0.0703125,0.578125 l 0.001953,-0.002 c -0.0158673,0.181681 -0.0118147,0.253372 -0.0175781,0.466797 -0.005763,0.213424 -0.0124119,0.463216 -0.0175781,0.638672 0.003072,-0.109972 -0.005795,0.105651 -0.0136719,0.236328 -0.007804,0.130712 -0.017542,0.25565 -0.017542,0.378924 0,0.474867 0.0275402,0.941192 0.0644531,1.458984 -7.716e-5,0.0035 -0.0137605,-0.06907 0,0.101563 a 0.750075,0.750075 0 0 0 0,0.01563 c -0.004445,-0.07408 -0.006857,-0.06231 0,0.03711 -0.003381,-0.04813 -0.005169,-0.05508 0,0.02734 a 0.750075,0.750075 0 0 0 0.001953,0.02148 c 0.006101,0.06711 0.0167935,0.06176 0.0292969,0.105469 -0.004384,-0.0052 -0.0174977,-0.01871 0.001953,0.179688 0.0354853,0.36241 0.1280952,0.479053 0.10351563,0.351562 0.33599453,2.975019 1.2551994,5.82702 2.81835939,8.345703 l -0.013672,-0.01953 c 1.949314,3.378035 4.8932095,8.414044 6.2402344,10.693359 a 0.750075,0.750075 0 0 0 1.3359374,-0.08984 c 0.9201242,-2.18883 1.6622742,-4.515043 1.8691412,-7.201172 v -0.002 c 0.0041,-0.05084 0.06635,-0.414336 0.09961,-0.650391 a 0.750075,0.750075 0 0 0 -0.09375,-0.480469 C 11.276029,64.806161 10.453202,63.377157 9.7246094,62.113281 8.9960171,60.849406 8.4166992,59.837668 8.2988281,59.642578 a 0.750075,0.750075 0 0 0 -0.00586,-0.0059 C 7.2327028,57.928087 6.5728302,55.999845 6.375,53.976562 c 9.33e-5,-0.01319 0.00104,-0.0029 0,-0.0332 A 0.750075,0.750075 0 0 0 6.37109,53.894532 C 6.3704276,53.88773 6.3125,52.851451 6.3125,52.65625 c 0,0.09893 0.0039,-0.22842 0.00977,-0.470703 0.00587,-0.242283 0.017223,-0.534774 0.019531,-0.564453 0.004,-0.05026 0.00444,-0.08557 0.00391,-0.119141 0.00751,-0.0603 0.041616,-0.334356 0.052734,-0.425781 l 0.00195,-0.01953 c 0.019513,-0.13724 0.047562,-0.352671 0.076172,-0.570313 0.029585,-0.225063 0.065766,-0.469862 0.070312,-0.492187 1.0513478,-5.164088 5.14983,-9.186958 10.332031,-10.189453 0.02094,-0.0015 0.04945,0.0023 0.06641,0 a 0.750075,0.750075 0 0 0 0.03125,-0.0039 c 0.259231,-0.04689 0.457079,-0.09815 0.625,-0.121093 a 0.750075,0.750075 0 0 0 0.0039,0 c 0.218928,-0.03126 0.343649,-0.04292 0.496093,-0.05859 -0.06517,0.0062 -6.26e-4,-1.13e-4 0.02734,-0.002 0.02797,-0.0018 0.0687,-0.003 0.115235,-0.0059 0.09308,-0.0058 0.214037,-0.01396 0.335937,-0.02148 0.1219,-0.0075 0.243198,-0.01573 0.335938,-0.02148 0.04637,-0.0029 0.08665,-0.0041 0.115234,-0.0059 0.0087,-5.52e-4 0.02156,-0.0022 0.02148,-0.002 h 0.002 c 0.226738,-0.0062 0.466832,-0.01066 0.796874,0 a 0.750075,0.750075 0 0 0 0.02344,0 h 1.9375 a 0.750075,0.750075 0 0 0 0.650391,-0.376953 c 1.081476,-1.888982 2.082714,-3.776156 3.253906,-5.517578 A 0.750075,0.750075 0 0 0 25.09375,32.5 h -5.097656 c -0.382606,-0.01387 -0.737183,-0.01012 -1.109375,0 a 0.750075,0.750075 0 0 0 -0.002,0 z M -0.68554688,54.216797 -0.6875,54.166016 c -1.2617e-4,-0.0093 -5.1019e-4,3.62e-4 0,0.0332 a 0.750075,0.750075 0 0 0 0.001953,0.01758 z M 15.966797,32.849609 c 0.09453,0.01042 0.236712,0.05887 0.195312,0.04297 -0.03182,-0.01222 -0.122232,-0.0265 -0.195312,-0.03711 1.3e-5,-1.19e-4 -3e-6,-0.0058 0,-0.0059 z m -0.210938,0.0039 a 0.750075,0.750075 0 0 0 -0.08398,0.115234 c -0.0063,-0.01899 -0.02929,-0.08789 -0.0293,-0.08789 -2.92e-4,9.7e-5 0.07708,-0.02091 0.08984,-0.02344 0.01276,-0.0025 0.01893,-0.0032 0.02344,-0.0039 z m -0.353515,0.160156 c 0,0 0.07651,0.09353 0.125,0.152344 a 0.750075,0.750075 0 0 0 -0.320313,0.443359 c -0.01363,-0.139666 -0.02734,-0.285156 -0.02734,-0.285156 l 0.0957,-0.175781 z m 0.478515,0.560547 0.002,0.0098 c -9.4e-5,1.78e-4 -0.0039,0.0078 -0.0039,0.0078 -10e-7,0 0.0019,-0.01677 0.002,-0.01758 z m 0.757813,6.226562 c 0.07334,0.01423 0.153008,0.0064 0.226562,0.002 l -0.01758,0.0039 c -0.07548,0.0099 -0.308258,-0.02508 -0.208984,-0.0059 z" /></g><g
     id="path883"
     transform="matrix(0.77256967,0,0,0.77256967,12.924439,13.108966)"><path
       id="path14400"
       style="color:#000000;clip-rule:nonzero;fill:#ff1a3c;stroke-width:1.5;stroke-linecap:butt;stroke-linejoin:miter;-inkscape-stroke:none"
       d="m 31.826172,24.232422 a 0.750075,0.750075 0 0 0 -0.673828,0.220703 c -1.383632,1.451763 -2.559484,3.177232 -3.769532,4.748047 a 0.750075,0.750075 0 0 0 -0.04102,0.857422 c 0.54601,0.862957 1.247826,1.643388 1.914062,2.443359 h -4.154297 a 0.750075,0.750075 0 0 0 -0.623046,0.332031 c -1.229806,1.828575 -2.243473,3.747008 -3.308594,5.607422 a 0.750075,0.750075 0 0 0 0.65039,1.123047 h 22.53125 c 1.112902,0 2.042849,-0.44486 2.642579,-1.121094 0.599729,-0.676233 0.882812,-1.548557 0.882812,-2.410156 0,-0.861599 -0.283083,-1.733922 -0.882812,-2.410156 -0.59973,-0.676234 -1.529676,-1.121094 -2.642579,-1.121094 -5.396281,0 -9.95107,-3.213071 -11.96875,-7.832031 a 0.750075,0.750075 0 0 0 -0.55664,-0.4375 z m 37.46289,8.269531 c -1.1129,0 -2.042848,0.44486 -2.642578,1.121094 -0.599729,0.676234 -0.882812,1.548557 -0.882812,2.410156 0,0.861599 0.283083,1.733923 0.882812,2.410156 0.59973,0.676234 1.529678,1.121094 2.642578,1.121094 2.527655,0 4.870345,0.714131 6.871094,1.939453 a 0.750075,0.750075 0 0 0 0.251953,0.09766 c 3.23326,0.618705 6.406073,1.202367 9.464844,2.238282 a 0.750075,0.750075 0 0 0 1.099609,-0.855469 c -0.003,-0.0055 -0.0065,-0.01356 -0.0098,-0.01953 0.0066,0.01119 -0.01383,-0.02673 -0.03516,-0.06445 -0.0071,-0.01257 -0.0011,-0.0037 -0.01172,-0.02148 a 0.750075,0.750075 0 0 0 -0.05078,-0.01367 0.750075,0.750075 0 0 0 -0.0098,-0.08203 c -0.66916,-1.186057 -1.57916,-2.195091 -2.466797,-3.21875 h 9.865234 c 4.679568,0 9.062961,-1.668838 12.474611,-4.322265 a 0.750075,0.750075 0 0 0 -0.49023,-1.341797 c -4.6575,0.173399 -9.526646,-0.321481 -14.419927,-1.38086 a 0.750075,0.750075 0 0 0 -0.158204,-0.01758 z m 12.851563,14.902344 a 0.750075,0.750075 0 0 0 -0.462891,0.945312 c 7.05e-4,0.002 0.0013,0.0019 0.002,0.0039 0.01225,0.03471 0.02152,0.06155 0.0293,0.08398 3.8e-4,0.0011 0.0016,0.0028 0.002,0.0039 a 0.750075,0.750075 0 0 0 0.365234,0.3125 0.750075,0.750075 0 0 0 -0.173828,0.308594 c 0.03288,0.115875 0.062,0.235132 0.0918,0.353516 0.0204,0.08107 0.04328,0.159794 0.0625,0.242187 3.02e-4,0.0013 -3.03e-4,0.0026 0,0.0039 a 0.750075,0.750075 0 0 0 0.294921,0.306641 0.750075,0.750075 0 0 0 -0.173828,0.251953 c 0.04928,0.263366 0.08772,0.524457 0.121094,0.787109 0.006,0.04692 0.01614,0.09369 0.02148,0.140626 0,0 0,0.002 0,0.002 a 0.750075,0.750075 0 0 0 0.140626,0.1875 0.750075,0.750075 0 0 0 -0.109376,0.128906 c 0,0 0,0.002 0,0.002 0.03649,0.400984 0.06249,0.79582 0.0625,1.189453 0,0.420721 -0.0264,0.841804 -0.06641,1.263672 a 0.750075,0.750075 0 0 0 0.121094,0.142578 0.750075,0.750075 0 0 0 -0.164062,0.212891 c -0.03588,0.292877 -0.07807,0.579643 -0.13086,0.857422 a 0.750075,0.750075 0 0 0 0.136719,0.199218 0.750075,0.750075 0 0 0 -0.234375,0.248047 c -0.05708,0.251951 -0.119357,0.499763 -0.189453,0.742188 a 0.750075,0.750075 0 0 0 0.121093,0.216797 0.750075,0.750075 0 0 0 -0.255859,0.224609 c -0.08048,0.245425 -0.170416,0.490937 -0.267578,0.736328 a 0.750075,0.750075 0 0 0 0.08984,0.203125 0.750075,0.750075 0 0 0 -0.240235,0.173828 c -0.134464,0.310873 -0.284402,0.617798 -0.445312,0.921875 a 0.750075,0.750075 0 0 0 0.02539,0.08398 0.750075,0.750075 0 0 0 -0.0918,0.05469 c -0.191634,0.352 -0.400232,0.694805 -0.623047,1.027344 a 0.750075,0.750075 0 0 0 0.0293,0.144531 0.750075,0.750075 0 0 0 -0.199219,0.08984 c -0.160949,0.229089 -0.32517,0.451142 -0.494141,0.662109 a 0.750075,0.750075 0 0 0 0.08008,0.677735 0.750075,0.750075 0 0 0 -0.791015,0.132812 c -0.096,0.101531 -0.158795,0.177874 -0.199219,0.21875 a 0.750075,0.750075 0 0 0 1.066406,1.054688 c 0.106221,-0.10739 0.175596,-0.192424 0.222656,-0.242188 a 0.750075,0.750075 0 0 0 0.05664,-0.828125 0.750075,0.750075 0 0 0 0.734375,-0.07617 h 0.002 c -0.01996,0.02493 0.01444,-0.007 0.0918,-0.105469 0.172404,-0.219537 0.318752,-0.434038 0.457031,-0.630859 a 0.750075,0.750075 0 0 0 0.01758,-0.228515 0.750075,0.750075 0 0 0 0.171874,-0.0332 c 0.247536,-0.369432 0.479062,-0.750899 0.69336,-1.144531 a 0.750075,0.750075 0 0 0 -0.0039,-0.130859 0.750075,0.750075 0 0 0 0.08008,-0.02344 c 0.175828,-0.332248 0.343066,-0.675512 0.496094,-1.029297 a 0.750075,0.750075 0 0 0 -0.04102,-0.332031 0.750075,0.750075 0 0 0 0.208984,-0.08984 c 0.10553,-0.266488 0.206707,-0.537494 0.298828,-0.818359 a 0.750075,0.750075 0 0 0 -0.08008,-0.367187 0.750075,0.750075 0 0 0 0.230469,-0.125 c 0.07941,-0.274629 0.148134,-0.550842 0.210937,-0.828126 a 0.750075,0.750075 0 0 0 -0.111328,-0.351562 0.750075,0.750075 0 0 0 0.21875,-0.146484 c 0.06061,-0.318961 0.107657,-0.638155 0.146485,-0.955078 A 0.750075,0.750075 0 0 0 83.677734,54.195312 0.750075,0.750075 0 0 0 83.841797,54.0625 c 0.0434,-0.457092 0.07227,-0.923873 0.07227,-1.404297 0,-0.456883 -0.03021,-0.897631 -0.06836,-1.324219 0,0 0,-0.002 0,-0.002 a 0.750075,0.750075 0 0 0 -0.140625,-0.115234 0.750075,0.750075 0 0 0 0.105469,-0.238281 c -0.04024,-0.353465 -0.09509,-0.697895 -0.158203,-1.035157 0,0 0,-0.002 0,-0.002 a 0.750075,0.750075 0 0 0 -0.273438,-0.183594 0.750075,0.750075 0 0 0 0.138672,-0.439453 c -3.21e-4,-0.0014 -0.0016,-0.0025 -0.002,-0.0039 -0.02475,-0.104342 -0.05483,-0.214874 -0.08203,-0.322265 -0.02894,-0.113152 -0.0558,-0.226756 -0.08789,-0.339844 -3.6e-4,-0.0012 3.61e-4,-0.0027 0,-0.0039 a 0.750075,0.750075 0 0 0 -0.322265,-0.175782 0.750075,0.750075 0 0 0 0.105468,-0.515625 c -5.65e-4,-0.0017 5.56e-4,-0.0023 0,-0.0039 -0.0092,-0.02661 -0.01613,-0.04598 -0.02344,-0.06641 -0.0032,-0.009 -0.007,-0.02147 -0.0098,-0.0293 -3.89e-4,-0.0011 -0.0016,-0.0028 -0.002,-0.0039 A 0.750075,0.750075 0 0 0 82.1405,47.40422 Z m 6.363281,2.419922 a 0.750075,0.750075 0 0 0 -0.667968,0.814453 c 9.9e-5,9.67e-4 -9.7e-5,0.0029 0,0.0039 6.97e-4,0.0065 0.0013,0.0235 0.002,0.03125 0.004,0.04575 0.0075,0.09573 0.01367,0.164063 h 0.002 c 1.64e-4,0.0017 -1.69e-4,0.0021 0,0.0039 a 0.750075,0.750075 0 0 0 1.492187,-0.140625 c -9e-5,-9.96e-4 9e-5,-0.0029 0,-0.0039 -0.0045,-0.04661 -0.0078,-0.117819 -0.01758,-0.210938 -1.8e-4,-0.0017 1.85e-4,-0.0022 0,-0.0039 A 0.750075,0.750075 0 0 0 88.503906,49.824219 Z M 78.335938,62.712891 a 0.750075,0.750075 0 0 0 -0.734376,0.113281 c -0.0157,0.01284 -0.07939,0.05404 -0.18164,0.134766 a 0.750075,0.750075 0 0 0 -0.08203,0.740234 0.750075,0.750075 0 0 0 -0.824219,-0.08398 c -0.297323,0.196063 -0.597138,0.380221 -0.904297,0.548828 a 0.750075,0.750075 0 0 0 -0.02344,0.08398 0.750075,0.750075 0 0 0 -0.125,-0.0059 c -0.342731,0.182468 -0.684407,0.350873 -1.03125,0.498047 a 0.750075,0.750075 0 0 0 -0.01953,0.04883 0.750075,0.750075 0 0 0 -0.07813,-0.01172 c -0.349508,0.145008 -0.704324,0.276751 -1.064453,0.390625 a 0.750075,0.750075 0 0 0 -0.02539,0.04883 0.750075,0.750075 0 0 0 -0.07227,-0.01758 c -0.365634,0.112441 -0.744523,0.207112 -1.13086,0.289062 a 0.750075,0.750075 0 0 0 -0.05859,0.08984 0.750075,0.750075 0 0 0 -0.138672,-0.04883 c -0.378107,0.07411 -0.760266,0.132949 -1.146485,0.173828 a 0.750075,0.750075 0 0 0 -0.05273,0.06641 0.750075,0.750075 0 0 0 -0.107422,-0.05078 c -0.416373,0.03897 -0.830597,0.0625 -1.246094,0.0625 a 0.750075,0.750075 0 0 0 0,1.5 c 0.473494,0 0.935877,-0.02813 1.386719,-0.07031 a 0.750075,0.750075 0 0 0 0.105469,-0.07617 0.750075,0.750075 0 0 0 0.07227,0.06055 c 0.433102,-0.04584 0.859294,-0.111417 1.277343,-0.19336 a 0.750075,0.750075 0 0 0 0.121094,-0.109375 0.750075,0.750075 0 0 0 0.09766,0.06445 c 0.42312,-0.08974 0.846039,-0.19639 1.261719,-0.324218 a 0.750075,0.750075 0 0 0 0.05664,-0.0625 0.750075,0.750075 0 0 0 0.05273,0.02734 c 0.405541,-0.128225 0.800097,-0.2737 1.185547,-0.433593 a 0.750075,0.750075 0 0 0 0.05078,-0.06641 0.750075,0.750075 0 0 0 0.05859,0.02344 c 0.400325,-0.169868 0.781468,-0.358275 1.150391,-0.554688 a 0.750075,0.750075 0 0 0 0.07031,-0.115234 0.750075,0.750075 0 0 0 0.0957,0.0293 c 0.34881,-0.19147 0.683097,-0.397228 1.007813,-0.611328 a 0.750075,0.750075 0 0 0 0.220703,-0.832032 0.750075,0.750075 0 0 0 0.789062,0.09766 c 0.02265,-0.01788 0.09376,-0.06256 0.201172,-0.150391 A 0.750075,0.750075 0 0 0 78.335938,62.712891 Z M 10.875,65.183594 a 0.750075,0.750075 0 0 0 -0.554688,0.724609 l 0.0059,-0.08984 c 5.66e-4,-0.0047 -0.02938,0.132874 -0.06445,0.269532 -0.03507,0.136658 -0.07869,0.26083 -0.0957,0.480468 -0.1907494,2.480213 -0.8707155,4.630711 -1.7558598,6.736329 a 0.750075,0.750075 0 0 0 0.041016,0.666015 c 2.0827208,3.603143 2.5948208,4.47667 6.0312498,10.4375 0.01328,0.02304 3.100236,5.377846 6.193359,10.746094 1.546562,2.684124 3.093973,5.370789 4.257813,7.390619 0.58192,1.00992 1.066159,1.85174 1.408203,2.44531 0.342044,0.59358 0.515292,0.89343 0.548828,0.95118 4.393191,7.60695 12.965195,11.26388 21.130859,9.75195 a 0.750075,0.750075 0 0 0 0.253907,-0.1543 0.750075,0.750075 0 0 0 0.128906,0.0859 c 0.280369,-0.0576 0.557229,-0.12262 0.832031,-0.19141 a 0.750075,0.750075 0 0 0 0.521484,-0.51367 0.750075,0.750075 0 0 0 0.449219,0.24219 c 0.257298,-0.0784 0.523595,-0.1593 0.798828,-0.25586 a 0.750075,0.750075 0 0 0 0.435547,-0.68945 0.750075,0.750075 0 0 0 0.642578,0.26953 c 0,0 0.002,-0.002 0.002,-0.002 0.195354,-0.0815 0.417882,-0.16326 0.662109,-0.2754 a 0.750075,0.750075 0 0 0 -0.625,-1.36328 c -0.178021,0.0817 -0.384595,0.15775 -0.615235,0.25391 a 0.750075,0.750075 0 0 0 -0.24414,0.60742 0.750075,0.750075 0 0 0 -0.753906,-0.21484 c -0.235879,0.0828 -0.482635,0.15788 -0.740235,0.23633 a 0.750075,0.750075 0 0 0 -0.234375,0.44531 0.750075,0.750075 0 0 0 -0.662109,-0.19531 c 0,0 -0.002,0 -0.002,0 -0.240355,0.0603 -0.479539,0.11589 -0.71875,0.16601 0,0 -0.002,0 -0.002,0 -1.525047,-1.58124 -3.073176,-3.16328 -4.390625,-4.64844 A 0.750075,0.750075 0 0 0 43.16406,108.93546 C 39.068797,108.56581 35.223931,106.2915 33,102.43945 c 0.03422,0.0592 -1.006755,-1.7498 -2.582031,-4.484372 C 28.842692,95.220504 26.689453,91.485088 24.369141,87.458984 19.728516,79.406777 14.418595,70.197926 11.71875,65.533203 A 0.750075,0.750075 0 0 0 10.875,65.183594 Z m 40.039062,42.042966 c -0.33292,0.19222 -0.679745,0.36744 -1.037109,0.53125 -0.0019,8.8e-4 -0.004,9.6e-4 -0.0059,0.002 a 0.750075,0.750075 0 0 0 -0.138672,0.38476 0.750075,0.750075 0 0 0 -0.564453,-0.0898 c -0.0024,9.3e-4 -0.0035,9.5e-4 -0.0059,0.002 -0.03515,0.014 -0.06332,0.0242 -0.0957,0.0371 -0.04268,0.0171 -0.09401,0.0375 -0.125,0.0488 -0.0012,4.6e-4 -0.0027,9.5e-4 -0.0039,0.002 a 0.750075,0.750075 0 0 0 0.521484,1.40625 c 0.0024,-8.8e-4 0.0035,-9.5e-4 0.0059,-0.002 0.100646,-0.0372 0.181744,-0.0716 0.24414,-0.0957 0.0023,-9.1e-4 0.0056,-9.5e-4 0.0078,-0.002 a 0.750075,0.750075 0 0 0 0.376953,-0.48437 0.750075,0.750075 0 0 0 0.408203,0.15429 c 0.0013,-5.9e-4 0.0026,-9.5e-4 0.0039,-0.002 0.387885,-0.17792 0.775852,-0.37299 1.158203,-0.59375 a 0.750075,0.750075 0 0 0 -0.75,-1.29883 z" /></g><g
     id="path885"
     transform="matrix(0.77256967,0,0,0.77256967,12.924439,13.108966)"><path
       id="path14394"
       style="color:#000000;clip-rule:nonzero;fill:#c238ff;stroke-width:1.5;stroke-linecap:butt;stroke-linejoin:miter;-inkscape-stroke:none"
       d="m 76.693359,40.128906 a 0.750075,0.750075 0 0 0 -0.529297,1.378906 c 3.790126,2.289477 6.242093,6.364518 6.242188,11.148438 0,2.093265 -0.495182,4.060081 -1.361328,5.814453 a 0.750075,0.750075 0 0 0 0.251953,0.951172 c 1.312728,0.892653 2.624051,1.936154 3.824219,3.109375 -0.0047,0.0075 -0.009,0.01593 -0.01367,0.02344 -0.0016,0.0027 -0.0023,0.0051 -0.0039,0.0078 a 0.750075,0.750075 0 0 0 1.27539,0.789062 c 0.0017,-0.0028 0.0041,-0.005 0.0059,-0.0078 0.05683,-0.09103 0.109971,-0.181126 0.164062,-0.271484 0.03895,-0.06428 0.07549,-0.122415 0.115234,-0.191407 0.0015,-0.0027 0.0024,-0.0051 0.0039,-0.0078 a 0.750075,0.750075 0 0 0 0,-0.08203 0.750075,0.750075 0 0 0 0.07813,-0.05273 c 1.70946,-2.963232 2.691406,-6.407332 2.691406,-10.082031 0,-3.520693 -0.843052,-7.01721 -2.589844,-9.892578 a 0.750075,0.750075 0 0 0 -0.398437,-0.320313 c -3.261033,-1.11524 -6.464923,-1.683834 -9.75586,-2.314453 z m -4.5625,25.339844 c -0.0081,0.0018 -0.04087,0.007 -0.09961,0.01953 a 0.750075,0.750075 0 0 0 -0.208984,0.328125 0.750075,0.750075 0 0 0 -0.498047,-0.199218 c -0.0836,0.01299 -0.159107,0.02482 -0.232422,0.03516 -0.01256,0.0018 -0.02668,0.0042 -0.03906,0.0059 0,0 -0.002,0 -0.002,0 a 0.750075,0.750075 0 0 0 -0.21289,0.283203 0.750075,0.750075 0 0 0 -0.441407,-0.21289 c 0,0 -0.002,0 -0.002,0 -0.08731,0.0074 -0.155057,0.01585 -0.208984,0.01953 a 0.750075,0.750075 0 0 0 0.101562,1.496094 c 0.0965,-0.0065 0.174275,-0.01451 0.234375,-0.01953 a 0.750075,0.750075 0 0 0 0.433594,-0.308593 0.750075,0.750075 0 0 0 0.296875,0.230468 c 0.108587,-0.01455 0.209321,-0.03236 0.302735,-0.04687 a 0.750075,0.750075 0 0 0 0.447265,-0.367187 0.750075,0.750075 0 0 0 0.339844,0.224609 c 0.01265,-0.0027 0.05044,-0.01096 0.0918,-0.01953 0.0096,-0.002 0.01034,-0.0015 0.02148,-0.0039 0,0 0.002,0 0.002,0 A 0.750075,0.750075 0 0 0 72.134766,65.46875 c -4.45e-4,9.7e-5 -0.0034,-1.06e-4 -0.0039,0 z m -23.912109,0.3125 c -2.67585,0 -4.394818,2.962596 -3.056641,5.28125 l 0.34375,0.59375 a 0.750075,0.750075 0 0 0 1.226563,0.105469 c 1.386438,-1.666192 2.767784,-3.360456 4.083984,-4.707031 A 0.750075,0.750075 0 0 0 50.28125,65.78125 Z m 22.082031,5.501953 c -0.09059,0.0049 -0.199766,0.0075 -0.322265,0.01172 -0.0052,1.79e-4 -0.0084,-1.89e-4 -0.01367,0 A 0.750075,0.750075 0 0 0 69.79883,71.47461 0.750075,0.750075 0 0 0 69.511721,71.306642 h -0.0098 L 53.03125,71.3125 a 0.750075,0.750075 0 0 0 0,1.5 h 16.25 c 0.106015,0 0.179932,-0.005 0.230469,-0.0059 0.0017,-3e-5 0.0062,1.9e-5 0.0078,0 a 0.750075,0.750075 0 0 0 0.306641,-0.183594 0.750075,0.750075 0 0 0 0.179687,0.171875 c 0.005,-9e-5 0.0087,9.9e-5 0.01367,0 0.02972,-5.98e-4 0.05347,-0.003 0.08203,-0.0039 0.09244,-0.0028 0.184448,-0.005 0.265626,-0.0078 v -0.002 c 0.0051,-2.61e-4 0.0085,2.79e-4 0.01367,0 a 0.750075,0.750075 0 0 0 -0.06641,-1.498047 c -0.005,1.75e-4 -0.0087,-1.78e-4 -0.01367,0 z m -13.763672,16.9375 a 0.750075,0.750075 0 0 0 -0.564453,0.07617 0.750075,0.750075 0 0 0 -0.279297,1.015625 c 0.211837,0.36692 0.402029,0.743982 0.578125,1.128906 0,0 0.002,0.002 0.002,0.002 a 0.750075,0.750075 0 0 0 0.06445,0.04492 0.750075,0.750075 0 0 0 -0.01953,0.05273 c 0.156931,0.351415 0.296852,0.709215 0.421875,1.072265 0,0 0,0.002 0,0.002 a 0.750075,0.750075 0 0 0 0.119141,0.101563 0.750075,0.750075 0 0 0 -0.04883,0.09375 c 0,0 0,0.002 0,0.002 0.10301,0.315756 0.191792,0.637565 0.271484,0.966797 0,0 0,0.002 0,0.002 a 0.750075,0.750075 0 0 0 0.19336,0.199219 0.750075,0.750075 0 0 0 -0.107422,0.164062 c 2.62e-4,0.0012 -2.62e-4,0.0027 0,0.0039 0.0567,0.268626 0.104373,0.542297 0.144531,0.820312 0,0 0,0.002 0,0.002 a 0.750075,0.750075 0 0 0 1.484375,-0.216797 c 0,0 0,-0.002 0,-0.002 -0.04405,-0.296701 -0.09474,-0.604043 -0.162109,-0.917969 0,0 0,-0.002 0,-0.002 a 0.750075,0.750075 0 0 0 -0.183594,-0.117187 0.750075,0.750075 0 0 0 0.08789,-0.28711 c -2.89e-4,-0.0012 2.91e-4,-0.0027 0,-0.0039 -0.08645,-0.352611 -0.182645,-0.712458 -0.302734,-1.078125 0,0 0,-0.002 0,-0.002 A 0.750075,0.750075 0 0 0 58.125,91.289062 0.750075,0.750075 0 0 0 58.158203,91.125 c 0,0 0,-0.002 0,-0.002 -0.13751,-0.396988 -0.292521,-0.797143 -0.470703,-1.195313 a 0.750075,0.750075 0 0 0 -0.06055,-0.02148 0.750075,0.750075 0 0 0 0.0098,-0.08789 C 57.444647,89.397674 57.232512,88.978755 56.992188,88.5625 A 0.750075,0.750075 0 0 0 56.537109,88.220703 Z M 57.332031,99.1875 a 0.750075,0.750075 0 0 0 -0.439453,0.480469 c -0.928459,3.075501 -2.968274,5.814191 -5.986328,7.556641 -2.444021,1.41112 -5.338146,1.94046 -7.949219,1.69922 a 0.750075,0.750075 0 0 0 -0.634765,1.23828 c 1.503187,1.7242 3.320062,3.54954 5.029296,5.32812 a 0.750075,0.750075 0 0 0 0.677735,0.2168 c 2.189665,-0.4093 4.36726,-1.19185 6.408203,-2.36914 a 0.750075,0.750075 0 0 0 0,-0.002 c 4.206292,-2.42883 7.20621,-6.14029 8.789062,-10.34961 0,0 0.002,0 0.002,0 9.06e-4,-0.002 0.0011,-0.004 0.002,-0.006 0.0495,-0.13179 0.08899,-0.24964 0.125,-0.35156 5.96e-4,-0.002 0.0014,-0.004 0.002,-0.006 a 0.750075,0.750075 0 0 0 -0.984375,-0.86133 c -1.643329,-0.93429 -2.894405,-1.67955 -4.392578,-2.529298 A 0.750075,0.750075 0 0 0 57.332031,99.1875 Z" /></g><g
     id="path887"
     transform="matrix(0.77256967,0,0,0.77256967,12.924439,13.108966)"><path
       id="path14388"
       style="color:#000000;clip-rule:nonzero;fill:#1e35ff;stroke-width:1.5;stroke-linecap:square;-inkscape-stroke:none"
       d="m 81.814453,58.041016 a 0.750075,0.750075 0 0 0 -0.318359,0.01563 0.750075,0.750075 0 0 0 -0.480469,0.392578 c -2.141266,4.337055 -6.55482,7.332031 -11.734375,7.332031 h -19 a 0.750075,0.750075 0 0 0 -0.537109,0.226562 c -1.387598,1.419623 -2.784104,3.134564 -4.164063,4.792969 a 0.750075,0.750075 0 0 0 -0.07422,0.855469 l 10.1875,17.65625 c 1.898057,3.28754 2.19736,6.994417 1.181641,10.345703 a 0.750075,0.750075 0 0 0 0.349609,0.869132 c 1.665335,0.94419 2.931506,1.71537 4.9375,2.84375 a 0.750075,0.750075 0 0 0 1.06836,-0.38476 c 2.100663,-5.458793 1.785452,-11.848969 -1.43164,-17.214846 l 0.0078,0.0098 -7.476563,-12.96875 15.302734,-0.0059 c 7.428786,0 13.673609,-3.963141 17.121094,-10.072266 a 0.750075,0.750075 0 0 0 -0.111328,-0.886719 c -1.423112,-1.486088 -3.027678,-2.665005 -4.533203,-3.6875 a 0.750075,0.750075 0 0 0 -0.294922,-0.11914 z" /></g></g></svg>
