<?xml version="1.0" encoding="UTF-8" standalone="no"?>
<!-- Created with Inkscape (http://www.inkscape.org/) -->

<svg
   width="1100"
   height="800"
   viewBox="0 0 291.04167 211.66666"
   version="1.1"
   id="svg5"
   inkscape:version="1.1 (c4e8f9e, 2021-05-24)"
   sodipodi:docname="banner.svg"
   inkscape:export-filename="/Users/lemonorange/Documents/deepfusion.png"
   inkscape:export-xdpi="132"
   inkscape:export-ydpi="132"
   xmlns:inkscape="http://www.inkscape.org/namespaces/inkscape"
   xmlns:sodipodi="http://sodipodi.sourceforge.net/DTD/sodipodi-0.dtd"
   xmlns:xlink="http://www.w3.org/1999/xlink"
   xmlns="http://www.w3.org/2000/svg"
   xmlns:svg="http://www.w3.org/2000/svg">
  <sodipodi:namedview
     id="namedview7"
     pagecolor="#505050"
     bordercolor="#ffffff"
     borderopacity="1"
     inkscape:pageshadow="0"
     inkscape:pageopacity="0"
     inkscape:pagecheckerboard="1"
     inkscape:document-units="px"
     showgrid="false"
     units="px"
     inkscape:snap-page="true"
     inkscape:snap-global="true"
     inkscape:zoom="0.81363636"
     inkscape:cx="508.21229"
     inkscape:cy="330.61453"
     inkscape:window-width="1440"
     inkscape:window-height="788"
     inkscape:window-x="0"
     inkscape:window-y="25"
     inkscape:window-maximized="0"
     inkscape:current-layer="layer1"
     inkscape:snap-bbox="true"
     inkscape:bbox-paths="true"
     inkscape:bbox-nodes="true"
     inkscape:snap-bbox-edge-midpoints="true"
     inkscape:snap-bbox-midpoints="true" />
  <defs
     id="defs2">
    <linearGradient
       id="linearGradient2013">
      <stop
         style="stop-color:#ff8a05;stop-opacity:1"
         offset="0"
         id="stop2007" />
      <stop
         style="stop-color:#ff05e4;stop-opacity:1"
         offset="0.59275544"
         id="stop2009" />
      <stop
         style="stop-color:#9300ff;stop-opacity:1"
         offset="1"
         id="stop2011" />
    </linearGradient>
    <linearGradient
       id="linearGradient1820">
      <stop
         style="stop-color:#ff8900;stop-opacity:1"
         offset="0"
         id="stop1816" />
      <stop
         style="stop-color:#ff477e;stop-opacity:1"
         offset="0.47171944"
         id="stop1824" />
      <stop
         style="stop-color:#ce00ff;stop-opacity:1"
         offset="1"
         id="stop1818" />
    </linearGradient>
    <linearGradient
       xlink:href="#linearGradient1820"
       id="linearGradient1822"
       x1="123.6694"
       y1="-3.6604049"
       x2="8.6280975"
       y2="122.88503"
       gradientUnits="userSpaceOnUse"
       gradientTransform="matrix(0.37666595,0,0,0.37666595,120.36772,80.320383)" />
    <filter
       inkscape:collect="always"
       style="color-interpolation-filters:sRGB"
       id="filter1873"
       x="-0.098790209"
       y="-0.097396475"
       width="1.1975804"
       height="1.1947929">
      <feGaussianBlur
         inkscape:collect="always"
         stdDeviation="2.7075822"
         id="feGaussianBlur1875" />
    </filter>
    <filter
       inkscape:collect="always"
       style="color-interpolation-filters:sRGB"
       id="filter2080"
       x="-0.11515936"
       y="-0.11353469"
       width="1.2303187"
       height="1.2270694">
      <feGaussianBlur
         inkscape:collect="always"
         stdDeviation="2.796025"
         id="feGaussianBlur2082" />
    </filter>
  </defs>
  <g
     inkscape:groupmode="layer"
     id="layer3"
     inkscape:label="bg"
     sodipodi:insensitive="true"
     style="display:none">
    <rect
       style="fill:#fafafa;fill-opacity:1;stroke:none;stroke-width:1.32292;stroke-linecap:round;stroke-linejoin:round"
       id="rect1149"
       width="291.04166"
       height="211.66666"
       x="0"
       y="0"
       ry="0" />
  </g>
  <g
     inkscape:groupmode="layer"
     id="layer2"
     inkscape:label="shadow"
     style="display:none;opacity:0.657051;filter:url(#filter1873)">
    <text
       xml:space="preserve"
       style="font-style:normal;font-weight:normal;font-size:10.5833px;line-height:1.25;font-family:sans-serif;fill:#000000;fill-opacity:1;stroke:none;stroke-width:0.264583"
       x="68.152481"
       y="101.68784"
       id="text4701"><tspan
         sodipodi:role="line"
         id="tspan4699"
         style="stroke-width:0.264583"
         x="68.152481"
         y="101.68784" /></text>
    <g
       id="g1939"
       transform="matrix(1.1288232,0,0,1.1288232,-23.488655,-11.543578)">
      <path
         id="path1929"
         style="clip-rule:evenodd;fill:#ffd61a;fill-opacity:1;fill-rule:nonzero;stroke:none;stroke-width:0.51271;stroke-linecap:round;stroke-linejoin:round"
         d="m 143.32008,77.71113 c -2.85878,0 -5.42854,1.195779 -7.23967,3.116044 l 0.0136,0.0078 c 4.68903,-1.43967 10.73753,-1.488522 18.45756,-0.272377 h 9.62933 c 2.83001,-0.595816 5.19163,-1.633858 7.47035,-2.462424 -0.87203,-0.248542 -1.79022,-0.389537 -2.7438,-0.389537 -0.79936,0 -24.78807,0 -25.58744,0 z"
         sodipodi:nodetypes="ccccccscc" />
      <path
         id="path1931"
         style="clip-rule:evenodd;fill:#ff732b;fill-opacity:1;fill-rule:nonzero;stroke:none;stroke-width:0.205083;stroke-linecap:round;stroke-linejoin:round;stroke-miterlimit:4;stroke-dasharray:none"
         d="m 171.66437,78.095648 c -2.28263,0.829321 -4.64812,1.870522 -7.48336,2.467423 h 4.72655 c 3.93812,0 7.09784,3.159916 7.09784,7.097841 0,3.937924 -3.15972,7.097821 -7.09784,7.097821 h -1.32984 c 2.53612,0.549057 4.97713,0.8113 7.40225,0.720998 l 0.0874,-0.0039 c 2.31023,-1.816689 3.79001,-4.636017 3.79001,-7.815253 0,-4.527075 -3.06729,-8.35218 -7.19297,-9.565245 z m -27.47805,1.607233 c -3.06326,0.04011 -5.7477,0.412732 -8.09223,1.132568 -1.68102,1.780452 -2.72375,4.174026 -2.72375,6.825463 0.14572,1.937899 0.68895,3.914128 1.55789,5.256211 0.62657,-0.813393 1.23384,-1.682671 1.90895,-2.393225 -0.38312,-0.874704 -0.60283,-1.856317 -0.60283,-2.877035 0,-3.937867 3.14779,-7.083792 7.08575,-7.083792 h 11.23156 c -3.86,-0.608063 -7.3021,-0.900342 -10.36534,-0.86019 z m -13.90827,15.055852 c -0.0624,0.0018 -0.20729,0.01356 -0.22432,0.0155 -0.0279,0.0019 -0.43761,0.02616 -0.49668,0.03197 -0.12809,0.01356 -0.25428,0.02713 -0.40056,0.04806 -0.14495,0.01977 -0.27875,0.05503 -0.41657,0.08003 -0.01,0.0014 -0.002,-0.0018 -0.0155,0 0.0194,-0.0039 -0.0791,0.0058 -0.12809,0.0155 -3.90566,0.750298 -7.0181,3.821637 -7.81883,7.754747 -0.0399,0.19612 -0.056,0.34836 -0.0961,0.6569 -0.004,0.0229 -0.0556,0.39713 -0.0641,0.49669 -0.004,0.0353 -0.01,0.36193 -0.0155,0.54476 -5e-4,0.0194 -0.0155,0.23618 -0.0155,0.30441 0,0.22852 0.0136,0.4585 0.032,0.721 2.4e-4,0.004 -0.001,0.0353 0,0.0481 8e-5,0.006 -7e-5,0.0116 0,0.0155 3.7e-4,0.006 -4e-4,0.01 0,0.0155 3.5e-4,0.006 -3.6e-4,0.01 0,0.0155 0.002,0.0174 0.0155,0.0312 0.0155,0.0481 0.002,0.0391 -0.002,0.0752 0,0.0961 0.006,0.0566 0.0378,0.0915 0.0481,0.14418 0.16375,1.48579 0.6201,2.9029 1.39393,4.14976 0.99843,1.73019 2.50732,4.31343 3.1965,5.47958 0.46285,-1.10104 0.82741,-2.24831 0.92928,-3.57294 0.006,-0.0851 0.0401,-0.25949 0.0541,-0.35851 -0.44285,-0.76516 -1.68678,-2.92676 -1.74442,-3.02218 -0.57581,-0.92795 -0.9354,-1.97609 -1.04143,-3.07626 -2.1e-4,-0.01 3.7e-4,-0.0215 0,-0.032 -3.5e-4,-0.004 -0.032,-0.5198 -0.032,-0.67294 0,-0.0174 0.008,-0.46254 0.0155,-0.56076 0.002,-0.0258 -5e-5,-0.0475 0,-0.0481 4e-4,-0.004 0.0302,-0.24176 0.032,-0.25637 0.0174,-0.12131 0.0603,-0.47932 0.08,-0.57679 0.57074,-2.8034 2.79561,-4.987013 5.60776,-5.52766 0.0174,-0.0019 0.008,0.0058 0.0481,0 0.1153,-0.02093 0.22202,-0.04845 0.33646,-0.06414 0.12131,-0.01744 0.19578,-0.02422 0.27238,-0.03197 0.0155,-0.0014 0.50224,-0.031 0.5127,-0.03197 0.11898,-0.0039 0.25321,-0.0058 0.4326,0 h 0.99337 c 0.5503,-0.961189 1.06684,-1.936756 1.68234,-2.851961 h -2.62764 c -0.18525,-0.0078 -0.35812,-0.0058 -0.54475,0 z"
         sodipodi:nodetypes="scssscccscscsccsscscccccccccccsccccccsccccccccsccccccccccccccccc" />
      <path
         id="path1933"
         style="clip-rule:evenodd;fill:#ff1a3c;fill-opacity:1;fill-rule:nonzero;stroke:none;stroke-width:0.51271;stroke-linecap:round;stroke-linejoin:round"
         d="m 136.83488,90.513783 c -0.67889,0.712317 -1.27725,1.586285 -1.90665,2.40334 0.4176,0.659996 0.88659,1.298405 1.442,1.84254 h -2.91604 c -0.61551,0.915185 -1.13205,1.890772 -1.68233,2.851961 h 11.552 c 1.89697,0 1.89697,-2.851961 0,-2.851961 -2.91973,0 -5.39548,-1.742569 -6.48898,-4.24588 z m 19.2747,4.24588 c -1.897,0 -1.897,2.851961 0,2.851961 1.36863,0 2.64093,0.388064 3.72414,1.051451 1.67056,0.319679 3.33219,0.619826 4.94987,1.172622 -0.46252,-0.819767 -1.0356,-1.568922 -1.70436,-2.224073 h 5.83207 c 2.30765,0 4.47477,-0.824632 6.15954,-2.134955 -2.42512,0.0903 -4.95326,-0.168007 -7.48938,-0.717006 z m 8.70906,5.133122 c 0.008,0.01356 0.0155,0.02829 0.0231,0.04205 -0.008,-0.01356 -0.0155,-0.0281 -0.0231,-0.04205 z m -1.99376,2.481425 c 0.006,0.0155 0.0116,0.032 0.0174,0.0481 -0.006,-0.0155 -0.0116,-0.032 -0.0174,-0.0481 z m 0.12208,0.38654 c 0.0302,0.10677 0.0577,0.21455 0.0831,0.32344 -0.0258,-0.10852 -0.0523,-0.21693 -0.0831,-0.32344 z m 0.14921,0.62786 c 0.031,0.16607 0.0577,0.33371 0.0771,0.5037 -0.0198,-0.16995 -0.0455,-0.33776 -0.0771,-0.5037 z m 2.90502,0.24634 c 0.004,0.0353 0.006,0.0707 0.01,0.10619 -0.004,-0.0353 -0.006,-0.0709 -0.01,-0.10619 z m -2.81088,0.42961 c 0.0194,0.21256 0.0331,0.42715 0.0331,0.64488 0,-0.21793 -0.0136,-0.43238 -0.0331,-0.64488 z m 0.0331,0.64488 c 0,0.23091 -0.0136,0.45877 -0.0351,0.68395 0.0213,-0.22545 0.0351,-0.45275 0.0351,-0.68395 z m -0.0591,0.87722 c -0.0194,0.15658 -0.042,0.31151 -0.0711,0.46465 0.0291,-0.15289 0.0519,-0.30832 0.0711,-0.46465 z m -0.12324,0.70697 c -0.0308,0.13565 -0.0649,0.27009 -0.1031,0.40256 0.0384,-0.13274 0.0725,-0.26678 0.1031,-0.40256 z m -0.17615,0.6419 c -0.0442,0.13487 -0.0932,0.26736 -0.14514,0.39855 0.0519,-0.13119 0.10096,-0.2636 0.14514,-0.39855 z m -0.22632,0.60384 c -0.0736,0.17034 -0.15502,0.33659 -0.24133,0.49968 0.0864,-0.16316 0.16762,-0.32925 0.24133,-0.49968 z m -0.27838,0.57479 c -0.10406,0.19107 -0.2169,0.37682 -0.33747,0.55677 0.12053,-0.18002 0.23341,-0.36563 0.33747,-0.55677 z m -0.42959,0.68395 c -0.0858,0.12208 -0.17421,0.2422 -0.26738,0.35849 0.0136,-0.0174 0.031,-0.0331 0.0452,-0.0512 0.0779,-0.0994 0.1496,-0.20393 0.22232,-0.30741 z m -0.65291,0.7981 c -0.0366,0.0388 -0.0705,0.0802 -0.10812,0.11821 0.0376,-0.038 0.0715,-0.0793 0.10812,-0.11821 z m -0.66292,0.62387 c -0.0316,0.0258 -0.0661,0.0479 -0.0981,0.0731 0.032,-0.0252 0.0665,-0.0473 0.0981,-0.0731 z m -0.58882,0.4296 c -0.15948,0.10502 -0.32258,0.20513 -0.49067,0.29741 0.1682,-0.0924 0.33115,-0.19223 0.49067,-0.29741 z m -0.57078,0.33946 c -0.18254,0.0971 -0.36824,0.18913 -0.55979,0.27038 0.19165,-0.0814 0.37719,-0.17324 0.55979,-0.27038 z m -0.61285,0.2904 c -0.18855,0.0783 -0.3805,0.14921 -0.5768,0.2113 0.19622,-0.062 0.38841,-0.13313 0.5768,-0.2113 z m -32.58215,0.22331 c -0.0116,0.0973 -0.0733,0.28116 -0.08,0.36851 -0.10193,1.32465 -0.46643,2.4719 -0.92927,3.57296 1.06763,1.84704 1.33024,2.29498 3.09228,5.3514 0.01,0.0174 6.33609,10.99674 6.3608,11.03929 2.17067,3.75972 6.40066,5.56101 10.43146,4.81468 -0.87703,-0.91243 -1.80184,-1.84194 -2.55755,-2.70875 0.0339,0.004 0.069,0.004 0.10309,0.006 -2.21932,-0.20041 -4.3061,-1.43725 -5.50963,-3.52188 -0.0205,-0.0355 -8.14346,-14.14032 -10.91111,-18.92221 z m 31.95225,0.006 c -0.20027,0.0616 -0.40539,0.11317 -0.61285,0.15716 0.20754,-0.044 0.4125,-0.0955 0.61285,-0.15716 z m -0.71999,0.17925 c -0.20417,0.0401 -0.41076,0.0719 -0.62087,0.0942 0.21004,-0.0223 0.41676,-0.0541 0.62087,-0.0942 z m -0.70798,0.10212 c -0.2223,0.0207 -0.44709,0.0341 -0.67493,0.0341 0.2279,0 0.45259,-0.0136 0.67493,-0.0341 z m -9.90372,21.2314 c -0.18486,0.10677 -0.37395,0.19986 -0.56378,0.2884 0.19145,-0.0878 0.38008,-0.18234 0.56378,-0.2884 z m -0.94832,0.44963 c -0.0407,0.0155 -0.0814,0.0328 -0.12208,0.0481 0.0411,-0.0155 0.0814,-0.0322 0.12208,-0.0481 z m 1.53614,2.44738 c -0.10813,0.0494 -0.21834,0.0909 -0.32745,0.13623 0.10909,-0.0455 0.2192,-0.0864 0.32745,-0.13623 z m -0.86019,0.34449 c -0.13081,0.0459 -0.26281,0.086 -0.39456,0.12615 0.13196,-0.0401 0.26352,-0.0802 0.39456,-0.12615 z m -0.87322,0.26036 c -0.13661,0.0343 -0.27346,0.0659 -0.41056,0.0942 0.1372,-0.0281 0.27389,-0.0599 0.41056,-0.0942 z" />
      <path
         id="path1935"
         style="clip-rule:evenodd;fill:#c238ff;fill-opacity:1;fill-rule:nonzero;stroke:none;stroke-width:0.51271;stroke-linecap:round;stroke-linejoin:round"
         d="m 159.83372,98.663075 c 2.05403,1.240756 3.38565,3.460545 3.38569,6.045375 0,1.13383 -0.26805,2.20146 -0.73702,3.15135 0.75809,0.5155 1.5504,1.10031 2.24512,1.82553 0.84388,-1.46281 1.32785,-3.16116 1.32785,-4.97688 0,-1.74338 -0.41979,-3.47033 -1.27176,-4.872753 -1.63668,-0.559734 -3.25941,-0.848699 -4.94988,-1.172622 z m 4.85272,11.092365 c -0.0452,0.0787 -0.093,0.15502 -0.1401,0.23232 0.0479,-0.0765 0.0944,-0.15425 0.1401,-0.23232 z m -7.03573,1.89764 c -0.0174,0.004 -0.0368,0.008 -0.055,0.0116 0.0174,-0.004 0.0368,-0.008 0.055,-0.0116 z m -0.43862,0.0812 c -0.049,0.008 -0.0979,0.0155 -0.14726,0.0221 0.0492,-0.006 0.0982,-0.0136 0.14726,-0.0221 z m -0.50269,0.0601 c -0.038,0.004 -0.076,0.008 -0.11412,0.01 0.0384,-0.002 0.076,-0.008 0.11412,-0.01 z m -11.40279,0.0281 c -1.09515,0 -1.78113,1.18243 -1.2337,2.13095 l 0.17614,0.30443 c 0.70918,-0.85229 1.42181,-1.72626 2.11494,-2.43538 z m 11.34271,2.8209 c -0.0597,0.002 -0.11917,0.004 -0.17924,0.006 0.0597,-0.002 0.11975,-0.002 0.17924,-0.006 z m -0.42558,0.0116 -8.44971,0.004 h 8.33155 c 0.0395,0 0.0787,-0.002 0.1182,-0.004 z m -6.75136,8.65498 c 0.11608,0.20095 0.21893,0.40519 0.31344,0.61186 -0.0942,-0.20653 -0.19731,-0.41074 -0.31344,-0.61186 z m 0.33848,0.66492 c 0.0858,0.19165 0.16064,0.38647 0.22831,0.5818 -0.0672,-0.19539 -0.14262,-0.3899 -0.22831,-0.5818 z m 0.26637,0.68896 c 0.0572,0.17402 0.10406,0.34968 0.14727,0.52573 -0.0426,-0.17615 -0.0903,-0.35148 -0.14727,-0.52573 z m 0.19426,0.72401 c 0.032,0.14843 0.056,0.29741 0.0781,0.44662 -0.0215,-0.14921 -0.0467,-0.29805 -0.0781,-0.44662 z m -0.14921,3.5349 c -0.50292,1.6659 -1.61175,3.15344 -3.24549,4.09666 -1.33022,0.76805 -2.88789,1.05103 -4.30297,0.92029 0.75811,0.86955 1.68607,1.80256 2.56556,2.71776 1.08069,-0.20201 2.15545,-0.5892 3.16338,-1.17062 2.0795,-1.20076 3.5599,-3.03266 4.34103,-5.11208 -1.01979,-0.57365 -1.66715,-0.96743 -2.52151,-1.45201 z m 2.52151,1.45201 c 0.0219,-0.0583 0.0413,-0.11743 0.062,-0.17615 -0.0213,0.0585 -0.0397,0.11802 -0.062,0.17615 z"
         sodipodi:nodetypes="ccccsccccccccccccccscccscccccsccccccccccccccccccccccc" />
      <path
         shape-rendering="optimizeQuality"
         stroke="#383eff"
         stroke-width="0.820336"
         d="m 162.4666,107.84883 c -1.1598,2.34915 -3.55672,3.97352 -6.36084,3.97352 h -9.74149 c -0.69313,0.70914 -1.40576,1.5831 -2.11493,2.43537 l 5.22323,9.05258 c 1.02718,1.77909 1.19072,3.79363 0.64089,5.60777 0.8591,0.48706 1.50729,0.88134 2.53084,1.45711 1.03628,-2.69291 0.88151,-5.84587 -0.70431,-8.49089 l -4.16577,-7.22599 8.51144,-0.004 c 3.67295,0 6.73809,-1.9466 8.44347,-4.96863 -0.69979,-0.73077 -1.49931,-1.31942 -2.26253,-1.83775 z"
         fill="#383eff"
         stroke-linecap="square"
         opacity="1"
         stroke-linejoin="round"
         id="path1937"
         style="clip-rule:evenodd;fill:#1e35ff;fill-opacity:1;fill-rule:nonzero;stroke:none;stroke-linecap:round;stroke-linejoin:round" />
    </g>
  </g>
  <g
     inkscape:label="content"
     inkscape:groupmode="layer"
     id="layer1">
    <g
       id="g2179"
       transform="matrix(2.022715,0,0,2.022715,-148.82634,-112.56683)">
      <g
         id="g26282"
         style="fill:#ffffff;fill-opacity:1">
        <path
           d="m 79.089312,90.513783 q 2.8956,0 5.0038,1.0922 2.1336,1.0668 3.251199,3.0734 1.143,2.0066 1.143,4.7244 0,2.717797 -1.143,4.724397 -1.117599,1.9812 -3.251199,3.048 -2.1082,1.0414 -5.0038,1.0414 h -5.5118 V 90.513783 Z m 0,15.798797 q 3.429,0 5.2324,-1.8034 1.8034,-1.8288 1.8034,-5.105397 0,-3.302 -1.8288,-5.1562 -1.8034,-1.8542 -5.207,-1.8542 h -3.2004 v 13.919197 z"
           style="font-size:25.4px;line-height:1.25;font-family:Poppins;-inkscape-font-specification:Poppins;fill:#ffffff;fill-opacity:1;stroke-width:0.264583"
           id="path23070" />
        <path
           d="m 104.2361,100.72458 q 0,0.6604 -0.0762,1.397 H 93.034705 q 0.127,2.0574 1.397,3.2258 1.2954,1.143 3.1242,1.143 1.4986,0 2.489195,-0.6858 1.016,-0.7112 1.4224,-1.8796 h 2.4892 q -0.5588,2.0066 -2.2352,3.2766 -1.6764,1.2446 -4.165595,1.2446 -1.9812,0 -3.556,-0.889 -1.5494,-0.889 -2.4384,-2.5146 -0.889,-1.651 -0.889,-3.81 0,-2.158997 0.8636,-3.784597 0.8636,-1.6256 2.413,-2.4892 1.5748,-0.889 3.6068,-0.889 1.9812,0 3.505195,0.8636 1.524,0.8636 2.3368,2.3876 0.8382,1.4986 0.8382,3.403597 z m -2.3876,-0.4826 q 0,-1.320797 -0.5842,-2.260597 -0.5842,-0.9652 -1.600195,-1.4478 -0.9906,-0.508 -2.2098,-0.508 -1.7526,0 -2.9972,1.1176 -1.2192,1.1176 -1.397,3.098797 z"
           style="font-size:25.4px;line-height:1.25;font-family:Poppins;-inkscape-font-specification:Poppins;fill:#ffffff;fill-opacity:1;stroke-width:0.264583"
           id="path23072" />
        <path
           d="m 119.96228,100.72458 q 0,0.6604 -0.0762,1.397 h -11.1252 q 0.127,2.0574 1.397,3.2258 1.2954,1.143 3.1242,1.143 1.4986,0 2.4892,-0.6858 1.016,-0.7112 1.4224,-1.8796 h 2.4892 q -0.5588,2.0066 -2.2352,3.2766 -1.6764,1.2446 -4.1656,1.2446 -1.9812,0 -3.556,-0.889 -1.5494,-0.889 -2.4384,-2.5146 -0.889,-1.651 -0.889,-3.81 0,-2.158997 0.8636,-3.784597 0.8636,-1.6256 2.413,-2.4892 1.5748,-0.889 3.6068,-0.889 1.9812,0 3.5052,0.8636 1.524,0.8636 2.3368,2.3876 0.8382,1.4986 0.8382,3.403597 z m -2.3876,-0.4826 q 0,-1.320797 -0.5842,-2.260597 -0.5842,-0.9652 -1.6002,-1.4478 -0.9906,-0.508 -2.2098,-0.508 -1.7526,0 -2.9972,1.1176 -1.2192,1.1176 -1.397,3.098797 z"
           style="font-size:25.4px;line-height:1.25;font-family:Poppins;-inkscape-font-specification:Poppins;fill:#ffffff;fill-opacity:1;stroke-width:0.264583"
           id="path23074" />
        <path
           d="m 125.29985,96.863783 q 0.6858,-1.1938 2.032,-1.9812 1.3716,-0.8128 3.175,-0.8128 1.8542,0 3.3528,0.889 1.524,0.889 2.3876,2.5146 0.8636,1.6002 0.8636,3.733797 0,2.1082 -0.8636,3.7592 -0.8636,1.651 -2.3876,2.5654 -1.4986,0.9144 -3.3528,0.9144 -1.778,0 -3.1496,-0.7874 -1.3462,-0.8128 -2.0574,-2.0066 v 9.1694 h -2.3114 V 94.298383 h 2.3114 z m 9.4488,4.343397 q 0,-1.574797 -0.635,-2.743197 -0.635,-1.1684 -1.7272,-1.778 -1.0668,-0.6096 -2.3622,-0.6096 -1.27,0 -2.3622,0.635 -1.0668,0.6096 -1.7272,1.8034 -0.635,1.1684 -0.635,2.717797 0,1.5748 0.635,2.7686 0.6604,1.1684 1.7272,1.8034 1.0922,0.6096 2.3622,0.6096 1.2954,0 2.3622,-0.6096 1.0922,-0.635 1.7272,-1.8034 0.635,-1.1938 0.635,-2.794 z"
           style="font-size:25.4px;line-height:1.25;font-family:Poppins;-inkscape-font-specification:Poppins;fill:#ffffff;fill-opacity:1;stroke-width:0.264583"
           id="path23076" />
      </g>
      <path
         d="m 150.16089,90.513783 v 1.8796 h -7.6962 v 5.969 h 6.2484 v 1.879597 h -6.2484 v 7.9756 h -2.3114 V 90.513783 Z"
         style="font-size:25.4px;line-height:1.25;font-family:Poppins;-inkscape-font-specification:Poppins;fill:#ffffff;fill-opacity:1;stroke-width:0.264583"
         id="path23078" />
      <g
         id="g2119">
        <path
           d="m 140.99305,119.71456 q 1.07784,0 1.74611,0.65749 0.66827,0.6467 0.66827,1.87545 v 3.48144 h -0.97007 v -3.34132 q 0,-0.88384 -0.44192,-1.34731 -0.44191,-0.47424 -1.20719,-0.47424 -0.77604,0 -1.23952,0.48502 -0.45269,0.48503 -0.45269,1.41198 v 3.26587 h -0.98084 v -5.90659 h 0.98084 v 0.84072 q 0.29102,-0.4527 0.78682,-0.7006 0.50659,-0.24791 1.11019,-0.24791 z"
           style="font-size:9.87778px;line-height:1.25;font-family:Poppins;-inkscape-font-specification:Poppins;fill:#c1c1c1;fill-opacity:1;stroke-width:0.288709"
           id="path23043" />
        <path
           d="m 146.03333,124.37086 -1.20719,2.89941 h -0.65748 l 0.78682,-2.89941 z"
           style="font-size:9.87778px;line-height:1.25;font-family:Poppins;-inkscape-font-specification:Poppins;fill:#c1c1c1;fill-opacity:1;stroke-width:0.288709"
           id="path23045" />
        <path
           d="m 151.59232,125.82595 q -0.67905,0 -1.21798,-0.22634 -0.53891,-0.23713 -0.8515,-0.64672 -0.31257,-0.42035 -0.34491,-0.95928 h 1.01318 q 0.0431,0.44192 0.40959,0.72216 0.37723,0.28024 0.98083,0.28024 0.56048,0 0.88384,-0.24789 0.32335,-0.24791 0.32335,-0.62517 0,-0.38802 -0.34491,-0.57125 -0.34491,-0.19402 -1.06707,-0.37725 -0.65748,-0.17245 -1.07785,-0.34491 -0.40957,-0.18324 -0.71137,-0.52815 -0.29102,-0.35568 -0.29102,-0.92695 0,-0.45269 0.26946,-0.82994 0.26947,-0.37725 0.76528,-0.59282 0.4958,-0.22634 1.13173,-0.22634 0.98084,0 1.58444,0.49581 0.60359,0.49581 0.6467,1.35809 h -0.98083 q -0.0323,-0.46349 -0.37726,-0.74372 -0.33413,-0.28024 -0.90538,-0.28024 -0.52815,0 -0.84073,0.22634 -0.31257,0.22636 -0.31257,0.59282 0,0.29102 0.18323,0.48504 0.19402,0.18323 0.47426,0.3018 0.29101,0.1078 0.7976,0.2479 0.63594,0.17245 1.03473,0.34491 0.39881,0.16167 0.67904,0.4958 0.29102,0.33414 0.30181,0.87306 0,0.48503 -0.26946,0.87306 -0.26947,0.38802 -0.76527,0.61438 -0.48504,0.21556 -1.12096,0.21556 z"
           style="font-size:9.87778px;line-height:1.25;font-family:Poppins;-inkscape-font-specification:Poppins;fill:#c1c1c1;fill-opacity:1;stroke-width:0.288709"
           id="path23047" />
        <path
           d="m 155.62868,118.86307 q -0.28024,0 -0.47425,-0.19402 -0.19402,-0.19401 -0.19402,-0.47424 0,-0.28026 0.19402,-0.47427 0.19401,-0.19401 0.47425,-0.19401 0.26946,0 0.4527,0.19401 0.19401,0.19401 0.19401,0.47427 0,0.28023 -0.19401,0.47424 -0.18324,0.19402 -0.4527,0.19402 z m 0.47425,0.95928 v 5.90659 h -0.98083 v -5.90659 z"
           style="font-size:9.87778px;line-height:1.25;font-family:Poppins;-inkscape-font-specification:Poppins;fill:#c1c1c1;fill-opacity:1;stroke-width:0.288709"
           id="path23049" />
        <path
           d="m 164.87762,119.71456 q 0.68981,0 1.22873,0.29101 0.53893,0.28024 0.85151,0.85151 0.31257,0.57126 0.31257,1.39042 v 3.48144 h -0.97006 v -3.34132 q 0,-0.88384 -0.44192,-1.34731 -0.43114,-0.47424 -1.17484,-0.47424 -0.76528,0 -1.21798,0.49581 -0.4527,0.48502 -0.4527,1.41196 v 3.2551 h -0.97005 v -3.34132 q 0,-0.88384 -0.44192,-1.34731 -0.43114,-0.47424 -1.17486,-0.47424 -0.76527,0 -1.21797,0.49581 -0.45269,0.48502 -0.45269,1.41196 v 3.2551 h -0.98084 v -5.90659 h 0.98084 v 0.85149 q 0.29102,-0.46347 0.77605,-0.71137 0.49581,-0.24791 1.08863,-0.24791 0.74371,0 1.31497,0.33413 0.57126,0.33413 0.8515,0.98084 0.24791,-0.62514 0.81916,-0.97006 0.57126,-0.34491 1.27187,-0.34491 z"
           style="font-size:9.87778px;line-height:1.25;font-family:Poppins;-inkscape-font-specification:Poppins;fill:#c1c1c1;fill-opacity:1;stroke-width:0.288709"
           id="path23051" />
        <path
           d="m 169.84969,120.91098 q 0.29102,-0.50659 0.86228,-0.84072 0.58203,-0.34492 1.3473,-0.34492 0.78683,0 1.42276,0.37724 0.64671,0.37725 1.01318,1.06707 0.36646,0.67905 0.36646,1.58444 0,0.89461 -0.36646,1.59521 -0.36647,0.7006 -1.01318,1.08863 -0.63593,0.38802 -1.42276,0.38802 -0.75448,0 -1.33652,-0.33413 -0.57127,-0.34491 -0.87306,-0.85149 v 3.89102 h -0.98084 v -8.709 h 0.98084 z m 4.00959,1.84311 q 0,-0.66827 -0.26946,-1.16407 -0.26947,-0.49581 -0.73293,-0.7545 -0.45271,-0.25868 -1.00241,-0.25868 -0.53892,0 -1.0024,0.26946 -0.45269,0.25868 -0.73293,0.76527 -0.26946,0.49582 -0.26946,1.15329 0,0.66828 0.26946,1.17486 0.28024,0.49581 0.73293,0.76527 0.46348,0.25868 1.0024,0.25868 0.5497,0 1.00241,-0.25868 0.46346,-0.26946 0.73293,-0.76527 0.26946,-0.50658 0.26946,-1.18563 z"
           style="font-size:9.87778px;line-height:1.25;font-family:Poppins;-inkscape-font-specification:Poppins;fill:#c1c1c1;fill-opacity:1;stroke-width:0.288709"
           id="path23053" />
        <path
           d="m 177.13359,117.75289 v 7.97605 h -0.98085 v -7.97605 z"
           style="font-size:9.87778px;line-height:1.25;font-family:Poppins;-inkscape-font-specification:Poppins;fill:#c1c1c1;fill-opacity:1;stroke-width:0.288709"
           id="path23055" />
        <path
           d="m 179.31184,118.86307 q -0.28024,0 -0.47426,-0.19402 -0.19401,-0.19401 -0.19401,-0.47424 0,-0.28026 0.19401,-0.47427 0.19402,-0.19401 0.47426,-0.19401 0.26946,0 0.45269,0.19401 0.19402,0.19401 0.19402,0.47427 0,0.28023 -0.19402,0.47424 -0.18323,0.19402 -0.45269,0.19402 z m 0.47424,0.95928 v 5.90659 h -0.98083 v -5.90659 z"
           style="font-size:9.87778px;line-height:1.25;font-family:Poppins;-inkscape-font-specification:Poppins;fill:#c1c1c1;fill-opacity:1;stroke-width:0.288709"
           id="path23057" />
        <path
           d="m 183.86136,120.63073 h -1.23952 v 5.09821 H 181.641 v -5.09821 h -0.76527 v -0.80838 h 0.76527 v -0.42037 q 0,-0.99162 0.5066,-1.44431 0.51736,-0.46347 1.64909,-0.46347 v 0.81916 q -0.6467,0 -0.91616,0.25868 -0.25869,0.24791 -0.25869,0.82994 v 0.42037 h 1.23952 z"
           style="font-size:9.87778px;line-height:1.25;font-family:Poppins;-inkscape-font-specification:Poppins;fill:#c1c1c1;fill-opacity:1;stroke-width:0.288709"
           id="path23059" />
        <path
           d="m 185.50104,118.86307 q -0.28024,0 -0.47425,-0.19402 -0.19401,-0.19401 -0.19401,-0.47424 0,-0.28026 0.19401,-0.47427 0.19401,-0.19401 0.47425,-0.19401 0.26947,0 0.4527,0.19401 0.19401,0.19401 0.19401,0.47427 0,0.28023 -0.19401,0.47424 -0.18323,0.19402 -0.4527,0.19402 z m 0.47426,0.95928 v 5.90659 h -0.98084 v -5.90659 z"
           style="font-size:9.87778px;line-height:1.25;font-family:Poppins;-inkscape-font-specification:Poppins;fill:#c1c1c1;fill-opacity:1;stroke-width:0.288709"
           id="path23061" />
        <path
           d="m 193.0362,122.5493 q 0,0.28024 -0.0324,0.59282 h -4.72097 q 0.0539,0.87305 0.59282,1.36886 0.5497,0.48503 1.32575,0.48503 0.63594,0 1.05629,-0.29102 0.43114,-0.30179 0.6036,-0.7976 h 1.05629 q -0.23713,0.8515 -0.94851,1.39041 -0.71138,0.52815 -1.76767,0.52815 -0.84072,0 -1.50898,-0.37725 -0.65749,-0.37724 -1.03474,-1.06706 -0.37724,-0.7006 -0.37724,-1.61678 0,-0.91616 0.36646,-1.60598 0.36648,-0.68982 1.02395,-1.0563 0.66828,-0.37724 1.53055,-0.37724 0.84071,0 1.48743,0.36646 0.64671,0.36648 0.99162,1.01318 0.35569,0.63594 0.35569,1.44432 z m -1.01318,-0.20479 q 0,-0.56048 -0.2479,-0.95929 -0.24791,-0.40958 -0.67904,-0.61438 -0.42037,-0.21556 -0.93773,-0.21556 -0.74372,0 -1.27186,0.47425 -0.51736,0.47425 -0.59282,1.31498 z"
           style="font-size:9.87778px;line-height:1.25;font-family:Poppins;-inkscape-font-specification:Poppins;fill:#c1c1c1;fill-opacity:1;stroke-width:0.288709"
           id="path23063" />
        <path
           d="m 193.9539,122.75409 q 0,-0.90539 0.36645,-1.58444 0.36648,-0.68982 1.00241,-1.06707 0.6467,-0.37724 1.44432,-0.37724 0.68982,0 1.28263,0.32335 0.59282,0.31258 0.90539,0.82994 v -3.12574 h 0.99161 v 7.97605 h -0.99161 v -1.11018 q -0.29102,0.52815 -0.86228,0.87306 -0.57126,0.33413 -1.33653,0.33413 -0.78683,0 -1.43353,-0.38802 -0.63593,-0.38803 -1.00241,-1.08863 -0.36645,-0.7006 -0.36645,-1.59521 z m 5.0012,0.0109 q 0,-0.66827 -0.26947,-1.16408 -0.26945,-0.4958 -0.73293,-0.75449 -0.45269,-0.26947 -1.0024,-0.26947 -0.5497,0 -1.00239,0.25869 -0.45269,0.25869 -0.72215,0.7545 -0.26947,0.4958 -0.26947,1.16408 0,0.67904 0.26947,1.18562 0.26946,0.49581 0.72215,0.76527 0.45269,0.25869 1.00239,0.25869 0.54971,0 1.0024,-0.25869 0.46348,-0.26946 0.73293,-0.76527 0.26947,-0.50658 0.26947,-1.17485 z"
           style="font-size:9.87778px;line-height:1.25;font-family:Poppins;-inkscape-font-specification:Poppins;fill:#c1c1c1;fill-opacity:1;stroke-width:0.288709"
           id="path23065" />
        <path
           d="m 201.91681,125.79361 q -0.28023,0 -0.47424,-0.194 -0.19402,-0.19402 -0.19402,-0.47426 0,-0.28024 0.19402,-0.47424 0.19401,-0.19402 0.47424,-0.19402 0.26947,0 0.4527,0.19402 0.19402,0.194 0.19402,0.47424 0,0.28024 -0.19402,0.47426 -0.18323,0.194 -0.4527,0.194 z"
           style="font-size:9.87778px;line-height:1.25;font-family:Poppins;-inkscape-font-specification:Poppins;fill:#c1c1c1;fill-opacity:1;stroke-width:0.288709"
           id="path23067" />
      </g>
      <g
         id="g1625"
         transform="matrix(1.1288232,0,0,1.1288232,-23.488661,-11.014418)">
        <path
           id="path879"
           style="clip-rule:evenodd;fill:#ffd61a;fill-opacity:1;fill-rule:nonzero;stroke:none;stroke-width:0.51271;stroke-linecap:round;stroke-linejoin:round"
           d="m 143.32008,77.71113 c -2.85878,0 -5.42854,1.195779 -7.23967,3.116044 l 0.0136,0.0078 c 4.68903,-1.43967 10.73753,-1.488522 18.45756,-0.272377 h 9.62933 c 2.83001,-0.595816 5.19163,-1.633858 7.47035,-2.462424 -0.87203,-0.248542 -1.79022,-0.389537 -2.7438,-0.389537 -0.79936,0 -24.78807,0 -25.58744,0 z"
           sodipodi:nodetypes="ccccccscc" />
        <path
           id="path881"
           style="clip-rule:evenodd;fill:#ff732b;fill-opacity:1;fill-rule:nonzero;stroke:none;stroke-width:0.205083;stroke-linecap:round;stroke-linejoin:round;stroke-miterlimit:4;stroke-dasharray:none"
           d="m 171.66437,78.095648 c -2.28263,0.829321 -4.64812,1.870522 -7.48336,2.467423 h 4.72655 c 3.93812,0 7.09784,3.159916 7.09784,7.097841 0,3.937924 -3.15972,7.097821 -7.09784,7.097821 h -1.32984 c 2.53612,0.549057 4.97713,0.8113 7.40225,0.720998 l 0.0874,-0.0039 c 2.31023,-1.816689 3.79001,-4.636017 3.79001,-7.815253 0,-4.527075 -3.06729,-8.35218 -7.19297,-9.565245 z m -27.47805,1.607233 c -3.06326,0.04011 -5.7477,0.412732 -8.09223,1.132568 -1.68102,1.780452 -2.72375,4.174026 -2.72375,6.825463 0.14572,1.937899 0.68895,3.914128 1.55789,5.256211 0.62657,-0.813393 1.23384,-1.682671 1.90895,-2.393225 -0.38312,-0.874704 -0.60283,-1.856317 -0.60283,-2.877035 0,-3.937867 3.14779,-7.083792 7.08575,-7.083792 h 11.23156 c -3.86,-0.608063 -7.3021,-0.900342 -10.36534,-0.86019 z m -13.90827,15.055852 c -0.0624,0.0018 -0.20729,0.01356 -0.22432,0.0155 -0.0279,0.0019 -0.43761,0.02616 -0.49668,0.03197 -0.12809,0.01356 -0.25428,0.02713 -0.40056,0.04806 -0.14495,0.01977 -0.27875,0.05503 -0.41657,0.08003 -0.01,0.0014 -0.002,-0.0018 -0.0155,0 0.0194,-0.0039 -0.0791,0.0058 -0.12809,0.0155 -3.90566,0.750298 -7.0181,3.821637 -7.81883,7.754747 -0.0399,0.19612 -0.056,0.34836 -0.0961,0.6569 -0.004,0.0229 -0.0556,0.39713 -0.0641,0.49669 -0.004,0.0353 -0.01,0.36193 -0.0155,0.54476 -5e-4,0.0194 -0.0155,0.23618 -0.0155,0.30441 0,0.22852 0.0136,0.4585 0.032,0.721 2.4e-4,0.004 -0.001,0.0353 0,0.0481 8e-5,0.006 -7e-5,0.0116 0,0.0155 3.7e-4,0.006 -4e-4,0.01 0,0.0155 3.5e-4,0.006 -3.6e-4,0.01 0,0.0155 0.002,0.0174 0.0155,0.0312 0.0155,0.0481 0.002,0.0391 -0.002,0.0752 0,0.0961 0.006,0.0566 0.0378,0.0915 0.0481,0.14418 0.16375,1.48579 0.6201,2.9029 1.39393,4.14976 0.99843,1.73019 2.50732,4.31343 3.1965,5.47958 0.46285,-1.10104 0.82741,-2.24831 0.92928,-3.57294 0.006,-0.0851 0.0401,-0.25949 0.0541,-0.35851 -0.44285,-0.76516 -1.68678,-2.92676 -1.74442,-3.02218 -0.57581,-0.92795 -0.9354,-1.97609 -1.04143,-3.07626 -2.1e-4,-0.01 3.7e-4,-0.0215 0,-0.032 -3.5e-4,-0.004 -0.032,-0.5198 -0.032,-0.67294 0,-0.0174 0.008,-0.46254 0.0155,-0.56076 0.002,-0.0258 -5e-5,-0.0475 0,-0.0481 4e-4,-0.004 0.0302,-0.24176 0.032,-0.25637 0.0174,-0.12131 0.0603,-0.47932 0.08,-0.57679 0.57074,-2.8034 2.79561,-4.987013 5.60776,-5.52766 0.0174,-0.0019 0.008,0.0058 0.0481,0 0.1153,-0.02093 0.22202,-0.04845 0.33646,-0.06414 0.12131,-0.01744 0.19578,-0.02422 0.27238,-0.03197 0.0155,-0.0014 0.50224,-0.031 0.5127,-0.03197 0.11898,-0.0039 0.25321,-0.0058 0.4326,0 h 0.99337 c 0.5503,-0.961189 1.06684,-1.936756 1.68234,-2.851961 h -2.62764 c -0.18525,-0.0078 -0.35812,-0.0058 -0.54475,0 z"
           sodipodi:nodetypes="scssscccscscsccsscscccccccccccsccccccsccccccccsccccccccccccccccc" />
        <path
           id="path883"
           style="clip-rule:evenodd;fill:#ff1a3c;fill-opacity:1;fill-rule:nonzero;stroke:none;stroke-width:0.51271;stroke-linecap:round;stroke-linejoin:round"
           d="m 136.83488,90.513783 c -0.67889,0.712317 -1.27725,1.586285 -1.90665,2.40334 0.4176,0.659996 0.88659,1.298405 1.442,1.84254 h -2.91604 c -0.61551,0.915185 -1.13205,1.890772 -1.68233,2.851961 h 11.552 c 1.89697,0 1.89697,-2.851961 0,-2.851961 -2.91973,0 -5.39548,-1.742569 -6.48898,-4.24588 z m 19.2747,4.24588 c -1.897,0 -1.897,2.851961 0,2.851961 1.36863,0 2.64093,0.388064 3.72414,1.051451 1.67056,0.319679 3.33219,0.619826 4.94987,1.172622 -0.46252,-0.819767 -1.0356,-1.568922 -1.70436,-2.224073 h 5.83207 c 2.30765,0 4.47477,-0.824632 6.15954,-2.134955 -2.42512,0.0903 -4.95326,-0.168007 -7.48938,-0.717006 z m 8.70906,5.133122 c 0.008,0.01356 0.0155,0.02829 0.0231,0.04205 -0.008,-0.01356 -0.0155,-0.0281 -0.0231,-0.04205 z m -1.99376,2.481425 c 0.006,0.0155 0.0116,0.032 0.0174,0.0481 -0.006,-0.0155 -0.0116,-0.032 -0.0174,-0.0481 z m 0.12208,0.38654 c 0.0302,0.10677 0.0577,0.21455 0.0831,0.32344 -0.0258,-0.10852 -0.0523,-0.21693 -0.0831,-0.32344 z m 0.14921,0.62786 c 0.031,0.16607 0.0577,0.33371 0.0771,0.5037 -0.0198,-0.16995 -0.0455,-0.33776 -0.0771,-0.5037 z m 2.90502,0.24634 c 0.004,0.0353 0.006,0.0707 0.01,0.10619 -0.004,-0.0353 -0.006,-0.0709 -0.01,-0.10619 z m -2.81088,0.42961 c 0.0194,0.21256 0.0331,0.42715 0.0331,0.64488 0,-0.21793 -0.0136,-0.43238 -0.0331,-0.64488 z m 0.0331,0.64488 c 0,0.23091 -0.0136,0.45877 -0.0351,0.68395 0.0213,-0.22545 0.0351,-0.45275 0.0351,-0.68395 z m -0.0591,0.87722 c -0.0194,0.15658 -0.042,0.31151 -0.0711,0.46465 0.0291,-0.15289 0.0519,-0.30832 0.0711,-0.46465 z m -0.12324,0.70697 c -0.0308,0.13565 -0.0649,0.27009 -0.1031,0.40256 0.0384,-0.13274 0.0725,-0.26678 0.1031,-0.40256 z m -0.17615,0.6419 c -0.0442,0.13487 -0.0932,0.26736 -0.14514,0.39855 0.0519,-0.13119 0.10096,-0.2636 0.14514,-0.39855 z m -0.22632,0.60384 c -0.0736,0.17034 -0.15502,0.33659 -0.24133,0.49968 0.0864,-0.16316 0.16762,-0.32925 0.24133,-0.49968 z m -0.27838,0.57479 c -0.10406,0.19107 -0.2169,0.37682 -0.33747,0.55677 0.12053,-0.18002 0.23341,-0.36563 0.33747,-0.55677 z m -0.42959,0.68395 c -0.0858,0.12208 -0.17421,0.2422 -0.26738,0.35849 0.0136,-0.0174 0.031,-0.0331 0.0452,-0.0512 0.0779,-0.0994 0.1496,-0.20393 0.22232,-0.30741 z m -0.65291,0.7981 c -0.0366,0.0388 -0.0705,0.0802 -0.10812,0.11821 0.0376,-0.038 0.0715,-0.0793 0.10812,-0.11821 z m -0.66292,0.62387 c -0.0316,0.0258 -0.0661,0.0479 -0.0981,0.0731 0.032,-0.0252 0.0665,-0.0473 0.0981,-0.0731 z m -0.58882,0.4296 c -0.15948,0.10502 -0.32258,0.20513 -0.49067,0.29741 0.1682,-0.0924 0.33115,-0.19223 0.49067,-0.29741 z m -0.57078,0.33946 c -0.18254,0.0971 -0.36824,0.18913 -0.55979,0.27038 0.19165,-0.0814 0.37719,-0.17324 0.55979,-0.27038 z m -0.61285,0.2904 c -0.18855,0.0783 -0.3805,0.14921 -0.5768,0.2113 0.19622,-0.062 0.38841,-0.13313 0.5768,-0.2113 z m -32.58215,0.22331 c -0.0116,0.0973 -0.0733,0.28116 -0.08,0.36851 -0.10193,1.32465 -0.46643,2.4719 -0.92927,3.57296 1.06763,1.84704 1.33024,2.29498 3.09228,5.3514 0.01,0.0174 6.33609,10.99674 6.3608,11.03929 2.17067,3.75972 6.40066,5.56101 10.43146,4.81468 -0.87703,-0.91243 -1.80184,-1.84194 -2.55755,-2.70875 0.0339,0.004 0.069,0.004 0.10309,0.006 -2.21932,-0.20041 -4.3061,-1.43725 -5.50963,-3.52188 -0.0205,-0.0355 -8.14346,-14.14032 -10.91111,-18.92221 z m 31.95225,0.006 c -0.20027,0.0616 -0.40539,0.11317 -0.61285,0.15716 0.20754,-0.044 0.4125,-0.0955 0.61285,-0.15716 z m -0.71999,0.17925 c -0.20417,0.0401 -0.41076,0.0719 -0.62087,0.0942 0.21004,-0.0223 0.41676,-0.0541 0.62087,-0.0942 z m -0.70798,0.10212 c -0.2223,0.0207 -0.44709,0.0341 -0.67493,0.0341 0.2279,0 0.45259,-0.0136 0.67493,-0.0341 z m -9.90372,21.2314 c -0.18486,0.10677 -0.37395,0.19986 -0.56378,0.2884 0.19145,-0.0878 0.38008,-0.18234 0.56378,-0.2884 z m -0.94832,0.44963 c -0.0407,0.0155 -0.0814,0.0328 -0.12208,0.0481 0.0411,-0.0155 0.0814,-0.0322 0.12208,-0.0481 z m 1.53614,2.44738 c -0.10813,0.0494 -0.21834,0.0909 -0.32745,0.13623 0.10909,-0.0455 0.2192,-0.0864 0.32745,-0.13623 z m -0.86019,0.34449 c -0.13081,0.0459 -0.26281,0.086 -0.39456,0.12615 0.13196,-0.0401 0.26352,-0.0802 0.39456,-0.12615 z m -0.87322,0.26036 c -0.13661,0.0343 -0.27346,0.0659 -0.41056,0.0942 0.1372,-0.0281 0.27389,-0.0599 0.41056,-0.0942 z" />
        <path
           id="path885"
           style="clip-rule:evenodd;fill:#c238ff;fill-opacity:1;fill-rule:nonzero;stroke:none;stroke-width:0.51271;stroke-linecap:round;stroke-linejoin:round"
           d="m 159.83372,98.663075 c 2.05403,1.240756 3.38565,3.460545 3.38569,6.045375 0,1.13383 -0.26805,2.20146 -0.73702,3.15135 0.75809,0.5155 1.5504,1.10031 2.24512,1.82553 0.84388,-1.46281 1.32785,-3.16116 1.32785,-4.97688 0,-1.74338 -0.41979,-3.47033 -1.27176,-4.872753 -1.63668,-0.559734 -3.25941,-0.848699 -4.94988,-1.172622 z m 4.85272,11.092365 c -0.0452,0.0787 -0.093,0.15502 -0.1401,0.23232 0.0479,-0.0765 0.0944,-0.15425 0.1401,-0.23232 z m -7.03573,1.89764 c -0.0174,0.004 -0.0368,0.008 -0.055,0.0116 0.0174,-0.004 0.0368,-0.008 0.055,-0.0116 z m -0.43862,0.0812 c -0.049,0.008 -0.0979,0.0155 -0.14726,0.0221 0.0492,-0.006 0.0982,-0.0136 0.14726,-0.0221 z m -0.50269,0.0601 c -0.038,0.004 -0.076,0.008 -0.11412,0.01 0.0384,-0.002 0.076,-0.008 0.11412,-0.01 z m -11.40279,0.0281 c -1.09515,0 -1.78113,1.18243 -1.2337,2.13095 l 0.17614,0.30443 c 0.70918,-0.85229 1.42181,-1.72626 2.11494,-2.43538 z m 11.34271,2.8209 c -0.0597,0.002 -0.11917,0.004 -0.17924,0.006 0.0597,-0.002 0.11975,-0.002 0.17924,-0.006 z m -0.42558,0.0116 -8.44971,0.004 h 8.33155 c 0.0395,0 0.0787,-0.002 0.1182,-0.004 z m -6.75136,8.65498 c 0.11608,0.20095 0.21893,0.40519 0.31344,0.61186 -0.0942,-0.20653 -0.19731,-0.41074 -0.31344,-0.61186 z m 0.33848,0.66492 c 0.0858,0.19165 0.16064,0.38647 0.22831,0.5818 -0.0672,-0.19539 -0.14262,-0.3899 -0.22831,-0.5818 z m 0.26637,0.68896 c 0.0572,0.17402 0.10406,0.34968 0.14727,0.52573 -0.0426,-0.17615 -0.0903,-0.35148 -0.14727,-0.52573 z m 0.19426,0.72401 c 0.032,0.14843 0.056,0.29741 0.0781,0.44662 -0.0215,-0.14921 -0.0467,-0.29805 -0.0781,-0.44662 z m -0.14921,3.5349 c -0.50292,1.6659 -1.61175,3.15344 -3.24549,4.09666 -1.33022,0.76805 -2.88789,1.05103 -4.30297,0.92029 0.75811,0.86955 1.68607,1.80256 2.56556,2.71776 1.08069,-0.20201 2.15545,-0.5892 3.16338,-1.17062 2.0795,-1.20076 3.5599,-3.03266 4.34103,-5.11208 -1.01979,-0.57365 -1.66715,-0.96743 -2.52151,-1.45201 z m 2.52151,1.45201 c 0.0219,-0.0583 0.0413,-0.11743 0.062,-0.17615 -0.0213,0.0585 -0.0397,0.11802 -0.062,0.17615 z"
           sodipodi:nodetypes="ccccsccccccccccccccscccscccccsccccccccccccccccccccccc" />
        <path
           shape-rendering="optimizeQuality"
           stroke="#383eff"
           stroke-width="0.820336"
           d="m 162.4666,107.84883 c -1.1598,2.34915 -3.55672,3.97352 -6.36084,3.97352 h -9.74149 c -0.69313,0.70914 -1.40576,1.5831 -2.11493,2.43537 l 5.22323,9.05258 c 1.02718,1.77909 1.19072,3.79363 0.64089,5.60777 0.8591,0.48706 1.50729,0.88134 2.53084,1.45711 1.03628,-2.69291 0.88151,-5.84587 -0.70431,-8.49089 l -4.16577,-7.22599 8.51144,-0.004 c 3.67295,0 6.73809,-1.9466 8.44347,-4.96863 -0.69979,-0.73077 -1.49931,-1.31942 -2.26253,-1.83775 z"
           fill="#383eff"
           stroke-linecap="square"
           opacity="1"
           stroke-linejoin="round"
           id="path887"
           style="clip-rule:evenodd;fill:#1e35ff;fill-opacity:1;fill-rule:nonzero;stroke:none;stroke-linecap:round;stroke-linejoin:round" />
      </g>
      <g
         id="g2078"
         transform="matrix(1.1288232,0,0,1.1288232,-23.488661,-11.014418)"
         style="filter:url(#filter2080)">
        <path
           id="path2068"
           style="clip-rule:evenodd;fill:#ffd61a;fill-opacity:1;fill-rule:nonzero;stroke:none;stroke-width:0.51271;stroke-linecap:round;stroke-linejoin:round"
           d="m 143.32008,77.71113 c -2.85878,0 -5.42854,1.195779 -7.23967,3.116044 l 0.0136,0.0078 c 4.68903,-1.43967 10.73753,-1.488522 18.45756,-0.272377 h 9.62933 c 2.83001,-0.595816 5.19163,-1.633858 7.47035,-2.462424 -0.87203,-0.248542 -1.79022,-0.389537 -2.7438,-0.389537 -0.79936,0 -24.78807,0 -25.58744,0 z"
           sodipodi:nodetypes="ccccccscc" />
        <path
           id="path2070"
           style="clip-rule:evenodd;fill:#ff732b;fill-opacity:1;fill-rule:nonzero;stroke:none;stroke-width:0.205083;stroke-linecap:round;stroke-linejoin:round;stroke-miterlimit:4;stroke-dasharray:none"
           d="m 171.66437,78.095648 c -2.28263,0.829321 -4.64812,1.870522 -7.48336,2.467423 h 4.72655 c 3.93812,0 7.09784,3.159916 7.09784,7.097841 0,3.937924 -3.15972,7.097821 -7.09784,7.097821 h -1.32984 c 2.53612,0.549057 4.97713,0.8113 7.40225,0.720998 l 0.0874,-0.0039 c 2.31023,-1.816689 3.79001,-4.636017 3.79001,-7.815253 0,-4.527075 -3.06729,-8.35218 -7.19297,-9.565245 z m -27.47805,1.607233 c -3.06326,0.04011 -5.7477,0.412732 -8.09223,1.132568 -1.68102,1.780452 -2.72375,4.174026 -2.72375,6.825463 0.14572,1.937899 0.68895,3.914128 1.55789,5.256211 0.62657,-0.813393 1.23384,-1.682671 1.90895,-2.393225 -0.38312,-0.874704 -0.60283,-1.856317 -0.60283,-2.877035 0,-3.937867 3.14779,-7.083792 7.08575,-7.083792 h 11.23156 c -3.86,-0.608063 -7.3021,-0.900342 -10.36534,-0.86019 z m -13.90827,15.055852 c -0.0624,0.0018 -0.20729,0.01356 -0.22432,0.0155 -0.0279,0.0019 -0.43761,0.02616 -0.49668,0.03197 -0.12809,0.01356 -0.25428,0.02713 -0.40056,0.04806 -0.14495,0.01977 -0.27875,0.05503 -0.41657,0.08003 -0.01,0.0014 -0.002,-0.0018 -0.0155,0 0.0194,-0.0039 -0.0791,0.0058 -0.12809,0.0155 -3.90566,0.750298 -7.0181,3.821637 -7.81883,7.754747 -0.0399,0.19612 -0.056,0.34836 -0.0961,0.6569 -0.004,0.0229 -0.0556,0.39713 -0.0641,0.49669 -0.004,0.0353 -0.01,0.36193 -0.0155,0.54476 -5e-4,0.0194 -0.0155,0.23618 -0.0155,0.30441 0,0.22852 0.0136,0.4585 0.032,0.721 2.4e-4,0.004 -0.001,0.0353 0,0.0481 8e-5,0.006 -7e-5,0.0116 0,0.0155 3.7e-4,0.006 -4e-4,0.01 0,0.0155 3.5e-4,0.006 -3.6e-4,0.01 0,0.0155 0.002,0.0174 0.0155,0.0312 0.0155,0.0481 0.002,0.0391 -0.002,0.0752 0,0.0961 0.006,0.0566 0.0378,0.0915 0.0481,0.14418 0.16375,1.48579 0.6201,2.9029 1.39393,4.14976 0.99843,1.73019 2.50732,4.31343 3.1965,5.47958 0.46285,-1.10104 0.82741,-2.24831 0.92928,-3.57294 0.006,-0.0851 0.0401,-0.25949 0.0541,-0.35851 -0.44285,-0.76516 -1.68678,-2.92676 -1.74442,-3.02218 -0.57581,-0.92795 -0.9354,-1.97609 -1.04143,-3.07626 -2.1e-4,-0.01 3.7e-4,-0.0215 0,-0.032 -3.5e-4,-0.004 -0.032,-0.5198 -0.032,-0.67294 0,-0.0174 0.008,-0.46254 0.0155,-0.56076 0.002,-0.0258 -5e-5,-0.0475 0,-0.0481 4e-4,-0.004 0.0302,-0.24176 0.032,-0.25637 0.0174,-0.12131 0.0603,-0.47932 0.08,-0.57679 0.57074,-2.8034 2.79561,-4.987013 5.60776,-5.52766 0.0174,-0.0019 0.008,0.0058 0.0481,0 0.1153,-0.02093 0.22202,-0.04845 0.33646,-0.06414 0.12131,-0.01744 0.19578,-0.02422 0.27238,-0.03197 0.0155,-0.0014 0.50224,-0.031 0.5127,-0.03197 0.11898,-0.0039 0.25321,-0.0058 0.4326,0 h 0.99337 c 0.5503,-0.961189 1.06684,-1.936756 1.68234,-2.851961 h -2.62764 c -0.18525,-0.0078 -0.35812,-0.0058 -0.54475,0 z"
           sodipodi:nodetypes="scssscccscscsccsscscccccccccccsccccccsccccccccsccccccccccccccccc" />
        <path
           id="path2072"
           style="clip-rule:evenodd;fill:#ff1a3c;fill-opacity:1;fill-rule:nonzero;stroke:none;stroke-width:0.51271;stroke-linecap:round;stroke-linejoin:round"
           d="m 136.83488,90.513783 c -0.67889,0.712317 -1.27725,1.586285 -1.90665,2.40334 0.4176,0.659996 0.88659,1.298405 1.442,1.84254 h -2.91604 c -0.61551,0.915185 -1.13205,1.890772 -1.68233,2.851961 h 11.552 c 1.89697,0 1.89697,-2.851961 0,-2.851961 -2.91973,0 -5.39548,-1.742569 -6.48898,-4.24588 z m 19.2747,4.24588 c -1.897,0 -1.897,2.851961 0,2.851961 1.36863,0 2.64093,0.388064 3.72414,1.051451 1.67056,0.319679 3.33219,0.619826 4.94987,1.172622 -0.46252,-0.819767 -1.0356,-1.568922 -1.70436,-2.224073 h 5.83207 c 2.30765,0 4.47477,-0.824632 6.15954,-2.134955 -2.42512,0.0903 -4.95326,-0.168007 -7.48938,-0.717006 z m 8.70906,5.133122 c 0.008,0.01356 0.0155,0.02829 0.0231,0.04205 -0.008,-0.01356 -0.0155,-0.0281 -0.0231,-0.04205 z m -1.99376,2.481425 c 0.006,0.0155 0.0116,0.032 0.0174,0.0481 -0.006,-0.0155 -0.0116,-0.032 -0.0174,-0.0481 z m 0.12208,0.38654 c 0.0302,0.10677 0.0577,0.21455 0.0831,0.32344 -0.0258,-0.10852 -0.0523,-0.21693 -0.0831,-0.32344 z m 0.14921,0.62786 c 0.031,0.16607 0.0577,0.33371 0.0771,0.5037 -0.0198,-0.16995 -0.0455,-0.33776 -0.0771,-0.5037 z m 2.90502,0.24634 c 0.004,0.0353 0.006,0.0707 0.01,0.10619 -0.004,-0.0353 -0.006,-0.0709 -0.01,-0.10619 z m -2.81088,0.42961 c 0.0194,0.21256 0.0331,0.42715 0.0331,0.64488 0,-0.21793 -0.0136,-0.43238 -0.0331,-0.64488 z m 0.0331,0.64488 c 0,0.23091 -0.0136,0.45877 -0.0351,0.68395 0.0213,-0.22545 0.0351,-0.45275 0.0351,-0.68395 z m -0.0591,0.87722 c -0.0194,0.15658 -0.042,0.31151 -0.0711,0.46465 0.0291,-0.15289 0.0519,-0.30832 0.0711,-0.46465 z m -0.12324,0.70697 c -0.0308,0.13565 -0.0649,0.27009 -0.1031,0.40256 0.0384,-0.13274 0.0725,-0.26678 0.1031,-0.40256 z m -0.17615,0.6419 c -0.0442,0.13487 -0.0932,0.26736 -0.14514,0.39855 0.0519,-0.13119 0.10096,-0.2636 0.14514,-0.39855 z m -0.22632,0.60384 c -0.0736,0.17034 -0.15502,0.33659 -0.24133,0.49968 0.0864,-0.16316 0.16762,-0.32925 0.24133,-0.49968 z m -0.27838,0.57479 c -0.10406,0.19107 -0.2169,0.37682 -0.33747,0.55677 0.12053,-0.18002 0.23341,-0.36563 0.33747,-0.55677 z m -0.42959,0.68395 c -0.0858,0.12208 -0.17421,0.2422 -0.26738,0.35849 0.0136,-0.0174 0.031,-0.0331 0.0452,-0.0512 0.0779,-0.0994 0.1496,-0.20393 0.22232,-0.30741 z m -0.65291,0.7981 c -0.0366,0.0388 -0.0705,0.0802 -0.10812,0.11821 0.0376,-0.038 0.0715,-0.0793 0.10812,-0.11821 z m -0.66292,0.62387 c -0.0316,0.0258 -0.0661,0.0479 -0.0981,0.0731 0.032,-0.0252 0.0665,-0.0473 0.0981,-0.0731 z m -0.58882,0.4296 c -0.15948,0.10502 -0.32258,0.20513 -0.49067,0.29741 0.1682,-0.0924 0.33115,-0.19223 0.49067,-0.29741 z m -0.57078,0.33946 c -0.18254,0.0971 -0.36824,0.18913 -0.55979,0.27038 0.19165,-0.0814 0.37719,-0.17324 0.55979,-0.27038 z m -0.61285,0.2904 c -0.18855,0.0783 -0.3805,0.14921 -0.5768,0.2113 0.19622,-0.062 0.38841,-0.13313 0.5768,-0.2113 z m -32.58215,0.22331 c -0.0116,0.0973 -0.0733,0.28116 -0.08,0.36851 -0.10193,1.32465 -0.46643,2.4719 -0.92927,3.57296 1.06763,1.84704 1.33024,2.29498 3.09228,5.3514 0.01,0.0174 6.33609,10.99674 6.3608,11.03929 2.17067,3.75972 6.40066,5.56101 10.43146,4.81468 -0.87703,-0.91243 -1.80184,-1.84194 -2.55755,-2.70875 0.0339,0.004 0.069,0.004 0.10309,0.006 -2.21932,-0.20041 -4.3061,-1.43725 -5.50963,-3.52188 -0.0205,-0.0355 -8.14346,-14.14032 -10.91111,-18.92221 z m 31.95225,0.006 c -0.20027,0.0616 -0.40539,0.11317 -0.61285,0.15716 0.20754,-0.044 0.4125,-0.0955 0.61285,-0.15716 z m -0.71999,0.17925 c -0.20417,0.0401 -0.41076,0.0719 -0.62087,0.0942 0.21004,-0.0223 0.41676,-0.0541 0.62087,-0.0942 z m -0.70798,0.10212 c -0.2223,0.0207 -0.44709,0.0341 -0.67493,0.0341 0.2279,0 0.45259,-0.0136 0.67493,-0.0341 z m -9.90372,21.2314 c -0.18486,0.10677 -0.37395,0.19986 -0.56378,0.2884 0.19145,-0.0878 0.38008,-0.18234 0.56378,-0.2884 z m -0.94832,0.44963 c -0.0407,0.0155 -0.0814,0.0328 -0.12208,0.0481 0.0411,-0.0155 0.0814,-0.0322 0.12208,-0.0481 z m 1.53614,2.44738 c -0.10813,0.0494 -0.21834,0.0909 -0.32745,0.13623 0.10909,-0.0455 0.2192,-0.0864 0.32745,-0.13623 z m -0.86019,0.34449 c -0.13081,0.0459 -0.26281,0.086 -0.39456,0.12615 0.13196,-0.0401 0.26352,-0.0802 0.39456,-0.12615 z m -0.87322,0.26036 c -0.13661,0.0343 -0.27346,0.0659 -0.41056,0.0942 0.1372,-0.0281 0.27389,-0.0599 0.41056,-0.0942 z" />
        <path
           id="path2074"
           style="clip-rule:evenodd;fill:#c238ff;fill-opacity:1;fill-rule:nonzero;stroke:none;stroke-width:0.51271;stroke-linecap:round;stroke-linejoin:round"
           d="m 159.83372,98.663075 c 2.05403,1.240756 3.38565,3.460545 3.38569,6.045375 0,1.13383 -0.26805,2.20146 -0.73702,3.15135 0.75809,0.5155 1.5504,1.10031 2.24512,1.82553 0.84388,-1.46281 1.32785,-3.16116 1.32785,-4.97688 0,-1.74338 -0.41979,-3.47033 -1.27176,-4.872753 -1.63668,-0.559734 -3.25941,-0.848699 -4.94988,-1.172622 z m 4.85272,11.092365 c -0.0452,0.0787 -0.093,0.15502 -0.1401,0.23232 0.0479,-0.0765 0.0944,-0.15425 0.1401,-0.23232 z m -7.03573,1.89764 c -0.0174,0.004 -0.0368,0.008 -0.055,0.0116 0.0174,-0.004 0.0368,-0.008 0.055,-0.0116 z m -0.43862,0.0812 c -0.049,0.008 -0.0979,0.0155 -0.14726,0.0221 0.0492,-0.006 0.0982,-0.0136 0.14726,-0.0221 z m -0.50269,0.0601 c -0.038,0.004 -0.076,0.008 -0.11412,0.01 0.0384,-0.002 0.076,-0.008 0.11412,-0.01 z m -11.40279,0.0281 c -1.09515,0 -1.78113,1.18243 -1.2337,2.13095 l 0.17614,0.30443 c 0.70918,-0.85229 1.42181,-1.72626 2.11494,-2.43538 z m 11.34271,2.8209 c -0.0597,0.002 -0.11917,0.004 -0.17924,0.006 0.0597,-0.002 0.11975,-0.002 0.17924,-0.006 z m -0.42558,0.0116 -8.44971,0.004 h 8.33155 c 0.0395,0 0.0787,-0.002 0.1182,-0.004 z m -6.75136,8.65498 c 0.11608,0.20095 0.21893,0.40519 0.31344,0.61186 -0.0942,-0.20653 -0.19731,-0.41074 -0.31344,-0.61186 z m 0.33848,0.66492 c 0.0858,0.19165 0.16064,0.38647 0.22831,0.5818 -0.0672,-0.19539 -0.14262,-0.3899 -0.22831,-0.5818 z m 0.26637,0.68896 c 0.0572,0.17402 0.10406,0.34968 0.14727,0.52573 -0.0426,-0.17615 -0.0903,-0.35148 -0.14727,-0.52573 z m 0.19426,0.72401 c 0.032,0.14843 0.056,0.29741 0.0781,0.44662 -0.0215,-0.14921 -0.0467,-0.29805 -0.0781,-0.44662 z m -0.14921,3.5349 c -0.50292,1.6659 -1.61175,3.15344 -3.24549,4.09666 -1.33022,0.76805 -2.88789,1.05103 -4.30297,0.92029 0.75811,0.86955 1.68607,1.80256 2.56556,2.71776 1.08069,-0.20201 2.15545,-0.5892 3.16338,-1.17062 2.0795,-1.20076 3.5599,-3.03266 4.34103,-5.11208 -1.01979,-0.57365 -1.66715,-0.96743 -2.52151,-1.45201 z m 2.52151,1.45201 c 0.0219,-0.0583 0.0413,-0.11743 0.062,-0.17615 -0.0213,0.0585 -0.0397,0.11802 -0.062,0.17615 z"
           sodipodi:nodetypes="ccccsccccccccccccccscccscccccsccccccccccccccccccccccc" />
        <path
           shape-rendering="optimizeQuality"
           stroke="#383eff"
           stroke-width="0.820336"
           d="m 162.4666,107.84883 c -1.1598,2.34915 -3.55672,3.97352 -6.36084,3.97352 h -9.74149 c -0.69313,0.70914 -1.40576,1.5831 -2.11493,2.43537 l 5.22323,9.05258 c 1.02718,1.77909 1.19072,3.79363 0.64089,5.60777 0.8591,0.48706 1.50729,0.88134 2.53084,1.45711 1.03628,-2.69291 0.88151,-5.84587 -0.70431,-8.49089 l -4.16577,-7.22599 8.51144,-0.004 c 3.67295,0 6.73809,-1.9466 8.44347,-4.96863 -0.69979,-0.73077 -1.49931,-1.31942 -2.26253,-1.83775 z"
           fill="#383eff"
           stroke-linecap="square"
           opacity="1"
           stroke-linejoin="round"
           id="path2076"
           style="clip-rule:evenodd;fill:#1e35ff;fill-opacity:1;fill-rule:nonzero;stroke:none;stroke-linecap:round;stroke-linejoin:round" />
      </g>
      <g
         id="g2130">
        <path
           d="m 88.929832,118.21635 v 7.51259 h -0.980841 v -7.51259 z"
           style="font-size:9.87778px;line-height:1.25;font-family:Poppins;-inkscape-font-specification:Poppins;fill:#c1c1c1;fill-opacity:1;stroke-width:0.288709"
           id="path23025" />
        <path
           d="m 93.479357,119.71456 q 1.077847,0 1.746112,0.65749 0.668268,0.6467 0.668268,1.87545 v 3.48144 h -0.970066 v -3.34132 q 0,-0.88384 -0.441917,-1.34731 -0.441917,-0.47424 -1.207188,-0.47424 -0.77605,0 -1.239525,0.48502 -0.452696,0.48503 -0.452696,1.41198 v 3.26587 h -0.980841 v -5.90659 h 0.980841 v 0.84072 q 0.291019,-0.4527 0.786828,-0.7006 0.506589,-0.24791 1.110184,-0.24791 z"
           style="font-size:9.87778px;line-height:1.25;font-family:Poppins;-inkscape-font-specification:Poppins;fill:#c1c1c1;fill-opacity:1;stroke-width:0.288709"
           id="path23027" />
        <path
           d="m 100.38432,119.71456 q 1.07785,0 1.74611,0.65749 0.66826,0.6467 0.66826,1.87545 v 3.48144 h -0.97006 v -3.34132 q 0,-0.88384 -0.44192,-1.34731 -0.44192,-0.47424 -1.20719,-0.47424 -0.776046,0 -1.239515,0.48502 -0.452699,0.48503 -0.452699,1.41198 v 3.26587 h -0.980844 v -5.90659 h 0.980844 v 0.84072 q 0.291018,-0.4527 0.78683,-0.7006 0.506581,-0.24791 1.110184,-0.24791 z"
           style="font-size:9.87778px;line-height:1.25;font-family:Poppins;-inkscape-font-specification:Poppins;fill:#c1c1c1;fill-opacity:1;stroke-width:0.288709"
           id="path23029" />
        <path
           d="m 106.98747,125.82595 q -0.82994,0 -1.50899,-0.37725 -0.66826,-0.37724 -1.05628,-1.06706 -0.37725,-0.7006 -0.37725,-1.61678 0,-0.90538 0.38803,-1.59521 0.3988,-0.70059 1.07785,-1.06707 0.67904,-0.37724 1.51975,-0.37724 0.84073,0 1.51978,0.37724 0.67904,0.36648 1.06706,1.0563 0.3988,0.68982 0.3988,1.60598 0,0.91618 -0.40958,1.61678 -0.39879,0.68982 -1.08862,1.06706 -0.68982,0.37725 -1.53055,0.37725 z m 0,-0.86228 q 0.52815,0 0.99162,-0.2479 0.46348,-0.24791 0.74372,-0.74371 0.29102,-0.49581 0.29102,-1.2072 0,-0.71137 -0.28025,-1.20719 -0.28023,-0.49579 -0.73293,-0.73293 -0.45269,-0.2479 -0.98084,-0.2479 -0.53892,0 -0.99162,0.2479 -0.44192,0.23714 -0.71137,0.73293 -0.26947,0.49582 -0.26947,1.20719 0,0.72217 0.25868,1.21797 0.26946,0.49582 0.71138,0.74372 0.44192,0.23712 0.97006,0.23712 z"
           style="font-size:9.87778px;line-height:1.25;font-family:Poppins;-inkscape-font-specification:Poppins;fill:#c1c1c1;fill-opacity:1;stroke-width:0.288709"
           id="path23031" />
        <path
           d="m 113.51518,124.82356 1.83235,-5.00121 h 1.0455 l -2.31736,5.90659 h -1.14252 l -2.31737,-5.90659 h 1.05629 z"
           style="font-size:9.87778px;line-height:1.25;font-family:Poppins;-inkscape-font-specification:Poppins;fill:#c1c1c1;fill-opacity:1;stroke-width:0.288709"
           id="path23033" />
        <path
           d="m 116.99175,122.75409 q 0,-0.90539 0.36646,-1.58444 0.36647,-0.68982 1.00241,-1.06707 0.64671,-0.37724 1.43353,-0.37724 0.77605,0 1.34731,0.33413 0.57126,0.33413 0.8515,0.84073 v -1.07785 h 0.99162 v 5.90659 h -0.99162 v -1.0994 q -0.29102,0.51737 -0.87306,0.86228 -0.57126,0.33413 -1.33652,0.33413 -0.78684,0 -1.42276,-0.38802 -0.63594,-0.38803 -1.00241,-1.08863 -0.36646,-0.7006 -0.36646,-1.59521 z m 5.00121,0.0109 q 0,-0.66827 -0.26946,-1.16408 -0.26946,-0.4958 -0.73293,-0.75449 -0.45271,-0.26947 -1.00241,-0.26947 -0.5497,0 -1.00239,0.25869 -0.4527,0.25869 -0.72216,0.7545 -0.26947,0.4958 -0.26947,1.16408 0,0.67904 0.26947,1.18562 0.26946,0.49581 0.72216,0.76527 0.45269,0.25869 1.00239,0.25869 0.5497,0 1.00241,-0.25869 0.46347,-0.26946 0.73293,-0.76527 0.26946,-0.50658 0.26946,-1.17485 z"
           style="font-size:9.87778px;line-height:1.25;font-family:Poppins;-inkscape-font-specification:Poppins;fill:#c1c1c1;fill-opacity:1;stroke-width:0.288709"
           id="path23035" />
        <path
           d="m 125.83852,120.63073 v 3.48145 q 0,0.43114 0.18323,0.61437 0.18323,0.17245 0.63593,0.17245 h 0.72216 v 0.82994 H 126.496 q -0.81916,0 -1.22875,-0.37724 -0.40957,-0.37724 -0.40957,-1.23952 v -3.48145 h -0.76527 v -0.80838 h 0.76527 v -1.48743 h 0.98084 v 1.48743 h 1.54132 v 0.80838 z"
           style="font-size:9.87778px;line-height:1.25;font-family:Poppins;-inkscape-font-specification:Poppins;fill:#c1c1c1;fill-opacity:1;stroke-width:0.288709"
           id="path23037" />
        <path
           d="m 129.06431,118.86307 q -0.28024,0 -0.47426,-0.19402 -0.194,-0.19401 -0.194,-0.47424 0,-0.28026 0.194,-0.47427 0.19402,-0.19401 0.47426,-0.19401 0.26947,0 0.4527,0.19401 0.19401,0.19401 0.19401,0.47427 0,0.28023 -0.19401,0.47424 -0.18323,0.19402 -0.4527,0.19402 z m 0.47425,0.95928 v 5.90659 h -0.98083 v -5.90659 z"
           style="font-size:9.87778px;line-height:1.25;font-family:Poppins;-inkscape-font-specification:Poppins;fill:#c1c1c1;fill-opacity:1;stroke-width:0.288709"
           id="path23039" />
        <path
           d="m 133.78629,125.82595 q -0.82993,0 -1.50898,-0.37725 -0.66827,-0.37724 -1.0563,-1.06706 -0.37725,-0.7006 -0.37725,-1.61678 0,-0.90538 0.38803,-1.59521 0.39881,-0.70059 1.07785,-1.06707 0.67904,-0.37724 1.51977,-0.37724 0.84071,0 1.51976,0.37724 0.67904,0.36648 1.06706,1.0563 0.39881,0.68982 0.39881,1.60598 0,0.91618 -0.40958,1.61678 -0.3988,0.68982 -1.08863,1.06706 -0.68982,0.37725 -1.53054,0.37725 z m 0,-0.86228 q 0.52815,0 0.99162,-0.2479 0.46348,-0.24791 0.74371,-0.74371 0.29103,-0.49581 0.29103,-1.2072 0,-0.71137 -0.28025,-1.20719 -0.28024,-0.49579 -0.73293,-0.73293 -0.4527,-0.2479 -0.98084,-0.2479 -0.53893,0 -0.99163,0.2479 -0.44192,0.23714 -0.71137,0.73293 -0.26947,0.49582 -0.26947,1.20719 0,0.72217 0.25869,1.21797 0.26946,0.49582 0.71137,0.74372 0.44192,0.23712 0.97007,0.23712 z"
           style="font-size:9.87778px;line-height:1.25;font-family:Poppins;-inkscape-font-specification:Poppins;fill:#c1c1c1;fill-opacity:1;stroke-width:0.288709"
           id="path23041" />
      </g>
      <path
         d="m 165.29691,94.298383 v 13.919197 h -2.3114 v -2.0574 q -0.6604,1.0668 -1.8542,1.6764 -1.1684,0.5842 -2.5908,0.5842 -1.6256,0 -2.921,-0.6604 -1.2954,-0.6858 -2.0574,-2.032 -0.7366,-1.3462 -0.7366,-3.2766 v -8.153397 h 2.286 v 7.848597 q 0,2.0574 1.0414,3.175 1.0414,1.0922 2.8448,1.0922 1.8542,0 2.921,-1.143 1.0668,-1.143 1.0668,-3.3274 v -7.645397 z"
         style="font-size:25.4px;line-height:1.25;font-family:Poppins;-inkscape-font-specification:Poppins;fill:#ffffff;fill-opacity:1;stroke-width:0.264583"
         id="path23080" />
      <path
         d="m 174.15199,108.44618 q -1.6002,0 -2.8702,-0.5334 -1.27,-0.5588 -2.0066,-1.524 -0.7366,-0.9906 -0.8128,-2.2606 h 2.3876 q 0.1016,1.0414 0.9652,1.7018 0.889,0.6604 2.3114,0.6604 1.3208,0 2.0828,-0.5842 0.762,-0.5842 0.762,-1.4732 0,-0.9144 -0.8128,-1.3462 -0.8128,-0.4572 -2.5146,-0.889 -1.5494,-0.4064 -2.54,-0.8128 -0.9652,-0.4318 -1.6764,-1.2446 -0.6858,-0.838197 -0.6858,-2.184397 0,-1.0668 0.635,-1.9558 0.635,-0.889 1.8034,-1.397 1.1684,-0.5334 2.667,-0.5334 2.3114,0 3.7338,1.1684 1.4224,1.1684 1.524,3.2004 h -2.3114 q -0.0762,-1.0922 -0.889,-1.7526 -0.7874,-0.6604 -2.1336,-0.6604 -1.2446,0 -1.9812,0.5334 -0.7366,0.5334 -0.7366,1.397 0,0.6858 0.4318,1.143 0.4572,0.4318 1.1176,0.7112 0.6858,0.253997 1.8796,0.584197 1.4986,0.4064 2.4384,0.8128 0.9398,0.381 1.6002,1.1684 0.6858,0.7874 0.7112,2.0574 0,1.143 -0.635,2.0574 -0.635,0.9144 -1.8034,1.4478 -1.143,0.508 -2.6416,0.508 z"
         style="font-size:25.4px;line-height:1.25;font-family:Poppins;-inkscape-font-specification:Poppins;fill:#ffffff;fill-opacity:1;stroke-width:0.264583"
         id="path23082" />
      <path
         d="m 183.66389,92.037783 q -0.6604,0 -1.1176,-0.4572 -0.4572,-0.4572 -0.4572,-1.1176 0,-0.6604 0.4572,-1.1176 0.4572,-0.4572 1.1176,-0.4572 0.635,0 1.0668,0.4572 0.4572,0.4572 0.4572,1.1176 0,0.6604 -0.4572,1.1176 -0.4318,0.4572 -1.0668,0.4572 z m 1.1176,2.2606 v 13.919197 h -2.3114 V 94.298383 Z"
         style="font-size:25.4px;line-height:1.25;font-family:Poppins;-inkscape-font-specification:Poppins;fill:#ffffff;fill-opacity:1;stroke-width:0.264583"
         id="path23084" />
      <path
         d="m 194.79147,108.44618 q -1.9558,0 -3.556,-0.889 -1.5748,-0.889 -2.4892,-2.5146 -0.889,-1.651 -0.889,-3.81 0,-2.133597 0.9144,-3.759197 0.9398,-1.651 2.54,-2.5146 1.6002,-0.889 3.5814,-0.889 1.9812,0 3.5814,0.889 1.6002,0.8636 2.5146,2.4892 0.9398,1.6256 0.9398,3.784597 0,2.159 -0.9652,3.81 -0.9398,1.6256 -2.5654,2.5146 -1.6256,0.889 -3.6068,0.889 z m 0,-2.032 q 1.2446,0 2.3368,-0.5842 1.0922,-0.5842 1.7526,-1.7526 0.6858,-1.1684 0.6858,-2.8448 0,-1.676397 -0.6604,-2.844797 -0.6604,-1.1684 -1.7272,-1.7272 -1.0668,-0.5842 -2.3114,-0.5842 -1.27,0 -2.3368,0.5842 -1.0414,0.5588 -1.6764,1.7272 -0.635,1.1684 -0.635,2.844797 0,1.7018 0.6096,2.8702 0.635,1.1684 1.6764,1.7526 1.0414,0.5588 2.286,0.5588 z"
         style="font-size:25.4px;line-height:1.25;font-family:Poppins;-inkscape-font-specification:Poppins;fill:#ffffff;fill-opacity:1;stroke-width:0.264583"
         id="path23086" />
      <path
         d="m 211.77455,94.044383 q 2.54,0 4.1148,1.5494 1.5748,1.524 1.5748,4.419597 v 8.2042 h -2.286 v -7.874 q 0,-2.082797 -1.0414,-3.174997 -1.0414,-1.1176 -2.8448,-1.1176 -1.8288,0 -2.921,1.143 -1.0668,1.143 -1.0668,3.327397 v 7.6962 h -2.3114 V 94.298383 h 2.3114 v 1.9812 q 0.6858,-1.0668 1.8542,-1.651 1.1938,-0.5842 2.6162,-0.5842 z"
         style="font-size:25.4px;line-height:1.25;font-family:Poppins;-inkscape-font-specification:Poppins;fill:#ffffff;fill-opacity:1;stroke-width:0.264583"
         id="path23088" />
    </g>
  </g>
</svg>
